<svg xmlns="http://www.w3.org/2000/svg" xmlns:rdkit="http://www.rdkit.org/xml" xmlns:xlink="http://www.w3.org/1999/xlink" version="1.1" baseProfile="full" xml:space="preserve" width="800px" height="800px" viewBox="0 0 800 800">
<!-- END OF HEADER -->
<rect style="opacity:1.0;fill:#FFFFFF;stroke:none" width="800.0" height="800.0" x="0.0" y="0.0"> </rect>
<rect style="opacity:1.0;fill:#FFFFFF;stroke:none" width="800.0" height="800.0" x="0.0" y="0.0"> </rect>
<rect style="opacity:1.0;fill:#FFFFFF;stroke:none" width="800.0" height="800.0" x="0.0" y="0.0"> </rect>
<rect style="opacity:1.0;fill:#FFFFFF;stroke:none" width="800.0" height="800.0" x="0.0" y="0.0"> </rect>
<rect style="opacity:1.0;fill:#FFFFFF;stroke:none" width="800.0" height="800.0" x="0.0" y="0.0"> </rect>
<path class="bond-0 atom-0 atom-6" d="M 231.5,129.5 L 236.0,148.1" style="fill:none;fill-rule:evenodd;stroke:#000000;stroke-width:2.0px;stroke-linecap:butt;stroke-linejoin:miter;stroke-opacity:1"/>
<path class="bond-1 atom-1 atom-2" d="M 258.8,172.3 L 244.8,185.4" style="fill:none;fill-rule:evenodd;stroke:#000000;stroke-width:2.0px;stroke-linecap:butt;stroke-linejoin:miter;stroke-opacity:1"/>
<path class="bond-1 atom-1 atom-2" d="M 254.0,171.4 L 244.3,180.6" style="fill:none;fill-rule:evenodd;stroke:#000000;stroke-width:2.0px;stroke-linecap:butt;stroke-linejoin:miter;stroke-opacity:1"/>
<path class="bond-2 atom-1 atom-3" d="M 258.8,172.3 L 254.3,153.6" style="fill:none;fill-rule:evenodd;stroke:#000000;stroke-width:2.0px;stroke-linecap:butt;stroke-linejoin:miter;stroke-opacity:1"/>
<path class="bond-3 atom-2 atom-4" d="M 244.8,185.4 L 226.5,179.9" style="fill:none;fill-rule:evenodd;stroke:#000000;stroke-width:2.0px;stroke-linecap:butt;stroke-linejoin:miter;stroke-opacity:1"/>
<path class="bond-4 atom-3 atom-6" d="M 254.3,153.6 L 236.0,148.1" style="fill:none;fill-rule:evenodd;stroke:#000000;stroke-width:2.0px;stroke-linecap:butt;stroke-linejoin:miter;stroke-opacity:1"/>
<path class="bond-4 atom-3 atom-6" d="M 250.5,156.5 L 237.6,152.6" style="fill:none;fill-rule:evenodd;stroke:#000000;stroke-width:2.0px;stroke-linecap:butt;stroke-linejoin:miter;stroke-opacity:1"/>
<path class="bond-5 atom-4 atom-7" d="M 226.5,179.9 L 222.0,161.3" style="fill:none;fill-rule:evenodd;stroke:#000000;stroke-width:2.0px;stroke-linecap:butt;stroke-linejoin:miter;stroke-opacity:1"/>
<path class="bond-5 atom-4 atom-7" d="M 229.5,176.2 L 226.4,163.2" style="fill:none;fill-rule:evenodd;stroke:#000000;stroke-width:2.0px;stroke-linecap:butt;stroke-linejoin:miter;stroke-opacity:1"/>
<path class="bond-6 atom-5 atom-8" d="M 189.7,168.9 L 171.4,163.4" style="fill:none;fill-rule:evenodd;stroke:#000000;stroke-width:2.0px;stroke-linecap:butt;stroke-linejoin:miter;stroke-opacity:1"/>
<path class="bond-7 atom-5 atom-11" d="M 189.7,168.9 L 195.2,163.8" style="fill:none;fill-rule:evenodd;stroke:#000000;stroke-width:2.0px;stroke-linecap:butt;stroke-linejoin:miter;stroke-opacity:1"/>
<path class="bond-7 atom-5 atom-11" d="M 195.2,163.8 L 200.7,158.6" style="fill:none;fill-rule:evenodd;stroke:#FF0000;stroke-width:2.0px;stroke-linecap:butt;stroke-linejoin:miter;stroke-opacity:1"/>
<path class="bond-8 atom-6 atom-7" d="M 236.0,148.1 L 222.0,161.3" style="fill:none;fill-rule:evenodd;stroke:#000000;stroke-width:2.0px;stroke-linecap:butt;stroke-linejoin:miter;stroke-opacity:1"/>
<path class="bond-9 atom-7 atom-11" d="M 222.0,161.3 L 214.3,159.0" style="fill:none;fill-rule:evenodd;stroke:#000000;stroke-width:2.0px;stroke-linecap:butt;stroke-linejoin:miter;stroke-opacity:1"/>
<path class="bond-9 atom-7 atom-11" d="M 214.3,159.0 L 206.6,156.7" style="fill:none;fill-rule:evenodd;stroke:#FF0000;stroke-width:2.0px;stroke-linecap:butt;stroke-linejoin:miter;stroke-opacity:1"/>
<path class="bond-10 atom-8 atom-9" d="M 170.0,162.0 L 164.6,167.2" style="fill:none;fill-rule:evenodd;stroke:#000000;stroke-width:2.0px;stroke-linecap:butt;stroke-linejoin:miter;stroke-opacity:1"/>
<path class="bond-10 atom-8 atom-9" d="M 164.6,167.2 L 159.1,172.4" style="fill:none;fill-rule:evenodd;stroke:#FF0000;stroke-width:2.0px;stroke-linecap:butt;stroke-linejoin:miter;stroke-opacity:1"/>
<path class="bond-10 atom-8 atom-9" d="M 172.7,164.8 L 167.2,170.0" style="fill:none;fill-rule:evenodd;stroke:#000000;stroke-width:2.0px;stroke-linecap:butt;stroke-linejoin:miter;stroke-opacity:1"/>
<path class="bond-10 atom-8 atom-9" d="M 167.2,170.0 L 161.7,175.2" style="fill:none;fill-rule:evenodd;stroke:#FF0000;stroke-width:2.0px;stroke-linecap:butt;stroke-linejoin:miter;stroke-opacity:1"/>
<path class="bond-11 atom-8 atom-10" d="M 171.4,163.4 L 169.5,155.8" style="fill:none;fill-rule:evenodd;stroke:#000000;stroke-width:2.0px;stroke-linecap:butt;stroke-linejoin:miter;stroke-opacity:1"/>
<path class="bond-11 atom-8 atom-10" d="M 169.5,155.8 L 167.7,148.1" style="fill:none;fill-rule:evenodd;stroke:#FF0000;stroke-width:2.0px;stroke-linecap:butt;stroke-linejoin:miter;stroke-opacity:1"/>
<path class="atom-9" d="M 154.9 176.6 Q 154.9 175.3, 155.6 174.6 Q 156.2 173.9, 157.4 173.9 Q 158.6 173.9, 159.3 174.6 Q 159.9 175.3, 159.9 176.6 Q 159.9 177.9, 159.3 178.7 Q 158.6 179.4, 157.4 179.4 Q 156.2 179.4, 155.6 178.7 Q 154.9 177.9, 154.9 176.6 M 157.4 178.8 Q 158.3 178.8, 158.7 178.3 Q 159.1 177.7, 159.1 176.6 Q 159.1 175.5, 158.7 175.0 Q 158.3 174.5, 157.4 174.5 Q 156.6 174.5, 156.1 175.0 Q 155.7 175.5, 155.7 176.6 Q 155.7 177.7, 156.1 178.3 Q 156.6 178.8, 157.4 178.8 " fill="#FF0000"/>
<path class="atom-10" d="M 164.4 144.8 Q 164.4 143.5, 165.1 142.8 Q 165.7 142.0, 166.9 142.0 Q 168.1 142.0, 168.8 142.8 Q 169.4 143.5, 169.4 144.8 Q 169.4 146.1, 168.8 146.9 Q 168.1 147.6, 166.9 147.6 Q 165.7 147.6, 165.1 146.9 Q 164.4 146.1, 164.4 144.8 M 166.9 147.0 Q 167.8 147.0, 168.2 146.5 Q 168.7 145.9, 168.7 144.8 Q 168.7 143.7, 168.2 143.2 Q 167.8 142.7, 166.9 142.7 Q 166.1 142.7, 165.7 143.2 Q 165.2 143.7, 165.2 144.8 Q 165.2 145.9, 165.7 146.5 Q 166.1 147.0, 166.9 147.0 " fill="#FF0000"/>
<path class="atom-10" d="M 170.1 142.1 L 170.8 142.1 L 170.8 144.4 L 173.6 144.4 L 173.6 142.1 L 174.3 142.1 L 174.3 147.5 L 173.6 147.5 L 173.6 145.0 L 170.8 145.0 L 170.8 147.5 L 170.1 147.5 L 170.1 142.1 " fill="#FF0000"/>
<path class="atom-11" d="M 201.2 155.8 Q 201.2 154.5, 201.8 153.8 Q 202.5 153.0, 203.7 153.0 Q 204.9 153.0, 205.5 153.8 Q 206.2 154.5, 206.2 155.8 Q 206.2 157.1, 205.5 157.9 Q 204.9 158.6, 203.7 158.6 Q 202.5 158.6, 201.8 157.9 Q 201.2 157.1, 201.2 155.8 M 203.7 158.0 Q 204.5 158.0, 204.9 157.4 Q 205.4 156.9, 205.4 155.8 Q 205.4 154.7, 204.9 154.2 Q 204.5 153.6, 203.7 153.6 Q 202.8 153.6, 202.4 154.2 Q 201.9 154.7, 201.9 155.8 Q 201.9 156.9, 202.4 157.4 Q 202.8 158.0, 203.7 158.0 " fill="#FF0000"/>
<path d="M 174.3 388.1 Q 174.3 385.2, 175.6 383.8 Q 176.9 382.3, 179.4 382.3 Q 181.8 382.3, 183.0 383.9 L 182.0 384.8 Q 181.1 383.6, 179.4 383.6 Q 177.7 383.6, 176.8 384.7 Q 175.9 385.9, 175.9 388.1 Q 175.9 390.3, 176.9 391.4 Q 177.8 392.6, 179.6 392.6 Q 180.9 392.6, 182.3 391.8 L 182.8 393.0 Q 182.2 393.4, 181.3 393.7 Q 180.4 393.9, 179.4 393.9 Q 176.9 393.9, 175.6 392.4 Q 174.3 390.9, 174.3 388.1 " fill="#000000"/>
<path d="M 184.4 381.6 L 185.9 381.6 L 185.9 393.7 L 184.4 393.7 L 184.4 381.6 " fill="#000000"/>
<path d="M 186.6 391.5 Q 186.6 390.2, 187.6 389.5 Q 188.7 388.8, 190.6 388.8 L 191.8 388.8 L 191.8 388.4 Q 191.8 387.4, 191.4 387.0 Q 191.0 386.6, 190.0 386.6 Q 189.3 386.6, 188.8 386.7 Q 188.3 386.8, 187.5 387.1 L 187.0 386.1 Q 188.5 385.4, 190.0 385.4 Q 191.7 385.4, 192.5 386.1 Q 193.3 386.9, 193.3 388.5 L 193.3 393.7 L 192.2 393.7 Q 192.2 393.7, 192.1 393.4 Q 192.1 393.2, 192.0 392.8 Q 190.8 393.9, 189.3 393.9 Q 188.1 393.9, 187.3 393.3 Q 186.6 392.6, 186.6 391.5 M 188.1 391.5 Q 188.1 392.1, 188.5 392.4 Q 188.9 392.7, 189.6 392.7 Q 190.2 392.7, 190.8 392.5 Q 191.4 392.2, 191.8 391.6 L 191.8 389.9 L 190.7 389.9 Q 189.4 389.9, 188.7 390.3 Q 188.1 390.7, 188.1 391.5 " fill="#000000"/>
<path d="M 194.6 392.0 Q 195.3 392.3, 195.8 392.5 Q 196.4 392.6, 196.9 392.6 Q 197.7 392.6, 198.1 392.3 Q 198.5 392.0, 198.5 391.4 Q 198.5 391.1, 198.2 390.8 Q 198.0 390.6, 197.8 390.5 Q 197.5 390.4, 196.8 390.1 Q 196.7 390.1, 195.9 389.8 Q 195.2 389.6, 194.8 389.0 Q 194.4 388.5, 194.4 387.7 Q 194.4 386.7, 195.2 386.0 Q 196.0 385.4, 197.4 385.4 Q 198.1 385.4, 198.6 385.5 Q 199.2 385.7, 199.8 385.9 L 199.4 387.1 Q 198.9 386.9, 198.4 386.7 Q 197.9 386.6, 197.4 386.6 Q 196.7 386.6, 196.3 386.9 Q 195.9 387.2, 195.9 387.7 Q 195.9 388.1, 196.2 388.4 Q 196.5 388.6, 197.2 388.8 Q 197.4 388.9, 197.5 388.9 L 197.9 389.1 Q 198.6 389.3, 199.0 389.5 Q 199.4 389.7, 199.7 390.2 Q 200.0 390.6, 200.0 391.4 Q 200.0 392.6, 199.1 393.2 Q 198.3 393.9, 196.9 393.9 Q 196.2 393.9, 195.5 393.7 Q 194.8 393.5, 194.1 393.3 L 194.6 392.0 " fill="#000000"/>
<path d="M 201.2 392.0 Q 202.0 392.3, 202.5 392.5 Q 203.0 392.6, 203.6 392.6 Q 204.3 392.6, 204.7 392.3 Q 205.1 392.0, 205.1 391.4 Q 205.1 391.1, 204.9 390.8 Q 204.7 390.6, 204.4 390.5 Q 204.1 390.4, 203.4 390.1 Q 203.3 390.1, 202.6 389.8 Q 201.8 389.6, 201.4 389.0 Q 201.0 388.5, 201.0 387.7 Q 201.0 386.7, 201.8 386.0 Q 202.6 385.4, 204.1 385.4 Q 204.7 385.4, 205.2 385.5 Q 205.8 385.7, 206.4 385.9 L 206.0 387.1 Q 205.5 386.9, 205.0 386.7 Q 204.6 386.6, 204.1 386.6 Q 203.3 386.6, 202.9 386.9 Q 202.5 387.2, 202.5 387.7 Q 202.5 388.1, 202.9 388.4 Q 203.2 388.6, 203.8 388.8 Q 204.0 388.9, 204.1 388.9 L 204.5 389.1 Q 205.2 389.3, 205.6 389.5 Q 206.0 389.7, 206.3 390.2 Q 206.6 390.6, 206.6 391.4 Q 206.6 392.6, 205.7 393.2 Q 204.9 393.9, 203.6 393.9 Q 202.8 393.9, 202.1 393.7 Q 201.4 393.5, 200.8 393.3 L 201.2 392.0 " fill="#000000"/>
<path d="" fill="#000000"/>
<path d="M 215.7 393.9 Q 213.6 393.9, 212.6 392.3 Q 211.6 390.8, 211.6 388.1 Q 211.6 385.3, 212.6 383.8 Q 213.6 382.3, 215.7 382.3 Q 217.8 382.3, 218.8 383.8 Q 219.9 385.3, 219.9 388.1 Q 219.9 390.8, 218.8 392.3 Q 217.8 393.9, 215.7 393.9 M 215.7 392.6 Q 216.9 392.6, 217.6 391.4 Q 218.3 390.3, 218.3 388.1 Q 218.3 385.8, 217.6 384.7 Q 216.9 383.6, 215.7 383.6 Q 214.5 383.6, 213.8 384.7 Q 213.2 385.8, 213.2 388.1 Q 213.2 390.3, 213.8 391.4 Q 214.5 392.6, 215.7 392.6 " fill="#000000"/>
<path class="bond-0 atom-0 atom-1" d="M 576.8,315.4 L 583.1,297.3" style="fill:none;fill-rule:evenodd;stroke:#000000;stroke-width:2.0px;stroke-linecap:butt;stroke-linejoin:miter;stroke-opacity:1"/>
<path class="bond-1 atom-1 atom-2" d="M 583.1,297.3 L 602.0,293.8" style="fill:none;fill-rule:evenodd;stroke:#000000;stroke-width:2.0px;stroke-linecap:butt;stroke-linejoin:miter;stroke-opacity:1"/>
<path class="bond-2 atom-2 atom-3" d="M 602.0,293.8 L 608.3,275.7" style="fill:none;fill-rule:evenodd;stroke:#000000;stroke-width:2.0px;stroke-linecap:butt;stroke-linejoin:miter;stroke-opacity:1"/>
<path class="bond-3 atom-3 atom-4" d="M 608.3,275.7 L 627.2,272.2" style="fill:none;fill-rule:evenodd;stroke:#000000;stroke-width:2.0px;stroke-linecap:butt;stroke-linejoin:miter;stroke-opacity:1"/>
<path class="bond-4 atom-4 atom-5" d="M 627.2,272.2 L 633.5,254.1" style="fill:none;fill-rule:evenodd;stroke:#000000;stroke-width:2.0px;stroke-linecap:butt;stroke-linejoin:miter;stroke-opacity:1"/>
<path class="bond-5 atom-5 atom-6" d="M 633.5,254.1 L 652.4,250.6" style="fill:none;fill-rule:evenodd;stroke:#000000;stroke-width:2.0px;stroke-linecap:butt;stroke-linejoin:miter;stroke-opacity:1"/>
<path class="bond-6 atom-6 atom-7" d="M 652.4,250.6 L 658.7,232.5" style="fill:none;fill-rule:evenodd;stroke:#000000;stroke-width:2.0px;stroke-linecap:butt;stroke-linejoin:miter;stroke-opacity:1"/>
<path class="bond-7 atom-7 atom-8" d="M 658.7,232.5 L 677.6,228.9" style="fill:none;fill-rule:evenodd;stroke:#000000;stroke-width:2.0px;stroke-linecap:butt;stroke-linejoin:miter;stroke-opacity:1"/>
<path class="bond-8 atom-8 atom-9" d="M 677.6,228.9 L 683.9,210.9" style="fill:none;fill-rule:evenodd;stroke:#000000;stroke-width:2.0px;stroke-linecap:butt;stroke-linejoin:miter;stroke-opacity:1"/>
<path class="bond-9 atom-9 atom-10" d="M 683.9,210.9 L 702.8,207.3" style="fill:none;fill-rule:evenodd;stroke:#000000;stroke-width:2.0px;stroke-linecap:butt;stroke-linejoin:miter;stroke-opacity:1"/>
<path class="bond-10 atom-10 atom-21" d="M 702.8,207.3 L 709.1,189.2" style="fill:none;fill-rule:evenodd;stroke:#000000;stroke-width:2.0px;stroke-linecap:butt;stroke-linejoin:miter;stroke-opacity:1"/>
<path class="bond-11 atom-11 atom-13" d="M 552.5,134.2 L 571.4,130.6" style="fill:none;fill-rule:evenodd;stroke:#000000;stroke-width:2.0px;stroke-linecap:butt;stroke-linejoin:miter;stroke-opacity:1"/>
<path class="bond-11 atom-11 atom-13" d="M 556.1,137.4 L 569.3,134.9" style="fill:none;fill-rule:evenodd;stroke:#000000;stroke-width:2.0px;stroke-linecap:butt;stroke-linejoin:miter;stroke-opacity:1"/>
<path class="bond-12 atom-11 atom-25" d="M 552.5,134.2 L 546.2,152.3" style="fill:none;fill-rule:evenodd;stroke:#000000;stroke-width:2.0px;stroke-linecap:butt;stroke-linejoin:miter;stroke-opacity:1"/>
<path class="bond-13 atom-12 atom-14" d="M 558.7,166.8 L 577.5,163.3" style="fill:none;fill-rule:evenodd;stroke:#000000;stroke-width:2.0px;stroke-linecap:butt;stroke-linejoin:miter;stroke-opacity:1"/>
<path class="bond-14 atom-12 atom-25" d="M 558.7,166.8 L 546.2,152.3" style="fill:none;fill-rule:evenodd;stroke:#000000;stroke-width:2.0px;stroke-linecap:butt;stroke-linejoin:miter;stroke-opacity:1"/>
<path class="bond-14 atom-12 atom-25" d="M 559.7,162.1 L 551.0,151.9" style="fill:none;fill-rule:evenodd;stroke:#000000;stroke-width:2.0px;stroke-linecap:butt;stroke-linejoin:miter;stroke-opacity:1"/>
<path class="bond-15 atom-13 atom-26" d="M 571.4,130.6 L 583.9,145.2" style="fill:none;fill-rule:evenodd;stroke:#000000;stroke-width:2.0px;stroke-linecap:butt;stroke-linejoin:miter;stroke-opacity:1"/>
<path class="bond-16 atom-14 atom-26" d="M 577.5,163.3 L 583.9,145.2" style="fill:none;fill-rule:evenodd;stroke:#000000;stroke-width:2.0px;stroke-linecap:butt;stroke-linejoin:miter;stroke-opacity:1"/>
<path class="bond-16 atom-14 atom-26" d="M 574.8,159.3 L 579.3,146.6" style="fill:none;fill-rule:evenodd;stroke:#000000;stroke-width:2.0px;stroke-linecap:butt;stroke-linejoin:miter;stroke-opacity:1"/>
<path class="bond-17 atom-15 atom-18" d="M 489.7,162.9 L 470.8,166.4" style="fill:none;fill-rule:evenodd;stroke:#000000;stroke-width:2.0px;stroke-linecap:butt;stroke-linejoin:miter;stroke-opacity:1"/>
<path class="bond-17 atom-15 atom-18" d="M 486.1,159.6 L 472.9,162.1" style="fill:none;fill-rule:evenodd;stroke:#000000;stroke-width:2.0px;stroke-linecap:butt;stroke-linejoin:miter;stroke-opacity:1"/>
<path class="bond-18 atom-15 atom-27" d="M 489.7,162.9 L 496.0,144.8" style="fill:none;fill-rule:evenodd;stroke:#000000;stroke-width:2.0px;stroke-linecap:butt;stroke-linejoin:miter;stroke-opacity:1"/>
<path class="bond-19 atom-16 atom-19" d="M 483.5,130.2 L 464.7,133.8" style="fill:none;fill-rule:evenodd;stroke:#000000;stroke-width:2.0px;stroke-linecap:butt;stroke-linejoin:miter;stroke-opacity:1"/>
<path class="bond-20 atom-16 atom-27" d="M 483.5,130.2 L 496.0,144.8" style="fill:none;fill-rule:evenodd;stroke:#000000;stroke-width:2.0px;stroke-linecap:butt;stroke-linejoin:miter;stroke-opacity:1"/>
<path class="bond-20 atom-16 atom-27" d="M 482.5,134.9 L 491.2,145.1" style="fill:none;fill-rule:evenodd;stroke:#000000;stroke-width:2.0px;stroke-linecap:butt;stroke-linejoin:miter;stroke-opacity:1"/>
<path class="bond-21 atom-17 atom-20" d="M 690.5,142.1 L 671.7,145.6" style="fill:none;fill-rule:evenodd;stroke:#000000;stroke-width:2.0px;stroke-linecap:butt;stroke-linejoin:miter;stroke-opacity:1"/>
<path class="bond-21 atom-17 atom-20" d="M 687.0,138.8 L 673.8,141.3" style="fill:none;fill-rule:evenodd;stroke:#000000;stroke-width:2.0px;stroke-linecap:butt;stroke-linejoin:miter;stroke-opacity:1"/>
<path class="bond-22 atom-17 atom-28" d="M 690.5,142.1 L 696.9,124.0" style="fill:none;fill-rule:evenodd;stroke:#000000;stroke-width:2.0px;stroke-linecap:butt;stroke-linejoin:miter;stroke-opacity:1"/>
<path class="bond-23 atom-18 atom-29" d="M 470.8,166.4 L 458.3,151.8" style="fill:none;fill-rule:evenodd;stroke:#000000;stroke-width:2.0px;stroke-linecap:butt;stroke-linejoin:miter;stroke-opacity:1"/>
<path class="bond-24 atom-19 atom-29" d="M 464.7,133.8 L 458.3,151.8" style="fill:none;fill-rule:evenodd;stroke:#000000;stroke-width:2.0px;stroke-linecap:butt;stroke-linejoin:miter;stroke-opacity:1"/>
<path class="bond-24 atom-19 atom-29" d="M 467.4,137.7 L 462.9,150.4" style="fill:none;fill-rule:evenodd;stroke:#000000;stroke-width:2.0px;stroke-linecap:butt;stroke-linejoin:miter;stroke-opacity:1"/>
<path class="bond-25 atom-20 atom-30" d="M 671.7,145.6 L 659.2,131.1" style="fill:none;fill-rule:evenodd;stroke:#000000;stroke-width:2.0px;stroke-linecap:butt;stroke-linejoin:miter;stroke-opacity:1"/>
<path class="bond-26 atom-21 atom-38" d="M 709.1,189.2 L 717.3,187.7" style="fill:none;fill-rule:evenodd;stroke:#000000;stroke-width:2.0px;stroke-linecap:butt;stroke-linejoin:miter;stroke-opacity:1"/>
<path class="bond-26 atom-21 atom-38" d="M 717.3,187.7 L 725.4,186.2" style="fill:none;fill-rule:evenodd;stroke:#0000FF;stroke-width:2.0px;stroke-linecap:butt;stroke-linejoin:miter;stroke-opacity:1"/>
<path class="bond-27 atom-22 atom-24" d="M 684.4,109.4 L 665.6,113.0" style="fill:none;fill-rule:evenodd;stroke:#000000;stroke-width:2.0px;stroke-linecap:butt;stroke-linejoin:miter;stroke-opacity:1"/>
<path class="bond-28 atom-22 atom-28" d="M 684.4,109.4 L 696.9,124.0" style="fill:none;fill-rule:evenodd;stroke:#000000;stroke-width:2.0px;stroke-linecap:butt;stroke-linejoin:miter;stroke-opacity:1"/>
<path class="bond-28 atom-22 atom-28" d="M 683.4,114.1 L 692.1,124.3" style="fill:none;fill-rule:evenodd;stroke:#000000;stroke-width:2.0px;stroke-linecap:butt;stroke-linejoin:miter;stroke-opacity:1"/>
<path class="bond-29 atom-23 atom-24" d="M 653.1,98.4 L 665.6,113.0" style="fill:none;fill-rule:evenodd;stroke:#000000;stroke-width:2.0px;stroke-linecap:butt;stroke-linejoin:miter;stroke-opacity:1"/>
<path class="bond-30 atom-23 atom-31" d="M 653.1,98.4 L 634.3,102.0" style="fill:none;fill-rule:evenodd;stroke:#000000;stroke-width:2.0px;stroke-linecap:butt;stroke-linejoin:miter;stroke-opacity:1"/>
<path class="bond-30 atom-23 atom-31" d="M 651.0,102.7 L 637.8,105.2" style="fill:none;fill-rule:evenodd;stroke:#000000;stroke-width:2.0px;stroke-linecap:butt;stroke-linejoin:miter;stroke-opacity:1"/>
<path class="bond-31 atom-24 atom-30" d="M 665.6,113.0 L 659.2,131.1" style="fill:none;fill-rule:evenodd;stroke:#000000;stroke-width:2.0px;stroke-linecap:butt;stroke-linejoin:miter;stroke-opacity:1"/>
<path class="bond-31 atom-24 atom-30" d="M 668.2,117.0 L 663.8,129.6" style="fill:none;fill-rule:evenodd;stroke:#000000;stroke-width:2.0px;stroke-linecap:butt;stroke-linejoin:miter;stroke-opacity:1"/>
<path class="bond-32 atom-25 atom-43" d="M 546.2,152.3 L 538.0,153.8" style="fill:none;fill-rule:evenodd;stroke:#000000;stroke-width:2.0px;stroke-linecap:butt;stroke-linejoin:miter;stroke-opacity:1"/>
<path class="bond-32 atom-25 atom-43" d="M 538.0,153.8 L 529.9,155.3" style="fill:none;fill-rule:evenodd;stroke:#0000FF;stroke-width:2.0px;stroke-linecap:butt;stroke-linejoin:miter;stroke-opacity:1"/>
<path class="bond-33 atom-26 atom-45" d="M 583.9,145.2 L 592.0,143.7" style="fill:none;fill-rule:evenodd;stroke:#000000;stroke-width:2.0px;stroke-linecap:butt;stroke-linejoin:miter;stroke-opacity:1"/>
<path class="bond-33 atom-26 atom-45" d="M 592.0,143.7 L 600.2,142.1" style="fill:none;fill-rule:evenodd;stroke:#0000FF;stroke-width:2.0px;stroke-linecap:butt;stroke-linejoin:miter;stroke-opacity:1"/>
<path class="bond-34 atom-27 atom-44" d="M 496.0,144.8 L 504.2,143.2" style="fill:none;fill-rule:evenodd;stroke:#000000;stroke-width:2.0px;stroke-linecap:butt;stroke-linejoin:miter;stroke-opacity:1"/>
<path class="bond-34 atom-27 atom-44" d="M 504.2,143.2 L 512.3,141.7" style="fill:none;fill-rule:evenodd;stroke:#0000FF;stroke-width:2.0px;stroke-linecap:butt;stroke-linejoin:miter;stroke-opacity:1"/>
<path class="bond-35 atom-28 atom-39" d="M 696.9,124.0 L 705.0,122.5" style="fill:none;fill-rule:evenodd;stroke:#000000;stroke-width:2.0px;stroke-linecap:butt;stroke-linejoin:miter;stroke-opacity:1"/>
<path class="bond-35 atom-28 atom-39" d="M 705.0,122.5 L 713.2,120.9" style="fill:none;fill-rule:evenodd;stroke:#0000FF;stroke-width:2.0px;stroke-linecap:butt;stroke-linejoin:miter;stroke-opacity:1"/>
<path class="bond-36 atom-29 atom-54" d="M 458.3,151.8 L 450.0,153.4" style="fill:none;fill-rule:evenodd;stroke:#000000;stroke-width:2.0px;stroke-linecap:butt;stroke-linejoin:miter;stroke-opacity:1"/>
<path class="bond-36 atom-29 atom-54" d="M 450.0,153.4 L 441.7,155.0" style="fill:none;fill-rule:evenodd;stroke:#CCCC00;stroke-width:2.0px;stroke-linecap:butt;stroke-linejoin:miter;stroke-opacity:1"/>
<path class="bond-37 atom-30 atom-33" d="M 659.2,131.1 L 640.4,134.6" style="fill:none;fill-rule:evenodd;stroke:#000000;stroke-width:2.0px;stroke-linecap:butt;stroke-linejoin:miter;stroke-opacity:1"/>
<path class="bond-38 atom-31 atom-32" d="M 634.3,102.0 L 627.9,120.0" style="fill:none;fill-rule:evenodd;stroke:#000000;stroke-width:2.0px;stroke-linecap:butt;stroke-linejoin:miter;stroke-opacity:1"/>
<path class="bond-39 atom-31 atom-55" d="M 634.3,102.0 L 629.1,96.0" style="fill:none;fill-rule:evenodd;stroke:#000000;stroke-width:2.0px;stroke-linecap:butt;stroke-linejoin:miter;stroke-opacity:1"/>
<path class="bond-39 atom-31 atom-55" d="M 629.1,96.0 L 624.0,90.0" style="fill:none;fill-rule:evenodd;stroke:#CCCC00;stroke-width:2.0px;stroke-linecap:butt;stroke-linejoin:miter;stroke-opacity:1"/>
<path class="bond-40 atom-32 atom-33" d="M 627.9,120.0 L 640.4,134.6" style="fill:none;fill-rule:evenodd;stroke:#000000;stroke-width:2.0px;stroke-linecap:butt;stroke-linejoin:miter;stroke-opacity:1"/>
<path class="bond-40 atom-32 atom-33" d="M 632.7,119.7 L 641.4,129.9" style="fill:none;fill-rule:evenodd;stroke:#000000;stroke-width:2.0px;stroke-linecap:butt;stroke-linejoin:miter;stroke-opacity:1"/>
<path class="bond-41 atom-32 atom-46" d="M 627.9,120.0 L 619.7,121.6" style="fill:none;fill-rule:evenodd;stroke:#000000;stroke-width:2.0px;stroke-linecap:butt;stroke-linejoin:miter;stroke-opacity:1"/>
<path class="bond-41 atom-32 atom-46" d="M 619.7,121.6 L 611.6,123.1" style="fill:none;fill-rule:evenodd;stroke:#0000FF;stroke-width:2.0px;stroke-linecap:butt;stroke-linejoin:miter;stroke-opacity:1"/>
<path class="bond-42 atom-33 atom-47" d="M 640.4,134.6 L 637.8,142.0" style="fill:none;fill-rule:evenodd;stroke:#000000;stroke-width:2.0px;stroke-linecap:butt;stroke-linejoin:miter;stroke-opacity:1"/>
<path class="bond-42 atom-33 atom-47" d="M 637.8,142.0 L 635.1,149.4" style="fill:none;fill-rule:evenodd;stroke:#FF0000;stroke-width:2.0px;stroke-linecap:butt;stroke-linejoin:miter;stroke-opacity:1"/>
<path class="bond-43 atom-34 atom-37" d="M 759.5,146.0 L 767.7,144.5" style="fill:none;fill-rule:evenodd;stroke:#000000;stroke-width:2.0px;stroke-linecap:butt;stroke-linejoin:miter;stroke-opacity:1"/>
<path class="bond-43 atom-34 atom-37" d="M 767.7,144.5 L 775.8,143.0" style="fill:none;fill-rule:evenodd;stroke:#00CC00;stroke-width:2.0px;stroke-linecap:butt;stroke-linejoin:miter;stroke-opacity:1"/>
<path class="bond-44 atom-34 atom-40" d="M 759.5,146.0 L 756.9,153.5" style="fill:none;fill-rule:evenodd;stroke:#000000;stroke-width:2.0px;stroke-linecap:butt;stroke-linejoin:miter;stroke-opacity:1"/>
<path class="bond-44 atom-34 atom-40" d="M 756.9,153.5 L 754.3,160.9" style="fill:none;fill-rule:evenodd;stroke:#0000FF;stroke-width:2.0px;stroke-linecap:butt;stroke-linejoin:miter;stroke-opacity:1"/>
<path class="bond-44 atom-34 atom-40" d="M 755.1,147.0 L 753.3,152.2" style="fill:none;fill-rule:evenodd;stroke:#000000;stroke-width:2.0px;stroke-linecap:butt;stroke-linejoin:miter;stroke-opacity:1"/>
<path class="bond-44 atom-34 atom-40" d="M 753.3,152.2 L 751.5,157.4" style="fill:none;fill-rule:evenodd;stroke:#0000FF;stroke-width:2.0px;stroke-linecap:butt;stroke-linejoin:miter;stroke-opacity:1"/>
<path class="bond-45 atom-34 atom-41" d="M 759.5,146.0 L 754.6,140.2" style="fill:none;fill-rule:evenodd;stroke:#000000;stroke-width:2.0px;stroke-linecap:butt;stroke-linejoin:miter;stroke-opacity:1"/>
<path class="bond-45 atom-34 atom-41" d="M 754.6,140.2 L 749.6,134.4" style="fill:none;fill-rule:evenodd;stroke:#0000FF;stroke-width:2.0px;stroke-linecap:butt;stroke-linejoin:miter;stroke-opacity:1"/>
<path class="bond-46 atom-35 atom-38" d="M 734.3,167.6 L 731.7,175.1" style="fill:none;fill-rule:evenodd;stroke:#000000;stroke-width:2.0px;stroke-linecap:butt;stroke-linejoin:miter;stroke-opacity:1"/>
<path class="bond-46 atom-35 atom-38" d="M 731.7,175.1 L 729.1,182.5" style="fill:none;fill-rule:evenodd;stroke:#0000FF;stroke-width:2.0px;stroke-linecap:butt;stroke-linejoin:miter;stroke-opacity:1"/>
<path class="bond-46 atom-35 atom-38" d="M 737.2,171.1 L 735.3,176.3" style="fill:none;fill-rule:evenodd;stroke:#000000;stroke-width:2.0px;stroke-linecap:butt;stroke-linejoin:miter;stroke-opacity:1"/>
<path class="bond-46 atom-35 atom-38" d="M 735.3,176.3 L 733.5,181.6" style="fill:none;fill-rule:evenodd;stroke:#0000FF;stroke-width:2.0px;stroke-linecap:butt;stroke-linejoin:miter;stroke-opacity:1"/>
<path class="bond-47 atom-35 atom-40" d="M 734.3,167.6 L 742.5,166.1" style="fill:none;fill-rule:evenodd;stroke:#000000;stroke-width:2.0px;stroke-linecap:butt;stroke-linejoin:miter;stroke-opacity:1"/>
<path class="bond-47 atom-35 atom-40" d="M 742.5,166.1 L 750.6,164.6" style="fill:none;fill-rule:evenodd;stroke:#0000FF;stroke-width:2.0px;stroke-linecap:butt;stroke-linejoin:miter;stroke-opacity:1"/>
<path class="bond-48 atom-35 atom-42" d="M 734.3,167.6 L 729.4,161.8" style="fill:none;fill-rule:evenodd;stroke:#000000;stroke-width:2.0px;stroke-linecap:butt;stroke-linejoin:miter;stroke-opacity:1"/>
<path class="bond-48 atom-35 atom-42" d="M 729.4,161.8 L 724.4,156.0" style="fill:none;fill-rule:evenodd;stroke:#0000FF;stroke-width:2.0px;stroke-linecap:butt;stroke-linejoin:miter;stroke-opacity:1"/>
<path class="bond-49 atom-36 atom-39" d="M 728.2,135.0 L 723.2,129.2" style="fill:none;fill-rule:evenodd;stroke:#000000;stroke-width:2.0px;stroke-linecap:butt;stroke-linejoin:miter;stroke-opacity:1"/>
<path class="bond-49 atom-36 atom-39" d="M 723.2,129.2 L 718.3,123.4" style="fill:none;fill-rule:evenodd;stroke:#0000FF;stroke-width:2.0px;stroke-linecap:butt;stroke-linejoin:miter;stroke-opacity:1"/>
<path class="bond-50 atom-36 atom-41" d="M 728.2,135.0 L 736.4,133.5" style="fill:none;fill-rule:evenodd;stroke:#000000;stroke-width:2.0px;stroke-linecap:butt;stroke-linejoin:miter;stroke-opacity:1"/>
<path class="bond-50 atom-36 atom-41" d="M 736.4,133.5 L 744.5,131.9" style="fill:none;fill-rule:evenodd;stroke:#0000FF;stroke-width:2.0px;stroke-linecap:butt;stroke-linejoin:miter;stroke-opacity:1"/>
<path class="bond-50 atom-36 atom-41" d="M 731.4,138.3 L 737.1,137.2" style="fill:none;fill-rule:evenodd;stroke:#000000;stroke-width:2.0px;stroke-linecap:butt;stroke-linejoin:miter;stroke-opacity:1"/>
<path class="bond-50 atom-36 atom-41" d="M 737.1,137.2 L 742.8,136.2" style="fill:none;fill-rule:evenodd;stroke:#0000FF;stroke-width:2.0px;stroke-linecap:butt;stroke-linejoin:miter;stroke-opacity:1"/>
<path class="bond-51 atom-36 atom-42" d="M 728.2,135.0 L 725.6,142.4" style="fill:none;fill-rule:evenodd;stroke:#000000;stroke-width:2.0px;stroke-linecap:butt;stroke-linejoin:miter;stroke-opacity:1"/>
<path class="bond-51 atom-36 atom-42" d="M 725.6,142.4 L 723.0,149.9" style="fill:none;fill-rule:evenodd;stroke:#0000FF;stroke-width:2.0px;stroke-linecap:butt;stroke-linejoin:miter;stroke-opacity:1"/>
<path class="bond-52 atom-43 atom-44" d="M 524.8,152.8 L 517.3,144.1" style="fill:none;fill-rule:evenodd;stroke:#0000FF;stroke-width:2.0px;stroke-linecap:butt;stroke-linejoin:miter;stroke-opacity:1"/>
<path class="bond-52 atom-43 atom-44" d="M 526.6,149.0 L 521.3,142.9" style="fill:none;fill-rule:evenodd;stroke:#0000FF;stroke-width:2.0px;stroke-linecap:butt;stroke-linejoin:miter;stroke-opacity:1"/>
<path class="bond-53 atom-45 atom-46" d="M 603.8,138.5 L 608.0,126.7" style="fill:none;fill-rule:evenodd;stroke:#0000FF;stroke-width:2.0px;stroke-linecap:butt;stroke-linejoin:miter;stroke-opacity:1"/>
<path class="bond-53 atom-45 atom-46" d="M 600.8,135.4 L 603.7,127.2" style="fill:none;fill-rule:evenodd;stroke:#0000FF;stroke-width:2.0px;stroke-linecap:butt;stroke-linejoin:miter;stroke-opacity:1"/>
<path class="bond-54 atom-48 atom-54" d="M 424.0,160.2 L 430.9,159.0" style="fill:none;fill-rule:evenodd;stroke:#FF0000;stroke-width:2.0px;stroke-linecap:butt;stroke-linejoin:miter;stroke-opacity:1"/>
<path class="bond-54 atom-48 atom-54" d="M 430.9,159.0 L 437.7,157.7" style="fill:none;fill-rule:evenodd;stroke:#CCCC00;stroke-width:2.0px;stroke-linecap:butt;stroke-linejoin:miter;stroke-opacity:1"/>
<path class="bond-54 atom-48 atom-54" d="M 423.3,156.5 L 430.2,155.2" style="fill:none;fill-rule:evenodd;stroke:#FF0000;stroke-width:2.0px;stroke-linecap:butt;stroke-linejoin:miter;stroke-opacity:1"/>
<path class="bond-54 atom-48 atom-54" d="M 430.2,155.2 L 437.0,153.9" style="fill:none;fill-rule:evenodd;stroke:#CCCC00;stroke-width:2.0px;stroke-linecap:butt;stroke-linejoin:miter;stroke-opacity:1"/>
<path class="bond-55 atom-49 atom-54" d="M 436.6,139.8 L 437.8,146.1" style="fill:none;fill-rule:evenodd;stroke:#FF0000;stroke-width:2.0px;stroke-linecap:butt;stroke-linejoin:miter;stroke-opacity:1"/>
<path class="bond-55 atom-49 atom-54" d="M 437.8,146.1 L 438.9,152.3" style="fill:none;fill-rule:evenodd;stroke:#CCCC00;stroke-width:2.0px;stroke-linecap:butt;stroke-linejoin:miter;stroke-opacity:1"/>
<path class="bond-56 atom-50 atom-54" d="M 444.3,170.6 L 443.2,164.5" style="fill:none;fill-rule:evenodd;stroke:#FF0000;stroke-width:2.0px;stroke-linecap:butt;stroke-linejoin:miter;stroke-opacity:1"/>
<path class="bond-56 atom-50 atom-54" d="M 443.2,164.5 L 442.0,158.3" style="fill:none;fill-rule:evenodd;stroke:#CCCC00;stroke-width:2.0px;stroke-linecap:butt;stroke-linejoin:miter;stroke-opacity:1"/>
<path class="bond-56 atom-50 atom-54" d="M 440.6,171.3 L 439.4,165.2" style="fill:none;fill-rule:evenodd;stroke:#FF0000;stroke-width:2.0px;stroke-linecap:butt;stroke-linejoin:miter;stroke-opacity:1"/>
<path class="bond-56 atom-50 atom-54" d="M 439.4,165.2 L 438.2,159.0" style="fill:none;fill-rule:evenodd;stroke:#CCCC00;stroke-width:2.0px;stroke-linecap:butt;stroke-linejoin:miter;stroke-opacity:1"/>
<path class="bond-57 atom-51 atom-55" d="M 612.1,76.2 L 615.9,80.6" style="fill:none;fill-rule:evenodd;stroke:#FF0000;stroke-width:2.0px;stroke-linecap:butt;stroke-linejoin:miter;stroke-opacity:1"/>
<path class="bond-57 atom-51 atom-55" d="M 615.9,80.6 L 619.7,85.0" style="fill:none;fill-rule:evenodd;stroke:#CCCC00;stroke-width:2.0px;stroke-linecap:butt;stroke-linejoin:miter;stroke-opacity:1"/>
<path class="bond-58 atom-52 atom-55" d="M 632.1,76.0 L 627.4,80.1" style="fill:none;fill-rule:evenodd;stroke:#FF0000;stroke-width:2.0px;stroke-linecap:butt;stroke-linejoin:miter;stroke-opacity:1"/>
<path class="bond-58 atom-52 atom-55" d="M 627.4,80.1 L 622.6,84.1" style="fill:none;fill-rule:evenodd;stroke:#CCCC00;stroke-width:2.0px;stroke-linecap:butt;stroke-linejoin:miter;stroke-opacity:1"/>
<path class="bond-58 atom-52 atom-55" d="M 634.6,78.9 L 629.9,83.0" style="fill:none;fill-rule:evenodd;stroke:#FF0000;stroke-width:2.0px;stroke-linecap:butt;stroke-linejoin:miter;stroke-opacity:1"/>
<path class="bond-58 atom-52 atom-55" d="M 629.9,83.0 L 625.1,87.0" style="fill:none;fill-rule:evenodd;stroke:#CCCC00;stroke-width:2.0px;stroke-linecap:butt;stroke-linejoin:miter;stroke-opacity:1"/>
<path class="bond-59 atom-53 atom-55" d="M 611.4,98.8 L 616.2,94.7" style="fill:none;fill-rule:evenodd;stroke:#FF0000;stroke-width:2.0px;stroke-linecap:butt;stroke-linejoin:miter;stroke-opacity:1"/>
<path class="bond-59 atom-53 atom-55" d="M 616.2,94.7 L 620.9,90.7" style="fill:none;fill-rule:evenodd;stroke:#CCCC00;stroke-width:2.0px;stroke-linecap:butt;stroke-linejoin:miter;stroke-opacity:1"/>
<path class="bond-59 atom-53 atom-55" d="M 608.9,95.9 L 613.7,91.8" style="fill:none;fill-rule:evenodd;stroke:#FF0000;stroke-width:2.0px;stroke-linecap:butt;stroke-linejoin:miter;stroke-opacity:1"/>
<path class="bond-59 atom-53 atom-55" d="M 613.7,91.8 L 618.4,87.8" style="fill:none;fill-rule:evenodd;stroke:#CCCC00;stroke-width:2.0px;stroke-linecap:butt;stroke-linejoin:miter;stroke-opacity:1"/>
<path class="atom-37" d="M 776.3 142.7 Q 776.3 141.3, 776.9 140.6 Q 777.5 139.9, 778.7 139.9 Q 779.9 139.9, 780.5 140.7 L 779.9 141.1 Q 779.5 140.5, 778.7 140.5 Q 777.9 140.5, 777.5 141.1 Q 777.0 141.6, 777.0 142.7 Q 777.0 143.7, 777.5 144.3 Q 777.9 144.9, 778.8 144.9 Q 779.4 144.9, 780.1 144.5 L 780.3 145.1 Q 780.0 145.2, 779.6 145.4 Q 779.2 145.5, 778.7 145.5 Q 777.5 145.5, 776.9 144.7 Q 776.3 144.0, 776.3 142.7 " fill="#00CC00"/>
<path class="atom-37" d="M 781.1 139.6 L 781.8 139.6 L 781.8 145.4 L 781.1 145.4 L 781.1 139.6 " fill="#00CC00"/>
<path class="atom-38" d="M 726.8 183.0 L 728.5 185.9 Q 728.7 186.2, 729.0 186.7 Q 729.3 187.2, 729.3 187.2 L 729.3 183.0 L 730.0 183.0 L 730.0 188.4 L 729.3 188.4 L 727.4 185.3 Q 727.1 184.9, 726.9 184.5 Q 726.7 184.1, 726.6 183.9 L 726.6 188.4 L 725.9 188.4 L 725.9 183.0 L 726.8 183.0 " fill="#0000FF"/>
<path class="atom-39" d="M 714.5 117.7 L 716.3 120.6 Q 716.5 120.9, 716.8 121.4 Q 717.0 121.9, 717.1 122.0 L 717.1 117.7 L 717.8 117.7 L 717.8 123.2 L 717.0 123.2 L 715.1 120.0 Q 714.9 119.7, 714.7 119.2 Q 714.4 118.8, 714.4 118.7 L 714.4 123.2 L 713.7 123.2 L 713.7 117.7 L 714.5 117.7 " fill="#0000FF"/>
<path class="atom-39" d="M 713.6 111.8 L 714.3 111.8 L 714.3 114.1 L 717.1 114.1 L 717.1 111.8 L 717.8 111.8 L 717.8 117.2 L 717.1 117.2 L 717.1 114.7 L 714.3 114.7 L 714.3 117.2 L 713.6 117.2 L 713.6 111.8 " fill="#0000FF"/>
<path class="atom-40" d="M 752.0 161.4 L 753.7 164.3 Q 753.9 164.5, 754.2 165.1 Q 754.5 165.6, 754.5 165.6 L 754.5 161.4 L 755.2 161.4 L 755.2 166.8 L 754.5 166.8 L 752.6 163.7 Q 752.3 163.3, 752.1 162.9 Q 751.9 162.5, 751.8 162.3 L 751.8 166.8 L 751.1 166.8 L 751.1 161.4 L 752.0 161.4 " fill="#0000FF"/>
<path class="atom-41" d="M 745.8 128.8 L 747.6 131.6 Q 747.8 131.9, 748.1 132.4 Q 748.4 132.9, 748.4 133.0 L 748.4 128.8 L 749.1 128.8 L 749.1 134.2 L 748.4 134.2 L 746.4 131.0 Q 746.2 130.7, 746.0 130.3 Q 745.8 129.8, 745.7 129.7 L 745.7 134.2 L 745.0 134.2 L 745.0 128.8 L 745.8 128.8 " fill="#0000FF"/>
<path class="atom-42" d="M 714.9 150.4 L 715.6 150.4 L 715.6 152.7 L 718.4 152.7 L 718.4 150.4 L 719.2 150.4 L 719.2 155.8 L 718.4 155.8 L 718.4 153.3 L 715.6 153.3 L 715.6 155.8 L 714.9 155.8 L 714.9 150.4 " fill="#0000FF"/>
<path class="atom-42" d="M 720.6 150.4 L 722.4 153.2 Q 722.6 153.5, 722.9 154.0 Q 723.2 154.6, 723.2 154.6 L 723.2 150.4 L 723.9 150.4 L 723.9 155.8 L 723.2 155.8 L 721.3 152.7 Q 721.0 152.3, 720.8 151.9 Q 720.6 151.4, 720.5 151.3 L 720.5 155.8 L 719.8 155.8 L 719.8 150.4 L 720.6 150.4 " fill="#0000FF"/>
<path class="atom-43" d="M 526.1 153.1 L 527.9 156.0 Q 528.1 156.2, 528.4 156.8 Q 528.7 157.3, 528.7 157.3 L 528.7 153.1 L 529.4 153.1 L 529.4 158.5 L 528.7 158.5 L 526.7 155.4 Q 526.5 155.0, 526.3 154.6 Q 526.1 154.2, 526.0 154.0 L 526.0 158.5 L 525.3 158.5 L 525.3 153.1 L 526.1 153.1 " fill="#0000FF"/>
<path class="atom-44" d="M 513.7 138.5 L 515.4 141.4 Q 515.6 141.7, 515.9 142.2 Q 516.2 142.7, 516.2 142.7 L 516.2 138.5 L 516.9 138.5 L 516.9 144.0 L 516.2 144.0 L 514.3 140.8 Q 514.0 140.4, 513.8 140.0 Q 513.6 139.6, 513.5 139.5 L 513.5 144.0 L 512.8 144.0 L 512.8 138.5 L 513.7 138.5 " fill="#0000FF"/>
<path class="atom-45" d="M 601.5 138.9 L 603.3 141.8 Q 603.5 142.1, 603.7 142.6 Q 604.0 143.1, 604.0 143.2 L 604.0 138.9 L 604.8 138.9 L 604.8 144.4 L 604.0 144.4 L 602.1 141.2 Q 601.9 140.9, 601.6 140.4 Q 601.4 140.0, 601.3 139.9 L 601.3 144.4 L 600.6 144.4 L 600.6 138.9 L 601.5 138.9 " fill="#0000FF"/>
<path class="atom-46" d="M 607.9 120.9 L 609.6 123.7 Q 609.8 124.0, 610.1 124.5 Q 610.4 125.0, 610.4 125.1 L 610.4 120.9 L 611.1 120.9 L 611.1 126.3 L 610.4 126.3 L 608.5 123.1 Q 608.2 122.8, 608.0 122.4 Q 607.8 121.9, 607.7 121.8 L 607.7 126.3 L 607.0 126.3 L 607.0 120.9 L 607.9 120.9 " fill="#0000FF"/>
<path class="atom-47" d="M 631.5 152.7 Q 631.5 151.4, 632.2 150.7 Q 632.8 149.9, 634.0 149.9 Q 635.2 149.9, 635.9 150.7 Q 636.5 151.4, 636.5 152.7 Q 636.5 154.0, 635.9 154.8 Q 635.2 155.5, 634.0 155.5 Q 632.8 155.5, 632.2 154.8 Q 631.5 154.0, 631.5 152.7 M 634.0 154.9 Q 634.8 154.9, 635.3 154.3 Q 635.7 153.8, 635.7 152.7 Q 635.7 151.6, 635.3 151.1 Q 634.8 150.5, 634.0 150.5 Q 633.2 150.5, 632.7 151.1 Q 632.3 151.6, 632.3 152.7 Q 632.3 153.8, 632.7 154.3 Q 633.2 154.9, 634.0 154.9 " fill="#FF0000"/>
<path class="atom-47" d="M 636.8 150.8 L 638.6 150.8 L 638.6 151.2 L 636.8 151.2 L 636.8 150.8 " fill="#FF0000"/>
<path class="atom-48" d="M 418.2 158.9 Q 418.2 157.6, 418.8 156.9 Q 419.5 156.2, 420.7 156.2 Q 421.9 156.2, 422.5 156.9 Q 423.2 157.6, 423.2 158.9 Q 423.2 160.2, 422.5 161.0 Q 421.9 161.7, 420.7 161.7 Q 419.5 161.7, 418.8 161.0 Q 418.2 160.3, 418.2 158.9 M 420.7 161.1 Q 421.5 161.1, 421.9 160.6 Q 422.4 160.0, 422.4 158.9 Q 422.4 157.9, 421.9 157.3 Q 421.5 156.8, 420.7 156.8 Q 419.8 156.8, 419.4 157.3 Q 418.9 157.9, 418.9 158.9 Q 418.9 160.0, 419.4 160.6 Q 419.8 161.1, 420.7 161.1 " fill="#FF0000"/>
<path class="atom-49" d="M 433.5 136.6 Q 433.5 135.3, 434.1 134.5 Q 434.8 133.8, 436.0 133.8 Q 437.2 133.8, 437.8 134.5 Q 438.5 135.3, 438.5 136.6 Q 438.5 137.9, 437.8 138.6 Q 437.2 139.4, 436.0 139.4 Q 434.8 139.4, 434.1 138.6 Q 433.5 137.9, 433.5 136.6 M 436.0 138.8 Q 436.8 138.8, 437.3 138.2 Q 437.7 137.6, 437.7 136.6 Q 437.7 135.5, 437.3 135.0 Q 436.8 134.4, 436.0 134.4 Q 435.2 134.4, 434.7 134.9 Q 434.3 135.5, 434.3 136.6 Q 434.3 137.7, 434.7 138.2 Q 435.2 138.8, 436.0 138.8 " fill="#FF0000"/>
<path class="atom-49" d="M 438.7 134.7 L 440.6 134.7 L 440.6 135.1 L 438.7 135.1 L 438.7 134.7 " fill="#FF0000"/>
<path class="atom-50" d="M 440.6 174.2 Q 440.6 172.9, 441.2 172.2 Q 441.8 171.5, 443.0 171.5 Q 444.2 171.5, 444.9 172.2 Q 445.5 172.9, 445.5 174.2 Q 445.5 175.6, 444.9 176.3 Q 444.2 177.0, 443.0 177.0 Q 441.8 177.0, 441.2 176.3 Q 440.6 175.6, 440.6 174.2 M 443.0 176.4 Q 443.9 176.4, 444.3 175.9 Q 444.8 175.3, 444.8 174.2 Q 444.8 173.2, 444.3 172.6 Q 443.9 172.1, 443.0 172.1 Q 442.2 172.1, 441.8 172.6 Q 441.3 173.2, 441.3 174.2 Q 441.3 175.3, 441.8 175.9 Q 442.2 176.4, 443.0 176.4 " fill="#FF0000"/>
<path class="atom-51" d="M 602.2 70.2 L 602.9 70.2 L 602.9 72.5 L 605.7 72.5 L 605.7 70.2 L 606.4 70.2 L 606.4 75.6 L 605.7 75.6 L 605.7 73.1 L 602.9 73.1 L 602.9 75.6 L 602.2 75.6 L 602.2 70.2 " fill="#FF0000"/>
<path class="atom-51" d="M 606.8 72.9 Q 606.8 71.6, 607.4 70.9 Q 608.1 70.1, 609.3 70.1 Q 610.5 70.1, 611.1 70.9 Q 611.8 71.6, 611.8 72.9 Q 611.8 74.2, 611.1 75.0 Q 610.5 75.7, 609.3 75.7 Q 608.1 75.7, 607.4 75.0 Q 606.8 74.2, 606.8 72.9 M 609.3 75.1 Q 610.1 75.1, 610.6 74.5 Q 611.0 74.0, 611.0 72.9 Q 611.0 71.8, 610.6 71.3 Q 610.1 70.7, 609.3 70.7 Q 608.5 70.7, 608.0 71.3 Q 607.6 71.8, 607.6 72.9 Q 607.6 74.0, 608.0 74.5 Q 608.5 75.1, 609.3 75.1 " fill="#FF0000"/>
<path class="atom-52" d="M 633.8 75.0 Q 633.8 73.6, 634.5 72.9 Q 635.1 72.2, 636.3 72.2 Q 637.5 72.2, 638.2 72.9 Q 638.8 73.6, 638.8 75.0 Q 638.8 76.3, 638.2 77.0 Q 637.5 77.8, 636.3 77.8 Q 635.1 77.8, 634.5 77.0 Q 633.8 76.3, 633.8 75.0 M 636.3 77.2 Q 637.1 77.2, 637.6 76.6 Q 638.0 76.0, 638.0 75.0 Q 638.0 73.9, 637.6 73.3 Q 637.1 72.8, 636.3 72.8 Q 635.5 72.8, 635.0 73.3 Q 634.6 73.9, 634.6 75.0 Q 634.6 76.0, 635.0 76.6 Q 635.5 77.2, 636.3 77.2 " fill="#FF0000"/>
<path class="atom-53" d="M 604.7 99.9 Q 604.7 98.6, 605.4 97.9 Q 606.0 97.1, 607.2 97.1 Q 608.4 97.1, 609.1 97.9 Q 609.7 98.6, 609.7 99.9 Q 609.7 101.2, 609.1 102.0 Q 608.4 102.7, 607.2 102.7 Q 606.0 102.7, 605.4 102.0 Q 604.7 101.2, 604.7 99.9 M 607.2 102.1 Q 608.1 102.1, 608.5 101.6 Q 609.0 101.0, 609.0 99.9 Q 609.0 98.8, 608.5 98.3 Q 608.1 97.8, 607.2 97.8 Q 606.4 97.8, 605.9 98.3 Q 605.5 98.8, 605.5 99.9 Q 605.5 101.0, 605.9 101.6 Q 606.4 102.1, 607.2 102.1 " fill="#FF0000"/>
<path class="atom-54" d="M 438.0 157.2 Q 438.0 157.3, 438.3 157.4 Q 438.5 157.5, 438.8 157.5 Q 439.1 157.6, 439.4 157.6 Q 439.9 157.6, 440.2 157.4 Q 440.5 157.1, 440.5 156.7 Q 440.5 156.4, 440.3 156.2 Q 440.2 156.0, 440.0 155.9 Q 439.7 155.8, 439.4 155.7 Q 438.9 155.5, 438.6 155.4 Q 438.3 155.3, 438.1 155.0 Q 437.9 154.7, 437.9 154.2 Q 437.9 153.5, 438.3 153.1 Q 438.8 152.7, 439.7 152.7 Q 440.4 152.7, 441.1 153.0 L 440.9 153.6 Q 440.2 153.3, 439.8 153.3 Q 439.2 153.3, 438.9 153.5 Q 438.6 153.7, 438.7 154.1 Q 438.7 154.4, 438.8 154.6 Q 439.0 154.8, 439.2 154.9 Q 439.4 154.9, 439.8 155.1 Q 440.2 155.2, 440.5 155.4 Q 440.8 155.5, 441.0 155.8 Q 441.3 156.1, 441.3 156.7 Q 441.3 157.4, 440.7 157.8 Q 440.2 158.2, 439.4 158.2 Q 438.9 158.2, 438.6 158.1 Q 438.2 158.0, 437.8 157.8 L 438.0 157.2 " fill="#CCCC00"/>
<path class="atom-55" d="M 620.2 89.3 Q 620.3 89.3, 620.6 89.4 Q 620.8 89.5, 621.1 89.6 Q 621.4 89.6, 621.6 89.6 Q 622.2 89.6, 622.5 89.4 Q 622.8 89.1, 622.8 88.7 Q 622.8 88.4, 622.6 88.2 Q 622.5 88.0, 622.2 87.9 Q 622.0 87.8, 621.6 87.7 Q 621.1 87.6, 620.8 87.4 Q 620.6 87.3, 620.3 87.0 Q 620.1 86.7, 620.1 86.2 Q 620.1 85.6, 620.6 85.1 Q 621.1 84.7, 622.0 84.7 Q 622.6 84.7, 623.3 85.0 L 623.2 85.6 Q 622.5 85.3, 622.0 85.3 Q 621.5 85.3, 621.2 85.6 Q 620.9 85.8, 620.9 86.1 Q 620.9 86.4, 621.1 86.6 Q 621.2 86.8, 621.4 86.9 Q 621.7 87.0, 622.0 87.1 Q 622.5 87.3, 622.8 87.4 Q 623.1 87.6, 623.3 87.9 Q 623.5 88.2, 623.5 88.7 Q 623.5 89.5, 623.0 89.9 Q 622.5 90.3, 621.7 90.3 Q 621.2 90.3, 620.8 90.2 Q 620.5 90.1, 620.0 89.9 L 620.2 89.3 " fill="#CCCC00"/>
<path class="atom-56" d="M 612.4 57.4 L 614.2 60.3 Q 614.3 60.5, 614.6 61.0 Q 614.9 61.6, 614.9 61.6 L 614.9 57.4 L 615.6 57.4 L 615.6 62.8 L 614.9 62.8 L 613.0 59.7 Q 612.8 59.3, 612.5 58.9 Q 612.3 58.4, 612.2 58.3 L 612.2 62.8 L 611.5 62.8 L 611.5 57.4 L 612.4 57.4 " fill="#000000"/>
<path class="atom-56" d="M 616.0 61.7 Q 616.0 61.1, 616.5 60.8 Q 617.0 60.4, 617.9 60.4 L 618.5 60.4 L 618.5 60.3 Q 618.5 59.8, 618.3 59.6 Q 618.1 59.4, 617.6 59.4 Q 617.3 59.4, 617.0 59.4 Q 616.8 59.5, 616.4 59.6 L 616.2 59.1 Q 616.9 58.8, 617.6 58.8 Q 618.5 58.8, 618.8 59.2 Q 619.2 59.5, 619.2 60.3 L 619.2 62.8 L 618.7 62.8 Q 618.7 62.8, 618.6 62.7 Q 618.6 62.5, 618.6 62.3 Q 618.0 62.9, 617.3 62.9 Q 616.7 62.9, 616.3 62.6 Q 616.0 62.3, 616.0 61.7 M 616.7 61.7 Q 616.7 62.0, 616.9 62.2 Q 617.1 62.3, 617.4 62.3 Q 617.7 62.3, 618.0 62.2 Q 618.3 62.0, 618.5 61.8 L 618.5 61.0 L 618.0 61.0 Q 617.3 61.0, 617.0 61.1 Q 616.7 61.3, 616.7 61.7 " fill="#000000"/>
<path class="atom-56" d="M 619.7 59.0 L 620.6 59.0 L 620.6 58.0 L 621.1 58.0 L 621.1 59.0 L 622.0 59.0 L 622.0 59.4 L 621.1 59.4 L 621.1 60.4 L 620.6 60.4 L 620.6 59.4 L 619.7 59.4 L 619.7 59.0 " fill="#000000"/>
<path class="atom-57" d="M 612.4 44.6 L 614.2 47.5 Q 614.3 47.8, 614.6 48.3 Q 614.9 48.8, 614.9 48.8 L 614.9 44.6 L 615.6 44.6 L 615.6 50.0 L 614.9 50.0 L 613.0 46.9 Q 612.8 46.5, 612.5 46.1 Q 612.3 45.7, 612.2 45.5 L 612.2 50.0 L 611.5 50.0 L 611.5 44.6 L 612.4 44.6 " fill="#000000"/>
<path class="atom-57" d="M 616.0 49.0 Q 616.0 48.3, 616.5 48.0 Q 617.0 47.6, 617.9 47.6 L 618.5 47.6 L 618.5 47.5 Q 618.5 47.0, 618.3 46.8 Q 618.1 46.6, 617.6 46.6 Q 617.3 46.6, 617.0 46.6 Q 616.8 46.7, 616.4 46.9 L 616.2 46.4 Q 616.9 46.0, 617.6 46.0 Q 618.5 46.0, 618.8 46.4 Q 619.2 46.7, 619.2 47.5 L 619.2 50.0 L 618.7 50.0 Q 618.7 50.0, 618.6 49.9 Q 618.6 49.8, 618.6 49.6 Q 618.0 50.1, 617.3 50.1 Q 616.7 50.1, 616.3 49.8 Q 616.0 49.5, 616.0 49.0 M 616.7 48.9 Q 616.7 49.2, 616.9 49.4 Q 617.1 49.6, 617.4 49.6 Q 617.7 49.6, 618.0 49.4 Q 618.3 49.3, 618.5 49.0 L 618.5 48.2 L 618.0 48.2 Q 617.3 48.2, 617.0 48.4 Q 616.7 48.6, 616.7 48.9 " fill="#000000"/>
<path class="atom-57" d="M 619.7 46.2 L 620.6 46.2 L 620.6 45.2 L 621.1 45.2 L 621.1 46.2 L 622.0 46.2 L 622.0 46.6 L 621.1 46.6 L 621.1 47.6 L 620.6 47.6 L 620.6 46.6 L 619.7 46.6 L 619.7 46.2 " fill="#000000"/>
<path d="M 574.8 388.1 Q 574.8 385.2, 576.1 383.8 Q 577.4 382.3, 579.9 382.3 Q 582.3 382.3, 583.5 383.9 L 582.5 384.8 Q 581.5 383.6, 579.9 383.6 Q 578.2 383.6, 577.3 384.7 Q 576.4 385.9, 576.4 388.1 Q 576.4 390.3, 577.3 391.4 Q 578.3 392.6, 580.1 392.6 Q 581.4 392.6, 582.8 391.8 L 583.3 393.0 Q 582.7 393.4, 581.8 393.7 Q 580.9 393.9, 579.9 393.9 Q 577.4 393.9, 576.1 392.4 Q 574.8 390.9, 574.8 388.1 " fill="#000000"/>
<path d="M 584.9 381.6 L 586.4 381.6 L 586.4 393.7 L 584.9 393.7 L 584.9 381.6 " fill="#000000"/>
<path d="M 587.1 391.5 Q 587.1 390.2, 588.1 389.5 Q 589.2 388.8, 591.1 388.8 L 592.3 388.8 L 592.3 388.4 Q 592.3 387.4, 591.9 387.0 Q 591.5 386.6, 590.5 386.6 Q 589.8 386.6, 589.3 386.7 Q 588.8 386.8, 588.0 387.1 L 587.5 386.1 Q 589.0 385.4, 590.5 385.4 Q 592.2 385.4, 593.0 386.1 Q 593.8 386.9, 593.8 388.5 L 593.8 393.7 L 592.7 393.7 Q 592.6 393.7, 592.6 393.4 Q 592.6 393.2, 592.5 392.8 Q 591.3 393.9, 589.8 393.9 Q 588.5 393.9, 587.8 393.3 Q 587.1 392.6, 587.1 391.5 M 588.6 391.5 Q 588.6 392.1, 589.0 392.4 Q 589.3 392.7, 590.1 392.7 Q 590.7 392.7, 591.3 392.5 Q 591.9 392.2, 592.3 391.6 L 592.3 389.9 L 591.2 389.9 Q 589.9 389.9, 589.2 390.3 Q 588.6 390.7, 588.6 391.5 " fill="#000000"/>
<path d="M 595.1 392.0 Q 595.8 392.3, 596.3 392.5 Q 596.9 392.6, 597.4 392.6 Q 598.1 392.6, 598.5 392.3 Q 599.0 392.0, 599.0 391.4 Q 599.0 391.1, 598.7 390.8 Q 598.5 390.6, 598.2 390.5 Q 598.0 390.4, 597.3 390.1 Q 597.2 390.1, 596.4 389.8 Q 595.7 389.6, 595.3 389.0 Q 594.9 388.5, 594.9 387.7 Q 594.9 386.7, 595.7 386.0 Q 596.4 385.4, 597.9 385.4 Q 598.6 385.4, 599.1 385.5 Q 599.7 385.7, 600.3 385.9 L 599.9 387.1 Q 599.3 386.9, 598.9 386.7 Q 598.4 386.6, 597.9 386.6 Q 597.2 386.6, 596.8 386.9 Q 596.4 387.2, 596.4 387.7 Q 596.4 388.1, 596.7 388.4 Q 597.0 388.6, 597.7 388.8 Q 597.9 388.9, 598.0 388.9 L 598.4 389.1 Q 599.1 389.3, 599.5 389.5 Q 599.9 389.7, 600.2 390.2 Q 600.5 390.6, 600.5 391.4 Q 600.5 392.6, 599.6 393.2 Q 598.8 393.9, 597.4 393.9 Q 596.6 393.9, 596.0 393.7 Q 595.3 393.5, 594.6 393.3 L 595.1 392.0 " fill="#000000"/>
<path d="M 601.7 392.0 Q 602.4 392.3, 603.0 392.5 Q 603.5 392.6, 604.0 392.6 Q 604.8 392.6, 605.2 392.3 Q 605.6 392.0, 605.6 391.4 Q 605.6 391.1, 605.4 390.8 Q 605.1 390.6, 604.9 390.5 Q 604.6 390.4, 603.9 390.1 Q 603.8 390.1, 603.0 389.8 Q 602.3 389.6, 601.9 389.0 Q 601.5 388.5, 601.5 387.7 Q 601.5 386.7, 602.3 386.0 Q 603.1 385.4, 604.6 385.4 Q 605.2 385.4, 605.7 385.5 Q 606.3 385.7, 606.9 385.9 L 606.5 387.1 Q 606.0 386.9, 605.5 386.7 Q 605.0 386.6, 604.6 386.6 Q 603.8 386.6, 603.4 386.9 Q 603.0 387.2, 603.0 387.7 Q 603.0 388.1, 603.3 388.4 Q 603.6 388.6, 604.3 388.8 Q 604.5 388.9, 604.6 388.9 L 605.0 389.1 Q 605.7 389.3, 606.1 389.5 Q 606.5 389.7, 606.8 390.2 Q 607.1 390.6, 607.1 391.4 Q 607.1 392.6, 606.2 393.2 Q 605.4 393.9, 604.1 393.9 Q 603.3 393.9, 602.6 393.7 Q 601.9 393.5, 601.3 393.3 L 601.7 392.0 " fill="#000000"/>
<path d="" fill="#000000"/>
<path d="M 612.6 392.5 L 615.0 392.5 L 615.0 384.0 L 612.3 384.8 L 611.9 383.9 L 615.4 382.3 L 616.6 382.5 L 616.6 392.5 L 618.8 392.5 L 618.8 393.7 L 612.6 393.7 L 612.6 392.5 " fill="#000000"/>
<path class="bond-0 atom-0 atom-5" d="M 297.5,547.3 L 278.7,550.8" style="fill:none;fill-rule:evenodd;stroke:#000000;stroke-width:2.0px;stroke-linecap:butt;stroke-linejoin:miter;stroke-opacity:1"/>
<path class="bond-1 atom-1 atom-6" d="M 305.0,562.7 L 290.5,575.2" style="fill:none;fill-rule:evenodd;stroke:#000000;stroke-width:2.0px;stroke-linecap:butt;stroke-linejoin:miter;stroke-opacity:1"/>
<path class="bond-2 atom-2 atom-17" d="M 266.1,587.0 L 272.4,568.9" style="fill:none;fill-rule:evenodd;stroke:#000000;stroke-width:2.0px;stroke-linecap:butt;stroke-linejoin:miter;stroke-opacity:1"/>
<path class="bond-3 atom-3 atom-21" d="M 181.4,522.5 L 173.7,524.8" style="fill:none;fill-rule:evenodd;stroke:#000000;stroke-width:2.0px;stroke-linecap:butt;stroke-linejoin:miter;stroke-opacity:1"/>
<path class="bond-3 atom-3 atom-21" d="M 173.7,524.8 L 166.0,527.1" style="fill:none;fill-rule:evenodd;stroke:#FF0000;stroke-width:2.0px;stroke-linecap:butt;stroke-linejoin:miter;stroke-opacity:1"/>
<path class="bond-4 atom-4 atom-22" d="M 177.8,610.2 L 179.6,602.5" style="fill:none;fill-rule:evenodd;stroke:#000000;stroke-width:2.0px;stroke-linecap:butt;stroke-linejoin:miter;stroke-opacity:1"/>
<path class="bond-4 atom-4 atom-22" d="M 179.6,602.5 L 181.4,594.9" style="fill:none;fill-rule:evenodd;stroke:#FF0000;stroke-width:2.0px;stroke-linecap:butt;stroke-linejoin:miter;stroke-opacity:1"/>
<path class="bond-5 atom-5 atom-17" d="M 278.7,550.8 L 272.4,568.9" style="fill:none;fill-rule:evenodd;stroke:#000000;stroke-width:2.0px;stroke-linecap:butt;stroke-linejoin:miter;stroke-opacity:1"/>
<path class="bond-6 atom-6 atom-17" d="M 290.5,575.2 L 272.4,568.9" style="fill:none;fill-rule:evenodd;stroke:#000000;stroke-width:2.0px;stroke-linecap:butt;stroke-linejoin:miter;stroke-opacity:1"/>
<path class="bond-7 atom-7 atom-8" d="M 135.9,570.8 L 140.3,552.1" style="fill:none;fill-rule:evenodd;stroke:#000000;stroke-width:2.0px;stroke-linecap:butt;stroke-linejoin:miter;stroke-opacity:1"/>
<path class="bond-7 atom-7 atom-8" d="M 140.3,568.9 L 143.4,555.8" style="fill:none;fill-rule:evenodd;stroke:#000000;stroke-width:2.0px;stroke-linecap:butt;stroke-linejoin:miter;stroke-opacity:1"/>
<path class="bond-8 atom-7 atom-9" d="M 135.9,570.8 L 149.9,583.9" style="fill:none;fill-rule:evenodd;stroke:#000000;stroke-width:2.0px;stroke-linecap:butt;stroke-linejoin:miter;stroke-opacity:1"/>
<path class="bond-9 atom-8 atom-11" d="M 140.3,552.1 L 158.7,546.6" style="fill:none;fill-rule:evenodd;stroke:#000000;stroke-width:2.0px;stroke-linecap:butt;stroke-linejoin:miter;stroke-opacity:1"/>
<path class="bond-10 atom-9 atom-12" d="M 149.9,583.9 L 168.2,578.4" style="fill:none;fill-rule:evenodd;stroke:#000000;stroke-width:2.0px;stroke-linecap:butt;stroke-linejoin:miter;stroke-opacity:1"/>
<path class="bond-10 atom-9 atom-12" d="M 151.5,579.4 L 164.4,575.6" style="fill:none;fill-rule:evenodd;stroke:#000000;stroke-width:2.0px;stroke-linecap:butt;stroke-linejoin:miter;stroke-opacity:1"/>
<path class="bond-11 atom-10 atom-13" d="M 238.5,573.5 L 254.3,562.6" style="fill:none;fill-rule:evenodd;stroke:#000000;stroke-width:2.0px;stroke-linecap:butt;stroke-linejoin:miter;stroke-opacity:1"/>
<path class="bond-12 atom-10 atom-14" d="M 238.5,573.5 L 223.3,561.9" style="fill:none;fill-rule:evenodd;stroke:#000000;stroke-width:2.0px;stroke-linecap:butt;stroke-linejoin:miter;stroke-opacity:1"/>
<path class="bond-12 atom-10 atom-14" d="M 238.6,568.7 L 227.9,560.6" style="fill:none;fill-rule:evenodd;stroke:#000000;stroke-width:2.0px;stroke-linecap:butt;stroke-linejoin:miter;stroke-opacity:1"/>
<path class="bond-13 atom-11 atom-15" d="M 158.7,546.6 L 172.6,559.8" style="fill:none;fill-rule:evenodd;stroke:#000000;stroke-width:2.0px;stroke-linecap:butt;stroke-linejoin:miter;stroke-opacity:1"/>
<path class="bond-13 atom-11 atom-15" d="M 158.1,551.4 L 167.9,560.6" style="fill:none;fill-rule:evenodd;stroke:#000000;stroke-width:2.0px;stroke-linecap:butt;stroke-linejoin:miter;stroke-opacity:1"/>
<path class="bond-14 atom-11 atom-21" d="M 158.7,546.6 L 160.5,539.0" style="fill:none;fill-rule:evenodd;stroke:#000000;stroke-width:2.0px;stroke-linecap:butt;stroke-linejoin:miter;stroke-opacity:1"/>
<path class="bond-14 atom-11 atom-21" d="M 160.5,539.0 L 162.3,531.3" style="fill:none;fill-rule:evenodd;stroke:#FF0000;stroke-width:2.0px;stroke-linecap:butt;stroke-linejoin:miter;stroke-opacity:1"/>
<path class="bond-15 atom-12 atom-15" d="M 168.2,578.4 L 172.6,559.8" style="fill:none;fill-rule:evenodd;stroke:#000000;stroke-width:2.0px;stroke-linecap:butt;stroke-linejoin:miter;stroke-opacity:1"/>
<path class="bond-16 atom-12 atom-22" d="M 168.2,578.4 L 173.7,583.6" style="fill:none;fill-rule:evenodd;stroke:#000000;stroke-width:2.0px;stroke-linecap:butt;stroke-linejoin:miter;stroke-opacity:1"/>
<path class="bond-16 atom-12 atom-22" d="M 173.7,583.6 L 179.2,588.8" style="fill:none;fill-rule:evenodd;stroke:#FF0000;stroke-width:2.0px;stroke-linecap:butt;stroke-linejoin:miter;stroke-opacity:1"/>
<path class="bond-17 atom-13 atom-17" d="M 254.3,562.6 L 272.4,568.9" style="fill:none;fill-rule:evenodd;stroke:#000000;stroke-width:2.0px;stroke-linecap:butt;stroke-linejoin:miter;stroke-opacity:1"/>
<path class="bond-18 atom-13 atom-19" d="M 254.3,562.6 L 252.0,555.0" style="fill:none;fill-rule:evenodd;stroke:#000000;stroke-width:2.0px;stroke-linecap:butt;stroke-linejoin:miter;stroke-opacity:1"/>
<path class="bond-18 atom-13 atom-19" d="M 252.0,555.0 L 249.7,547.4" style="fill:none;fill-rule:evenodd;stroke:#0000FF;stroke-width:2.0px;stroke-linecap:butt;stroke-linejoin:miter;stroke-opacity:1"/>
<path class="bond-18 atom-13 atom-19" d="M 249.9,561.4 L 248.3,556.1" style="fill:none;fill-rule:evenodd;stroke:#000000;stroke-width:2.0px;stroke-linecap:butt;stroke-linejoin:miter;stroke-opacity:1"/>
<path class="bond-18 atom-13 atom-19" d="M 248.3,556.1 L 246.7,550.8" style="fill:none;fill-rule:evenodd;stroke:#0000FF;stroke-width:2.0px;stroke-linecap:butt;stroke-linejoin:miter;stroke-opacity:1"/>
<path class="bond-19 atom-14 atom-18" d="M 223.3,561.9 L 215.4,564.3" style="fill:none;fill-rule:evenodd;stroke:#000000;stroke-width:2.0px;stroke-linecap:butt;stroke-linejoin:miter;stroke-opacity:1"/>
<path class="bond-19 atom-14 atom-18" d="M 215.4,564.3 L 207.5,566.6" style="fill:none;fill-rule:evenodd;stroke:#0000FF;stroke-width:2.0px;stroke-linecap:butt;stroke-linejoin:miter;stroke-opacity:1"/>
<path class="bond-20 atom-14 atom-23" d="M 223.3,561.9 L 225.9,554.5" style="fill:none;fill-rule:evenodd;stroke:#000000;stroke-width:2.0px;stroke-linecap:butt;stroke-linejoin:miter;stroke-opacity:1"/>
<path class="bond-20 atom-14 atom-23" d="M 225.9,554.5 L 228.5,547.1" style="fill:none;fill-rule:evenodd;stroke:#FF0000;stroke-width:2.0px;stroke-linecap:butt;stroke-linejoin:miter;stroke-opacity:1"/>
<path class="bond-21 atom-15 atom-16" d="M 172.6,559.8 L 191.0,554.3" style="fill:none;fill-rule:evenodd;stroke:#000000;stroke-width:2.0px;stroke-linecap:butt;stroke-linejoin:miter;stroke-opacity:1"/>
<path class="bond-22 atom-16 atom-18" d="M 191.0,554.3 L 196.7,559.6" style="fill:none;fill-rule:evenodd;stroke:#000000;stroke-width:2.0px;stroke-linecap:butt;stroke-linejoin:miter;stroke-opacity:1"/>
<path class="bond-22 atom-16 atom-18" d="M 196.7,559.6 L 202.4,565.0" style="fill:none;fill-rule:evenodd;stroke:#0000FF;stroke-width:2.0px;stroke-linecap:butt;stroke-linejoin:miter;stroke-opacity:1"/>
<path class="bond-23 atom-16 atom-20" d="M 192.8,554.7 L 194.7,547.0" style="fill:none;fill-rule:evenodd;stroke:#000000;stroke-width:2.0px;stroke-linecap:butt;stroke-linejoin:miter;stroke-opacity:1"/>
<path class="bond-23 atom-16 atom-20" d="M 194.7,547.0 L 196.5,539.4" style="fill:none;fill-rule:evenodd;stroke:#FF0000;stroke-width:2.0px;stroke-linecap:butt;stroke-linejoin:miter;stroke-opacity:1"/>
<path class="bond-23 atom-16 atom-20" d="M 189.1,553.8 L 190.9,546.1" style="fill:none;fill-rule:evenodd;stroke:#000000;stroke-width:2.0px;stroke-linecap:butt;stroke-linejoin:miter;stroke-opacity:1"/>
<path class="bond-23 atom-16 atom-20" d="M 190.9,546.1 L 192.7,538.5" style="fill:none;fill-rule:evenodd;stroke:#FF0000;stroke-width:2.0px;stroke-linecap:butt;stroke-linejoin:miter;stroke-opacity:1"/>
<path class="bond-24 atom-19 atom-23" d="M 246.2,544.2 L 239.4,544.0" style="fill:none;fill-rule:evenodd;stroke:#0000FF;stroke-width:2.0px;stroke-linecap:butt;stroke-linejoin:miter;stroke-opacity:1"/>
<path class="bond-24 atom-19 atom-23" d="M 239.4,544.0 L 232.5,543.9" style="fill:none;fill-rule:evenodd;stroke:#FF0000;stroke-width:2.0px;stroke-linecap:butt;stroke-linejoin:miter;stroke-opacity:1"/>
<path class="atom-18" d="M 203.7 564.7 L 205.5 567.6 Q 205.7 567.8, 206.0 568.4 Q 206.3 568.9, 206.3 568.9 L 206.3 564.7 L 207.0 564.7 L 207.0 570.1 L 206.2 570.1 L 204.3 567.0 Q 204.1 566.6, 203.9 566.2 Q 203.6 565.8, 203.6 565.6 L 203.6 570.1 L 202.9 570.1 L 202.9 564.7 L 203.7 564.7 " fill="#0000FF"/>
<path class="atom-18" d="M 202.8 570.7 L 203.5 570.7 L 203.5 573.0 L 206.3 573.0 L 206.3 570.7 L 207.1 570.7 L 207.1 576.1 L 206.3 576.1 L 206.3 573.6 L 203.5 573.6 L 203.5 576.1 L 202.8 576.1 L 202.8 570.7 " fill="#0000FF"/>
<path class="atom-19" d="M 247.6 541.5 L 249.4 544.4 Q 249.5 544.7, 249.8 545.2 Q 250.1 545.7, 250.1 545.7 L 250.1 541.5 L 250.8 541.5 L 250.8 546.9 L 250.1 546.9 L 248.2 543.8 Q 248.0 543.4, 247.7 543.0 Q 247.5 542.6, 247.4 542.5 L 247.4 546.9 L 246.7 546.9 L 246.7 541.5 L 247.6 541.5 " fill="#0000FF"/>
<path class="atom-20" d="M 192.9 535.6 Q 192.9 534.3, 193.5 533.6 Q 194.2 532.9, 195.4 532.9 Q 196.6 532.9, 197.2 533.6 Q 197.9 534.3, 197.9 535.6 Q 197.9 536.9, 197.2 537.7 Q 196.6 538.4, 195.4 538.4 Q 194.2 538.4, 193.5 537.7 Q 192.9 536.9, 192.9 535.6 M 195.4 537.8 Q 196.2 537.8, 196.7 537.3 Q 197.1 536.7, 197.1 535.6 Q 197.1 534.6, 196.7 534.0 Q 196.2 533.5, 195.4 533.5 Q 194.6 533.5, 194.1 534.0 Q 193.7 534.5, 193.7 535.6 Q 193.7 536.7, 194.1 537.3 Q 194.6 537.8, 195.4 537.8 " fill="#FF0000"/>
<path class="atom-21" d="M 160.6 528.0 Q 160.6 526.7, 161.2 526.0 Q 161.9 525.2, 163.1 525.2 Q 164.3 525.2, 164.9 526.0 Q 165.6 526.7, 165.6 528.0 Q 165.6 529.3, 164.9 530.1 Q 164.3 530.8, 163.1 530.8 Q 161.9 530.8, 161.2 530.1 Q 160.6 529.3, 160.6 528.0 M 163.1 530.2 Q 163.9 530.2, 164.3 529.6 Q 164.8 529.1, 164.8 528.0 Q 164.8 526.9, 164.3 526.4 Q 163.9 525.8, 163.1 525.8 Q 162.2 525.8, 161.8 526.4 Q 161.3 526.9, 161.3 528.0 Q 161.3 529.1, 161.8 529.6 Q 162.2 530.2, 163.1 530.2 " fill="#FF0000"/>
<path class="atom-22" d="M 179.7 591.6 Q 179.7 590.3, 180.3 589.6 Q 181.0 588.8, 182.2 588.8 Q 183.4 588.8, 184.0 589.6 Q 184.7 590.3, 184.7 591.6 Q 184.7 592.9, 184.0 593.7 Q 183.4 594.4, 182.2 594.4 Q 181.0 594.4, 180.3 593.7 Q 179.7 592.9, 179.7 591.6 M 182.2 593.8 Q 183.0 593.8, 183.4 593.2 Q 183.9 592.7, 183.9 591.6 Q 183.9 590.5, 183.4 590.0 Q 183.0 589.4, 182.2 589.4 Q 181.3 589.4, 180.9 590.0 Q 180.4 590.5, 180.4 591.6 Q 180.4 592.7, 180.9 593.2 Q 181.3 593.8, 182.2 593.8 " fill="#FF0000"/>
<path class="atom-23" d="M 227.1 543.8 Q 227.1 542.5, 227.8 541.8 Q 228.4 541.0, 229.6 541.0 Q 230.8 541.0, 231.5 541.8 Q 232.1 542.5, 232.1 543.8 Q 232.1 545.1, 231.5 545.9 Q 230.8 546.6, 229.6 546.6 Q 228.4 546.6, 227.8 545.9 Q 227.1 545.1, 227.1 543.8 M 229.6 546.0 Q 230.4 546.0, 230.9 545.5 Q 231.3 544.9, 231.3 543.8 Q 231.3 542.7, 230.9 542.2 Q 230.4 541.7, 229.6 541.7 Q 228.8 541.7, 228.3 542.2 Q 227.9 542.7, 227.9 543.8 Q 227.9 544.9, 228.3 545.5 Q 228.8 546.0, 229.6 546.0 " fill="#FF0000"/>
<path d="M 174.5 788.1 Q 174.5 785.2, 175.8 783.8 Q 177.2 782.3, 179.7 782.3 Q 182.0 782.3, 183.3 783.9 L 182.2 784.8 Q 181.3 783.6, 179.7 783.6 Q 178.0 783.6, 177.1 784.7 Q 176.2 785.9, 176.2 788.1 Q 176.2 790.3, 177.1 791.4 Q 178.0 792.6, 179.9 792.6 Q 181.1 792.6, 182.6 791.8 L 183.0 793.0 Q 182.4 793.4, 181.5 793.7 Q 180.6 793.9, 179.6 793.9 Q 177.2 793.9, 175.8 792.4 Q 174.5 790.9, 174.5 788.1 " fill="#000000"/>
<path d="M 184.6 781.6 L 186.1 781.6 L 186.1 793.7 L 184.6 793.7 L 184.6 781.6 " fill="#000000"/>
<path d="M 186.8 791.5 Q 186.8 790.2, 187.9 789.5 Q 188.9 788.8, 190.9 788.8 L 192.1 788.8 L 192.1 788.4 Q 192.1 787.4, 191.6 787.0 Q 191.2 786.6, 190.2 786.6 Q 189.6 786.6, 189.0 786.7 Q 188.5 786.8, 187.7 787.1 L 187.3 786.1 Q 188.8 785.4, 190.2 785.4 Q 192.0 785.4, 192.8 786.1 Q 193.6 786.9, 193.6 788.5 L 193.6 793.7 L 192.4 793.7 Q 192.4 793.7, 192.4 793.4 Q 192.3 793.2, 192.2 792.8 Q 191.1 793.9, 189.5 793.9 Q 188.3 793.9, 187.6 793.3 Q 186.8 792.6, 186.8 791.5 M 188.3 791.5 Q 188.3 792.1, 188.7 792.4 Q 189.1 792.7, 189.8 792.7 Q 190.4 792.7, 191.1 792.5 Q 191.7 792.2, 192.1 791.6 L 192.1 789.9 L 191.0 789.9 Q 189.6 789.9, 189.0 790.3 Q 188.3 790.7, 188.3 791.5 " fill="#000000"/>
<path d="M 194.8 792.0 Q 195.6 792.3, 196.1 792.5 Q 196.6 792.6, 197.2 792.6 Q 197.9 792.6, 198.3 792.3 Q 198.7 792.0, 198.7 791.4 Q 198.7 791.1, 198.5 790.8 Q 198.3 790.6, 198.0 790.5 Q 197.7 790.4, 197.0 790.1 Q 196.9 790.1, 196.2 789.8 Q 195.4 789.6, 195.0 789.0 Q 194.7 788.5, 194.7 787.7 Q 194.7 786.7, 195.4 786.0 Q 196.2 785.4, 197.7 785.4 Q 198.3 785.4, 198.8 785.5 Q 199.4 785.7, 200.0 785.9 L 199.6 787.1 Q 199.1 786.9, 198.6 786.7 Q 198.2 786.6, 197.7 786.6 Q 196.9 786.6, 196.5 786.9 Q 196.2 787.2, 196.2 787.7 Q 196.2 788.1, 196.5 788.4 Q 196.8 788.6, 197.4 788.8 Q 197.6 788.9, 197.8 788.9 L 198.1 789.1 Q 198.8 789.3, 199.2 789.5 Q 199.6 789.7, 199.9 790.2 Q 200.2 790.6, 200.2 791.4 Q 200.2 792.6, 199.4 793.2 Q 198.5 793.9, 197.2 793.9 Q 196.4 793.9, 195.7 793.7 Q 195.1 793.5, 194.4 793.3 L 194.8 792.0 " fill="#000000"/>
<path d="M 201.5 792.0 Q 202.2 792.3, 202.7 792.5 Q 203.2 792.6, 203.8 792.6 Q 204.5 792.6, 204.9 792.3 Q 205.3 792.0, 205.3 791.4 Q 205.3 791.1, 205.1 790.8 Q 204.9 790.6, 204.6 790.5 Q 204.4 790.4, 203.6 790.1 Q 203.5 790.1, 202.8 789.8 Q 202.1 789.6, 201.7 789.0 Q 201.3 788.5, 201.3 787.7 Q 201.3 786.7, 202.0 786.0 Q 202.8 785.4, 204.3 785.4 Q 204.9 785.4, 205.5 785.5 Q 206.0 785.7, 206.6 785.9 L 206.2 787.1 Q 205.7 786.9, 205.2 786.7 Q 204.8 786.6, 204.3 786.6 Q 203.6 786.6, 203.2 786.9 Q 202.8 787.2, 202.8 787.7 Q 202.8 788.1, 203.1 788.4 Q 203.4 788.6, 204.1 788.8 Q 204.2 788.9, 204.4 788.9 L 204.8 789.1 Q 205.4 789.3, 205.8 789.5 Q 206.3 789.7, 206.5 790.2 Q 206.8 790.6, 206.8 791.4 Q 206.8 792.6, 206.0 793.2 Q 205.2 793.9, 203.8 793.9 Q 203.0 793.9, 202.4 793.7 Q 201.7 793.5, 201.0 793.3 L 201.5 792.0 " fill="#000000"/>
<path d="" fill="#000000"/>
<path d="M 211.7 784.6 Q 212.1 783.5, 213.1 782.9 Q 214.1 782.3, 215.4 782.3 Q 217.2 782.3, 218.1 783.2 Q 219.1 784.1, 219.1 785.8 Q 219.1 787.5, 217.8 789.0 Q 216.6 790.6, 214.0 792.5 L 219.3 792.5 L 219.3 793.7 L 211.6 793.7 L 211.6 792.7 Q 213.7 791.2, 215.0 790.0 Q 216.3 788.9, 216.9 787.9 Q 217.5 786.9, 217.5 785.9 Q 217.5 784.8, 216.9 784.2 Q 216.4 783.6, 215.4 783.6 Q 214.5 783.6, 213.9 783.9 Q 213.3 784.3, 212.9 785.1 L 211.7 784.6 " fill="#000000"/>
<path class="bond-0 atom-19 atom-0" d="M 644.1,564.6 L 663.1,567.5 L 663.3,563.7 Z" style="fill:#000000;fill-rule:evenodd;fill-opacity:1;stroke:#000000;stroke-width:2.0px;stroke-linecap:butt;stroke-linejoin:miter;stroke-opacity:1;"/>
<path class="bond-1 atom-20 atom-1" d="M 586.7,561.5 L 573.1,575.2 L 576.1,577.6 Z" style="fill:#000000;fill-rule:evenodd;fill-opacity:1;stroke:#000000;stroke-width:2.0px;stroke-linecap:butt;stroke-linejoin:miter;stroke-opacity:1;"/>
<path class="bond-2 atom-2 atom-3" d="M 645.9,531.4 L 626.7,530.4" style="fill:none;fill-rule:evenodd;stroke:#000000;stroke-width:2.0px;stroke-linecap:butt;stroke-linejoin:miter;stroke-opacity:1"/>
<path class="bond-3 atom-2 atom-11" d="M 645.9,531.4 L 654.5,548.5" style="fill:none;fill-rule:evenodd;stroke:#000000;stroke-width:2.0px;stroke-linecap:butt;stroke-linejoin:miter;stroke-opacity:1"/>
<path class="bond-4 atom-3 atom-13" d="M 626.7,530.4 L 616.3,546.4" style="fill:none;fill-rule:evenodd;stroke:#000000;stroke-width:2.0px;stroke-linecap:butt;stroke-linejoin:miter;stroke-opacity:1"/>
<path class="bond-5 atom-4 atom-5" d="M 585.1,530.5 L 567.2,537.4" style="fill:none;fill-rule:evenodd;stroke:#000000;stroke-width:2.0px;stroke-linecap:butt;stroke-linejoin:miter;stroke-opacity:1"/>
<path class="bond-6 atom-4 atom-14" d="M 585.1,530.5 L 597.1,545.4" style="fill:none;fill-rule:evenodd;stroke:#000000;stroke-width:2.0px;stroke-linecap:butt;stroke-linejoin:miter;stroke-opacity:1"/>
<path class="bond-7 atom-5 atom-15" d="M 567.2,537.4 L 568.2,556.5" style="fill:none;fill-rule:evenodd;stroke:#000000;stroke-width:2.0px;stroke-linecap:butt;stroke-linejoin:miter;stroke-opacity:1"/>
<path class="bond-8 atom-6 atom-7" d="M 671.9,582.7 L 652.8,581.6" style="fill:none;fill-rule:evenodd;stroke:#000000;stroke-width:2.0px;stroke-linecap:butt;stroke-linejoin:miter;stroke-opacity:1"/>
<path class="bond-9 atom-6 atom-12" d="M 671.9,582.7 L 682.4,566.6" style="fill:none;fill-rule:evenodd;stroke:#000000;stroke-width:2.0px;stroke-linecap:butt;stroke-linejoin:miter;stroke-opacity:1"/>
<path class="bond-10 atom-7 atom-19" d="M 652.8,581.6 L 644.1,564.6" style="fill:none;fill-rule:evenodd;stroke:#000000;stroke-width:2.0px;stroke-linecap:butt;stroke-linejoin:miter;stroke-opacity:1"/>
<path class="bond-11 atom-8 atom-11" d="M 673.7,549.5 L 654.5,548.5" style="fill:none;fill-rule:evenodd;stroke:#000000;stroke-width:2.0px;stroke-linecap:butt;stroke-linejoin:miter;stroke-opacity:1"/>
<path class="bond-11 atom-8 atom-11" d="M 670.6,553.2 L 657.2,552.5" style="fill:none;fill-rule:evenodd;stroke:#000000;stroke-width:2.0px;stroke-linecap:butt;stroke-linejoin:miter;stroke-opacity:1"/>
<path class="bond-12 atom-8 atom-12" d="M 673.7,549.5 L 682.4,566.6" style="fill:none;fill-rule:evenodd;stroke:#000000;stroke-width:2.0px;stroke-linecap:butt;stroke-linejoin:miter;stroke-opacity:1"/>
<path class="bond-13 atom-9 atom-16" d="M 595.4,578.6 L 614.5,579.6" style="fill:none;fill-rule:evenodd;stroke:#000000;stroke-width:2.0px;stroke-linecap:butt;stroke-linejoin:miter;stroke-opacity:1"/>
<path class="bond-14 atom-9 atom-20" d="M 595.4,578.6 L 586.7,561.5" style="fill:none;fill-rule:evenodd;stroke:#000000;stroke-width:2.0px;stroke-linecap:butt;stroke-linejoin:miter;stroke-opacity:1"/>
<path class="bond-15 atom-10 atom-17" d="M 535.4,561.7 L 553.3,568.6" style="fill:none;fill-rule:evenodd;stroke:#000000;stroke-width:2.0px;stroke-linecap:butt;stroke-linejoin:miter;stroke-opacity:1"/>
<path class="bond-16 atom-10 atom-21" d="M 535.4,561.7 L 529.4,566.5" style="fill:none;fill-rule:evenodd;stroke:#000000;stroke-width:2.0px;stroke-linecap:butt;stroke-linejoin:miter;stroke-opacity:1"/>
<path class="bond-16 atom-10 atom-21" d="M 529.4,566.5 L 523.4,571.3" style="fill:none;fill-rule:evenodd;stroke:#FF0000;stroke-width:2.0px;stroke-linecap:butt;stroke-linejoin:miter;stroke-opacity:1"/>
<path class="bond-17 atom-11 atom-19" d="M 654.5,548.5 L 644.1,564.6" style="fill:none;fill-rule:evenodd;stroke:#000000;stroke-width:2.0px;stroke-linecap:butt;stroke-linejoin:miter;stroke-opacity:1"/>
<path class="bond-18 atom-12 atom-22" d="M 682.3,568.5 L 690.4,568.9" style="fill:none;fill-rule:evenodd;stroke:#000000;stroke-width:2.0px;stroke-linecap:butt;stroke-linejoin:miter;stroke-opacity:1"/>
<path class="bond-18 atom-12 atom-22" d="M 690.4,568.9 L 698.4,569.4" style="fill:none;fill-rule:evenodd;stroke:#FF0000;stroke-width:2.0px;stroke-linecap:butt;stroke-linejoin:miter;stroke-opacity:1"/>
<path class="bond-18 atom-12 atom-22" d="M 682.5,564.7 L 690.6,565.1" style="fill:none;fill-rule:evenodd;stroke:#000000;stroke-width:2.0px;stroke-linecap:butt;stroke-linejoin:miter;stroke-opacity:1"/>
<path class="bond-18 atom-12 atom-22" d="M 690.6,565.1 L 698.6,565.5" style="fill:none;fill-rule:evenodd;stroke:#FF0000;stroke-width:2.0px;stroke-linecap:butt;stroke-linejoin:miter;stroke-opacity:1"/>
<path class="bond-19 atom-13 atom-14" d="M 616.3,546.4 L 597.1,545.4" style="fill:none;fill-rule:evenodd;stroke:#000000;stroke-width:2.0px;stroke-linecap:butt;stroke-linejoin:miter;stroke-opacity:1"/>
<path class="bond-20 atom-13 atom-18" d="M 616.3,546.4 L 625.0,563.5" style="fill:none;fill-rule:evenodd;stroke:#000000;stroke-width:2.0px;stroke-linecap:butt;stroke-linejoin:miter;stroke-opacity:1"/>
<path class="bond-28 atom-13 atom-25" d="M 616.3,546.4 L 610.9,531.7 L 607.5,533.4 Z" style="fill:#000000;fill-rule:evenodd;fill-opacity:1;stroke:#000000;stroke-width:2.0px;stroke-linecap:butt;stroke-linejoin:miter;stroke-opacity:1;"/>
<path class="bond-21 atom-14 atom-20" d="M 597.1,545.4 L 586.7,561.5" style="fill:none;fill-rule:evenodd;stroke:#000000;stroke-width:2.0px;stroke-linecap:butt;stroke-linejoin:miter;stroke-opacity:1"/>
<path class="bond-29 atom-14 atom-26" d="M 598.4,550.6 L 599.6,550.1" style="fill:none;fill-rule:evenodd;stroke:#000000;stroke-width:1.0px;stroke-linecap:butt;stroke-linejoin:miter;stroke-opacity:1"/>
<path class="bond-29 atom-14 atom-26" d="M 599.7,555.7 L 602.1,554.8" style="fill:none;fill-rule:evenodd;stroke:#000000;stroke-width:1.0px;stroke-linecap:butt;stroke-linejoin:miter;stroke-opacity:1"/>
<path class="bond-29 atom-14 atom-26" d="M 601.0,560.8 L 604.5,559.4" style="fill:none;fill-rule:evenodd;stroke:#000000;stroke-width:1.0px;stroke-linecap:butt;stroke-linejoin:miter;stroke-opacity:1"/>
<path class="bond-22 atom-15 atom-17" d="M 568.2,556.5 L 552.1,567.1 L 554.5,570.1 Z" style="fill:#000000;fill-rule:evenodd;fill-opacity:1;stroke:#000000;stroke-width:2.0px;stroke-linecap:butt;stroke-linejoin:miter;stroke-opacity:1;"/>
<path class="bond-23 atom-15 atom-20" d="M 568.2,556.5 L 586.7,561.5" style="fill:none;fill-rule:evenodd;stroke:#000000;stroke-width:2.0px;stroke-linecap:butt;stroke-linejoin:miter;stroke-opacity:1"/>
<path class="bond-24 atom-16 atom-18" d="M 614.5,579.6 L 625.0,563.5" style="fill:none;fill-rule:evenodd;stroke:#000000;stroke-width:2.0px;stroke-linecap:butt;stroke-linejoin:miter;stroke-opacity:1"/>
<path class="bond-25 atom-16 atom-23" d="M 614.5,579.6 L 617.2,587.0 L 618.9,586.1 Z" style="fill:#000000;fill-rule:evenodd;fill-opacity:1;stroke:#000000;stroke-width:2.0px;stroke-linecap:butt;stroke-linejoin:miter;stroke-opacity:1;"/>
<path class="bond-25 atom-16 atom-23" d="M 617.2,587.0 L 623.3,592.6 L 619.8,594.3 Z" style="fill:#FF0000;fill-rule:evenodd;fill-opacity:1;stroke:#FF0000;stroke-width:2.0px;stroke-linecap:butt;stroke-linejoin:miter;stroke-opacity:1;"/>
<path class="bond-25 atom-16 atom-23" d="M 617.2,587.0 L 618.9,586.1 L 623.3,592.6 Z" style="fill:#FF0000;fill-rule:evenodd;fill-opacity:1;stroke:#FF0000;stroke-width:2.0px;stroke-linecap:butt;stroke-linejoin:miter;stroke-opacity:1;"/>
<path class="bond-26 atom-17 atom-24" d="M 551.4,568.9 L 552.6,576.7" style="fill:none;fill-rule:evenodd;stroke:#000000;stroke-width:2.0px;stroke-linecap:butt;stroke-linejoin:miter;stroke-opacity:1"/>
<path class="bond-26 atom-17 atom-24" d="M 552.6,576.7 L 553.8,584.6" style="fill:none;fill-rule:evenodd;stroke:#FF0000;stroke-width:2.0px;stroke-linecap:butt;stroke-linejoin:miter;stroke-opacity:1"/>
<path class="bond-26 atom-17 atom-24" d="M 555.2,568.3 L 556.4,576.1" style="fill:none;fill-rule:evenodd;stroke:#000000;stroke-width:2.0px;stroke-linecap:butt;stroke-linejoin:miter;stroke-opacity:1"/>
<path class="bond-26 atom-17 atom-24" d="M 556.4,576.1 L 557.6,584.0" style="fill:none;fill-rule:evenodd;stroke:#FF0000;stroke-width:2.0px;stroke-linecap:butt;stroke-linejoin:miter;stroke-opacity:1"/>
<path class="bond-27 atom-18 atom-19" d="M 625.0,563.5 L 644.1,564.6" style="fill:none;fill-rule:evenodd;stroke:#000000;stroke-width:2.0px;stroke-linecap:butt;stroke-linejoin:miter;stroke-opacity:1"/>
<path class="bond-30 atom-18 atom-27" d="M 626.7,568.5 L 627.9,567.9" style="fill:none;fill-rule:evenodd;stroke:#000000;stroke-width:1.0px;stroke-linecap:butt;stroke-linejoin:miter;stroke-opacity:1"/>
<path class="bond-30 atom-18 atom-27" d="M 628.5,573.4 L 630.8,572.2" style="fill:none;fill-rule:evenodd;stroke:#000000;stroke-width:1.0px;stroke-linecap:butt;stroke-linejoin:miter;stroke-opacity:1"/>
<path class="bond-30 atom-18 atom-27" d="M 630.3,578.3 L 633.7,576.6" style="fill:none;fill-rule:evenodd;stroke:#000000;stroke-width:1.0px;stroke-linecap:butt;stroke-linejoin:miter;stroke-opacity:1"/>
<path class="atom-21" d="M 513.3 571.0 L 514.1 571.0 L 514.1 573.4 L 516.9 573.4 L 516.9 571.0 L 517.6 571.0 L 517.6 576.5 L 516.9 576.5 L 516.9 574.0 L 514.1 574.0 L 514.1 576.5 L 513.3 576.5 L 513.3 571.0 " fill="#FF0000"/>
<path class="atom-21" d="M 518.0 573.7 Q 518.0 572.4, 518.6 571.7 Q 519.3 571.0, 520.5 571.0 Q 521.7 571.0, 522.3 571.7 Q 523.0 572.4, 523.0 573.7 Q 523.0 575.1, 522.3 575.8 Q 521.7 576.6, 520.5 576.6 Q 519.3 576.6, 518.6 575.8 Q 518.0 575.1, 518.0 573.7 M 520.5 575.9 Q 521.3 575.9, 521.7 575.4 Q 522.2 574.8, 522.2 573.7 Q 522.2 572.7, 521.7 572.1 Q 521.3 571.6, 520.5 571.6 Q 519.6 571.6, 519.2 572.1 Q 518.7 572.7, 518.7 573.7 Q 518.7 574.8, 519.2 575.4 Q 519.6 575.9, 520.5 575.9 " fill="#FF0000"/>
<path class="atom-22" d="M 699.0 567.6 Q 699.0 566.3, 699.7 565.6 Q 700.3 564.9, 701.5 564.9 Q 702.7 564.9, 703.4 565.6 Q 704.0 566.3, 704.0 567.6 Q 704.0 568.9, 703.3 569.7 Q 702.7 570.4, 701.5 570.4 Q 700.3 570.4, 699.7 569.7 Q 699.0 569.0, 699.0 567.6 M 701.5 569.8 Q 702.3 569.8, 702.8 569.3 Q 703.2 568.7, 703.2 567.6 Q 703.2 566.6, 702.8 566.0 Q 702.3 565.5, 701.5 565.5 Q 700.7 565.5, 700.2 566.0 Q 699.8 566.6, 699.8 567.6 Q 699.8 568.7, 700.2 569.3 Q 700.7 569.8, 701.5 569.8 " fill="#FF0000"/>
<path class="atom-23" d="M 620.7 596.7 Q 620.7 595.4, 621.3 594.7 Q 622.0 593.9, 623.2 593.9 Q 624.4 593.9, 625.0 594.7 Q 625.7 595.4, 625.7 596.7 Q 625.7 598.0, 625.0 598.8 Q 624.4 599.5, 623.2 599.5 Q 622.0 599.5, 621.3 598.8 Q 620.7 598.0, 620.7 596.7 M 623.2 598.9 Q 624.0 598.9, 624.5 598.3 Q 624.9 597.8, 624.9 596.7 Q 624.9 595.6, 624.5 595.1 Q 624.0 594.6, 623.2 594.6 Q 622.4 594.6, 621.9 595.1 Q 621.5 595.6, 621.5 596.7 Q 621.5 597.8, 621.9 598.3 Q 622.4 598.9, 623.2 598.9 " fill="#FF0000"/>
<path class="atom-23" d="M 626.3 594.0 L 627.1 594.0 L 627.1 596.3 L 629.8 596.3 L 629.8 594.0 L 630.6 594.0 L 630.6 599.4 L 629.8 599.4 L 629.8 596.9 L 627.1 596.9 L 627.1 599.4 L 626.3 599.4 L 626.3 594.0 " fill="#FF0000"/>
<path class="atom-24" d="M 553.7 587.5 Q 553.7 586.2, 554.4 585.5 Q 555.0 584.8, 556.2 584.8 Q 557.4 584.8, 558.1 585.5 Q 558.7 586.2, 558.7 587.5 Q 558.7 588.8, 558.1 589.6 Q 557.4 590.3, 556.2 590.3 Q 555.0 590.3, 554.4 589.6 Q 553.7 588.8, 553.7 587.5 M 556.2 589.7 Q 557.1 589.7, 557.5 589.2 Q 558.0 588.6, 558.0 587.5 Q 558.0 586.4, 557.5 585.9 Q 557.1 585.4, 556.2 585.4 Q 555.4 585.4, 555.0 585.9 Q 554.5 586.4, 554.5 587.5 Q 554.5 588.6, 555.0 589.2 Q 555.4 589.7, 556.2 589.7 " fill="#FF0000"/>
<path class="atom-25" d="M 605.5 526.6 L 606.2 526.6 L 606.2 529.0 L 609.0 529.0 L 609.0 526.6 L 609.7 526.6 L 609.7 532.1 L 609.0 532.1 L 609.0 529.6 L 606.2 529.6 L 606.2 532.1 L 605.5 532.1 L 605.5 526.6 " fill="#000000"/>
<path class="atom-26" d="M 601.9 560.6 L 602.6 560.6 L 602.6 562.9 L 605.4 562.9 L 605.4 560.6 L 606.1 560.6 L 606.1 566.0 L 605.4 566.0 L 605.4 563.5 L 602.6 563.5 L 602.6 566.0 L 601.9 566.0 L 601.9 560.6 " fill="#000000"/>
<path class="atom-27" d="M 631.5 577.9 L 632.3 577.9 L 632.3 580.2 L 635.0 580.2 L 635.0 577.9 L 635.8 577.9 L 635.8 583.3 L 635.0 583.3 L 635.0 580.8 L 632.3 580.8 L 632.3 583.3 L 631.5 583.3 L 631.5 577.9 " fill="#000000"/>
<path d="M 574.5 788.1 Q 574.5 785.2, 575.9 783.8 Q 577.2 782.3, 579.7 782.3 Q 582.0 782.3, 583.3 783.9 L 582.2 784.8 Q 581.3 783.6, 579.7 783.6 Q 578.0 783.6, 577.1 784.7 Q 576.2 785.9, 576.2 788.1 Q 576.2 790.3, 577.1 791.4 Q 578.1 792.6, 579.9 792.6 Q 581.1 792.6, 582.6 791.8 L 583.0 793.0 Q 582.4 793.4, 581.5 793.7 Q 580.6 793.9, 579.7 793.9 Q 577.2 793.9, 575.9 792.4 Q 574.5 790.9, 574.5 788.1 " fill="#000000"/>
<path d="M 584.7 781.6 L 586.1 781.6 L 586.1 793.7 L 584.7 793.7 L 584.7 781.6 " fill="#000000"/>
<path d="M 586.8 791.5 Q 586.8 790.2, 587.9 789.5 Q 588.9 788.8, 590.9 788.8 L 592.1 788.8 L 592.1 788.4 Q 592.1 787.4, 591.7 787.0 Q 591.3 786.6, 590.2 786.6 Q 589.6 786.6, 589.1 786.7 Q 588.5 786.8, 587.7 787.1 L 587.3 786.1 Q 588.8 785.4, 590.3 785.4 Q 592.0 785.4, 592.8 786.1 Q 593.6 786.9, 593.6 788.5 L 593.6 793.7 L 592.4 793.7 Q 592.4 793.7, 592.4 793.4 Q 592.3 793.2, 592.2 792.8 Q 591.1 793.9, 589.5 793.9 Q 588.3 793.9, 587.6 793.3 Q 586.8 792.6, 586.8 791.5 M 588.3 791.5 Q 588.3 792.1, 588.7 792.4 Q 589.1 792.7, 589.8 792.7 Q 590.5 792.7, 591.1 792.5 Q 591.7 792.2, 592.1 791.6 L 592.1 789.9 L 591.0 789.9 Q 589.7 789.9, 589.0 790.3 Q 588.3 790.7, 588.3 791.5 " fill="#000000"/>
<path d="M 594.9 792.0 Q 595.6 792.3, 596.1 792.5 Q 596.6 792.6, 597.2 792.6 Q 597.9 792.6, 598.3 792.3 Q 598.7 792.0, 598.7 791.4 Q 598.7 791.1, 598.5 790.8 Q 598.3 790.6, 598.0 790.5 Q 597.8 790.4, 597.0 790.1 Q 596.9 790.1, 596.2 789.8 Q 595.5 789.6, 595.1 789.0 Q 594.7 788.5, 594.7 787.7 Q 594.7 786.7, 595.4 786.0 Q 596.2 785.4, 597.7 785.4 Q 598.3 785.4, 598.9 785.5 Q 599.4 785.7, 600.0 785.9 L 599.6 787.1 Q 599.1 786.9, 598.6 786.7 Q 598.2 786.6, 597.7 786.6 Q 596.9 786.6, 596.6 786.9 Q 596.2 787.2, 596.2 787.7 Q 596.2 788.1, 596.5 788.4 Q 596.8 788.6, 597.5 788.8 Q 597.6 788.9, 597.8 788.9 L 598.2 789.1 Q 598.8 789.3, 599.2 789.5 Q 599.7 789.7, 599.9 790.2 Q 600.2 790.6, 600.2 791.4 Q 600.2 792.6, 599.4 793.2 Q 598.5 793.9, 597.2 793.9 Q 596.4 793.9, 595.7 793.7 Q 595.1 793.5, 594.4 793.3 L 594.9 792.0 " fill="#000000"/>
<path d="M 601.5 792.0 Q 602.2 792.3, 602.7 792.5 Q 603.3 792.6, 603.8 792.6 Q 604.5 792.6, 604.9 792.3 Q 605.3 792.0, 605.3 791.4 Q 605.3 791.1, 605.1 790.8 Q 604.9 790.6, 604.6 790.5 Q 604.4 790.4, 603.7 790.1 Q 603.6 790.1, 602.8 789.8 Q 602.1 789.6, 601.7 789.0 Q 601.3 788.5, 601.3 787.7 Q 601.3 786.7, 602.1 786.0 Q 602.8 785.4, 604.3 785.4 Q 604.9 785.4, 605.5 785.5 Q 606.1 785.7, 606.7 785.9 L 606.3 787.1 Q 605.7 786.9, 605.3 786.7 Q 604.8 786.6, 604.3 786.6 Q 603.6 786.6, 603.2 786.9 Q 602.8 787.2, 602.8 787.7 Q 602.8 788.1, 603.1 788.4 Q 603.4 788.6, 604.1 788.8 Q 604.3 788.9, 604.4 788.9 L 604.8 789.1 Q 605.5 789.3, 605.9 789.5 Q 606.3 789.7, 606.6 790.2 Q 606.9 790.6, 606.9 791.4 Q 606.9 792.6, 606.0 793.2 Q 605.2 793.9, 603.8 793.9 Q 603.0 793.9, 602.4 793.7 Q 601.7 793.5, 601.0 793.3 L 601.5 792.0 " fill="#000000"/>
<path d="" fill="#000000"/>
<path d="M 617.0 787.8 Q 618.1 788.1, 618.6 788.8 Q 619.1 789.5, 619.1 790.6 Q 619.1 791.6, 618.7 792.3 Q 618.2 793.1, 617.3 793.5 Q 616.4 793.9, 615.3 793.9 Q 614.1 793.9, 613.1 793.5 Q 612.2 793.0, 611.5 792.2 L 612.4 791.3 Q 613.1 792.0, 613.7 792.3 Q 614.3 792.6, 615.3 792.6 Q 616.3 792.6, 616.9 792.1 Q 617.5 791.5, 617.5 790.6 Q 617.5 789.5, 616.9 789.0 Q 616.2 788.4, 614.9 788.4 L 614.0 788.4 L 614.0 787.3 L 614.8 787.3 Q 616.0 787.3, 616.6 786.7 Q 617.3 786.2, 617.3 785.2 Q 617.3 784.4, 616.8 784.0 Q 616.2 783.6, 615.3 783.6 Q 614.3 783.6, 613.7 783.9 Q 613.2 784.2, 612.7 785.1 L 611.6 784.5 Q 612.0 783.5, 613.0 782.9 Q 613.9 782.3, 615.3 782.3 Q 616.9 782.3, 617.9 783.1 Q 618.9 783.8, 618.9 785.2 Q 618.9 786.1, 618.4 786.7 Q 617.9 787.4, 617.0 787.8 " fill="#000000"/>
</svg>