<svg xmlns="http://www.w3.org/2000/svg" xmlns:rdkit="http://www.rdkit.org/xml" xmlns:xlink="http://www.w3.org/1999/xlink" version="1.1" baseProfile="full" xml:space="preserve" width="750px" height="750px" viewBox="0 0 750 750">
<!-- END OF HEADER -->
<rect style="opacity:1.0;fill:#FFFFFF;stroke:none" width="750.0" height="750.0" x="0.0" y="0.0"> </rect>
<rect style="opacity:1.0;fill:#FFFFFF;stroke:none" width="750.0" height="750.0" x="0.0" y="0.0"> </rect>
<rect style="opacity:1.0;fill:#FFFFFF;stroke:none" width="750.0" height="750.0" x="0.0" y="0.0"> </rect>
<rect style="opacity:1.0;fill:#FFFFFF;stroke:none" width="750.0" height="750.0" x="0.0" y="0.0"> </rect>
<rect style="opacity:1.0;fill:#FFFFFF;stroke:none" width="750.0" height="750.0" x="0.0" y="0.0"> </rect>
<rect style="opacity:1.0;fill:#FFFFFF;stroke:none" width="750.0" height="750.0" x="0.0" y="0.0"> </rect>
<rect style="opacity:1.0;fill:#FFFFFF;stroke:none" width="750.0" height="750.0" x="0.0" y="0.0"> </rect>
<rect style="opacity:1.0;fill:#FFFFFF;stroke:none" width="750.0" height="750.0" x="0.0" y="0.0"> </rect>
<rect style="opacity:1.0;fill:#FFFFFF;stroke:none" width="750.0" height="750.0" x="0.0" y="0.0"> </rect>
<rect style="opacity:1.0;fill:#FFFFFF;stroke:none" width="750.0" height="750.0" x="0.0" y="0.0"> </rect>
<path class="bond-0 atom-0 atom-1" d="M 56.1,126.3 L 60.3,129.1" style="fill:none;fill-rule:evenodd;stroke:#CCCC00;stroke-width:2.0px;stroke-linecap:butt;stroke-linejoin:miter;stroke-opacity:1"/>
<path class="bond-0 atom-0 atom-1" d="M 60.3,129.1 L 64.6,131.9" style="fill:none;fill-rule:evenodd;stroke:#000000;stroke-width:2.0px;stroke-linecap:butt;stroke-linejoin:miter;stroke-opacity:1"/>
<path class="bond-1 atom-1 atom-2" d="M 64.6,131.9 L 75.4,126.4" style="fill:none;fill-rule:evenodd;stroke:#000000;stroke-width:2.0px;stroke-linecap:butt;stroke-linejoin:miter;stroke-opacity:1"/>
<path class="bond-2 atom-2 atom-3" d="M 75.4,126.4 L 85.5,133.1" style="fill:none;fill-rule:evenodd;stroke:#000000;stroke-width:2.0px;stroke-linecap:butt;stroke-linejoin:miter;stroke-opacity:1"/>
<path class="bond-3 atom-3 atom-4" d="M 85.5,133.1 L 96.4,127.7" style="fill:none;fill-rule:evenodd;stroke:#000000;stroke-width:2.0px;stroke-linecap:butt;stroke-linejoin:miter;stroke-opacity:1"/>
<path class="bond-4 atom-4 atom-5" d="M 96.4,127.7 L 101.0,125.3" style="fill:none;fill-rule:evenodd;stroke:#000000;stroke-width:2.0px;stroke-linecap:butt;stroke-linejoin:miter;stroke-opacity:1"/>
<path class="bond-4 atom-4 atom-5" d="M 101.0,125.3 L 105.6,123.0" style="fill:none;fill-rule:evenodd;stroke:#33CCCC;stroke-width:2.0px;stroke-linecap:butt;stroke-linejoin:miter;stroke-opacity:1"/>
<path class="bond-5 atom-4 atom-6" d="M 96.4,127.7 L 98.5,131.9" style="fill:none;fill-rule:evenodd;stroke:#000000;stroke-width:2.0px;stroke-linecap:butt;stroke-linejoin:miter;stroke-opacity:1"/>
<path class="bond-5 atom-4 atom-6" d="M 98.5,131.9 L 100.6,136.1" style="fill:none;fill-rule:evenodd;stroke:#33CCCC;stroke-width:2.0px;stroke-linecap:butt;stroke-linejoin:miter;stroke-opacity:1"/>
<path class="bond-6 atom-4 atom-7" d="M 96.4,127.7 L 94.2,123.5" style="fill:none;fill-rule:evenodd;stroke:#000000;stroke-width:2.0px;stroke-linecap:butt;stroke-linejoin:miter;stroke-opacity:1"/>
<path class="bond-6 atom-4 atom-7" d="M 94.2,123.5 L 92.1,119.3" style="fill:none;fill-rule:evenodd;stroke:#33CCCC;stroke-width:2.0px;stroke-linecap:butt;stroke-linejoin:miter;stroke-opacity:1"/>
<path class="atom-0" d="M 53.2 126.7 Q 53.3 126.7, 53.5 126.8 Q 53.7 126.9, 53.9 126.9 Q 54.1 127.0, 54.3 127.0 Q 54.7 127.0, 55.0 126.8 Q 55.2 126.6, 55.2 126.2 Q 55.2 126.0, 55.1 125.9 Q 55.0 125.7, 54.8 125.6 Q 54.6 125.6, 54.3 125.5 Q 53.9 125.4, 53.7 125.3 Q 53.5 125.1, 53.3 124.9 Q 53.2 124.7, 53.2 124.3 Q 53.2 123.8, 53.5 123.4 Q 53.9 123.1, 54.6 123.1 Q 55.1 123.1, 55.6 123.3 L 55.5 123.8 Q 55.0 123.6, 54.6 123.6 Q 54.2 123.6, 54.0 123.8 Q 53.7 123.9, 53.8 124.2 Q 53.8 124.5, 53.9 124.6 Q 54.0 124.7, 54.2 124.8 Q 54.3 124.9, 54.6 125.0 Q 55.0 125.1, 55.2 125.2 Q 55.5 125.3, 55.6 125.6 Q 55.8 125.8, 55.8 126.2 Q 55.8 126.8, 55.4 127.2 Q 55.0 127.5, 54.3 127.5 Q 54.0 127.5, 53.7 127.4 Q 53.4 127.3, 53.1 127.2 L 53.2 126.7 " fill="#CCCC00"/>
<path class="atom-0" d="M 56.0 123.8 L 57.4 123.8 L 57.4 124.1 L 56.0 124.1 L 56.0 123.8 " fill="#CCCC00"/>
<path class="atom-5" d="M 105.9 120.1 L 108.5 120.1 L 108.5 120.6 L 106.5 120.6 L 106.5 121.9 L 108.2 121.9 L 108.2 122.4 L 106.5 122.4 L 106.5 124.3 L 105.9 124.3 L 105.9 120.1 " fill="#33CCCC"/>
<path class="atom-6" d="M 100.5 136.4 L 103.1 136.4 L 103.1 136.9 L 101.1 136.9 L 101.1 138.2 L 102.9 138.2 L 102.9 138.6 L 101.1 138.6 L 101.1 140.6 L 100.5 140.6 L 100.5 136.4 " fill="#33CCCC"/>
<path class="atom-7" d="M 89.7 114.7 L 92.2 114.7 L 92.2 115.2 L 90.2 115.2 L 90.2 116.5 L 92.0 116.5 L 92.0 117.0 L 90.2 117.0 L 90.2 119.0 L 89.7 119.0 L 89.7 114.7 " fill="#33CCCC"/>
<path class="bond-0 atom-0 atom-1" d="M 291.5,94.7 L 295.1,99.7" style="fill:none;fill-rule:evenodd;stroke:#0000FF;stroke-width:2.0px;stroke-linecap:butt;stroke-linejoin:miter;stroke-opacity:1"/>
<path class="bond-1 atom-1 atom-2" d="M 295.8,104.5 L 293.9,108.8" style="fill:none;fill-rule:evenodd;stroke:#0000FF;stroke-width:2.0px;stroke-linecap:butt;stroke-linejoin:miter;stroke-opacity:1"/>
<path class="bond-1 atom-1 atom-2" d="M 293.9,108.8 L 292.0,113.2" style="fill:none;fill-rule:evenodd;stroke:#000000;stroke-width:2.0px;stroke-linecap:butt;stroke-linejoin:miter;stroke-opacity:1"/>
<path class="bond-2 atom-2 atom-3" d="M 292.0,113.2 L 299.1,123.0" style="fill:none;fill-rule:evenodd;stroke:#000000;stroke-width:2.0px;stroke-linecap:butt;stroke-linejoin:miter;stroke-opacity:1"/>
<path class="bond-3 atom-3 atom-4" d="M 299.1,123.0 L 294.2,134.0" style="fill:none;fill-rule:evenodd;stroke:#000000;stroke-width:2.0px;stroke-linecap:butt;stroke-linejoin:miter;stroke-opacity:1"/>
<path class="bond-4 atom-4 atom-5" d="M 294.2,134.0 L 301.3,143.8" style="fill:none;fill-rule:evenodd;stroke:#000000;stroke-width:2.0px;stroke-linecap:butt;stroke-linejoin:miter;stroke-opacity:1"/>
<path class="bond-19 atom-4 atom-20" d="M 294.2,134.0 L 282.0,134.1 L 282.3,136.5 Z" style="fill:#000000;fill-rule:evenodd;fill-opacity:1;stroke:#000000;stroke-width:2.0px;stroke-linecap:butt;stroke-linejoin:miter;stroke-opacity:1;"/>
<path class="bond-5 atom-5 atom-6" d="M 301.3,143.8 L 313.4,142.6" style="fill:none;fill-rule:evenodd;stroke:#000000;stroke-width:2.0px;stroke-linecap:butt;stroke-linejoin:miter;stroke-opacity:1"/>
<path class="bond-6 atom-6 atom-7" d="M 313.4,142.6 L 321.5,151.5" style="fill:none;fill-rule:evenodd;stroke:#000000;stroke-width:2.0px;stroke-linecap:butt;stroke-linejoin:miter;stroke-opacity:1"/>
<path class="bond-6 atom-6 atom-7" d="M 316.4,142.3 L 322.1,148.6" style="fill:none;fill-rule:evenodd;stroke:#000000;stroke-width:2.0px;stroke-linecap:butt;stroke-linejoin:miter;stroke-opacity:1"/>
<path class="bond-20 atom-19 atom-6" d="M 318.0,134.6 L 315.7,138.6" style="fill:none;fill-rule:evenodd;stroke:#FF0000;stroke-width:2.0px;stroke-linecap:butt;stroke-linejoin:miter;stroke-opacity:1"/>
<path class="bond-20 atom-19 atom-6" d="M 315.7,138.6 L 313.4,142.6" style="fill:none;fill-rule:evenodd;stroke:#000000;stroke-width:2.0px;stroke-linecap:butt;stroke-linejoin:miter;stroke-opacity:1"/>
<path class="bond-7 atom-7 atom-8" d="M 321.5,151.5 L 332.6,146.6" style="fill:none;fill-rule:evenodd;stroke:#000000;stroke-width:2.0px;stroke-linecap:butt;stroke-linejoin:miter;stroke-opacity:1"/>
<path class="bond-8 atom-8 atom-9" d="M 332.6,146.6 L 331.3,134.5" style="fill:none;fill-rule:evenodd;stroke:#000000;stroke-width:2.0px;stroke-linecap:butt;stroke-linejoin:miter;stroke-opacity:1"/>
<path class="bond-8 atom-8 atom-9" d="M 330.0,145.0 L 329.1,136.6" style="fill:none;fill-rule:evenodd;stroke:#000000;stroke-width:2.0px;stroke-linecap:butt;stroke-linejoin:miter;stroke-opacity:1"/>
<path class="bond-9 atom-9 atom-10" d="M 331.3,134.5 L 334.7,131.5" style="fill:none;fill-rule:evenodd;stroke:#000000;stroke-width:2.0px;stroke-linecap:butt;stroke-linejoin:miter;stroke-opacity:1"/>
<path class="bond-9 atom-9 atom-10" d="M 334.7,131.5 L 338.0,128.4" style="fill:none;fill-rule:evenodd;stroke:#FF0000;stroke-width:2.0px;stroke-linecap:butt;stroke-linejoin:miter;stroke-opacity:1"/>
<path class="bond-18 atom-9 atom-19" d="M 331.3,134.5 L 326.5,133.5" style="fill:none;fill-rule:evenodd;stroke:#000000;stroke-width:2.0px;stroke-linecap:butt;stroke-linejoin:miter;stroke-opacity:1"/>
<path class="bond-18 atom-9 atom-19" d="M 326.5,133.5 L 321.7,132.5" style="fill:none;fill-rule:evenodd;stroke:#FF0000;stroke-width:2.0px;stroke-linecap:butt;stroke-linejoin:miter;stroke-opacity:1"/>
<path class="bond-10 atom-10 atom-11" d="M 342.6,127.1 L 347.2,128.6" style="fill:none;fill-rule:evenodd;stroke:#FF0000;stroke-width:2.0px;stroke-linecap:butt;stroke-linejoin:miter;stroke-opacity:1"/>
<path class="bond-10 atom-10 atom-11" d="M 347.2,128.6 L 351.8,130.1" style="fill:none;fill-rule:evenodd;stroke:#000000;stroke-width:2.0px;stroke-linecap:butt;stroke-linejoin:miter;stroke-opacity:1"/>
<path class="bond-11 atom-11 atom-12" d="M 350.7,130.4 L 351.7,135.1" style="fill:none;fill-rule:evenodd;stroke:#000000;stroke-width:2.0px;stroke-linecap:butt;stroke-linejoin:miter;stroke-opacity:1"/>
<path class="bond-11 atom-11 atom-12" d="M 351.7,135.1 L 352.7,139.8" style="fill:none;fill-rule:evenodd;stroke:#FF0000;stroke-width:2.0px;stroke-linecap:butt;stroke-linejoin:miter;stroke-opacity:1"/>
<path class="bond-11 atom-11 atom-12" d="M 353.0,129.9 L 354.0,134.6" style="fill:none;fill-rule:evenodd;stroke:#000000;stroke-width:2.0px;stroke-linecap:butt;stroke-linejoin:miter;stroke-opacity:1"/>
<path class="bond-11 atom-11 atom-12" d="M 354.0,134.6 L 355.0,139.3" style="fill:none;fill-rule:evenodd;stroke:#FF0000;stroke-width:2.0px;stroke-linecap:butt;stroke-linejoin:miter;stroke-opacity:1"/>
<path class="bond-12 atom-11 atom-13" d="M 351.8,130.1 L 355.4,126.9" style="fill:none;fill-rule:evenodd;stroke:#000000;stroke-width:2.0px;stroke-linecap:butt;stroke-linejoin:miter;stroke-opacity:1"/>
<path class="bond-12 atom-11 atom-13" d="M 355.4,126.9 L 358.9,123.7" style="fill:none;fill-rule:evenodd;stroke:#0000FF;stroke-width:2.0px;stroke-linecap:butt;stroke-linejoin:miter;stroke-opacity:1"/>
<path class="bond-13 atom-13 atom-14" d="M 362.8,122.6 L 367.6,124.2" style="fill:none;fill-rule:evenodd;stroke:#0000FF;stroke-width:2.0px;stroke-linecap:butt;stroke-linejoin:miter;stroke-opacity:1"/>
<path class="bond-13 atom-13 atom-14" d="M 367.6,124.2 L 372.4,125.7" style="fill:none;fill-rule:evenodd;stroke:#000000;stroke-width:2.0px;stroke-linecap:butt;stroke-linejoin:miter;stroke-opacity:1"/>
<path class="bond-14 atom-14 atom-15" d="M 372.4,125.7 L 381.4,117.6" style="fill:none;fill-rule:evenodd;stroke:#000000;stroke-width:2.0px;stroke-linecap:butt;stroke-linejoin:miter;stroke-opacity:1"/>
<path class="bond-15 atom-15 atom-16" d="M 381.4,117.6 L 392.9,121.3" style="fill:none;fill-rule:evenodd;stroke:#000000;stroke-width:2.0px;stroke-linecap:butt;stroke-linejoin:miter;stroke-opacity:1"/>
<path class="bond-16 atom-16 atom-17" d="M 392.9,121.3 L 393.9,126.0" style="fill:none;fill-rule:evenodd;stroke:#000000;stroke-width:2.0px;stroke-linecap:butt;stroke-linejoin:miter;stroke-opacity:1"/>
<path class="bond-16 atom-16 atom-17" d="M 393.9,126.0 L 394.9,130.7" style="fill:none;fill-rule:evenodd;stroke:#FF0000;stroke-width:2.0px;stroke-linecap:butt;stroke-linejoin:miter;stroke-opacity:1"/>
<path class="bond-17 atom-16 atom-18" d="M 392.9,121.3 L 401.9,113.2" style="fill:none;fill-rule:evenodd;stroke:#000000;stroke-width:2.0px;stroke-linecap:butt;stroke-linejoin:miter;stroke-opacity:1"/>
<path class="atom-0" d="M 288.8 90.2 L 290.2 92.4 Q 290.3 92.6, 290.5 93.0 Q 290.8 93.4, 290.8 93.5 L 290.8 90.2 L 291.3 90.2 L 291.3 94.4 L 290.7 94.4 L 289.3 91.9 Q 289.1 91.7, 288.9 91.3 Q 288.7 91.0, 288.7 90.9 L 288.7 94.4 L 288.1 94.4 L 288.1 90.2 L 288.8 90.2 " fill="#0000FF"/>
<path class="atom-0" d="M 291.5 90.9 L 293.0 90.9 L 293.0 91.2 L 291.5 91.2 L 291.5 90.9 " fill="#0000FF"/>
<path class="atom-1" d="M 295.9 100.0 L 297.3 102.2 Q 297.5 102.4, 297.7 102.8 Q 297.9 103.2, 297.9 103.3 L 297.9 100.0 L 298.5 100.0 L 298.5 104.2 L 297.9 104.2 L 296.4 101.7 Q 296.2 101.5, 296.0 101.1 Q 295.9 100.8, 295.8 100.7 L 295.8 104.2 L 295.3 104.2 L 295.3 100.0 L 295.9 100.0 " fill="#0000FF"/>
<path class="atom-1" d="M 299.0 100.0 L 299.6 100.0 L 299.6 101.8 L 301.7 101.8 L 301.7 100.0 L 302.3 100.0 L 302.3 104.2 L 301.7 104.2 L 301.7 102.2 L 299.6 102.2 L 299.6 104.2 L 299.0 104.2 L 299.0 100.0 " fill="#0000FF"/>
<path class="atom-10" d="M 338.4 126.4 Q 338.4 125.4, 338.9 124.8 Q 339.4 124.3, 340.3 124.3 Q 341.2 124.3, 341.7 124.8 Q 342.3 125.4, 342.3 126.4 Q 342.3 127.4, 341.7 128.0 Q 341.2 128.6, 340.3 128.6 Q 339.4 128.6, 338.9 128.0 Q 338.4 127.5, 338.4 126.4 M 340.3 128.1 Q 340.9 128.1, 341.3 127.7 Q 341.7 127.3, 341.7 126.4 Q 341.7 125.6, 341.3 125.2 Q 340.9 124.7, 340.3 124.7 Q 339.7 124.7, 339.3 125.2 Q 339.0 125.6, 339.0 126.4 Q 339.0 127.3, 339.3 127.7 Q 339.7 128.1, 340.3 128.1 " fill="#FF0000"/>
<path class="atom-12" d="M 352.4 142.0 Q 352.4 141.0, 352.9 140.4 Q 353.4 139.8, 354.4 139.8 Q 355.3 139.8, 355.8 140.4 Q 356.3 141.0, 356.3 142.0 Q 356.3 143.0, 355.8 143.6 Q 355.3 144.2, 354.4 144.2 Q 353.5 144.2, 352.9 143.6 Q 352.4 143.0, 352.4 142.0 M 354.4 143.7 Q 355.0 143.7, 355.4 143.3 Q 355.7 142.8, 355.7 142.0 Q 355.7 141.2, 355.4 140.7 Q 355.0 140.3, 354.4 140.3 Q 353.7 140.3, 353.4 140.7 Q 353.0 141.2, 353.0 142.0 Q 353.0 142.9, 353.4 143.3 Q 353.7 143.7, 354.4 143.7 " fill="#FF0000"/>
<path class="atom-13" d="M 359.9 119.9 L 361.3 122.1 Q 361.4 122.3, 361.7 122.7 Q 361.9 123.1, 361.9 123.2 L 361.9 119.9 L 362.4 119.9 L 362.4 124.1 L 361.9 124.1 L 360.4 121.7 Q 360.2 121.4, 360.0 121.0 Q 359.8 120.7, 359.8 120.6 L 359.8 124.1 L 359.2 124.1 L 359.2 119.9 L 359.9 119.9 " fill="#0000FF"/>
<path class="atom-13" d="M 359.2 115.2 L 359.8 115.2 L 359.8 117.0 L 361.9 117.0 L 361.9 115.2 L 362.5 115.2 L 362.5 119.4 L 361.9 119.4 L 361.9 117.5 L 359.8 117.5 L 359.8 119.4 L 359.2 119.4 L 359.2 115.2 " fill="#0000FF"/>
<path class="atom-17" d="M 393.5 133.2 Q 393.5 132.2, 394.0 131.6 Q 394.5 131.0, 395.5 131.0 Q 396.4 131.0, 396.9 131.6 Q 397.4 132.2, 397.4 133.2 Q 397.4 134.2, 396.9 134.8 Q 396.4 135.4, 395.5 135.4 Q 394.5 135.4, 394.0 134.8 Q 393.5 134.2, 393.5 133.2 M 395.5 134.9 Q 396.1 134.9, 396.5 134.5 Q 396.8 134.0, 396.8 133.2 Q 396.8 132.3, 396.5 131.9 Q 396.1 131.5, 395.5 131.5 Q 394.8 131.5, 394.5 131.9 Q 394.1 132.3, 394.1 133.2 Q 394.1 134.0, 394.5 134.5 Q 394.8 134.9, 395.5 134.9 " fill="#FF0000"/>
<path class="atom-17" d="M 397.9 131.1 L 398.5 131.1 L 398.5 132.9 L 400.7 132.9 L 400.7 131.1 L 401.2 131.1 L 401.2 135.3 L 400.7 135.3 L 400.7 133.4 L 398.5 133.4 L 398.5 135.3 L 397.9 135.3 L 397.9 131.1 " fill="#FF0000"/>
<path class="atom-19" d="M 317.5 132.1 Q 317.5 131.0, 318.0 130.5 Q 318.5 129.9, 319.4 129.9 Q 320.4 129.9, 320.9 130.5 Q 321.4 131.0, 321.4 132.1 Q 321.4 133.1, 320.9 133.7 Q 320.4 134.3, 319.4 134.3 Q 318.5 134.3, 318.0 133.7 Q 317.5 133.1, 317.5 132.1 M 319.4 133.8 Q 320.1 133.8, 320.4 133.3 Q 320.8 132.9, 320.8 132.1 Q 320.8 131.2, 320.4 130.8 Q 320.1 130.4, 319.4 130.4 Q 318.8 130.4, 318.4 130.8 Q 318.1 131.2, 318.1 132.1 Q 318.1 132.9, 318.4 133.3 Q 318.8 133.8, 319.4 133.8 " fill="#FF0000"/>
<path d="M 287.5,92.3 L 287.5,92.3 L 287.5,92.2 L 287.5,92.2 L 287.5,92.2 L 287.5,92.2 L 287.5,92.1 L 287.5,92.1 L 287.4,92.1 L 287.4,92.1 L 287.4,92.1 L 287.4,92.0 L 287.4,92.0 L 287.3,92.0 L 287.3,92.0 L 287.3,92.0 L 287.3,92.0 L 287.2,92.0 L 287.2,92.0 L 287.2,92.0 L 287.2,92.0 L 287.1,92.0 L 287.1,92.0 L 287.1,92.0 L 287.1,92.0 L 287.0,92.0 L 287.0,92.0 L 287.0,92.1 L 287.0,92.1 L 287.0,92.1 L 287.0,92.1 L 286.9,92.1 L 286.9,92.2 L 286.9,92.2 L 286.9,92.2 L 286.9,92.2 L 286.9,92.3 L 286.9,92.3 L 286.9,92.3 L 286.9,92.3 L 286.9,92.4 L 286.9,92.4 L 286.9,92.4 L 287.0,92.4 L 287.0,92.5 L 287.0,92.5 L 287.0,92.5 L 287.0,92.5 L 287.0,92.5 L 287.1,92.5 L 287.1,92.6 L 287.1,92.6 L 287.1,92.6 L 287.2,92.6 L 287.2,92.6 L 287.2,92.6 L 287.2,92.6 L 287.3,92.6 L 287.3,92.6 L 287.3,92.6 L 287.3,92.6 L 287.4,92.5 L 287.4,92.5 L 287.4,92.5 L 287.4,92.5 L 287.4,92.5 L 287.5,92.5 L 287.5,92.4 L 287.5,92.4 L 287.5,92.4 L 287.5,92.4 L 287.5,92.3 L 287.5,92.3 L 287.5,92.3 L 287.2,92.3 Z" style="fill:#000000;fill-rule:evenodd;fill-opacity:1;stroke:#000000;stroke-width:0.0px;stroke-linecap:butt;stroke-linejoin:miter;stroke-opacity:1;"/>
<path class="bond-0 atom-0 atom-1" d="M 576.5,151.0 L 577.8,147.8" style="fill:none;fill-rule:evenodd;stroke:#0000FF;stroke-width:2.0px;stroke-linecap:butt;stroke-linejoin:miter;stroke-opacity:1"/>
<path class="bond-0 atom-0 atom-1" d="M 577.8,147.8 L 579.0,144.6" style="fill:none;fill-rule:evenodd;stroke:#CCCC00;stroke-width:2.0px;stroke-linecap:butt;stroke-linejoin:miter;stroke-opacity:1"/>
<path class="bond-0 atom-0 atom-1" d="M 574.3,150.1 L 575.5,146.9" style="fill:none;fill-rule:evenodd;stroke:#0000FF;stroke-width:2.0px;stroke-linecap:butt;stroke-linejoin:miter;stroke-opacity:1"/>
<path class="bond-0 atom-0 atom-1" d="M 575.5,146.9 L 576.8,143.7" style="fill:none;fill-rule:evenodd;stroke:#CCCC00;stroke-width:2.0px;stroke-linecap:butt;stroke-linejoin:miter;stroke-opacity:1"/>
<path class="bond-1 atom-1 atom-2" d="M 577.2,139.6 L 574.3,135.9" style="fill:none;fill-rule:evenodd;stroke:#CCCC00;stroke-width:2.0px;stroke-linecap:butt;stroke-linejoin:miter;stroke-opacity:1"/>
<path class="bond-1 atom-1 atom-2" d="M 574.3,135.9 L 571.3,132.2" style="fill:none;fill-rule:evenodd;stroke:#000000;stroke-width:2.0px;stroke-linecap:butt;stroke-linejoin:miter;stroke-opacity:1"/>
<path class="bond-2 atom-2 atom-3" d="M 571.3,132.2 L 559.3,134.0" style="fill:none;fill-rule:evenodd;stroke:#000000;stroke-width:2.0px;stroke-linecap:butt;stroke-linejoin:miter;stroke-opacity:1"/>
<path class="bond-2 atom-2 atom-3" d="M 569.2,130.1 L 560.8,131.4" style="fill:none;fill-rule:evenodd;stroke:#000000;stroke-width:2.0px;stroke-linecap:butt;stroke-linejoin:miter;stroke-opacity:1"/>
<path class="bond-16 atom-8 atom-2" d="M 575.7,120.9 L 571.3,132.2" style="fill:none;fill-rule:evenodd;stroke:#000000;stroke-width:2.0px;stroke-linecap:butt;stroke-linejoin:miter;stroke-opacity:1"/>
<path class="bond-3 atom-3 atom-4" d="M 559.3,134.0 L 551.8,124.6" style="fill:none;fill-rule:evenodd;stroke:#000000;stroke-width:2.0px;stroke-linecap:butt;stroke-linejoin:miter;stroke-opacity:1"/>
<path class="bond-4 atom-4 atom-5" d="M 551.8,124.6 L 546.1,125.4" style="fill:none;fill-rule:evenodd;stroke:#000000;stroke-width:2.0px;stroke-linecap:butt;stroke-linejoin:miter;stroke-opacity:1"/>
<path class="bond-4 atom-4 atom-5" d="M 546.1,125.4 L 540.3,126.3" style="fill:none;fill-rule:evenodd;stroke:#00CC00;stroke-width:2.0px;stroke-linecap:butt;stroke-linejoin:miter;stroke-opacity:1"/>
<path class="bond-5 atom-4 atom-6" d="M 551.8,124.6 L 556.2,113.3" style="fill:none;fill-rule:evenodd;stroke:#000000;stroke-width:2.0px;stroke-linecap:butt;stroke-linejoin:miter;stroke-opacity:1"/>
<path class="bond-5 atom-4 atom-6" d="M 554.7,123.8 L 557.8,115.9" style="fill:none;fill-rule:evenodd;stroke:#000000;stroke-width:2.0px;stroke-linecap:butt;stroke-linejoin:miter;stroke-opacity:1"/>
<path class="bond-6 atom-6 atom-7" d="M 556.2,113.3 L 568.2,111.5" style="fill:none;fill-rule:evenodd;stroke:#000000;stroke-width:2.0px;stroke-linecap:butt;stroke-linejoin:miter;stroke-opacity:1"/>
<path class="bond-7 atom-7 atom-8" d="M 568.2,111.5 L 575.7,120.9" style="fill:none;fill-rule:evenodd;stroke:#000000;stroke-width:2.0px;stroke-linecap:butt;stroke-linejoin:miter;stroke-opacity:1"/>
<path class="bond-7 atom-7 atom-8" d="M 567.4,114.4 L 572.7,121.0" style="fill:none;fill-rule:evenodd;stroke:#000000;stroke-width:2.0px;stroke-linecap:butt;stroke-linejoin:miter;stroke-opacity:1"/>
<path class="bond-8 atom-8 atom-9" d="M 575.7,120.9 L 580.8,120.2" style="fill:none;fill-rule:evenodd;stroke:#000000;stroke-width:2.0px;stroke-linecap:butt;stroke-linejoin:miter;stroke-opacity:1"/>
<path class="bond-8 atom-8 atom-9" d="M 580.8,120.2 L 585.8,119.4" style="fill:none;fill-rule:evenodd;stroke:#0000FF;stroke-width:2.0px;stroke-linecap:butt;stroke-linejoin:miter;stroke-opacity:1"/>
<path class="bond-9 atom-9 atom-10" d="M 589.7,121.6 L 592.5,125.1" style="fill:none;fill-rule:evenodd;stroke:#0000FF;stroke-width:2.0px;stroke-linecap:butt;stroke-linejoin:miter;stroke-opacity:1"/>
<path class="bond-9 atom-9 atom-10" d="M 592.5,125.1 L 595.3,128.6" style="fill:none;fill-rule:evenodd;stroke:#000000;stroke-width:2.0px;stroke-linecap:butt;stroke-linejoin:miter;stroke-opacity:1"/>
<path class="bond-10 atom-10 atom-11" d="M 594.2,128.2 L 592.4,132.6" style="fill:none;fill-rule:evenodd;stroke:#000000;stroke-width:2.0px;stroke-linecap:butt;stroke-linejoin:miter;stroke-opacity:1"/>
<path class="bond-10 atom-10 atom-11" d="M 592.4,132.6 L 590.7,137.0" style="fill:none;fill-rule:evenodd;stroke:#FF0000;stroke-width:2.0px;stroke-linecap:butt;stroke-linejoin:miter;stroke-opacity:1"/>
<path class="bond-10 atom-10 atom-11" d="M 596.4,129.1 L 594.7,133.5" style="fill:none;fill-rule:evenodd;stroke:#000000;stroke-width:2.0px;stroke-linecap:butt;stroke-linejoin:miter;stroke-opacity:1"/>
<path class="bond-10 atom-10 atom-11" d="M 594.7,133.5 L 593.0,137.9" style="fill:none;fill-rule:evenodd;stroke:#FF0000;stroke-width:2.0px;stroke-linecap:butt;stroke-linejoin:miter;stroke-opacity:1"/>
<path class="bond-11 atom-10 atom-12" d="M 595.3,128.6 L 607.3,126.8" style="fill:none;fill-rule:evenodd;stroke:#000000;stroke-width:2.0px;stroke-linecap:butt;stroke-linejoin:miter;stroke-opacity:1"/>
<path class="bond-12 atom-12 atom-13" d="M 607.3,126.8 L 609.4,122.6" style="fill:none;fill-rule:evenodd;stroke:#000000;stroke-width:2.0px;stroke-linecap:butt;stroke-linejoin:miter;stroke-opacity:1"/>
<path class="bond-12 atom-12 atom-13" d="M 609.4,122.6 L 611.6,118.5" style="fill:none;fill-rule:evenodd;stroke:#0000FF;stroke-width:2.0px;stroke-linecap:butt;stroke-linejoin:miter;stroke-opacity:1"/>
<path class="bond-17 atom-16 atom-12" d="M 613.5,133.2 L 610.4,130.0" style="fill:none;fill-rule:evenodd;stroke:#FF0000;stroke-width:2.0px;stroke-linecap:butt;stroke-linejoin:miter;stroke-opacity:1"/>
<path class="bond-17 atom-16 atom-12" d="M 610.4,130.0 L 607.3,126.8" style="fill:none;fill-rule:evenodd;stroke:#000000;stroke-width:2.0px;stroke-linecap:butt;stroke-linejoin:miter;stroke-opacity:1"/>
<path class="bond-13 atom-13 atom-14" d="M 614.8,116.4 L 619.8,117.2" style="fill:none;fill-rule:evenodd;stroke:#0000FF;stroke-width:2.0px;stroke-linecap:butt;stroke-linejoin:miter;stroke-opacity:1"/>
<path class="bond-13 atom-13 atom-14" d="M 619.8,117.2 L 624.8,118.0" style="fill:none;fill-rule:evenodd;stroke:#000000;stroke-width:2.0px;stroke-linecap:butt;stroke-linejoin:miter;stroke-opacity:1"/>
<path class="bond-14 atom-14 atom-15" d="M 624.8,118.0 L 626.6,130.0" style="fill:none;fill-rule:evenodd;stroke:#000000;stroke-width:2.0px;stroke-linecap:butt;stroke-linejoin:miter;stroke-opacity:1"/>
<path class="bond-14 atom-14 atom-15" d="M 622.7,120.2 L 624.0,128.6" style="fill:none;fill-rule:evenodd;stroke:#000000;stroke-width:2.0px;stroke-linecap:butt;stroke-linejoin:miter;stroke-opacity:1"/>
<path class="bond-15 atom-15 atom-16" d="M 626.6,130.0 L 622.3,132.2" style="fill:none;fill-rule:evenodd;stroke:#000000;stroke-width:2.0px;stroke-linecap:butt;stroke-linejoin:miter;stroke-opacity:1"/>
<path class="bond-15 atom-15 atom-16" d="M 622.3,132.2 L 618.0,134.3" style="fill:none;fill-rule:evenodd;stroke:#FF0000;stroke-width:2.0px;stroke-linecap:butt;stroke-linejoin:miter;stroke-opacity:1"/>
<path class="atom-0" d="M 573.5 150.9 L 574.9 153.1 Q 575.0 153.3, 575.3 153.7 Q 575.5 154.2, 575.5 154.2 L 575.5 150.9 L 576.1 150.9 L 576.1 155.1 L 575.5 155.1 L 574.0 152.7 Q 573.8 152.4, 573.6 152.0 Q 573.4 151.7, 573.4 151.6 L 573.4 155.1 L 572.8 155.1 L 572.8 150.9 L 573.5 150.9 " fill="#0000FF"/>
<path class="atom-0" d="M 576.4 151.6 L 577.2 151.6 L 577.2 150.9 L 577.5 150.9 L 577.5 151.6 L 578.3 151.6 L 578.3 151.9 L 577.5 151.9 L 577.5 152.7 L 577.2 152.7 L 577.2 151.9 L 576.4 151.9 L 576.4 151.6 " fill="#0000FF"/>
<path class="atom-1" d="M 577.7 143.2 Q 577.7 143.2, 577.9 143.3 Q 578.1 143.4, 578.3 143.4 Q 578.6 143.5, 578.8 143.5 Q 579.2 143.5, 579.4 143.3 Q 579.6 143.1, 579.6 142.7 Q 579.6 142.5, 579.5 142.4 Q 579.4 142.2, 579.2 142.1 Q 579.0 142.1, 578.7 142.0 Q 578.4 141.8, 578.1 141.7 Q 577.9 141.6, 577.8 141.4 Q 577.6 141.2, 577.6 140.8 Q 577.6 140.3, 578.0 139.9 Q 578.3 139.6, 579.0 139.6 Q 579.5 139.6, 580.1 139.8 L 580.0 140.3 Q 579.5 140.1, 579.1 140.1 Q 578.7 140.1, 578.4 140.3 Q 578.2 140.4, 578.2 140.7 Q 578.2 140.9, 578.3 141.1 Q 578.4 141.2, 578.6 141.3 Q 578.8 141.4, 579.1 141.5 Q 579.5 141.6, 579.7 141.7 Q 579.9 141.8, 580.1 142.1 Q 580.2 142.3, 580.2 142.7 Q 580.2 143.3, 579.8 143.6 Q 579.5 143.9, 578.8 143.9 Q 578.4 143.9, 578.1 143.9 Q 577.8 143.8, 577.5 143.6 L 577.7 143.2 " fill="#CCCC00"/>
<path class="atom-1" d="M 580.7 139.6 L 581.3 139.6 L 581.3 141.4 L 583.5 141.4 L 583.5 139.6 L 584.1 139.6 L 584.1 143.8 L 583.5 143.8 L 583.5 141.9 L 581.3 141.9 L 581.3 143.8 L 580.7 143.8 L 580.7 139.6 " fill="#CCCC00"/>
<path class="atom-5" d="M 535.7 126.5 Q 535.7 125.5, 536.2 124.9 Q 536.7 124.4, 537.6 124.4 Q 538.5 124.4, 539.0 125.0 L 538.6 125.3 Q 538.2 124.8, 537.6 124.8 Q 537.0 124.8, 536.6 125.3 Q 536.3 125.7, 536.3 126.5 Q 536.3 127.4, 536.7 127.8 Q 537.0 128.2, 537.7 128.2 Q 538.2 128.2, 538.7 127.9 L 538.9 128.4 Q 538.7 128.5, 538.3 128.6 Q 538.0 128.7, 537.6 128.7 Q 536.7 128.7, 536.2 128.1 Q 535.7 127.6, 535.7 126.5 " fill="#00CC00"/>
<path class="atom-5" d="M 539.5 124.1 L 540.0 124.1 L 540.0 128.6 L 539.5 128.6 L 539.5 124.1 " fill="#00CC00"/>
<path class="atom-9" d="M 586.8 117.0 L 588.2 119.3 Q 588.3 119.5, 588.5 119.9 Q 588.8 120.3, 588.8 120.3 L 588.8 117.0 L 589.3 117.0 L 589.3 121.3 L 588.8 121.3 L 587.3 118.8 Q 587.1 118.5, 586.9 118.2 Q 586.7 117.8, 586.7 117.7 L 586.7 121.3 L 586.1 121.3 L 586.1 117.0 L 586.8 117.0 " fill="#0000FF"/>
<path class="atom-9" d="M 589.9 117.0 L 590.4 117.0 L 590.4 118.8 L 592.6 118.8 L 592.6 117.0 L 593.2 117.0 L 593.2 121.3 L 592.6 121.3 L 592.6 119.3 L 590.4 119.3 L 590.4 121.3 L 589.9 121.3 L 589.9 117.0 " fill="#0000FF"/>
<path class="atom-11" d="M 588.9 139.9 Q 588.9 138.9, 589.4 138.3 Q 589.9 137.8, 590.9 137.8 Q 591.8 137.8, 592.3 138.3 Q 592.8 138.9, 592.8 139.9 Q 592.8 140.9, 592.3 141.5 Q 591.8 142.1, 590.9 142.1 Q 589.9 142.1, 589.4 141.5 Q 588.9 140.9, 588.9 139.9 M 590.9 141.6 Q 591.5 141.6, 591.9 141.2 Q 592.2 140.8, 592.2 139.9 Q 592.2 139.1, 591.9 138.7 Q 591.5 138.2, 590.9 138.2 Q 590.2 138.2, 589.9 138.7 Q 589.5 139.1, 589.5 139.9 Q 589.5 140.8, 589.9 141.2 Q 590.2 141.6, 590.9 141.6 " fill="#FF0000"/>
<path class="atom-13" d="M 607.4 113.9 L 608.0 113.9 L 608.0 115.7 L 610.2 115.7 L 610.2 113.9 L 610.8 113.9 L 610.8 118.2 L 610.2 118.2 L 610.2 116.2 L 608.0 116.2 L 608.0 118.2 L 607.4 118.2 L 607.4 113.9 " fill="#0000FF"/>
<path class="atom-13" d="M 611.9 113.9 L 613.3 116.2 Q 613.5 116.4, 613.7 116.8 Q 613.9 117.2, 613.9 117.2 L 613.9 113.9 L 614.5 113.9 L 614.5 118.2 L 613.9 118.2 L 612.4 115.7 Q 612.2 115.4, 612.0 115.1 Q 611.9 114.8, 611.8 114.7 L 611.8 118.2 L 611.3 118.2 L 611.3 113.9 L 611.9 113.9 " fill="#0000FF"/>
<path class="atom-16" d="M 613.8 135.4 Q 613.8 134.4, 614.3 133.9 Q 614.9 133.3, 615.8 133.3 Q 616.7 133.3, 617.2 133.9 Q 617.7 134.4, 617.7 135.4 Q 617.7 136.5, 617.2 137.1 Q 616.7 137.7, 615.8 137.7 Q 614.9 137.7, 614.3 137.1 Q 613.8 136.5, 613.8 135.4 M 615.8 137.2 Q 616.4 137.2, 616.8 136.7 Q 617.1 136.3, 617.1 135.4 Q 617.1 134.6, 616.8 134.2 Q 616.4 133.8, 615.8 133.8 Q 615.1 133.8, 614.8 134.2 Q 614.4 134.6, 614.4 135.4 Q 614.4 136.3, 614.8 136.7 Q 615.1 137.2, 615.8 137.2 " fill="#FF0000"/>
<path d="M 572.2,152.4 L 572.2,152.4 L 572.2,152.3 L 572.2,152.3 L 572.2,152.3 L 572.2,152.3 L 572.2,152.2 L 572.2,152.2 L 572.2,152.2 L 572.2,152.2 L 572.1,152.2 L 572.1,152.2 L 572.1,152.1 L 572.1,152.1 L 572.0,152.1 L 572.0,152.1 L 572.0,152.1 L 572.0,152.1 L 571.9,152.1 L 571.9,152.1 L 571.9,152.1 L 571.9,152.1 L 571.8,152.1 L 571.8,152.1 L 571.8,152.1 L 571.8,152.1 L 571.8,152.2 L 571.7,152.2 L 571.7,152.2 L 571.7,152.2 L 571.7,152.2 L 571.7,152.3 L 571.7,152.3 L 571.6,152.3 L 571.6,152.3 L 571.6,152.4 L 571.6,152.4 L 571.6,152.4 L 571.6,152.4 L 571.6,152.5 L 571.6,152.5 L 571.7,152.5 L 571.7,152.5 L 571.7,152.6 L 571.7,152.6 L 571.7,152.6 L 571.7,152.6 L 571.8,152.6 L 571.8,152.6 L 571.8,152.7 L 571.8,152.7 L 571.8,152.7 L 571.9,152.7 L 571.9,152.7 L 571.9,152.7 L 571.9,152.7 L 572.0,152.7 L 572.0,152.7 L 572.0,152.7 L 572.0,152.7 L 572.1,152.7 L 572.1,152.7 L 572.1,152.6 L 572.1,152.6 L 572.2,152.6 L 572.2,152.6 L 572.2,152.6 L 572.2,152.5 L 572.2,152.5 L 572.2,152.5 L 572.2,152.5 L 572.2,152.4 L 572.2,152.4 L 572.2,152.4 L 571.9,152.4 Z" style="fill:#000000;fill-rule:evenodd;fill-opacity:1;stroke:#000000;stroke-width:0.0px;stroke-linecap:butt;stroke-linejoin:miter;stroke-opacity:1;"/>
<path d="M 572.2,153.6 L 572.2,153.6 L 572.2,153.5 L 572.2,153.5 L 572.2,153.5 L 572.2,153.5 L 572.2,153.4 L 572.2,153.4 L 572.2,153.4 L 572.2,153.4 L 572.1,153.4 L 572.1,153.4 L 572.1,153.3 L 572.1,153.3 L 572.0,153.3 L 572.0,153.3 L 572.0,153.3 L 572.0,153.3 L 571.9,153.3 L 571.9,153.3 L 571.9,153.3 L 571.9,153.3 L 571.8,153.3 L 571.8,153.3 L 571.8,153.3 L 571.8,153.3 L 571.8,153.4 L 571.7,153.4 L 571.7,153.4 L 571.7,153.4 L 571.7,153.4 L 571.7,153.5 L 571.7,153.5 L 571.6,153.5 L 571.6,153.5 L 571.6,153.6 L 571.6,153.6 L 571.6,153.6 L 571.6,153.6 L 571.6,153.7 L 571.6,153.7 L 571.7,153.7 L 571.7,153.7 L 571.7,153.8 L 571.7,153.8 L 571.7,153.8 L 571.7,153.8 L 571.8,153.8 L 571.8,153.8 L 571.8,153.9 L 571.8,153.9 L 571.8,153.9 L 571.9,153.9 L 571.9,153.9 L 571.9,153.9 L 571.9,153.9 L 572.0,153.9 L 572.0,153.9 L 572.0,153.9 L 572.0,153.9 L 572.1,153.9 L 572.1,153.9 L 572.1,153.8 L 572.1,153.8 L 572.2,153.8 L 572.2,153.8 L 572.2,153.8 L 572.2,153.7 L 572.2,153.7 L 572.2,153.7 L 572.2,153.7 L 572.2,153.6 L 572.2,153.6 L 572.2,153.6 L 571.9,153.6 Z" style="fill:#000000;fill-rule:evenodd;fill-opacity:1;stroke:#000000;stroke-width:0.0px;stroke-linecap:butt;stroke-linejoin:miter;stroke-opacity:1;"/>
<path class="bond-0 atom-0 atom-1" d="M 64.2,395.7 L 62.9,391.1" style="fill:none;fill-rule:evenodd;stroke:#0000FF;stroke-width:2.0px;stroke-linecap:butt;stroke-linejoin:miter;stroke-opacity:1"/>
<path class="bond-0 atom-0 atom-1" d="M 62.9,391.1 L 61.6,386.5" style="fill:none;fill-rule:evenodd;stroke:#000000;stroke-width:2.0px;stroke-linecap:butt;stroke-linejoin:miter;stroke-opacity:1"/>
<path class="bond-1 atom-1 atom-2" d="M 61.6,386.5 L 49.8,383.6" style="fill:none;fill-rule:evenodd;stroke:#000000;stroke-width:2.0px;stroke-linecap:butt;stroke-linejoin:miter;stroke-opacity:1"/>
<path class="bond-1 atom-1 atom-2" d="M 60.4,383.7 L 52.1,381.7" style="fill:none;fill-rule:evenodd;stroke:#000000;stroke-width:2.0px;stroke-linecap:butt;stroke-linejoin:miter;stroke-opacity:1"/>
<path class="bond-14 atom-6 atom-1" d="M 69.9,377.8 L 61.6,386.5" style="fill:none;fill-rule:evenodd;stroke:#000000;stroke-width:2.0px;stroke-linecap:butt;stroke-linejoin:miter;stroke-opacity:1"/>
<path class="bond-2 atom-2 atom-3" d="M 49.8,383.6 L 46.4,372.0" style="fill:none;fill-rule:evenodd;stroke:#000000;stroke-width:2.0px;stroke-linecap:butt;stroke-linejoin:miter;stroke-opacity:1"/>
<path class="bond-3 atom-3 atom-4" d="M 46.4,372.0 L 54.8,363.2" style="fill:none;fill-rule:evenodd;stroke:#000000;stroke-width:2.0px;stroke-linecap:butt;stroke-linejoin:miter;stroke-opacity:1"/>
<path class="bond-3 atom-3 atom-4" d="M 49.4,372.4 L 55.3,366.2" style="fill:none;fill-rule:evenodd;stroke:#000000;stroke-width:2.0px;stroke-linecap:butt;stroke-linejoin:miter;stroke-opacity:1"/>
<path class="bond-4 atom-4 atom-5" d="M 54.8,363.2 L 66.6,366.1" style="fill:none;fill-rule:evenodd;stroke:#000000;stroke-width:2.0px;stroke-linecap:butt;stroke-linejoin:miter;stroke-opacity:1"/>
<path class="bond-5 atom-5 atom-6" d="M 66.6,366.1 L 69.9,377.8" style="fill:none;fill-rule:evenodd;stroke:#000000;stroke-width:2.0px;stroke-linecap:butt;stroke-linejoin:miter;stroke-opacity:1"/>
<path class="bond-5 atom-5 atom-6" d="M 64.7,368.5 L 67.1,376.7" style="fill:none;fill-rule:evenodd;stroke:#000000;stroke-width:2.0px;stroke-linecap:butt;stroke-linejoin:miter;stroke-opacity:1"/>
<path class="bond-6 atom-6 atom-7" d="M 69.9,377.8 L 74.7,378.9" style="fill:none;fill-rule:evenodd;stroke:#000000;stroke-width:2.0px;stroke-linecap:butt;stroke-linejoin:miter;stroke-opacity:1"/>
<path class="bond-6 atom-6 atom-7" d="M 74.7,378.9 L 79.5,380.1" style="fill:none;fill-rule:evenodd;stroke:#FF0000;stroke-width:2.0px;stroke-linecap:butt;stroke-linejoin:miter;stroke-opacity:1"/>
<path class="bond-7 atom-7 atom-8" d="M 84.0,378.3 L 87.0,375.1" style="fill:none;fill-rule:evenodd;stroke:#FF0000;stroke-width:2.0px;stroke-linecap:butt;stroke-linejoin:miter;stroke-opacity:1"/>
<path class="bond-7 atom-7 atom-8" d="M 87.0,375.1 L 90.1,371.9" style="fill:none;fill-rule:evenodd;stroke:#000000;stroke-width:2.0px;stroke-linecap:butt;stroke-linejoin:miter;stroke-opacity:1"/>
<path class="bond-8 atom-8 atom-9" d="M 90.1,371.9 L 101.9,374.8" style="fill:none;fill-rule:evenodd;stroke:#000000;stroke-width:2.0px;stroke-linecap:butt;stroke-linejoin:miter;stroke-opacity:1"/>
<path class="bond-9 atom-9 atom-10" d="M 101.9,374.8 L 105.3,386.4" style="fill:none;fill-rule:evenodd;stroke:#000000;stroke-width:2.0px;stroke-linecap:butt;stroke-linejoin:miter;stroke-opacity:1"/>
<path class="bond-9 atom-9 atom-10" d="M 104.7,375.9 L 107.1,384.0" style="fill:none;fill-rule:evenodd;stroke:#000000;stroke-width:2.0px;stroke-linecap:butt;stroke-linejoin:miter;stroke-opacity:1"/>
<path class="bond-15 atom-14 atom-9" d="M 110.3,366.0 L 101.9,374.8" style="fill:none;fill-rule:evenodd;stroke:#000000;stroke-width:2.0px;stroke-linecap:butt;stroke-linejoin:miter;stroke-opacity:1"/>
<path class="bond-10 atom-10 atom-11" d="M 105.3,386.4 L 117.1,389.3" style="fill:none;fill-rule:evenodd;stroke:#000000;stroke-width:2.0px;stroke-linecap:butt;stroke-linejoin:miter;stroke-opacity:1"/>
<path class="bond-11 atom-11 atom-12" d="M 117.1,389.3 L 125.4,380.6" style="fill:none;fill-rule:evenodd;stroke:#000000;stroke-width:2.0px;stroke-linecap:butt;stroke-linejoin:miter;stroke-opacity:1"/>
<path class="bond-11 atom-11 atom-12" d="M 116.6,386.3 L 122.4,380.2" style="fill:none;fill-rule:evenodd;stroke:#000000;stroke-width:2.0px;stroke-linecap:butt;stroke-linejoin:miter;stroke-opacity:1"/>
<path class="bond-12 atom-12 atom-13" d="M 125.4,380.6 L 122.1,368.9" style="fill:none;fill-rule:evenodd;stroke:#000000;stroke-width:2.0px;stroke-linecap:butt;stroke-linejoin:miter;stroke-opacity:1"/>
<path class="bond-13 atom-13 atom-14" d="M 122.1,368.9 L 110.3,366.0" style="fill:none;fill-rule:evenodd;stroke:#000000;stroke-width:2.0px;stroke-linecap:butt;stroke-linejoin:miter;stroke-opacity:1"/>
<path class="bond-13 atom-13 atom-14" d="M 119.7,370.8 L 111.5,368.8" style="fill:none;fill-rule:evenodd;stroke:#000000;stroke-width:2.0px;stroke-linecap:butt;stroke-linejoin:miter;stroke-opacity:1"/>
<path class="atom-0" d="M 64.0 396.0 L 65.4 398.3 Q 65.5 398.5, 65.8 398.9 Q 66.0 399.3, 66.0 399.3 L 66.0 396.0 L 66.6 396.0 L 66.6 400.3 L 66.0 400.3 L 64.5 397.8 Q 64.3 397.5, 64.1 397.2 Q 63.9 396.9, 63.9 396.8 L 63.9 400.3 L 63.3 400.3 L 63.3 396.0 L 64.0 396.0 " fill="#0000FF"/>
<path class="atom-0" d="M 67.1 396.0 L 67.6 396.0 L 67.6 397.8 L 69.8 397.8 L 69.8 396.0 L 70.4 396.0 L 70.4 400.3 L 69.8 400.3 L 69.8 398.3 L 67.6 398.3 L 67.6 400.3 L 67.1 400.3 L 67.1 396.0 " fill="#0000FF"/>
<path class="atom-0" d="M 70.6 400.1 Q 70.7 399.9, 70.9 399.7 Q 71.2 399.6, 71.5 399.6 Q 72.0 399.6, 72.2 399.8 Q 72.4 400.0, 72.4 400.4 Q 72.4 400.9, 72.1 401.3 Q 71.8 401.6, 71.2 402.1 L 72.5 402.1 L 72.5 402.4 L 70.6 402.4 L 70.6 402.1 Q 71.1 401.8, 71.4 401.5 Q 71.7 401.2, 71.9 401.0 Q 72.0 400.7, 72.0 400.5 Q 72.0 400.2, 71.9 400.0 Q 71.8 399.9, 71.5 399.9 Q 71.3 399.9, 71.2 400.0 Q 71.0 400.1, 70.9 400.3 L 70.6 400.1 " fill="#0000FF"/>
<path class="atom-0" d="M 70.7 396.8 L 71.5 396.8 L 71.5 396.0 L 71.8 396.0 L 71.8 396.8 L 72.6 396.8 L 72.6 397.1 L 71.8 397.1 L 71.8 397.9 L 71.5 397.9 L 71.5 397.1 L 70.7 397.1 L 70.7 396.8 " fill="#0000FF"/>
<path class="atom-7" d="M 79.8 380.7 Q 79.8 379.6, 80.3 379.1 Q 80.8 378.5, 81.7 378.5 Q 82.7 378.5, 83.2 379.1 Q 83.7 379.6, 83.7 380.7 Q 83.7 381.7, 83.2 382.3 Q 82.7 382.9, 81.7 382.9 Q 80.8 382.9, 80.3 382.3 Q 79.8 381.7, 79.8 380.7 M 81.7 382.4 Q 82.4 382.4, 82.7 382.0 Q 83.1 381.5, 83.1 380.7 Q 83.1 379.8, 82.7 379.4 Q 82.4 379.0, 81.7 379.0 Q 81.1 379.0, 80.7 379.4 Q 80.4 379.8, 80.4 380.7 Q 80.4 381.5, 80.7 382.0 Q 81.1 382.4, 81.7 382.4 " fill="#FF0000"/>
<path d="M 73.8,398.2 L 73.8,398.1 L 73.8,398.1 L 73.8,398.1 L 73.8,398.1 L 73.8,398.0 L 73.8,398.0 L 73.7,398.0 L 73.7,398.0 L 73.7,398.0 L 73.7,397.9 L 73.7,397.9 L 73.7,397.9 L 73.6,397.9 L 73.6,397.9 L 73.6,397.9 L 73.6,397.9 L 73.5,397.9 L 73.5,397.9 L 73.5,397.9 L 73.5,397.9 L 73.4,397.9 L 73.4,397.9 L 73.4,397.9 L 73.4,397.9 L 73.3,397.9 L 73.3,397.9 L 73.3,397.9 L 73.3,398.0 L 73.3,398.0 L 73.2,398.0 L 73.2,398.0 L 73.2,398.1 L 73.2,398.1 L 73.2,398.1 L 73.2,398.1 L 73.2,398.2 L 73.2,398.2 L 73.2,398.2 L 73.2,398.2 L 73.2,398.3 L 73.2,398.3 L 73.2,398.3 L 73.2,398.3 L 73.3,398.3 L 73.3,398.4 L 73.3,398.4 L 73.3,398.4 L 73.3,398.4 L 73.4,398.4 L 73.4,398.4 L 73.4,398.5 L 73.4,398.5 L 73.5,398.5 L 73.5,398.5 L 73.5,398.5 L 73.5,398.5 L 73.6,398.5 L 73.6,398.5 L 73.6,398.4 L 73.6,398.4 L 73.7,398.4 L 73.7,398.4 L 73.7,398.4 L 73.7,398.4 L 73.7,398.4 L 73.7,398.3 L 73.8,398.3 L 73.8,398.3 L 73.8,398.3 L 73.8,398.2 L 73.8,398.2 L 73.8,398.2 L 73.8,398.2 L 73.5,398.2 Z" style="fill:#000000;fill-rule:evenodd;fill-opacity:1;stroke:#000000;stroke-width:0.0px;stroke-linecap:butt;stroke-linejoin:miter;stroke-opacity:1;"/>
<path class="bond-0 atom-0 atom-1" d="M 319.3,379.0 L 323.4,381.4" style="fill:none;fill-rule:evenodd;stroke:#FF0000;stroke-width:2.0px;stroke-linecap:butt;stroke-linejoin:miter;stroke-opacity:1"/>
<path class="bond-0 atom-0 atom-1" d="M 323.4,381.4 L 327.5,383.8" style="fill:none;fill-rule:evenodd;stroke:#000000;stroke-width:2.0px;stroke-linecap:butt;stroke-linejoin:miter;stroke-opacity:1"/>
<path class="bond-1 atom-1 atom-2" d="M 327.5,383.8 L 338.0,377.7" style="fill:none;fill-rule:evenodd;stroke:#000000;stroke-width:2.0px;stroke-linecap:butt;stroke-linejoin:miter;stroke-opacity:1"/>
<path class="bond-2 atom-2 atom-3" d="M 338.0,377.7 L 342.5,375.2" style="fill:none;fill-rule:evenodd;stroke:#000000;stroke-width:2.0px;stroke-linecap:butt;stroke-linejoin:miter;stroke-opacity:1"/>
<path class="bond-2 atom-2 atom-3" d="M 342.5,375.2 L 347.0,372.6" style="fill:none;fill-rule:evenodd;stroke:#33CCCC;stroke-width:2.0px;stroke-linecap:butt;stroke-linejoin:miter;stroke-opacity:1"/>
<path class="bond-3 atom-2 atom-4" d="M 338.0,377.7 L 340.4,381.8" style="fill:none;fill-rule:evenodd;stroke:#000000;stroke-width:2.0px;stroke-linecap:butt;stroke-linejoin:miter;stroke-opacity:1"/>
<path class="bond-3 atom-2 atom-4" d="M 340.4,381.8 L 342.7,385.8" style="fill:none;fill-rule:evenodd;stroke:#33CCCC;stroke-width:2.0px;stroke-linecap:butt;stroke-linejoin:miter;stroke-opacity:1"/>
<path class="bond-4 atom-2 atom-5" d="M 338.0,377.7 L 335.3,373.0" style="fill:none;fill-rule:evenodd;stroke:#000000;stroke-width:2.0px;stroke-linecap:butt;stroke-linejoin:miter;stroke-opacity:1"/>
<path class="bond-4 atom-2 atom-5" d="M 335.3,373.0 L 332.5,368.2" style="fill:none;fill-rule:evenodd;stroke:#00CC00;stroke-width:2.0px;stroke-linecap:butt;stroke-linejoin:miter;stroke-opacity:1"/>
<path class="atom-0" d="M 311.4 375.6 L 312.0 375.6 L 312.0 377.4 L 314.2 377.4 L 314.2 375.6 L 314.8 375.6 L 314.8 379.9 L 314.2 379.9 L 314.2 377.9 L 312.0 377.9 L 312.0 379.9 L 311.4 379.9 L 311.4 375.6 " fill="#FF0000"/>
<path class="atom-0" d="M 315.1 377.7 Q 315.1 376.7, 315.6 376.2 Q 316.1 375.6, 317.0 375.6 Q 318.0 375.6, 318.5 376.2 Q 319.0 376.7, 319.0 377.7 Q 319.0 378.8, 318.5 379.4 Q 318.0 380.0, 317.0 380.0 Q 316.1 380.0, 315.6 379.4 Q 315.1 378.8, 315.1 377.7 M 317.0 379.5 Q 317.7 379.5, 318.0 379.0 Q 318.4 378.6, 318.4 377.7 Q 318.4 376.9, 318.0 376.5 Q 317.7 376.1, 317.0 376.1 Q 316.4 376.1, 316.0 376.5 Q 315.7 376.9, 315.7 377.7 Q 315.7 378.6, 316.0 379.0 Q 316.4 379.5, 317.0 379.5 " fill="#FF0000"/>
<path class="atom-3" d="M 347.3 369.6 L 349.8 369.6 L 349.8 370.0 L 347.8 370.0 L 347.8 371.3 L 349.6 371.3 L 349.6 371.8 L 347.8 371.8 L 347.8 373.8 L 347.3 373.8 L 347.3 369.6 " fill="#33CCCC"/>
<path class="atom-4" d="M 342.8 386.1 L 345.3 386.1 L 345.3 386.6 L 343.4 386.6 L 343.4 387.9 L 345.1 387.9 L 345.1 388.4 L 343.4 388.4 L 343.4 390.4 L 342.8 390.4 L 342.8 386.1 " fill="#33CCCC"/>
<path class="atom-5" d="M 327.9 367.4 Q 327.9 366.3, 328.4 365.8 Q 328.9 365.2, 329.8 365.2 Q 330.7 365.2, 331.2 365.8 L 330.8 366.2 Q 330.4 365.7, 329.8 365.7 Q 329.2 365.7, 328.8 366.1 Q 328.5 366.6, 328.5 367.4 Q 328.5 368.2, 328.9 368.7 Q 329.2 369.1, 329.9 369.1 Q 330.4 369.1, 330.9 368.8 L 331.1 369.3 Q 330.9 369.4, 330.5 369.5 Q 330.2 369.6, 329.8 369.6 Q 328.9 369.6, 328.4 369.0 Q 327.9 368.4, 327.9 367.4 " fill="#00CC00"/>
<path class="atom-5" d="M 331.7 365.0 L 332.2 365.0 L 332.2 369.5 L 331.7 369.5 L 331.7 365.0 " fill="#00CC00"/>
<path class="bond-0 atom-0 atom-1" d="M 580.4,378.9 L 584.4,378.9" style="fill:none;fill-rule:evenodd;stroke:#0000FF;stroke-width:2.0px;stroke-linecap:butt;stroke-linejoin:miter;stroke-opacity:1"/>
<path class="bond-0 atom-0 atom-1" d="M 584.4,378.9 L 588.4,378.9" style="fill:none;fill-rule:evenodd;stroke:#FF0000;stroke-width:2.0px;stroke-linecap:butt;stroke-linejoin:miter;stroke-opacity:1"/>
<path class="bond-0 atom-0 atom-1" d="M 580.4,376.5 L 584.4,376.5" style="fill:none;fill-rule:evenodd;stroke:#0000FF;stroke-width:2.0px;stroke-linecap:butt;stroke-linejoin:miter;stroke-opacity:1"/>
<path class="bond-0 atom-0 atom-1" d="M 584.4,376.5 L 588.4,376.5" style="fill:none;fill-rule:evenodd;stroke:#FF0000;stroke-width:2.0px;stroke-linecap:butt;stroke-linejoin:miter;stroke-opacity:1"/>
<path class="atom-0" d="M 573.0 375.6 L 573.6 375.6 L 573.6 377.4 L 575.8 377.4 L 575.8 375.6 L 576.4 375.6 L 576.4 379.9 L 575.8 379.9 L 575.8 377.9 L 573.6 377.9 L 573.6 379.9 L 573.0 379.9 L 573.0 375.6 " fill="#0000FF"/>
<path class="atom-0" d="M 577.5 375.6 L 578.9 377.9 Q 579.1 378.1, 579.3 378.5 Q 579.5 378.9, 579.5 378.9 L 579.5 375.6 L 580.1 375.6 L 580.1 379.9 L 579.5 379.9 L 578.0 377.4 Q 577.8 377.1, 577.6 376.8 Q 577.5 376.5, 577.4 376.4 L 577.4 379.9 L 576.8 379.9 L 576.8 375.6 L 577.5 375.6 " fill="#0000FF"/>
<path class="atom-1" d="M 588.6 377.7 Q 588.6 376.7, 589.1 376.2 Q 589.6 375.6, 590.6 375.6 Q 591.5 375.6, 592.0 376.2 Q 592.5 376.7, 592.5 377.7 Q 592.5 378.8, 592.0 379.4 Q 591.5 380.0, 590.6 380.0 Q 589.7 380.0, 589.1 379.4 Q 588.6 378.8, 588.6 377.7 M 590.6 379.5 Q 591.2 379.5, 591.6 379.0 Q 591.9 378.6, 591.9 377.7 Q 591.9 376.9, 591.6 376.5 Q 591.2 376.1, 590.6 376.1 Q 589.9 376.1, 589.6 376.5 Q 589.2 376.9, 589.2 377.7 Q 589.2 378.6, 589.6 379.0 Q 589.9 379.5, 590.6 379.5 " fill="#FF0000"/>
<path class="bond-0 atom-0 atom-1" d="M 86.2,637.3 L 82.9,633.7" style="fill:none;fill-rule:evenodd;stroke:#FF7F00;stroke-width:2.0px;stroke-linecap:butt;stroke-linejoin:miter;stroke-opacity:1"/>
<path class="bond-0 atom-0 atom-1" d="M 82.9,633.7 L 79.6,630.2" style="fill:none;fill-rule:evenodd;stroke:#000000;stroke-width:2.0px;stroke-linecap:butt;stroke-linejoin:miter;stroke-opacity:1"/>
<path class="bond-3 atom-0 atom-4" d="M 91.7,638.2 L 95.7,637.3" style="fill:none;fill-rule:evenodd;stroke:#FF7F00;stroke-width:2.0px;stroke-linecap:butt;stroke-linejoin:miter;stroke-opacity:1"/>
<path class="bond-3 atom-0 atom-4" d="M 95.7,637.3 L 99.7,636.4" style="fill:none;fill-rule:evenodd;stroke:#000000;stroke-width:2.0px;stroke-linecap:butt;stroke-linejoin:miter;stroke-opacity:1"/>
<path class="bond-1 atom-1 atom-2" d="M 79.6,630.2 L 67.8,632.9" style="fill:none;fill-rule:evenodd;stroke:#000000;stroke-width:2.0px;stroke-linecap:butt;stroke-linejoin:miter;stroke-opacity:1"/>
<path class="bond-7 atom-7 atom-1" d="M 82.5,621.1 L 81.0,625.7" style="fill:none;fill-rule:evenodd;stroke:#FF0000;stroke-width:2.0px;stroke-linecap:butt;stroke-linejoin:miter;stroke-opacity:1"/>
<path class="bond-7 atom-7 atom-1" d="M 81.0,625.7 L 79.6,630.2" style="fill:none;fill-rule:evenodd;stroke:#000000;stroke-width:2.0px;stroke-linecap:butt;stroke-linejoin:miter;stroke-opacity:1"/>
<path class="bond-2 atom-2 atom-3" d="M 67.8,632.9 L 59.6,623.9" style="fill:none;fill-rule:evenodd;stroke:#000000;stroke-width:2.0px;stroke-linecap:butt;stroke-linejoin:miter;stroke-opacity:1"/>
<path class="bond-4 atom-4 atom-5" d="M 99.7,636.4 L 103.3,624.8" style="fill:none;fill-rule:evenodd;stroke:#000000;stroke-width:2.0px;stroke-linecap:butt;stroke-linejoin:miter;stroke-opacity:1"/>
<path class="bond-5 atom-5 atom-6" d="M 103.3,624.8 L 95.1,615.9" style="fill:none;fill-rule:evenodd;stroke:#000000;stroke-width:2.0px;stroke-linecap:butt;stroke-linejoin:miter;stroke-opacity:1"/>
<path class="bond-6 atom-6 atom-7" d="M 95.1,615.9 L 90.3,617.0" style="fill:none;fill-rule:evenodd;stroke:#000000;stroke-width:2.0px;stroke-linecap:butt;stroke-linejoin:miter;stroke-opacity:1"/>
<path class="bond-6 atom-6 atom-7" d="M 90.3,617.0 L 85.5,618.1" style="fill:none;fill-rule:evenodd;stroke:#FF0000;stroke-width:2.0px;stroke-linecap:butt;stroke-linejoin:miter;stroke-opacity:1"/>
<path class="atom-0" d="M 87.8 637.0 Q 88.5 637.0, 88.9 637.3 Q 89.2 637.6, 89.2 638.2 Q 89.2 638.8, 88.8 639.1 Q 88.5 639.5, 87.8 639.5 L 87.1 639.5 L 87.1 641.2 L 86.5 641.2 L 86.5 637.0 L 87.8 637.0 M 87.8 639.0 Q 88.2 639.0, 88.4 638.8 Q 88.6 638.6, 88.6 638.2 Q 88.6 637.8, 88.4 637.6 Q 88.2 637.5, 87.8 637.5 L 87.1 637.5 L 87.1 639.0 L 87.8 639.0 " fill="#FF7F00"/>
<path class="atom-0" d="M 89.6 637.7 L 90.3 637.7 L 90.3 636.9 L 90.7 636.9 L 90.7 637.7 L 91.4 637.7 L 91.4 638.0 L 90.7 638.0 L 90.7 638.8 L 90.3 638.8 L 90.3 638.0 L 89.6 638.0 L 89.6 637.7 " fill="#FF7F00"/>
<path class="atom-7" d="M 81.3 618.6 Q 81.3 617.6, 81.8 617.0 Q 82.3 616.5, 83.2 616.5 Q 84.2 616.5, 84.7 617.0 Q 85.2 617.6, 85.2 618.6 Q 85.2 619.7, 84.7 620.2 Q 84.2 620.8, 83.2 620.8 Q 82.3 620.8, 81.8 620.2 Q 81.3 619.7, 81.3 618.6 M 83.2 620.3 Q 83.9 620.3, 84.2 619.9 Q 84.6 619.5, 84.6 618.6 Q 84.6 617.8, 84.2 617.4 Q 83.9 616.9, 83.2 616.9 Q 82.6 616.9, 82.2 617.4 Q 81.9 617.8, 81.9 618.6 Q 81.9 619.5, 82.2 619.9 Q 82.6 620.3, 83.2 620.3 " fill="#FF0000"/>
<path d="M 88.8,641.7 L 88.8,641.6 L 88.8,641.6 L 88.8,641.6 L 88.7,641.6 L 88.7,641.5 L 88.7,641.5 L 88.7,641.5 L 88.7,641.5 L 88.7,641.5 L 88.7,641.4 L 88.6,641.4 L 88.6,641.4 L 88.6,641.4 L 88.6,641.4 L 88.5,641.4 L 88.5,641.4 L 88.5,641.4 L 88.5,641.4 L 88.4,641.4 L 88.4,641.4 L 88.4,641.4 L 88.4,641.4 L 88.3,641.4 L 88.3,641.4 L 88.3,641.4 L 88.3,641.4 L 88.3,641.5 L 88.2,641.5 L 88.2,641.5 L 88.2,641.5 L 88.2,641.5 L 88.2,641.6 L 88.2,641.6 L 88.2,641.6 L 88.2,641.6 L 88.2,641.7 L 88.2,641.7 L 88.2,641.7 L 88.2,641.7 L 88.2,641.8 L 88.2,641.8 L 88.2,641.8 L 88.2,641.8 L 88.2,641.8 L 88.2,641.9 L 88.3,641.9 L 88.3,641.9 L 88.3,641.9 L 88.3,641.9 L 88.3,641.9 L 88.4,642.0 L 88.4,642.0 L 88.4,642.0 L 88.4,642.0 L 88.5,642.0 L 88.5,642.0 L 88.5,642.0 L 88.5,642.0 L 88.6,641.9 L 88.6,641.9 L 88.6,641.9 L 88.6,641.9 L 88.7,641.9 L 88.7,641.9 L 88.7,641.9 L 88.7,641.8 L 88.7,641.8 L 88.7,641.8 L 88.7,641.8 L 88.8,641.7 L 88.8,641.7 L 88.8,641.7 L 88.8,641.7 L 88.5,641.7 Z" style="fill:#000000;fill-rule:evenodd;fill-opacity:1;stroke:#000000;stroke-width:0.0px;stroke-linecap:butt;stroke-linejoin:miter;stroke-opacity:1;"/>
<path d="M 87.6,641.7 L 87.6,641.6 L 87.6,641.6 L 87.6,641.6 L 87.5,641.6 L 87.5,641.5 L 87.5,641.5 L 87.5,641.5 L 87.5,641.5 L 87.5,641.5 L 87.5,641.4 L 87.4,641.4 L 87.4,641.4 L 87.4,641.4 L 87.4,641.4 L 87.3,641.4 L 87.3,641.4 L 87.3,641.4 L 87.3,641.4 L 87.2,641.4 L 87.2,641.4 L 87.2,641.4 L 87.2,641.4 L 87.1,641.4 L 87.1,641.4 L 87.1,641.4 L 87.1,641.4 L 87.1,641.5 L 87.0,641.5 L 87.0,641.5 L 87.0,641.5 L 87.0,641.5 L 87.0,641.6 L 87.0,641.6 L 87.0,641.6 L 87.0,641.6 L 87.0,641.7 L 87.0,641.7 L 87.0,641.7 L 87.0,641.7 L 87.0,641.8 L 87.0,641.8 L 87.0,641.8 L 87.0,641.8 L 87.0,641.8 L 87.0,641.9 L 87.1,641.9 L 87.1,641.9 L 87.1,641.9 L 87.1,641.9 L 87.1,641.9 L 87.2,642.0 L 87.2,642.0 L 87.2,642.0 L 87.2,642.0 L 87.3,642.0 L 87.3,642.0 L 87.3,642.0 L 87.3,642.0 L 87.4,641.9 L 87.4,641.9 L 87.4,641.9 L 87.4,641.9 L 87.5,641.9 L 87.5,641.9 L 87.5,641.9 L 87.5,641.8 L 87.5,641.8 L 87.5,641.8 L 87.5,641.8 L 87.6,641.7 L 87.6,641.7 L 87.6,641.7 L 87.6,641.7 L 87.3,641.7 Z" style="fill:#000000;fill-rule:evenodd;fill-opacity:1;stroke:#000000;stroke-width:0.0px;stroke-linecap:butt;stroke-linejoin:miter;stroke-opacity:1;"/>
<path class="bond-0 atom-0 atom-1" d="M 280.2,639.9 L 287.5,636.3" style="fill:none;fill-rule:evenodd;stroke:#000000;stroke-width:2.0px;stroke-linecap:butt;stroke-linejoin:miter;stroke-opacity:1"/>
<path class="bond-1 atom-1 atom-2" d="M 287.5,636.3 L 297.6,643.1" style="fill:none;fill-rule:evenodd;stroke:#000000;stroke-width:2.0px;stroke-linecap:butt;stroke-linejoin:miter;stroke-opacity:1"/>
<path class="bond-2 atom-1 atom-3" d="M 287.5,636.3 L 287.8,631.5" style="fill:none;fill-rule:evenodd;stroke:#000000;stroke-width:2.0px;stroke-linecap:butt;stroke-linejoin:miter;stroke-opacity:1"/>
<path class="bond-2 atom-1 atom-3" d="M 287.8,631.5 L 288.2,626.6" style="fill:none;fill-rule:evenodd;stroke:#0000FF;stroke-width:2.0px;stroke-linecap:butt;stroke-linejoin:miter;stroke-opacity:1"/>
<path class="bond-3 atom-3 atom-4" d="M 292.4,622.2 L 295.8,620.5" style="fill:none;fill-rule:evenodd;stroke:#0000FF;stroke-width:2.0px;stroke-linecap:butt;stroke-linejoin:miter;stroke-opacity:1"/>
<path class="bond-3 atom-3 atom-4" d="M 295.8,620.5 L 299.2,618.9" style="fill:none;fill-rule:evenodd;stroke:#000000;stroke-width:2.0px;stroke-linecap:butt;stroke-linejoin:miter;stroke-opacity:1"/>
<path class="bond-4 atom-4 atom-5" d="M 299.2,618.9 L 303.3,621.6" style="fill:none;fill-rule:evenodd;stroke:#000000;stroke-width:2.0px;stroke-linecap:butt;stroke-linejoin:miter;stroke-opacity:1"/>
<path class="bond-4 atom-4 atom-5" d="M 303.3,621.6 L 307.4,624.4" style="fill:none;fill-rule:evenodd;stroke:#0000FF;stroke-width:2.0px;stroke-linecap:butt;stroke-linejoin:miter;stroke-opacity:1"/>
<path class="bond-15 atom-4 atom-16" d="M 299.2,618.9 L 301.3,606.9 L 298.8,606.7 Z" style="fill:#000000;fill-rule:evenodd;fill-opacity:1;stroke:#000000;stroke-width:2.0px;stroke-linecap:butt;stroke-linejoin:miter;stroke-opacity:1;"/>
<path class="bond-5 atom-5 atom-6" d="M 311.2,624.7 L 315.7,622.5" style="fill:none;fill-rule:evenodd;stroke:#0000FF;stroke-width:2.0px;stroke-linecap:butt;stroke-linejoin:miter;stroke-opacity:1"/>
<path class="bond-5 atom-5 atom-6" d="M 315.7,622.5 L 320.2,620.3" style="fill:none;fill-rule:evenodd;stroke:#000000;stroke-width:2.0px;stroke-linecap:butt;stroke-linejoin:miter;stroke-opacity:1"/>
<path class="bond-6 atom-6 atom-7" d="M 320.2,620.3 L 330.2,627.1" style="fill:none;fill-rule:evenodd;stroke:#000000;stroke-width:2.0px;stroke-linecap:butt;stroke-linejoin:miter;stroke-opacity:1"/>
<path class="bond-7 atom-7 atom-8" d="M 330.2,627.1 L 341.1,621.8" style="fill:none;fill-rule:evenodd;stroke:#000000;stroke-width:2.0px;stroke-linecap:butt;stroke-linejoin:miter;stroke-opacity:1"/>
<path class="bond-8 atom-8 atom-9" d="M 341.1,621.8 L 351.2,628.5" style="fill:none;fill-rule:evenodd;stroke:#000000;stroke-width:2.0px;stroke-linecap:butt;stroke-linejoin:miter;stroke-opacity:1"/>
<path class="bond-9 atom-9 atom-10" d="M 351.2,628.5 L 362.1,623.2" style="fill:none;fill-rule:evenodd;stroke:#000000;stroke-width:2.0px;stroke-linecap:butt;stroke-linejoin:miter;stroke-opacity:1"/>
<path class="bond-10 atom-10 atom-11" d="M 362.1,623.2 L 372.1,630.0" style="fill:none;fill-rule:evenodd;stroke:#000000;stroke-width:2.0px;stroke-linecap:butt;stroke-linejoin:miter;stroke-opacity:1"/>
<path class="bond-11 atom-11 atom-12" d="M 370.9,629.9 L 370.6,634.7" style="fill:none;fill-rule:evenodd;stroke:#000000;stroke-width:2.0px;stroke-linecap:butt;stroke-linejoin:miter;stroke-opacity:1"/>
<path class="bond-11 atom-11 atom-12" d="M 370.6,634.7 L 370.3,639.5" style="fill:none;fill-rule:evenodd;stroke:#FF0000;stroke-width:2.0px;stroke-linecap:butt;stroke-linejoin:miter;stroke-opacity:1"/>
<path class="bond-11 atom-11 atom-12" d="M 373.4,630.1 L 373.0,634.9" style="fill:none;fill-rule:evenodd;stroke:#000000;stroke-width:2.0px;stroke-linecap:butt;stroke-linejoin:miter;stroke-opacity:1"/>
<path class="bond-11 atom-11 atom-12" d="M 373.0,634.9 L 372.7,639.7" style="fill:none;fill-rule:evenodd;stroke:#FF0000;stroke-width:2.0px;stroke-linecap:butt;stroke-linejoin:miter;stroke-opacity:1"/>
<path class="bond-12 atom-11 atom-13" d="M 372.1,630.0 L 376.6,627.8" style="fill:none;fill-rule:evenodd;stroke:#000000;stroke-width:2.0px;stroke-linecap:butt;stroke-linejoin:miter;stroke-opacity:1"/>
<path class="bond-12 atom-11 atom-13" d="M 376.6,627.8 L 381.1,625.6" style="fill:none;fill-rule:evenodd;stroke:#0000FF;stroke-width:2.0px;stroke-linecap:butt;stroke-linejoin:miter;stroke-opacity:1"/>
<path class="bond-13 atom-13 atom-14" d="M 384.9,625.9 L 389.0,628.7" style="fill:none;fill-rule:evenodd;stroke:#0000FF;stroke-width:2.0px;stroke-linecap:butt;stroke-linejoin:miter;stroke-opacity:1"/>
<path class="bond-13 atom-13 atom-14" d="M 389.0,628.7 L 393.1,631.4" style="fill:none;fill-rule:evenodd;stroke:#000000;stroke-width:2.0px;stroke-linecap:butt;stroke-linejoin:miter;stroke-opacity:1"/>
<path class="bond-14 atom-14 atom-15" d="M 393.6,632.5 L 404.5,627.2" style="fill:none;fill-rule:evenodd;stroke:#000000;stroke-width:2.0px;stroke-linecap:butt;stroke-linejoin:miter;stroke-opacity:1"/>
<path class="bond-14 atom-14 atom-15" d="M 392.6,630.3 L 403.5,625.0" style="fill:none;fill-rule:evenodd;stroke:#000000;stroke-width:2.0px;stroke-linecap:butt;stroke-linejoin:miter;stroke-opacity:1"/>
<path class="atom-0" d="M 275.0 641.6 Q 275.0 640.6, 275.5 640.0 Q 276.0 639.5, 276.9 639.5 Q 277.8 639.5, 278.2 640.1 L 277.8 640.4 Q 277.5 640.0, 276.9 640.0 Q 276.3 640.0, 275.9 640.4 Q 275.6 640.8, 275.6 641.6 Q 275.6 642.5, 275.9 642.9 Q 276.3 643.3, 277.0 643.3 Q 277.4 643.3, 278.0 643.1 L 278.1 643.5 Q 277.9 643.7, 277.6 643.7 Q 277.2 643.8, 276.9 643.8 Q 276.0 643.8, 275.5 643.3 Q 275.0 642.7, 275.0 641.6 " fill="#000000"/>
<path class="atom-0" d="M 278.4 640.2 L 279.9 640.2 L 279.9 640.5 L 278.4 640.5 L 278.4 640.2 " fill="#000000"/>
<path class="atom-3" d="M 280.8 622.1 L 281.4 622.1 L 281.4 623.9 L 283.6 623.9 L 283.6 622.1 L 284.1 622.1 L 284.1 626.3 L 283.6 626.3 L 283.6 624.4 L 281.4 624.4 L 281.4 626.3 L 280.8 626.3 L 280.8 622.1 " fill="#0000FF"/>
<path class="atom-3" d="M 284.3 626.2 Q 284.4 625.9, 284.7 625.8 Q 284.9 625.6, 285.3 625.6 Q 285.7 625.6, 285.9 625.8 Q 286.2 626.1, 286.2 626.5 Q 286.2 626.9, 285.9 627.3 Q 285.6 627.7, 284.9 628.1 L 286.2 628.1 L 286.2 628.4 L 284.3 628.4 L 284.3 628.2 Q 284.9 627.8, 285.2 627.5 Q 285.5 627.3, 285.6 627.0 Q 285.8 626.8, 285.8 626.5 Q 285.8 626.2, 285.6 626.1 Q 285.5 625.9, 285.3 625.9 Q 285.0 625.9, 284.9 626.0 Q 284.7 626.1, 284.6 626.3 L 284.3 626.2 " fill="#0000FF"/>
<path class="atom-3" d="M 287.4 622.1 L 288.8 624.3 Q 288.9 624.5, 289.1 624.9 Q 289.4 625.3, 289.4 625.4 L 289.4 622.1 L 289.9 622.1 L 289.9 626.3 L 289.4 626.3 L 287.9 623.9 Q 287.7 623.6, 287.5 623.2 Q 287.3 622.9, 287.3 622.8 L 287.3 626.3 L 286.7 626.3 L 286.7 622.1 L 287.4 622.1 " fill="#0000FF"/>
<path class="atom-3" d="M 290.3 622.8 L 291.0 622.8 L 291.0 622.0 L 291.4 622.0 L 291.4 622.8 L 292.1 622.8 L 292.1 623.1 L 291.4 623.1 L 291.4 623.9 L 291.0 623.9 L 291.0 623.1 L 290.3 623.1 L 290.3 622.8 " fill="#0000FF"/>
<path class="atom-5" d="M 308.3 623.5 L 309.7 625.8 Q 309.9 626.0, 310.1 626.4 Q 310.3 626.8, 310.3 626.8 L 310.3 623.5 L 310.9 623.5 L 310.9 627.8 L 310.3 627.8 L 308.8 625.3 Q 308.6 625.0, 308.5 624.7 Q 308.3 624.4, 308.2 624.3 L 308.2 627.8 L 307.7 627.8 L 307.7 623.5 L 308.3 623.5 " fill="#0000FF"/>
<path class="atom-5" d="M 307.6 628.2 L 308.2 628.2 L 308.2 630.0 L 310.4 630.0 L 310.4 628.2 L 310.9 628.2 L 310.9 632.4 L 310.4 632.4 L 310.4 630.5 L 308.2 630.5 L 308.2 632.4 L 307.6 632.4 L 307.6 628.2 " fill="#0000FF"/>
<path class="atom-12" d="M 369.4 642.1 Q 369.4 641.1, 369.9 640.5 Q 370.4 639.9, 371.3 639.9 Q 372.2 639.9, 372.8 640.5 Q 373.3 641.1, 373.3 642.1 Q 373.3 643.1, 372.7 643.7 Q 372.2 644.3, 371.3 644.3 Q 370.4 644.3, 369.9 643.7 Q 369.4 643.1, 369.4 642.1 M 371.3 643.8 Q 372.0 643.8, 372.3 643.4 Q 372.7 642.9, 372.7 642.1 Q 372.7 641.2, 372.3 640.8 Q 372.0 640.4, 371.3 640.4 Q 370.7 640.4, 370.3 640.8 Q 370.0 641.2, 370.0 642.1 Q 370.0 642.9, 370.3 643.4 Q 370.7 643.8, 371.3 643.8 " fill="#FF0000"/>
<path class="atom-13" d="M 382.1 622.5 L 383.5 624.8 Q 383.6 625.0, 383.8 625.4 Q 384.1 625.8, 384.1 625.8 L 384.1 622.5 L 384.6 622.5 L 384.6 626.8 L 384.1 626.8 L 382.6 624.3 Q 382.4 624.0, 382.2 623.7 Q 382.0 623.4, 382.0 623.3 L 382.0 626.8 L 381.4 626.8 L 381.4 622.5 L 382.1 622.5 " fill="#0000FF"/>
<path class="atom-13" d="M 381.4 617.8 L 381.9 617.8 L 381.9 619.7 L 384.1 619.7 L 384.1 617.8 L 384.7 617.8 L 384.7 622.1 L 384.1 622.1 L 384.1 620.1 L 381.9 620.1 L 381.9 622.1 L 381.4 622.1 L 381.4 617.8 " fill="#0000FF"/>
<path class="bond-0 atom-0 atom-1" d="M 651.4,628.0 L 650.1,631.2" style="fill:none;fill-rule:evenodd;stroke:#CCCC00;stroke-width:2.0px;stroke-linecap:butt;stroke-linejoin:miter;stroke-opacity:1"/>
<path class="bond-0 atom-0 atom-1" d="M 650.1,631.2 L 648.8,634.3" style="fill:none;fill-rule:evenodd;stroke:#FF0000;stroke-width:2.0px;stroke-linecap:butt;stroke-linejoin:miter;stroke-opacity:1"/>
<path class="bond-0 atom-0 atom-1" d="M 653.6,629.0 L 652.3,632.1" style="fill:none;fill-rule:evenodd;stroke:#CCCC00;stroke-width:2.0px;stroke-linecap:butt;stroke-linejoin:miter;stroke-opacity:1"/>
<path class="bond-0 atom-0 atom-1" d="M 652.3,632.1 L 651.0,635.2" style="fill:none;fill-rule:evenodd;stroke:#FF0000;stroke-width:2.0px;stroke-linecap:butt;stroke-linejoin:miter;stroke-opacity:1"/>
<path class="bond-1 atom-0 atom-2" d="M 651.9,625.3 L 648.1,623.7" style="fill:none;fill-rule:evenodd;stroke:#CCCC00;stroke-width:2.0px;stroke-linecap:butt;stroke-linejoin:miter;stroke-opacity:1"/>
<path class="bond-1 atom-0 atom-2" d="M 648.1,623.7 L 644.3,622.1" style="fill:none;fill-rule:evenodd;stroke:#0000FF;stroke-width:2.0px;stroke-linecap:butt;stroke-linejoin:miter;stroke-opacity:1"/>
<path class="bond-1 atom-0 atom-2" d="M 649.8,627.0 L 647.1,625.9" style="fill:none;fill-rule:evenodd;stroke:#CCCC00;stroke-width:2.0px;stroke-linecap:butt;stroke-linejoin:miter;stroke-opacity:1"/>
<path class="bond-1 atom-0 atom-2" d="M 647.1,625.9 L 644.5,624.8" style="fill:none;fill-rule:evenodd;stroke:#0000FF;stroke-width:2.0px;stroke-linecap:butt;stroke-linejoin:miter;stroke-opacity:1"/>
<path class="bond-22 atom-0 atom-23" d="M 654.6,623.5 L 656.4,619.2" style="fill:none;fill-rule:evenodd;stroke:#CCCC00;stroke-width:2.0px;stroke-linecap:butt;stroke-linejoin:miter;stroke-opacity:1"/>
<path class="bond-22 atom-0 atom-23" d="M 656.4,619.2 L 658.3,614.8" style="fill:none;fill-rule:evenodd;stroke:#000000;stroke-width:2.0px;stroke-linecap:butt;stroke-linejoin:miter;stroke-opacity:1"/>
<path class="bond-26 atom-25 atom-0" d="M 664.7,630.7 L 660.0,628.7" style="fill:none;fill-rule:evenodd;stroke:#000000;stroke-width:2.0px;stroke-linecap:butt;stroke-linejoin:miter;stroke-opacity:1"/>
<path class="bond-26 atom-25 atom-0" d="M 660.0,628.7 L 655.2,626.7" style="fill:none;fill-rule:evenodd;stroke:#CCCC00;stroke-width:2.0px;stroke-linecap:butt;stroke-linejoin:miter;stroke-opacity:1"/>
<path class="bond-2 atom-2 atom-3" d="M 640.5,622.7 L 637.4,625.1" style="fill:none;fill-rule:evenodd;stroke:#0000FF;stroke-width:2.0px;stroke-linecap:butt;stroke-linejoin:miter;stroke-opacity:1"/>
<path class="bond-2 atom-2 atom-3" d="M 637.4,625.1 L 634.3,627.4" style="fill:none;fill-rule:evenodd;stroke:#CCCC00;stroke-width:2.0px;stroke-linecap:butt;stroke-linejoin:miter;stroke-opacity:1"/>
<path class="bond-3 atom-3 atom-4" d="M 631.1,627.9 L 626.3,625.9" style="fill:none;fill-rule:evenodd;stroke:#CCCC00;stroke-width:2.0px;stroke-linecap:butt;stroke-linejoin:miter;stroke-opacity:1"/>
<path class="bond-3 atom-3 atom-4" d="M 626.3,625.9 L 621.6,623.9" style="fill:none;fill-rule:evenodd;stroke:#000000;stroke-width:2.0px;stroke-linecap:butt;stroke-linejoin:miter;stroke-opacity:1"/>
<path class="bond-4 atom-4 atom-5" d="M 621.6,623.9 L 617.7,626.8" style="fill:none;fill-rule:evenodd;stroke:#000000;stroke-width:2.0px;stroke-linecap:butt;stroke-linejoin:miter;stroke-opacity:1"/>
<path class="bond-4 atom-4 atom-5" d="M 617.7,626.8 L 613.8,629.8" style="fill:none;fill-rule:evenodd;stroke:#0000FF;stroke-width:2.0px;stroke-linecap:butt;stroke-linejoin:miter;stroke-opacity:1"/>
<path class="bond-4 atom-4 atom-5" d="M 621.9,626.7 L 619.1,628.8" style="fill:none;fill-rule:evenodd;stroke:#000000;stroke-width:2.0px;stroke-linecap:butt;stroke-linejoin:miter;stroke-opacity:1"/>
<path class="bond-4 atom-4 atom-5" d="M 619.1,628.8 L 616.4,630.8" style="fill:none;fill-rule:evenodd;stroke:#0000FF;stroke-width:2.0px;stroke-linecap:butt;stroke-linejoin:miter;stroke-opacity:1"/>
<path class="bond-5 atom-5 atom-6" d="M 610.0,630.4 L 602.6,627.3" style="fill:none;fill-rule:evenodd;stroke:#0000FF;stroke-width:2.0px;stroke-linecap:butt;stroke-linejoin:miter;stroke-opacity:1"/>
<path class="bond-6 atom-6 atom-7" d="M 598.8,628.0 L 594.9,630.9" style="fill:none;fill-rule:evenodd;stroke:#0000FF;stroke-width:2.0px;stroke-linecap:butt;stroke-linejoin:miter;stroke-opacity:1"/>
<path class="bond-6 atom-6 atom-7" d="M 594.9,630.9 L 591.1,633.9" style="fill:none;fill-rule:evenodd;stroke:#000000;stroke-width:2.0px;stroke-linecap:butt;stroke-linejoin:miter;stroke-opacity:1"/>
<path class="bond-6 atom-6 atom-7" d="M 599.1,630.8 L 596.4,632.9" style="fill:none;fill-rule:evenodd;stroke:#0000FF;stroke-width:2.0px;stroke-linecap:butt;stroke-linejoin:miter;stroke-opacity:1"/>
<path class="bond-6 atom-6 atom-7" d="M 596.4,632.9 L 593.7,634.9" style="fill:none;fill-rule:evenodd;stroke:#000000;stroke-width:2.0px;stroke-linecap:butt;stroke-linejoin:miter;stroke-opacity:1"/>
<path class="bond-7 atom-7 atom-8" d="M 591.1,633.9 L 579.9,629.2" style="fill:none;fill-rule:evenodd;stroke:#000000;stroke-width:2.0px;stroke-linecap:butt;stroke-linejoin:miter;stroke-opacity:1"/>
<path class="bond-8 atom-8 atom-9" d="M 581.1,629.0 L 580.5,624.3" style="fill:none;fill-rule:evenodd;stroke:#000000;stroke-width:2.0px;stroke-linecap:butt;stroke-linejoin:miter;stroke-opacity:1"/>
<path class="bond-8 atom-8 atom-9" d="M 580.5,624.3 L 579.9,619.5" style="fill:none;fill-rule:evenodd;stroke:#FF0000;stroke-width:2.0px;stroke-linecap:butt;stroke-linejoin:miter;stroke-opacity:1"/>
<path class="bond-8 atom-8 atom-9" d="M 578.7,629.3 L 578.1,624.6" style="fill:none;fill-rule:evenodd;stroke:#000000;stroke-width:2.0px;stroke-linecap:butt;stroke-linejoin:miter;stroke-opacity:1"/>
<path class="bond-8 atom-8 atom-9" d="M 578.1,624.6 L 577.5,619.8" style="fill:none;fill-rule:evenodd;stroke:#FF0000;stroke-width:2.0px;stroke-linecap:butt;stroke-linejoin:miter;stroke-opacity:1"/>
<path class="bond-9 atom-8 atom-10" d="M 579.9,629.2 L 576.0,632.1" style="fill:none;fill-rule:evenodd;stroke:#000000;stroke-width:2.0px;stroke-linecap:butt;stroke-linejoin:miter;stroke-opacity:1"/>
<path class="bond-9 atom-8 atom-10" d="M 576.0,632.1 L 572.1,635.0" style="fill:none;fill-rule:evenodd;stroke:#0000FF;stroke-width:2.0px;stroke-linecap:butt;stroke-linejoin:miter;stroke-opacity:1"/>
<path class="bond-10 atom-10 atom-11" d="M 568.3,635.7 L 563.7,633.8" style="fill:none;fill-rule:evenodd;stroke:#0000FF;stroke-width:2.0px;stroke-linecap:butt;stroke-linejoin:miter;stroke-opacity:1"/>
<path class="bond-10 atom-10 atom-11" d="M 563.7,633.8 L 559.0,631.8" style="fill:none;fill-rule:evenodd;stroke:#000000;stroke-width:2.0px;stroke-linecap:butt;stroke-linejoin:miter;stroke-opacity:1"/>
<path class="bond-11 atom-11 atom-12" d="M 559.0,631.8 L 549.4,639.1" style="fill:none;fill-rule:evenodd;stroke:#000000;stroke-width:2.0px;stroke-linecap:butt;stroke-linejoin:miter;stroke-opacity:1"/>
<path class="bond-12 atom-12 atom-13" d="M 549.4,639.1 L 544.7,637.2" style="fill:none;fill-rule:evenodd;stroke:#000000;stroke-width:2.0px;stroke-linecap:butt;stroke-linejoin:miter;stroke-opacity:1"/>
<path class="bond-12 atom-12 atom-13" d="M 544.7,637.2 L 540.1,635.2" style="fill:none;fill-rule:evenodd;stroke:#0000FF;stroke-width:2.0px;stroke-linecap:butt;stroke-linejoin:miter;stroke-opacity:1"/>
<path class="bond-13 atom-13 atom-14" d="M 536.3,636.1 L 532.7,639.3" style="fill:none;fill-rule:evenodd;stroke:#0000FF;stroke-width:2.0px;stroke-linecap:butt;stroke-linejoin:miter;stroke-opacity:1"/>
<path class="bond-13 atom-13 atom-14" d="M 532.7,639.3 L 529.1,642.5" style="fill:none;fill-rule:evenodd;stroke:#000000;stroke-width:2.0px;stroke-linecap:butt;stroke-linejoin:miter;stroke-opacity:1"/>
<path class="bond-27 atom-22 atom-13" d="M 537.6,622.3 L 537.8,627.2" style="fill:none;fill-rule:evenodd;stroke:#000000;stroke-width:2.0px;stroke-linecap:butt;stroke-linejoin:miter;stroke-opacity:1"/>
<path class="bond-27 atom-22 atom-13" d="M 537.8,627.2 L 538.1,632.0" style="fill:none;fill-rule:evenodd;stroke:#0000FF;stroke-width:2.0px;stroke-linecap:butt;stroke-linejoin:miter;stroke-opacity:1"/>
<path class="bond-14 atom-14 atom-15" d="M 528.0,642.8 L 529.3,647.4" style="fill:none;fill-rule:evenodd;stroke:#000000;stroke-width:2.0px;stroke-linecap:butt;stroke-linejoin:miter;stroke-opacity:1"/>
<path class="bond-14 atom-14 atom-15" d="M 529.3,647.4 L 530.6,652.0" style="fill:none;fill-rule:evenodd;stroke:#FF0000;stroke-width:2.0px;stroke-linecap:butt;stroke-linejoin:miter;stroke-opacity:1"/>
<path class="bond-14 atom-14 atom-15" d="M 530.3,642.1 L 531.6,646.8" style="fill:none;fill-rule:evenodd;stroke:#000000;stroke-width:2.0px;stroke-linecap:butt;stroke-linejoin:miter;stroke-opacity:1"/>
<path class="bond-14 atom-14 atom-15" d="M 531.6,646.8 L 532.9,651.4" style="fill:none;fill-rule:evenodd;stroke:#FF0000;stroke-width:2.0px;stroke-linecap:butt;stroke-linejoin:miter;stroke-opacity:1"/>
<path class="bond-15 atom-14 atom-16" d="M 529.1,642.5 L 517.2,640.4" style="fill:none;fill-rule:evenodd;stroke:#000000;stroke-width:2.0px;stroke-linecap:butt;stroke-linejoin:miter;stroke-opacity:1"/>
<path class="bond-16 atom-16 atom-17" d="M 517.2,640.4 L 511.4,629.7" style="fill:none;fill-rule:evenodd;stroke:#000000;stroke-width:2.0px;stroke-linecap:butt;stroke-linejoin:miter;stroke-opacity:1"/>
<path class="bond-16 atom-16 atom-17" d="M 518.4,637.6 L 514.4,630.2" style="fill:none;fill-rule:evenodd;stroke:#000000;stroke-width:2.0px;stroke-linecap:butt;stroke-linejoin:miter;stroke-opacity:1"/>
<path class="bond-17 atom-17 atom-18" d="M 511.4,629.7 L 513.2,625.4" style="fill:none;fill-rule:evenodd;stroke:#000000;stroke-width:2.0px;stroke-linecap:butt;stroke-linejoin:miter;stroke-opacity:1"/>
<path class="bond-17 atom-17 atom-18" d="M 513.2,625.4 L 515.0,621.1" style="fill:none;fill-rule:evenodd;stroke:#CCCC00;stroke-width:2.0px;stroke-linecap:butt;stroke-linejoin:miter;stroke-opacity:1"/>
<path class="bond-18 atom-18 atom-19" d="M 517.7,618.1 L 522.7,616.7" style="fill:none;fill-rule:evenodd;stroke:#CCCC00;stroke-width:2.0px;stroke-linecap:butt;stroke-linejoin:miter;stroke-opacity:1"/>
<path class="bond-18 atom-18 atom-19" d="M 522.7,616.7 L 527.7,615.3" style="fill:none;fill-rule:evenodd;stroke:#000000;stroke-width:2.0px;stroke-linecap:butt;stroke-linejoin:miter;stroke-opacity:1"/>
<path class="bond-19 atom-19 atom-20" d="M 527.7,615.3 L 529.8,603.3" style="fill:none;fill-rule:evenodd;stroke:#000000;stroke-width:2.0px;stroke-linecap:butt;stroke-linejoin:miter;stroke-opacity:1"/>
<path class="bond-21 atom-19 atom-22" d="M 527.7,615.3 L 537.6,622.3" style="fill:none;fill-rule:evenodd;stroke:#000000;stroke-width:2.0px;stroke-linecap:butt;stroke-linejoin:miter;stroke-opacity:1"/>
<path class="bond-21 atom-19 atom-22" d="M 527.8,618.3 L 534.7,623.2" style="fill:none;fill-rule:evenodd;stroke:#000000;stroke-width:2.0px;stroke-linecap:butt;stroke-linejoin:miter;stroke-opacity:1"/>
<path class="bond-20 atom-20 atom-21" d="M 529.8,603.3 L 541.2,599.2" style="fill:none;fill-rule:evenodd;stroke:#000000;stroke-width:2.0px;stroke-linecap:butt;stroke-linejoin:miter;stroke-opacity:1"/>
<path class="bond-23 atom-23 atom-24" d="M 658.3,614.8 L 669.4,619.5" style="fill:none;fill-rule:evenodd;stroke:#000000;stroke-width:2.0px;stroke-linecap:butt;stroke-linejoin:miter;stroke-opacity:1"/>
<path class="bond-24 atom-24 atom-25" d="M 669.4,619.5 L 664.7,630.7" style="fill:none;fill-rule:evenodd;stroke:#000000;stroke-width:2.0px;stroke-linecap:butt;stroke-linejoin:miter;stroke-opacity:1"/>
<path class="bond-24 atom-24 atom-25" d="M 666.5,620.2 L 663.2,628.1" style="fill:none;fill-rule:evenodd;stroke:#000000;stroke-width:2.0px;stroke-linecap:butt;stroke-linejoin:miter;stroke-opacity:1"/>
<path class="bond-25 atom-25 atom-26" d="M 664.7,630.7 L 666.5,635.1" style="fill:none;fill-rule:evenodd;stroke:#000000;stroke-width:2.0px;stroke-linecap:butt;stroke-linejoin:miter;stroke-opacity:1"/>
<path class="bond-25 atom-25 atom-26" d="M 666.5,635.1 L 668.3,639.5" style="fill:none;fill-rule:evenodd;stroke:#0000FF;stroke-width:2.0px;stroke-linecap:butt;stroke-linejoin:miter;stroke-opacity:1"/>
<path class="atom-0" d="M 652.4 627.4 Q 652.4 627.4, 652.6 627.5 Q 652.8 627.6, 653.0 627.7 Q 653.3 627.7, 653.5 627.7 Q 653.9 627.7, 654.1 627.5 Q 654.3 627.3, 654.3 627.0 Q 654.3 626.7, 654.2 626.6 Q 654.1 626.5, 653.9 626.4 Q 653.7 626.3, 653.4 626.2 Q 653.1 626.1, 652.8 626.0 Q 652.6 625.9, 652.5 625.7 Q 652.3 625.4, 652.3 625.0 Q 652.3 624.5, 652.7 624.2 Q 653.0 623.9, 653.7 623.9 Q 654.2 623.9, 654.8 624.1 L 654.7 624.5 Q 654.1 624.3, 653.8 624.3 Q 653.3 624.3, 653.1 624.5 Q 652.9 624.7, 652.9 625.0 Q 652.9 625.2, 653.0 625.3 Q 653.1 625.5, 653.3 625.6 Q 653.5 625.6, 653.8 625.7 Q 654.1 625.8, 654.4 626.0 Q 654.6 626.1, 654.8 626.3 Q 654.9 626.6, 654.9 627.0 Q 654.9 627.6, 654.5 627.9 Q 654.1 628.2, 653.5 628.2 Q 653.1 628.2, 652.8 628.1 Q 652.5 628.0, 652.2 627.9 L 652.4 627.4 " fill="#CCCC00"/>
<path class="atom-1" d="M 646.9 637.2 Q 646.9 636.1, 647.4 635.6 Q 647.9 635.0, 648.9 635.0 Q 649.8 635.0, 650.3 635.6 Q 650.8 636.1, 650.8 637.2 Q 650.8 638.2, 650.3 638.8 Q 649.8 639.4, 648.9 639.4 Q 647.9 639.4, 647.4 638.8 Q 646.9 638.2, 646.9 637.2 M 648.9 638.9 Q 649.5 638.9, 649.9 638.4 Q 650.2 638.0, 650.2 637.2 Q 650.2 636.3, 649.9 635.9 Q 649.5 635.5, 648.9 635.5 Q 648.2 635.5, 647.9 635.9 Q 647.5 636.3, 647.5 637.2 Q 647.5 638.0, 647.9 638.4 Q 648.2 638.9, 648.9 638.9 " fill="#FF0000"/>
<path class="atom-2" d="M 641.5 619.1 L 642.8 621.4 Q 643.0 621.6, 643.2 622.0 Q 643.4 622.4, 643.4 622.4 L 643.4 619.1 L 644.0 619.1 L 644.0 623.4 L 643.4 623.4 L 641.9 620.9 Q 641.8 620.6, 641.6 620.3 Q 641.4 620.0, 641.3 619.9 L 641.3 623.4 L 640.8 623.4 L 640.8 619.1 L 641.5 619.1 " fill="#0000FF"/>
<path class="atom-3" d="M 631.5 630.1 Q 631.6 630.1, 631.8 630.2 Q 632.0 630.2, 632.2 630.3 Q 632.4 630.3, 632.6 630.3 Q 633.0 630.3, 633.3 630.2 Q 633.5 630.0, 633.5 629.6 Q 633.5 629.4, 633.4 629.2 Q 633.3 629.1, 633.1 629.0 Q 632.9 628.9, 632.6 628.8 Q 632.2 628.7, 632.0 628.6 Q 631.8 628.5, 631.6 628.3 Q 631.5 628.1, 631.5 627.7 Q 631.5 627.1, 631.8 626.8 Q 632.2 626.5, 632.9 626.5 Q 633.4 626.5, 634.0 626.7 L 633.8 627.2 Q 633.3 627.0, 632.9 627.0 Q 632.5 627.0, 632.3 627.1 Q 632.1 627.3, 632.1 627.6 Q 632.1 627.8, 632.2 628.0 Q 632.3 628.1, 632.5 628.2 Q 632.6 628.3, 632.9 628.4 Q 633.3 628.5, 633.5 628.6 Q 633.8 628.7, 633.9 629.0 Q 634.1 629.2, 634.1 629.6 Q 634.1 630.2, 633.7 630.5 Q 633.3 630.8, 632.7 630.8 Q 632.3 630.8, 632.0 630.8 Q 631.7 630.7, 631.4 630.5 L 631.5 630.1 " fill="#CCCC00"/>
<path class="atom-5" d="M 611.0 629.1 L 612.3 631.4 Q 612.5 631.6, 612.7 632.0 Q 612.9 632.4, 612.9 632.4 L 612.9 629.1 L 613.5 629.1 L 613.5 633.4 L 612.9 633.4 L 611.4 630.9 Q 611.3 630.6, 611.1 630.3 Q 610.9 630.0, 610.8 629.8 L 610.8 633.4 L 610.3 633.4 L 610.3 629.1 L 611.0 629.1 " fill="#0000FF"/>
<path class="atom-6" d="M 599.8 624.4 L 601.2 626.7 Q 601.3 626.9, 601.5 627.3 Q 601.7 627.7, 601.8 627.7 L 601.8 624.4 L 602.3 624.4 L 602.3 628.7 L 601.7 628.7 L 600.2 626.2 Q 600.1 625.9, 599.9 625.6 Q 599.7 625.3, 599.7 625.2 L 599.7 628.7 L 599.1 628.7 L 599.1 624.4 L 599.8 624.4 " fill="#0000FF"/>
<path class="atom-9" d="M 576.4 617.2 Q 576.4 616.1, 576.9 615.6 Q 577.4 615.0, 578.4 615.0 Q 579.3 615.0, 579.8 615.6 Q 580.3 616.1, 580.3 617.2 Q 580.3 618.2, 579.8 618.8 Q 579.3 619.4, 578.4 619.4 Q 577.4 619.4, 576.9 618.8 Q 576.4 618.2, 576.4 617.2 M 578.4 618.9 Q 579.0 618.9, 579.4 618.4 Q 579.7 618.0, 579.7 617.2 Q 579.7 616.3, 579.4 615.9 Q 579.0 615.5, 578.4 615.5 Q 577.7 615.5, 577.4 615.9 Q 577.0 616.3, 577.0 617.2 Q 577.0 618.0, 577.4 618.4 Q 577.7 618.9, 578.4 618.9 " fill="#FF0000"/>
<path class="atom-10" d="M 569.3 634.4 L 570.7 636.6 Q 570.8 636.9, 571.0 637.3 Q 571.3 637.7, 571.3 637.7 L 571.3 634.4 L 571.8 634.4 L 571.8 638.6 L 571.2 638.6 L 569.8 636.2 Q 569.6 635.9, 569.4 635.5 Q 569.2 635.2, 569.2 635.1 L 569.2 638.6 L 568.6 638.6 L 568.6 634.4 L 569.3 634.4 " fill="#0000FF"/>
<path class="atom-10" d="M 568.6 639.1 L 569.1 639.1 L 569.1 640.9 L 571.3 640.9 L 571.3 639.1 L 571.9 639.1 L 571.9 643.3 L 571.3 643.3 L 571.3 641.3 L 569.1 641.3 L 569.1 643.3 L 568.6 643.3 L 568.6 639.1 " fill="#0000FF"/>
<path class="atom-13" d="M 537.3 632.3 L 538.7 634.6 Q 538.8 634.8, 539.0 635.2 Q 539.2 635.6, 539.2 635.6 L 539.2 632.3 L 539.8 632.3 L 539.8 636.6 L 539.2 636.6 L 537.7 634.1 Q 537.6 633.8, 537.4 633.5 Q 537.2 633.2, 537.1 633.1 L 537.1 636.6 L 536.6 636.6 L 536.6 632.3 L 537.3 632.3 " fill="#0000FF"/>
<path class="atom-15" d="M 530.5 654.2 Q 530.5 653.1, 531.0 652.6 Q 531.5 652.0, 532.4 652.0 Q 533.4 652.0, 533.9 652.6 Q 534.4 653.1, 534.4 654.2 Q 534.4 655.2, 533.9 655.8 Q 533.3 656.4, 532.4 656.4 Q 531.5 656.4, 531.0 655.8 Q 530.5 655.2, 530.5 654.2 M 532.4 655.9 Q 533.1 655.9, 533.4 655.4 Q 533.8 655.0, 533.8 654.2 Q 533.8 653.3, 533.4 652.9 Q 533.1 652.5, 532.4 652.5 Q 531.8 652.5, 531.4 652.9 Q 531.1 653.3, 531.1 654.2 Q 531.1 655.0, 531.4 655.4 Q 531.8 655.9, 532.4 655.9 " fill="#FF0000"/>
<path class="atom-18" d="M 514.9 620.0 Q 514.9 620.0, 515.1 620.1 Q 515.3 620.2, 515.5 620.3 Q 515.7 620.3, 516.0 620.3 Q 516.4 620.3, 516.6 620.1 Q 516.8 619.9, 516.8 619.6 Q 516.8 619.3, 516.7 619.2 Q 516.6 619.0, 516.4 619.0 Q 516.2 618.9, 515.9 618.8 Q 515.6 618.7, 515.3 618.6 Q 515.1 618.5, 514.9 618.2 Q 514.8 618.0, 514.8 617.6 Q 514.8 617.1, 515.2 616.8 Q 515.5 616.4, 516.2 616.4 Q 516.7 616.4, 517.3 616.7 L 517.1 617.1 Q 516.6 616.9, 516.3 616.9 Q 515.8 616.9, 515.6 617.1 Q 515.4 617.3, 515.4 617.6 Q 515.4 617.8, 515.5 617.9 Q 515.6 618.1, 515.8 618.1 Q 516.0 618.2, 516.3 618.3 Q 516.6 618.4, 516.9 618.5 Q 517.1 618.7, 517.3 618.9 Q 517.4 619.2, 517.4 619.6 Q 517.4 620.2, 517.0 620.5 Q 516.6 620.8, 516.0 620.8 Q 515.6 620.8, 515.3 620.7 Q 515.0 620.6, 514.7 620.5 L 514.9 620.0 " fill="#CCCC00"/>
<path class="atom-26" d="M 668.4 639.8 L 669.8 642.0 Q 669.9 642.2, 670.1 642.6 Q 670.4 643.0, 670.4 643.1 L 670.4 639.8 L 670.9 639.8 L 670.9 644.0 L 670.4 644.0 L 668.9 641.6 Q 668.7 641.3, 668.5 640.9 Q 668.3 640.6, 668.3 640.5 L 668.3 644.0 L 667.7 644.0 L 667.7 639.8 L 668.4 639.8 " fill="#0000FF"/>
<path class="atom-26" d="M 671.5 639.8 L 672.0 639.8 L 672.0 641.6 L 674.2 641.6 L 674.2 639.8 L 674.8 639.8 L 674.8 644.0 L 674.2 644.0 L 674.2 642.1 L 672.0 642.1 L 672.0 644.0 L 671.5 644.0 L 671.5 639.8 " fill="#0000FF"/>
<path class="atom-26" d="M 675.0 643.9 Q 675.1 643.6, 675.3 643.5 Q 675.6 643.3, 675.9 643.3 Q 676.3 643.3, 676.6 643.5 Q 676.8 643.8, 676.8 644.2 Q 676.8 644.6, 676.5 645.0 Q 676.2 645.4, 675.6 645.8 L 676.9 645.8 L 676.9 646.1 L 675.0 646.1 L 675.0 645.9 Q 675.5 645.5, 675.8 645.2 Q 676.1 645.0, 676.3 644.7 Q 676.4 644.5, 676.4 644.2 Q 676.4 643.9, 676.3 643.8 Q 676.1 643.6, 675.9 643.6 Q 675.7 643.6, 675.5 643.7 Q 675.4 643.8, 675.3 644.0 L 675.0 643.9 " fill="#0000FF"/>
<path class="atom-26" d="M 675.1 640.5 L 675.9 640.5 L 675.9 639.7 L 676.2 639.7 L 676.2 640.5 L 677.0 640.5 L 677.0 640.8 L 676.2 640.8 L 676.2 641.6 L 675.9 641.6 L 675.9 640.8 L 675.1 640.8 L 675.1 640.5 " fill="#0000FF"/>
<path d="M 678.2,641.9 L 678.2,641.9 L 678.2,641.8 L 678.2,641.8 L 678.2,641.8 L 678.2,641.8 L 678.1,641.7 L 678.1,641.7 L 678.1,641.7 L 678.1,641.7 L 678.1,641.7 L 678.1,641.7 L 678.0,641.6 L 678.0,641.6 L 678.0,641.6 L 678.0,641.6 L 677.9,641.6 L 677.9,641.6 L 677.9,641.6 L 677.9,641.6 L 677.8,641.6 L 677.8,641.6 L 677.8,641.6 L 677.8,641.6 L 677.7,641.6 L 677.7,641.6 L 677.7,641.7 L 677.7,641.7 L 677.7,641.7 L 677.6,641.7 L 677.6,641.7 L 677.6,641.8 L 677.6,641.8 L 677.6,641.8 L 677.6,641.8 L 677.6,641.9 L 677.6,641.9 L 677.6,641.9 L 677.6,641.9 L 677.6,642.0 L 677.6,642.0 L 677.6,642.0 L 677.6,642.0 L 677.6,642.1 L 677.6,642.1 L 677.7,642.1 L 677.7,642.1 L 677.7,642.1 L 677.7,642.1 L 677.7,642.2 L 677.8,642.2 L 677.8,642.2 L 677.8,642.2 L 677.8,642.2 L 677.9,642.2 L 677.9,642.2 L 677.9,642.2 L 677.9,642.2 L 678.0,642.2 L 678.0,642.2 L 678.0,642.2 L 678.0,642.2 L 678.1,642.1 L 678.1,642.1 L 678.1,642.1 L 678.1,642.1 L 678.1,642.1 L 678.1,642.0 L 678.2,642.0 L 678.2,642.0 L 678.2,642.0 L 678.2,641.9 L 678.2,641.9 L 678.2,641.9 L 677.9,641.9 Z" style="fill:#000000;fill-rule:evenodd;fill-opacity:1;stroke:#000000;stroke-width:0.0px;stroke-linecap:butt;stroke-linejoin:miter;stroke-opacity:1;"/>
</svg>