<svg xmlns="http://www.w3.org/2000/svg" xmlns:rdkit="http://www.rdkit.org/xml" xmlns:xlink="http://www.w3.org/1999/xlink" version="1.1" baseProfile="full" xml:space="preserve" width="750px" height="750px" viewBox="0 0 750 750">
<!-- END OF HEADER -->
<rect style="opacity:1.0;fill:#FFFFFF;stroke:none" width="750.0" height="750.0" x="0.0" y="0.0"> </rect>
<rect style="opacity:1.0;fill:#FFFFFF;stroke:none" width="750.0" height="750.0" x="0.0" y="0.0"> </rect>
<rect style="opacity:1.0;fill:#FFFFFF;stroke:none" width="750.0" height="750.0" x="0.0" y="0.0"> </rect>
<rect style="opacity:1.0;fill:#FFFFFF;stroke:none" width="750.0" height="750.0" x="0.0" y="0.0"> </rect>
<rect style="opacity:1.0;fill:#FFFFFF;stroke:none" width="750.0" height="750.0" x="0.0" y="0.0"> </rect>
<rect style="opacity:1.0;fill:#FFFFFF;stroke:none" width="750.0" height="750.0" x="0.0" y="0.0"> </rect>
<rect style="opacity:1.0;fill:#FFFFFF;stroke:none" width="750.0" height="750.0" x="0.0" y="0.0"> </rect>
<rect style="opacity:1.0;fill:#FFFFFF;stroke:none" width="750.0" height="750.0" x="0.0" y="0.0"> </rect>
<rect style="opacity:1.0;fill:#FFFFFF;stroke:none" width="750.0" height="750.0" x="0.0" y="0.0"> </rect>
<rect style="opacity:1.0;fill:#FFFFFF;stroke:none" width="750.0" height="750.0" x="0.0" y="0.0"> </rect>
<path class="bond-0 atom-0 atom-1" d="M 95.9,151.6 L 103.7,147.1" style="fill:none;fill-rule:evenodd;stroke:#0000FF;stroke-width:2.0px;stroke-linecap:butt;stroke-linejoin:miter;stroke-opacity:1"/>
<path class="bond-1 atom-1 atom-2" d="M 108.1,147.1 L 113.4,150.2" style="fill:none;fill-rule:evenodd;stroke:#0000FF;stroke-width:2.0px;stroke-linecap:butt;stroke-linejoin:miter;stroke-opacity:1"/>
<path class="bond-1 atom-1 atom-2" d="M 113.4,150.2 L 118.7,153.3" style="fill:none;fill-rule:evenodd;stroke:#33CCCC;stroke-width:2.0px;stroke-linecap:butt;stroke-linejoin:miter;stroke-opacity:1"/>
<path class="atom-0" d="M 90.2 151.9 L 91.7 154.4 Q 91.9 154.7, 92.1 155.1 Q 92.4 155.6, 92.4 155.6 L 92.4 151.9 L 93.0 151.9 L 93.0 156.7 L 92.4 156.7 L 90.7 153.9 Q 90.5 153.6, 90.3 153.2 Q 90.1 152.8, 90.0 152.7 L 90.0 156.7 L 89.4 156.7 L 89.4 151.9 L 90.2 151.9 " fill="#0000FF"/>
<path class="atom-0" d="M 93.4 152.8 L 94.3 152.8 L 94.3 151.9 L 94.7 151.9 L 94.7 152.8 L 95.5 152.8 L 95.5 153.1 L 94.7 153.1 L 94.7 154.0 L 94.3 154.0 L 94.3 153.1 L 93.4 153.1 L 93.4 152.8 " fill="#0000FF"/>
<path class="atom-1" d="M 104.8 143.5 L 106.4 146.0 Q 106.5 146.2, 106.8 146.7 Q 107.0 147.1, 107.0 147.2 L 107.0 143.5 L 107.7 143.5 L 107.7 148.2 L 107.0 148.2 L 105.3 145.5 Q 105.1 145.2, 104.9 144.8 Q 104.7 144.4, 104.7 144.3 L 104.7 148.2 L 104.0 148.2 L 104.0 143.5 L 104.8 143.5 " fill="#0000FF"/>
<path class="atom-1" d="M 108.1 144.3 L 108.9 144.3 L 108.9 143.4 L 109.3 143.4 L 109.3 144.3 L 110.1 144.3 L 110.1 144.6 L 109.3 144.6 L 109.3 145.5 L 108.9 145.5 L 108.9 144.6 L 108.1 144.6 L 108.1 144.3 " fill="#0000FF"/>
<path class="atom-2" d="M 119.0 151.9 L 121.9 151.9 L 121.9 152.4 L 119.7 152.4 L 119.7 153.9 L 121.6 153.9 L 121.6 154.5 L 119.7 154.5 L 119.7 156.7 L 119.0 156.7 L 119.0 151.9 " fill="#33CCCC"/>
<path d="M 88.7,154.3 L 88.7,154.3 L 88.7,154.2 L 88.7,154.2 L 88.7,154.2 L 88.7,154.2 L 88.7,154.1 L 88.7,154.1 L 88.7,154.1 L 88.6,154.1 L 88.6,154.0 L 88.6,154.0 L 88.6,154.0 L 88.5,154.0 L 88.5,154.0 L 88.5,154.0 L 88.5,154.0 L 88.4,154.0 L 88.4,154.0 L 88.4,154.0 L 88.4,154.0 L 88.3,154.0 L 88.3,154.0 L 88.3,154.0 L 88.2,154.0 L 88.2,154.0 L 88.2,154.0 L 88.2,154.0 L 88.2,154.1 L 88.1,154.1 L 88.1,154.1 L 88.1,154.1 L 88.1,154.2 L 88.1,154.2 L 88.1,154.2 L 88.1,154.2 L 88.1,154.3 L 88.1,154.3 L 88.1,154.3 L 88.1,154.4 L 88.1,154.4 L 88.1,154.4 L 88.1,154.4 L 88.1,154.5 L 88.1,154.5 L 88.2,154.5 L 88.2,154.5 L 88.2,154.6 L 88.2,154.6 L 88.2,154.6 L 88.3,154.6 L 88.3,154.6 L 88.3,154.6 L 88.4,154.6 L 88.4,154.6 L 88.4,154.6 L 88.4,154.6 L 88.5,154.6 L 88.5,154.6 L 88.5,154.6 L 88.5,154.6 L 88.6,154.6 L 88.6,154.6 L 88.6,154.5 L 88.6,154.5 L 88.7,154.5 L 88.7,154.5 L 88.7,154.5 L 88.7,154.4 L 88.7,154.4 L 88.7,154.4 L 88.7,154.4 L 88.7,154.3 L 88.7,154.3 L 88.4,154.3 Z" style="fill:#000000;fill-rule:evenodd;fill-opacity:1;stroke:#000000;stroke-width:0.0px;stroke-linecap:butt;stroke-linejoin:miter;stroke-opacity:1;"/>
<path d="M 88.7,155.6 L 88.7,155.6 L 88.7,155.6 L 88.7,155.6 L 88.7,155.5 L 88.7,155.5 L 88.7,155.5 L 88.7,155.5 L 88.7,155.4 L 88.6,155.4 L 88.6,155.4 L 88.6,155.4 L 88.6,155.4 L 88.5,155.3 L 88.5,155.3 L 88.5,155.3 L 88.5,155.3 L 88.4,155.3 L 88.4,155.3 L 88.4,155.3 L 88.4,155.3 L 88.3,155.3 L 88.3,155.3 L 88.3,155.3 L 88.2,155.3 L 88.2,155.4 L 88.2,155.4 L 88.2,155.4 L 88.2,155.4 L 88.1,155.4 L 88.1,155.5 L 88.1,155.5 L 88.1,155.5 L 88.1,155.5 L 88.1,155.6 L 88.1,155.6 L 88.1,155.6 L 88.1,155.7 L 88.1,155.7 L 88.1,155.7 L 88.1,155.7 L 88.1,155.8 L 88.1,155.8 L 88.1,155.8 L 88.1,155.8 L 88.2,155.9 L 88.2,155.9 L 88.2,155.9 L 88.2,155.9 L 88.2,155.9 L 88.3,156.0 L 88.3,156.0 L 88.3,156.0 L 88.4,156.0 L 88.4,156.0 L 88.4,156.0 L 88.4,156.0 L 88.5,156.0 L 88.5,156.0 L 88.5,156.0 L 88.5,155.9 L 88.6,155.9 L 88.6,155.9 L 88.6,155.9 L 88.6,155.9 L 88.7,155.9 L 88.7,155.8 L 88.7,155.8 L 88.7,155.8 L 88.7,155.8 L 88.7,155.7 L 88.7,155.7 L 88.7,155.7 L 88.7,155.6 L 88.4,155.6 Z" style="fill:#000000;fill-rule:evenodd;fill-opacity:1;stroke:#000000;stroke-width:0.0px;stroke-linecap:butt;stroke-linejoin:miter;stroke-opacity:1;"/>
<path d="M 88.7,152.9 L 88.7,152.9 L 88.7,152.9 L 88.7,152.9 L 88.7,152.8 L 88.7,152.8 L 88.7,152.8 L 88.7,152.8 L 88.7,152.7 L 88.6,152.7 L 88.6,152.7 L 88.6,152.7 L 88.6,152.7 L 88.5,152.6 L 88.5,152.6 L 88.5,152.6 L 88.5,152.6 L 88.4,152.6 L 88.4,152.6 L 88.4,152.6 L 88.4,152.6 L 88.3,152.6 L 88.3,152.6 L 88.3,152.6 L 88.2,152.6 L 88.2,152.7 L 88.2,152.7 L 88.2,152.7 L 88.2,152.7 L 88.1,152.7 L 88.1,152.8 L 88.1,152.8 L 88.1,152.8 L 88.1,152.8 L 88.1,152.9 L 88.1,152.9 L 88.1,152.9 L 88.1,153.0 L 88.1,153.0 L 88.1,153.0 L 88.1,153.0 L 88.1,153.1 L 88.1,153.1 L 88.1,153.1 L 88.1,153.1 L 88.2,153.2 L 88.2,153.2 L 88.2,153.2 L 88.2,153.2 L 88.2,153.2 L 88.3,153.3 L 88.3,153.3 L 88.3,153.3 L 88.4,153.3 L 88.4,153.3 L 88.4,153.3 L 88.4,153.3 L 88.5,153.3 L 88.5,153.3 L 88.5,153.3 L 88.5,153.2 L 88.6,153.2 L 88.6,153.2 L 88.6,153.2 L 88.6,153.2 L 88.7,153.2 L 88.7,153.1 L 88.7,153.1 L 88.7,153.1 L 88.7,153.1 L 88.7,153.0 L 88.7,153.0 L 88.7,153.0 L 88.7,152.9 L 88.4,152.9 Z" style="fill:#000000;fill-rule:evenodd;fill-opacity:1;stroke:#000000;stroke-width:0.0px;stroke-linecap:butt;stroke-linejoin:miter;stroke-opacity:1;"/>
<path d="M 88.7,154.3 L 88.7,154.3 L 88.7,154.2 L 88.7,154.2 L 88.7,154.2 L 88.7,154.2 L 88.7,154.1 L 88.7,154.1 L 88.7,154.1 L 88.6,154.1 L 88.6,154.0 L 88.6,154.0 L 88.6,154.0 L 88.5,154.0 L 88.5,154.0 L 88.5,154.0 L 88.5,154.0 L 88.4,154.0 L 88.4,154.0 L 88.4,154.0 L 88.4,154.0 L 88.3,154.0 L 88.3,154.0 L 88.3,154.0 L 88.2,154.0 L 88.2,154.0 L 88.2,154.0 L 88.2,154.0 L 88.2,154.1 L 88.1,154.1 L 88.1,154.1 L 88.1,154.1 L 88.1,154.2 L 88.1,154.2 L 88.1,154.2 L 88.1,154.2 L 88.1,154.3 L 88.1,154.3 L 88.1,154.3 L 88.1,154.4 L 88.1,154.4 L 88.1,154.4 L 88.1,154.4 L 88.1,154.5 L 88.1,154.5 L 88.2,154.5 L 88.2,154.5 L 88.2,154.6 L 88.2,154.6 L 88.2,154.6 L 88.3,154.6 L 88.3,154.6 L 88.3,154.6 L 88.4,154.6 L 88.4,154.6 L 88.4,154.6 L 88.4,154.6 L 88.5,154.6 L 88.5,154.6 L 88.5,154.6 L 88.5,154.6 L 88.6,154.6 L 88.6,154.6 L 88.6,154.5 L 88.6,154.5 L 88.7,154.5 L 88.7,154.5 L 88.7,154.5 L 88.7,154.4 L 88.7,154.4 L 88.7,154.4 L 88.7,154.4 L 88.7,154.3 L 88.7,154.3 L 88.4,154.3 Z" style="fill:#000000;fill-rule:evenodd;fill-opacity:1;stroke:#000000;stroke-width:0.0px;stroke-linecap:butt;stroke-linejoin:miter;stroke-opacity:1;"/>
<path d="M 106.9,142.9 L 106.9,142.9 L 106.9,142.9 L 106.8,142.8 L 106.8,142.8 L 106.8,142.8 L 106.8,142.8 L 106.8,142.7 L 106.8,142.7 L 106.8,142.7 L 106.7,142.7 L 106.7,142.7 L 106.7,142.6 L 106.7,142.6 L 106.6,142.6 L 106.6,142.6 L 106.6,142.6 L 106.6,142.6 L 106.5,142.6 L 106.5,142.6 L 106.5,142.6 L 106.4,142.6 L 106.4,142.6 L 106.4,142.6 L 106.4,142.6 L 106.3,142.6 L 106.3,142.7 L 106.3,142.7 L 106.3,142.7 L 106.3,142.7 L 106.2,142.8 L 106.2,142.8 L 106.2,142.8 L 106.2,142.8 L 106.2,142.9 L 106.2,142.9 L 106.2,142.9 L 106.2,142.9 L 106.2,143.0 L 106.2,143.0 L 106.2,143.0 L 106.2,143.1 L 106.2,143.1 L 106.2,143.1 L 106.3,143.1 L 106.3,143.2 L 106.3,143.2 L 106.3,143.2 L 106.3,143.2 L 106.4,143.2 L 106.4,143.2 L 106.4,143.3 L 106.4,143.3 L 106.5,143.3 L 106.5,143.3 L 106.5,143.3 L 106.6,143.3 L 106.6,143.3 L 106.6,143.3 L 106.6,143.2 L 106.7,143.2 L 106.7,143.2 L 106.7,143.2 L 106.7,143.2 L 106.8,143.2 L 106.8,143.1 L 106.8,143.1 L 106.8,143.1 L 106.8,143.1 L 106.8,143.0 L 106.8,143.0 L 106.9,143.0 L 106.9,143.0 L 106.9,142.9 L 106.5,142.9 Z" style="fill:#000000;fill-rule:evenodd;fill-opacity:1;stroke:#000000;stroke-width:0.0px;stroke-linecap:butt;stroke-linejoin:miter;stroke-opacity:1;"/>
<path d="M 105.5,142.9 L 105.5,142.9 L 105.5,142.9 L 105.5,142.8 L 105.5,142.8 L 105.5,142.8 L 105.5,142.8 L 105.4,142.7 L 105.4,142.7 L 105.4,142.7 L 105.4,142.7 L 105.4,142.7 L 105.3,142.6 L 105.3,142.6 L 105.3,142.6 L 105.3,142.6 L 105.2,142.6 L 105.2,142.6 L 105.2,142.6 L 105.1,142.6 L 105.1,142.6 L 105.1,142.6 L 105.1,142.6 L 105.0,142.6 L 105.0,142.6 L 105.0,142.6 L 105.0,142.7 L 104.9,142.7 L 104.9,142.7 L 104.9,142.7 L 104.9,142.8 L 104.9,142.8 L 104.9,142.8 L 104.8,142.8 L 104.8,142.9 L 104.8,142.9 L 104.8,142.9 L 104.8,142.9 L 104.8,143.0 L 104.8,143.0 L 104.8,143.0 L 104.9,143.1 L 104.9,143.1 L 104.9,143.1 L 104.9,143.1 L 104.9,143.2 L 104.9,143.2 L 105.0,143.2 L 105.0,143.2 L 105.0,143.2 L 105.0,143.2 L 105.1,143.3 L 105.1,143.3 L 105.1,143.3 L 105.1,143.3 L 105.2,143.3 L 105.2,143.3 L 105.2,143.3 L 105.3,143.3 L 105.3,143.2 L 105.3,143.2 L 105.3,143.2 L 105.4,143.2 L 105.4,143.2 L 105.4,143.2 L 105.4,143.1 L 105.4,143.1 L 105.5,143.1 L 105.5,143.1 L 105.5,143.0 L 105.5,143.0 L 105.5,143.0 L 105.5,143.0 L 105.5,142.9 L 105.2,142.9 Z" style="fill:#000000;fill-rule:evenodd;fill-opacity:1;stroke:#000000;stroke-width:0.0px;stroke-linecap:butt;stroke-linejoin:miter;stroke-opacity:1;"/>
<path class="bond-0 atom-0 atom-1" d="M 394.5,155.5 L 404.9,149.9" style="fill:none;fill-rule:evenodd;stroke:#0000FF;stroke-width:2.0px;stroke-linecap:butt;stroke-linejoin:miter;stroke-opacity:1"/>
<path class="bond-1 atom-0 atom-2" d="M 390.0,155.3 L 384.0,151.6" style="fill:none;fill-rule:evenodd;stroke:#0000FF;stroke-width:2.0px;stroke-linecap:butt;stroke-linejoin:miter;stroke-opacity:1"/>
<path class="bond-1 atom-0 atom-2" d="M 384.0,151.6 L 377.9,147.9" style="fill:none;fill-rule:evenodd;stroke:#000000;stroke-width:2.0px;stroke-linecap:butt;stroke-linejoin:miter;stroke-opacity:1"/>
<path class="bond-2 atom-2 atom-3" d="M 377.9,147.9 L 372.3,150.9" style="fill:none;fill-rule:evenodd;stroke:#000000;stroke-width:2.0px;stroke-linecap:butt;stroke-linejoin:miter;stroke-opacity:1"/>
<path class="bond-2 atom-2 atom-3" d="M 372.3,150.9 L 366.8,153.9" style="fill:none;fill-rule:evenodd;stroke:#0000FF;stroke-width:2.0px;stroke-linecap:butt;stroke-linejoin:miter;stroke-opacity:1"/>
<path class="bond-3 atom-3 atom-4" d="M 360.8,154.5 L 350.8,148.4" style="fill:none;fill-rule:evenodd;stroke:#0000FF;stroke-width:2.0px;stroke-linecap:butt;stroke-linejoin:miter;stroke-opacity:1"/>
<path class="bond-4 atom-4 atom-5" d="M 346.4,148.3 L 341.4,151.0" style="fill:none;fill-rule:evenodd;stroke:#0000FF;stroke-width:2.0px;stroke-linecap:butt;stroke-linejoin:miter;stroke-opacity:1"/>
<path class="bond-4 atom-4 atom-5" d="M 341.4,151.0 L 336.4,153.7" style="fill:none;fill-rule:evenodd;stroke:#FF0000;stroke-width:2.0px;stroke-linecap:butt;stroke-linejoin:miter;stroke-opacity:1"/>
<path class="bond-5 atom-5 atom-6" d="M 331.2,153.5 L 326.2,150.4" style="fill:none;fill-rule:evenodd;stroke:#FF0000;stroke-width:2.0px;stroke-linecap:butt;stroke-linejoin:miter;stroke-opacity:1"/>
<path class="bond-5 atom-5 atom-6" d="M 326.2,150.4 L 321.3,147.4" style="fill:none;fill-rule:evenodd;stroke:#FF7F00;stroke-width:2.0px;stroke-linecap:butt;stroke-linejoin:miter;stroke-opacity:1"/>
<path class="bond-6 atom-6 atom-7" d="M 317.5,147.3 L 312.9,149.8" style="fill:none;fill-rule:evenodd;stroke:#FF7F00;stroke-width:2.0px;stroke-linecap:butt;stroke-linejoin:miter;stroke-opacity:1"/>
<path class="bond-6 atom-6 atom-7" d="M 312.9,149.8 L 308.3,152.3" style="fill:none;fill-rule:evenodd;stroke:#000000;stroke-width:2.0px;stroke-linecap:butt;stroke-linejoin:miter;stroke-opacity:1"/>
<path class="atom-0" d="M 391.2 154.3 L 392.8 156.9 Q 392.9 157.1, 393.2 157.6 Q 393.4 158.0, 393.4 158.0 L 393.4 154.3 L 394.1 154.3 L 394.1 159.1 L 393.4 159.1 L 391.7 156.3 Q 391.5 156.0, 391.3 155.6 Q 391.1 155.3, 391.1 155.2 L 391.1 159.1 L 390.4 159.1 L 390.4 154.3 L 391.2 154.3 " fill="#0000FF"/>
<path class="atom-0" d="M 390.4 159.6 L 391.0 159.6 L 391.0 161.6 L 393.5 161.6 L 393.5 159.6 L 394.1 159.6 L 394.1 164.4 L 393.5 164.4 L 393.5 162.2 L 391.0 162.2 L 391.0 164.4 L 390.4 164.4 L 390.4 159.6 " fill="#0000FF"/>
<path class="atom-1" d="M 406.1 146.3 L 407.6 148.8 Q 407.8 149.1, 408.0 149.5 Q 408.3 150.0, 408.3 150.0 L 408.3 146.3 L 408.9 146.3 L 408.9 151.1 L 408.3 151.1 L 406.6 148.3 Q 406.4 148.0, 406.2 147.6 Q 406.0 147.2, 405.9 147.1 L 405.9 151.1 L 405.3 151.1 L 405.3 146.3 L 406.1 146.3 " fill="#0000FF"/>
<path class="atom-1" d="M 409.5 146.3 L 410.1 146.3 L 410.1 148.3 L 412.6 148.3 L 412.6 146.3 L 413.2 146.3 L 413.2 151.1 L 412.6 151.1 L 412.6 148.9 L 410.1 148.9 L 410.1 151.1 L 409.5 151.1 L 409.5 146.3 " fill="#0000FF"/>
<path class="atom-3" d="M 362.0 153.5 L 363.5 156.0 Q 363.7 156.3, 363.9 156.7 Q 364.2 157.2, 364.2 157.2 L 364.2 153.5 L 364.8 153.5 L 364.8 158.3 L 364.2 158.3 L 362.5 155.5 Q 362.3 155.2, 362.1 154.8 Q 361.9 154.5, 361.8 154.3 L 361.8 158.3 L 361.2 158.3 L 361.2 153.5 L 362.0 153.5 " fill="#0000FF"/>
<path class="atom-3" d="M 365.1 154.3 L 366.7 154.3 L 366.7 154.7 L 365.1 154.7 L 365.1 154.3 " fill="#0000FF"/>
<path class="atom-4" d="M 347.6 144.7 L 349.2 147.2 Q 349.3 147.4, 349.6 147.9 Q 349.8 148.4, 349.8 148.4 L 349.8 144.7 L 350.5 144.7 L 350.5 149.4 L 349.8 149.4 L 348.1 146.7 Q 347.9 146.4, 347.7 146.0 Q 347.5 145.6, 347.5 145.5 L 347.5 149.4 L 346.8 149.4 L 346.8 144.7 L 347.6 144.7 " fill="#0000FF"/>
<path class="atom-4" d="M 346.8 139.4 L 347.4 139.4 L 347.4 141.4 L 349.9 141.4 L 349.9 139.4 L 350.5 139.4 L 350.5 144.2 L 349.9 144.2 L 349.9 142.0 L 347.4 142.0 L 347.4 144.2 L 346.8 144.2 L 346.8 139.4 " fill="#0000FF"/>
<path class="atom-4" d="M 350.9 140.3 L 351.8 140.3 L 351.8 139.4 L 352.1 139.4 L 352.1 140.3 L 353.0 140.3 L 353.0 140.6 L 352.1 140.6 L 352.1 141.5 L 351.8 141.5 L 351.8 140.6 L 350.9 140.6 L 350.9 140.3 " fill="#0000FF"/>
<path class="atom-5" d="M 331.6 155.1 Q 331.6 154.0, 332.2 153.3 Q 332.7 152.7, 333.8 152.7 Q 334.9 152.7, 335.4 153.3 Q 336.0 154.0, 336.0 155.1 Q 336.0 156.3, 335.4 156.9 Q 334.9 157.6, 333.8 157.6 Q 332.8 157.6, 332.2 156.9 Q 331.6 156.3, 331.6 155.1 M 333.8 157.0 Q 334.5 157.0, 334.9 156.6 Q 335.3 156.1, 335.3 155.1 Q 335.3 154.2, 334.9 153.7 Q 334.5 153.2, 333.8 153.2 Q 333.1 153.2, 332.7 153.7 Q 332.3 154.2, 332.3 155.1 Q 332.3 156.1, 332.7 156.6 Q 333.1 157.0, 333.8 157.0 " fill="#FF0000"/>
<path class="atom-6" d="M 319.3 143.9 Q 320.1 143.9, 320.5 144.2 Q 321.0 144.6, 321.0 145.3 Q 321.0 145.9, 320.5 146.3 Q 320.1 146.7, 319.3 146.7 L 318.6 146.7 L 318.6 148.6 L 317.9 148.6 L 317.9 143.9 L 319.3 143.9 M 319.3 146.1 Q 319.8 146.1, 320.0 145.9 Q 320.3 145.7, 320.3 145.3 Q 320.3 144.8, 320.0 144.6 Q 319.8 144.4, 319.3 144.4 L 318.6 144.4 L 318.6 146.1 L 319.3 146.1 " fill="#FF7F00"/>
<path class="atom-7" d="M 302.7 154.3 Q 302.7 153.1, 303.3 152.5 Q 303.9 151.9, 304.9 151.9 Q 305.9 151.9, 306.4 152.5 L 306.0 152.9 Q 305.6 152.4, 304.9 152.4 Q 304.2 152.4, 303.8 152.9 Q 303.4 153.4, 303.4 154.3 Q 303.4 155.2, 303.8 155.7 Q 304.2 156.2, 305.0 156.2 Q 305.5 156.2, 306.1 155.9 L 306.3 156.4 Q 306.1 156.6, 305.7 156.7 Q 305.3 156.7, 304.9 156.7 Q 303.9 156.7, 303.3 156.1 Q 302.7 155.5, 302.7 154.3 " fill="#000000"/>
<path class="atom-7" d="M 306.6 152.6 L 308.3 152.6 L 308.3 153.0 L 306.6 153.0 L 306.6 152.6 " fill="#000000"/>
<path d="M 414.6,148.7 L 414.6,148.7 L 414.6,148.6 L 414.6,148.6 L 414.6,148.6 L 414.6,148.5 L 414.5,148.5 L 414.5,148.5 L 414.5,148.5 L 414.5,148.5 L 414.5,148.4 L 414.4,148.4 L 414.4,148.4 L 414.4,148.4 L 414.4,148.4 L 414.3,148.4 L 414.3,148.4 L 414.3,148.4 L 414.3,148.4 L 414.2,148.4 L 414.2,148.4 L 414.2,148.4 L 414.1,148.4 L 414.1,148.4 L 414.1,148.4 L 414.1,148.4 L 414.0,148.4 L 414.0,148.4 L 414.0,148.5 L 414.0,148.5 L 414.0,148.5 L 413.9,148.5 L 413.9,148.6 L 413.9,148.6 L 413.9,148.6 L 413.9,148.6 L 413.9,148.7 L 413.9,148.7 L 413.9,148.7 L 413.9,148.8 L 413.9,148.8 L 413.9,148.8 L 413.9,148.8 L 414.0,148.9 L 414.0,148.9 L 414.0,148.9 L 414.0,148.9 L 414.0,149.0 L 414.1,149.0 L 414.1,149.0 L 414.1,149.0 L 414.1,149.0 L 414.2,149.0 L 414.2,149.0 L 414.2,149.0 L 414.3,149.0 L 414.3,149.0 L 414.3,149.0 L 414.3,149.0 L 414.4,149.0 L 414.4,149.0 L 414.4,149.0 L 414.4,149.0 L 414.5,148.9 L 414.5,148.9 L 414.5,148.9 L 414.5,148.9 L 414.5,148.9 L 414.6,148.8 L 414.6,148.8 L 414.6,148.8 L 414.6,148.7 L 414.6,148.7 L 414.6,148.7 L 414.2,148.7 Z" style="fill:#000000;fill-rule:evenodd;fill-opacity:1;stroke:#000000;stroke-width:0.0px;stroke-linecap:butt;stroke-linejoin:miter;stroke-opacity:1;"/>
<path d="M 378.2,146.4 L 378.2,146.3 L 378.2,146.3 L 378.2,146.3 L 378.2,146.2 L 378.2,146.2 L 378.2,146.2 L 378.2,146.2 L 378.1,146.1 L 378.1,146.1 L 378.1,146.1 L 378.1,146.1 L 378.1,146.1 L 378.0,146.1 L 378.0,146.0 L 378.0,146.0 L 377.9,146.0 L 377.9,146.0 L 377.9,146.0 L 377.9,146.0 L 377.8,146.0 L 377.8,146.0 L 377.8,146.0 L 377.7,146.0 L 377.7,146.1 L 377.7,146.1 L 377.7,146.1 L 377.7,146.1 L 377.6,146.1 L 377.6,146.2 L 377.6,146.2 L 377.6,146.2 L 377.6,146.2 L 377.6,146.3 L 377.6,146.3 L 377.5,146.3 L 377.5,146.3 L 377.5,146.4 L 377.5,146.4 L 377.6,146.4 L 377.6,146.5 L 377.6,146.5 L 377.6,146.5 L 377.6,146.5 L 377.6,146.6 L 377.6,146.6 L 377.7,146.6 L 377.7,146.6 L 377.7,146.6 L 377.7,146.7 L 377.7,146.7 L 377.8,146.7 L 377.8,146.7 L 377.8,146.7 L 377.9,146.7 L 377.9,146.7 L 377.9,146.7 L 377.9,146.7 L 378.0,146.7 L 378.0,146.7 L 378.0,146.7 L 378.1,146.6 L 378.1,146.6 L 378.1,146.6 L 378.1,146.6 L 378.1,146.6 L 378.2,146.5 L 378.2,146.5 L 378.2,146.5 L 378.2,146.5 L 378.2,146.4 L 378.2,146.4 L 378.2,146.4 L 378.2,146.4 L 377.9,146.4 Z" style="fill:#000000;fill-rule:evenodd;fill-opacity:1;stroke:#000000;stroke-width:0.0px;stroke-linecap:butt;stroke-linejoin:miter;stroke-opacity:1;"/>
<path d="M 349.0,138.9 L 349.0,138.8 L 349.0,138.8 L 349.0,138.8 L 349.0,138.8 L 349.0,138.7 L 349.0,138.7 L 348.9,138.7 L 348.9,138.7 L 348.9,138.6 L 348.9,138.6 L 348.9,138.6 L 348.8,138.6 L 348.8,138.6 L 348.8,138.6 L 348.8,138.6 L 348.7,138.5 L 348.7,138.5 L 348.7,138.5 L 348.6,138.5 L 348.6,138.5 L 348.6,138.5 L 348.6,138.6 L 348.5,138.6 L 348.5,138.6 L 348.5,138.6 L 348.4,138.6 L 348.4,138.6 L 348.4,138.7 L 348.4,138.7 L 348.4,138.7 L 348.4,138.7 L 348.3,138.7 L 348.3,138.8 L 348.3,138.8 L 348.3,138.8 L 348.3,138.9 L 348.3,138.9 L 348.3,138.9 L 348.3,138.9 L 348.3,139.0 L 348.3,139.0 L 348.4,139.0 L 348.4,139.1 L 348.4,139.1 L 348.4,139.1 L 348.4,139.1 L 348.4,139.1 L 348.5,139.2 L 348.5,139.2 L 348.5,139.2 L 348.6,139.2 L 348.6,139.2 L 348.6,139.2 L 348.6,139.2 L 348.7,139.2 L 348.7,139.2 L 348.7,139.2 L 348.8,139.2 L 348.8,139.2 L 348.8,139.2 L 348.8,139.2 L 348.9,139.2 L 348.9,139.1 L 348.9,139.1 L 348.9,139.1 L 348.9,139.1 L 349.0,139.0 L 349.0,139.0 L 349.0,139.0 L 349.0,139.0 L 349.0,138.9 L 349.0,138.9 L 349.0,138.9 L 348.7,138.9 Z" style="fill:#000000;fill-rule:evenodd;fill-opacity:1;stroke:#000000;stroke-width:0.0px;stroke-linecap:butt;stroke-linejoin:miter;stroke-opacity:1;"/>
<path d="M 319.8,143.3 L 319.8,143.3 L 319.8,143.3 L 319.8,143.3 L 319.7,143.2 L 319.7,143.2 L 319.7,143.2 L 319.7,143.2 L 319.7,143.1 L 319.7,143.1 L 319.7,143.1 L 319.6,143.1 L 319.6,143.1 L 319.6,143.0 L 319.6,143.0 L 319.5,143.0 L 319.5,143.0 L 319.5,143.0 L 319.4,143.0 L 319.4,143.0 L 319.4,143.0 L 319.4,143.0 L 319.3,143.0 L 319.3,143.0 L 319.3,143.0 L 319.2,143.1 L 319.2,143.1 L 319.2,143.1 L 319.2,143.1 L 319.2,143.1 L 319.1,143.2 L 319.1,143.2 L 319.1,143.2 L 319.1,143.2 L 319.1,143.3 L 319.1,143.3 L 319.1,143.3 L 319.1,143.4 L 319.1,143.4 L 319.1,143.4 L 319.1,143.4 L 319.1,143.5 L 319.1,143.5 L 319.1,143.5 L 319.2,143.5 L 319.2,143.6 L 319.2,143.6 L 319.2,143.6 L 319.2,143.6 L 319.3,143.6 L 319.3,143.7 L 319.3,143.7 L 319.4,143.7 L 319.4,143.7 L 319.4,143.7 L 319.4,143.7 L 319.5,143.7 L 319.5,143.7 L 319.5,143.7 L 319.6,143.7 L 319.6,143.6 L 319.6,143.6 L 319.6,143.6 L 319.7,143.6 L 319.7,143.6 L 319.7,143.6 L 319.7,143.5 L 319.7,143.5 L 319.7,143.5 L 319.7,143.5 L 319.8,143.4 L 319.8,143.4 L 319.8,143.4 L 319.8,143.3 L 319.4,143.3 Z" style="fill:#000000;fill-rule:evenodd;fill-opacity:1;stroke:#000000;stroke-width:0.0px;stroke-linecap:butt;stroke-linejoin:miter;stroke-opacity:1;"/>
<path class="bond-0 atom-0 atom-1" d="M 597.4,151.5 L 604.7,151.5" style="fill:none;fill-rule:evenodd;stroke:#000000;stroke-width:2.0px;stroke-linecap:butt;stroke-linejoin:miter;stroke-opacity:1"/>
<path class="bond-0 atom-0 atom-1" d="M 604.7,151.5 L 612.1,151.5" style="fill:none;fill-rule:evenodd;stroke:#0000FF;stroke-width:2.0px;stroke-linecap:butt;stroke-linejoin:miter;stroke-opacity:1"/>
<path class="atom-1" d="M 613.2 149.1 L 614.8 151.6 Q 615.0 151.9, 615.2 152.3 Q 615.5 152.8, 615.5 152.8 L 615.5 149.1 L 616.1 149.1 L 616.1 153.9 L 615.4 153.9 L 613.8 151.1 Q 613.6 150.8, 613.4 150.4 Q 613.2 150.0, 613.1 149.9 L 613.1 153.9 L 612.5 153.9 L 612.5 149.1 L 613.2 149.1 " fill="#0000FF"/>
<path class="atom-1" d="M 616.7 149.1 L 617.3 149.1 L 617.3 151.1 L 619.8 151.1 L 619.8 149.1 L 620.4 149.1 L 620.4 153.9 L 619.8 153.9 L 619.8 151.7 L 617.3 151.7 L 617.3 153.9 L 616.7 153.9 L 616.7 149.1 " fill="#0000FF"/>
<path class="atom-1" d="M 620.6 149.9 L 622.3 149.9 L 622.3 150.2 L 620.6 150.2 L 620.6 149.9 " fill="#0000FF"/>
<path class="bond-0 atom-0 atom-1" d="M 64.8,405.4 L 70.2,402.3" style="fill:none;fill-rule:evenodd;stroke:#FF7F00;stroke-width:2.0px;stroke-linecap:butt;stroke-linejoin:miter;stroke-opacity:1"/>
<path class="bond-0 atom-0 atom-1" d="M 70.2,402.3 L 75.6,399.2" style="fill:none;fill-rule:evenodd;stroke:#CCCC00;stroke-width:2.0px;stroke-linecap:butt;stroke-linejoin:miter;stroke-opacity:1"/>
<path class="bond-0 atom-0 atom-1" d="M 63.1,402.5 L 68.5,399.4" style="fill:none;fill-rule:evenodd;stroke:#FF7F00;stroke-width:2.0px;stroke-linecap:butt;stroke-linejoin:miter;stroke-opacity:1"/>
<path class="bond-0 atom-0 atom-1" d="M 68.5,399.4 L 73.9,396.3" style="fill:none;fill-rule:evenodd;stroke:#CCCC00;stroke-width:2.0px;stroke-linecap:butt;stroke-linejoin:miter;stroke-opacity:1"/>
<path class="bond-1 atom-1 atom-2" d="M 78.6,397.8 L 84.0,400.9" style="fill:none;fill-rule:evenodd;stroke:#CCCC00;stroke-width:2.0px;stroke-linecap:butt;stroke-linejoin:miter;stroke-opacity:1"/>
<path class="bond-1 atom-1 atom-2" d="M 84.0,400.9 L 89.3,404.0" style="fill:none;fill-rule:evenodd;stroke:#FF7F00;stroke-width:2.0px;stroke-linecap:butt;stroke-linejoin:miter;stroke-opacity:1"/>
<path class="bond-2 atom-2 atom-3" d="M 95.7,402.5 L 99.5,400.3" style="fill:none;fill-rule:evenodd;stroke:#FF7F00;stroke-width:2.0px;stroke-linecap:butt;stroke-linejoin:miter;stroke-opacity:1"/>
<path class="bond-2 atom-2 atom-3" d="M 99.5,400.3 L 103.4,398.1" style="fill:none;fill-rule:evenodd;stroke:#FF0000;stroke-width:2.0px;stroke-linecap:butt;stroke-linejoin:miter;stroke-opacity:1"/>
<path class="bond-3 atom-3 atom-4" d="M 108.5,398.2 L 113.4,401.0" style="fill:none;fill-rule:evenodd;stroke:#FF0000;stroke-width:2.0px;stroke-linecap:butt;stroke-linejoin:miter;stroke-opacity:1"/>
<path class="bond-3 atom-3 atom-4" d="M 113.4,401.0 L 118.3,403.8" style="fill:none;fill-rule:evenodd;stroke:#000000;stroke-width:2.0px;stroke-linecap:butt;stroke-linejoin:miter;stroke-opacity:1"/>
<path class="bond-4 atom-4 atom-5" d="M 124.0,403.0 L 135.1,396.7" style="fill:none;fill-rule:evenodd;stroke:#000000;stroke-width:2.0px;stroke-linecap:butt;stroke-linejoin:miter;stroke-opacity:1"/>
<path class="bond-5 atom-5 atom-6" d="M 135.1,396.7 L 141.3,400.2" style="fill:none;fill-rule:evenodd;stroke:#000000;stroke-width:2.0px;stroke-linecap:butt;stroke-linejoin:miter;stroke-opacity:1"/>
<path class="bond-5 atom-5 atom-6" d="M 141.3,400.2 L 147.4,403.8" style="fill:none;fill-rule:evenodd;stroke:#00CC00;stroke-width:2.0px;stroke-linecap:butt;stroke-linejoin:miter;stroke-opacity:1"/>
<path class="atom-0" d="M 61.9 402.7 Q 62.7 402.7, 63.1 403.1 Q 63.5 403.4, 63.5 404.1 Q 63.5 404.8, 63.1 405.2 Q 62.7 405.5, 61.9 405.5 L 61.1 405.5 L 61.1 407.5 L 60.5 407.5 L 60.5 402.7 L 61.9 402.7 M 61.9 405.0 Q 62.3 405.0, 62.6 404.8 Q 62.8 404.5, 62.8 404.1 Q 62.8 403.7, 62.6 403.5 Q 62.3 403.2, 61.9 403.2 L 61.1 403.2 L 61.1 405.0 L 61.9 405.0 " fill="#FF7F00"/>
<path class="atom-1" d="M 75.3 398.3 Q 75.3 398.3, 75.5 398.4 Q 75.8 398.5, 76.0 398.6 Q 76.3 398.6, 76.5 398.6 Q 76.9 398.6, 77.2 398.4 Q 77.5 398.2, 77.5 397.8 Q 77.5 397.5, 77.3 397.4 Q 77.2 397.2, 77.0 397.1 Q 76.8 397.0, 76.5 396.9 Q 76.0 396.8, 75.8 396.7 Q 75.5 396.6, 75.4 396.3 Q 75.2 396.0, 75.2 395.6 Q 75.2 395.0, 75.6 394.6 Q 76.0 394.3, 76.8 394.3 Q 77.4 394.3, 78.0 394.5 L 77.8 395.1 Q 77.3 394.8, 76.8 394.8 Q 76.4 394.8, 76.1 395.0 Q 75.8 395.2, 75.9 395.5 Q 75.9 395.8, 76.0 395.9 Q 76.1 396.1, 76.3 396.2 Q 76.5 396.3, 76.8 396.4 Q 77.3 396.5, 77.5 396.7 Q 77.8 396.8, 78.0 397.1 Q 78.1 397.3, 78.1 397.8 Q 78.1 398.5, 77.7 398.8 Q 77.3 399.2, 76.5 399.2 Q 76.1 399.2, 75.8 399.1 Q 75.5 399.0, 75.1 398.8 L 75.3 398.3 " fill="#CCCC00"/>
<path class="atom-2" d="M 91.1 402.7 Q 91.9 402.7, 92.3 403.1 Q 92.8 403.4, 92.8 404.1 Q 92.8 404.8, 92.3 405.2 Q 91.9 405.5, 91.1 405.5 L 90.3 405.5 L 90.3 407.5 L 89.7 407.5 L 89.7 402.7 L 91.1 402.7 M 91.1 405.0 Q 91.6 405.0, 91.8 404.8 Q 92.1 404.5, 92.1 404.1 Q 92.1 403.7, 91.8 403.5 Q 91.6 403.2, 91.1 403.2 L 90.3 403.2 L 90.3 405.0 L 91.1 405.0 " fill="#FF7F00"/>
<path class="atom-2" d="M 93.2 403.6 L 94.0 403.6 L 94.0 402.7 L 94.4 402.7 L 94.4 403.6 L 95.2 403.6 L 95.2 403.9 L 94.4 403.9 L 94.4 404.8 L 94.0 404.8 L 94.0 403.9 L 93.2 403.9 L 93.2 403.6 " fill="#FF7F00"/>
<path class="atom-3" d="M 103.7 396.7 Q 103.7 395.5, 104.2 394.9 Q 104.8 394.2, 105.8 394.2 Q 106.9 394.2, 107.5 394.9 Q 108.0 395.5, 108.0 396.7 Q 108.0 397.8, 107.5 398.5 Q 106.9 399.1, 105.8 399.1 Q 104.8 399.1, 104.2 398.5 Q 103.7 397.8, 103.7 396.7 M 105.8 398.6 Q 106.6 398.6, 107.0 398.1 Q 107.4 397.6, 107.4 396.7 Q 107.4 395.7, 107.0 395.3 Q 106.6 394.8, 105.8 394.8 Q 105.1 394.8, 104.7 395.3 Q 104.3 395.7, 104.3 396.7 Q 104.3 397.6, 104.7 398.1 Q 105.1 398.6, 105.8 398.6 " fill="#FF0000"/>
<path class="atom-3" d="M 108.4 395.1 L 109.3 395.1 L 109.3 394.2 L 109.7 394.2 L 109.7 395.1 L 110.5 395.1 L 110.5 395.4 L 109.7 395.4 L 109.7 396.3 L 109.3 396.3 L 109.3 395.4 L 108.4 395.4 L 108.4 395.1 " fill="#FF0000"/>
<path class="atom-4" d="M 118.6 405.1 Q 118.6 403.9, 119.2 403.3 Q 119.7 402.7, 120.8 402.7 Q 121.8 402.7, 122.3 403.4 L 121.9 403.7 Q 121.5 403.2, 120.8 403.2 Q 120.1 403.2, 119.7 403.7 Q 119.3 404.2, 119.3 405.1 Q 119.3 406.1, 119.7 406.5 Q 120.1 407.0, 120.9 407.0 Q 121.4 407.0, 122.0 406.7 L 122.2 407.2 Q 121.9 407.4, 121.6 407.5 Q 121.2 407.6, 120.8 407.6 Q 119.7 407.6, 119.2 406.9 Q 118.6 406.3, 118.6 405.1 " fill="#000000"/>
<path class="atom-4" d="M 122.5 403.5 L 124.2 403.5 L 124.2 403.8 L 122.5 403.8 L 122.5 403.5 " fill="#000000"/>
<path class="atom-6" d="M 147.9 405.3 Q 147.9 404.1, 148.4 403.5 Q 149.0 402.8, 150.0 402.8 Q 151.0 402.8, 151.5 403.5 L 151.1 403.9 Q 150.7 403.4, 150.0 403.4 Q 149.3 403.4, 148.9 403.9 Q 148.5 404.3, 148.5 405.3 Q 148.5 406.2, 148.9 406.7 Q 149.3 407.2, 150.1 407.2 Q 150.6 407.2, 151.2 406.9 L 151.4 407.4 Q 151.2 407.5, 150.8 407.6 Q 150.4 407.7, 150.0 407.7 Q 149.0 407.7, 148.4 407.1 Q 147.9 406.5, 147.9 405.3 " fill="#00CC00"/>
<path class="atom-6" d="M 152.1 402.5 L 152.7 402.5 L 152.7 407.7 L 152.1 407.7 L 152.1 402.5 " fill="#00CC00"/>
<path d="M 59.8,405.1 L 59.8,405.1 L 59.8,405.0 L 59.8,405.0 L 59.8,405.0 L 59.8,405.0 L 59.7,404.9 L 59.7,404.9 L 59.7,404.9 L 59.7,404.9 L 59.7,404.8 L 59.6,404.8 L 59.6,404.8 L 59.6,404.8 L 59.6,404.8 L 59.5,404.8 L 59.5,404.8 L 59.5,404.8 L 59.5,404.8 L 59.4,404.8 L 59.4,404.8 L 59.4,404.8 L 59.3,404.8 L 59.3,404.8 L 59.3,404.8 L 59.3,404.8 L 59.2,404.8 L 59.2,404.9 L 59.2,404.9 L 59.2,404.9 L 59.2,404.9 L 59.2,404.9 L 59.1,405.0 L 59.1,405.0 L 59.1,405.0 L 59.1,405.1 L 59.1,405.1 L 59.1,405.1 L 59.1,405.1 L 59.1,405.2 L 59.1,405.2 L 59.1,405.2 L 59.2,405.3 L 59.2,405.3 L 59.2,405.3 L 59.2,405.3 L 59.2,405.3 L 59.2,405.4 L 59.3,405.4 L 59.3,405.4 L 59.3,405.4 L 59.3,405.4 L 59.4,405.4 L 59.4,405.4 L 59.4,405.4 L 59.5,405.4 L 59.5,405.4 L 59.5,405.4 L 59.5,405.4 L 59.6,405.4 L 59.6,405.4 L 59.6,405.4 L 59.6,405.4 L 59.7,405.4 L 59.7,405.3 L 59.7,405.3 L 59.7,405.3 L 59.7,405.3 L 59.8,405.2 L 59.8,405.2 L 59.8,405.2 L 59.8,405.2 L 59.8,405.1 L 59.8,405.1 L 59.5,405.1 Z" style="fill:#000000;fill-rule:evenodd;fill-opacity:1;stroke:#000000;stroke-width:0.0px;stroke-linecap:butt;stroke-linejoin:miter;stroke-opacity:1;"/>
<path d="M 76.9,393.8 L 76.9,393.7 L 76.9,393.7 L 76.9,393.7 L 76.9,393.7 L 76.9,393.6 L 76.9,393.6 L 76.9,393.6 L 76.9,393.6 L 76.9,393.5 L 76.8,393.5 L 76.8,393.5 L 76.8,393.5 L 76.8,393.5 L 76.7,393.5 L 76.7,393.4 L 76.7,393.4 L 76.6,393.4 L 76.6,393.4 L 76.6,393.4 L 76.6,393.4 L 76.5,393.4 L 76.5,393.4 L 76.5,393.5 L 76.4,393.5 L 76.4,393.5 L 76.4,393.5 L 76.4,393.5 L 76.4,393.5 L 76.3,393.6 L 76.3,393.6 L 76.3,393.6 L 76.3,393.6 L 76.3,393.7 L 76.3,393.7 L 76.3,393.7 L 76.3,393.8 L 76.3,393.8 L 76.3,393.8 L 76.3,393.8 L 76.3,393.9 L 76.3,393.9 L 76.3,393.9 L 76.3,393.9 L 76.3,394.0 L 76.4,394.0 L 76.4,394.0 L 76.4,394.0 L 76.4,394.0 L 76.4,394.1 L 76.5,394.1 L 76.5,394.1 L 76.5,394.1 L 76.6,394.1 L 76.6,394.1 L 76.6,394.1 L 76.6,394.1 L 76.7,394.1 L 76.7,394.1 L 76.7,394.1 L 76.8,394.1 L 76.8,394.1 L 76.8,394.0 L 76.8,394.0 L 76.9,394.0 L 76.9,394.0 L 76.9,394.0 L 76.9,393.9 L 76.9,393.9 L 76.9,393.9 L 76.9,393.9 L 76.9,393.8 L 76.9,393.8 L 76.9,393.8 L 76.6,393.8 Z" style="fill:#000000;fill-rule:evenodd;fill-opacity:1;stroke:#000000;stroke-width:0.0px;stroke-linecap:butt;stroke-linejoin:miter;stroke-opacity:1;"/>
<path d="M 92.2,408.0 L 92.2,408.0 L 92.2,407.9 L 92.2,407.9 L 92.2,407.9 L 92.2,407.9 L 92.2,407.8 L 92.2,407.8 L 92.2,407.8 L 92.1,407.8 L 92.1,407.7 L 92.1,407.7 L 92.1,407.7 L 92.1,407.7 L 92.0,407.7 L 92.0,407.7 L 92.0,407.7 L 91.9,407.7 L 91.9,407.7 L 91.9,407.7 L 91.9,407.7 L 91.8,407.7 L 91.8,407.7 L 91.8,407.7 L 91.7,407.7 L 91.7,407.7 L 91.7,407.7 L 91.7,407.7 L 91.7,407.8 L 91.6,407.8 L 91.6,407.8 L 91.6,407.8 L 91.6,407.9 L 91.6,407.9 L 91.6,407.9 L 91.6,408.0 L 91.6,408.0 L 91.6,408.0 L 91.6,408.0 L 91.6,408.1 L 91.6,408.1 L 91.6,408.1 L 91.6,408.1 L 91.6,408.2 L 91.6,408.2 L 91.7,408.2 L 91.7,408.2 L 91.7,408.3 L 91.7,408.3 L 91.7,408.3 L 91.8,408.3 L 91.8,408.3 L 91.8,408.3 L 91.9,408.3 L 91.9,408.3 L 91.9,408.3 L 91.9,408.3 L 92.0,408.3 L 92.0,408.3 L 92.0,408.3 L 92.1,408.3 L 92.1,408.3 L 92.1,408.3 L 92.1,408.2 L 92.1,408.2 L 92.2,408.2 L 92.2,408.2 L 92.2,408.2 L 92.2,408.1 L 92.2,408.1 L 92.2,408.1 L 92.2,408.1 L 92.2,408.0 L 92.2,408.0 L 91.9,408.0 Z" style="fill:#000000;fill-rule:evenodd;fill-opacity:1;stroke:#000000;stroke-width:0.0px;stroke-linecap:butt;stroke-linejoin:miter;stroke-opacity:1;"/>
<path d="M 90.9,408.0 L 90.9,408.0 L 90.9,407.9 L 90.9,407.9 L 90.9,407.9 L 90.9,407.9 L 90.8,407.8 L 90.8,407.8 L 90.8,407.8 L 90.8,407.8 L 90.8,407.7 L 90.7,407.7 L 90.7,407.7 L 90.7,407.7 L 90.7,407.7 L 90.6,407.7 L 90.6,407.7 L 90.6,407.7 L 90.6,407.7 L 90.5,407.7 L 90.5,407.7 L 90.5,407.7 L 90.4,407.7 L 90.4,407.7 L 90.4,407.7 L 90.4,407.7 L 90.3,407.7 L 90.3,407.7 L 90.3,407.8 L 90.3,407.8 L 90.3,407.8 L 90.3,407.8 L 90.2,407.9 L 90.2,407.9 L 90.2,407.9 L 90.2,408.0 L 90.2,408.0 L 90.2,408.0 L 90.2,408.0 L 90.2,408.1 L 90.2,408.1 L 90.2,408.1 L 90.3,408.1 L 90.3,408.2 L 90.3,408.2 L 90.3,408.2 L 90.3,408.2 L 90.3,408.3 L 90.4,408.3 L 90.4,408.3 L 90.4,408.3 L 90.4,408.3 L 90.5,408.3 L 90.5,408.3 L 90.5,408.3 L 90.6,408.3 L 90.6,408.3 L 90.6,408.3 L 90.6,408.3 L 90.7,408.3 L 90.7,408.3 L 90.7,408.3 L 90.7,408.3 L 90.8,408.2 L 90.8,408.2 L 90.8,408.2 L 90.8,408.2 L 90.8,408.2 L 90.9,408.1 L 90.9,408.1 L 90.9,408.1 L 90.9,408.1 L 90.9,408.0 L 90.9,408.0 L 90.6,408.0 Z" style="fill:#000000;fill-rule:evenodd;fill-opacity:1;stroke:#000000;stroke-width:0.0px;stroke-linecap:butt;stroke-linejoin:miter;stroke-opacity:1;"/>
<path d="M 106.2,393.7 L 106.2,393.7 L 106.2,393.6 L 106.2,393.6 L 106.2,393.6 L 106.2,393.6 L 106.1,393.5 L 106.1,393.5 L 106.1,393.5 L 106.1,393.5 L 106.1,393.4 L 106.0,393.4 L 106.0,393.4 L 106.0,393.4 L 106.0,393.4 L 105.9,393.4 L 105.9,393.4 L 105.9,393.4 L 105.9,393.4 L 105.8,393.4 L 105.8,393.4 L 105.8,393.4 L 105.7,393.4 L 105.7,393.4 L 105.7,393.4 L 105.7,393.4 L 105.6,393.4 L 105.6,393.5 L 105.6,393.5 L 105.6,393.5 L 105.6,393.5 L 105.5,393.5 L 105.5,393.6 L 105.5,393.6 L 105.5,393.6 L 105.5,393.7 L 105.5,393.7 L 105.5,393.7 L 105.5,393.7 L 105.5,393.8 L 105.5,393.8 L 105.5,393.8 L 105.5,393.9 L 105.6,393.9 L 105.6,393.9 L 105.6,393.9 L 105.6,393.9 L 105.6,394.0 L 105.7,394.0 L 105.7,394.0 L 105.7,394.0 L 105.7,394.0 L 105.8,394.0 L 105.8,394.0 L 105.8,394.0 L 105.9,394.0 L 105.9,394.0 L 105.9,394.0 L 105.9,394.0 L 106.0,394.0 L 106.0,394.0 L 106.0,394.0 L 106.0,394.0 L 106.1,394.0 L 106.1,393.9 L 106.1,393.9 L 106.1,393.9 L 106.1,393.9 L 106.2,393.8 L 106.2,393.8 L 106.2,393.8 L 106.2,393.8 L 106.2,393.7 L 106.2,393.7 L 105.8,393.7 Z" style="fill:#000000;fill-rule:evenodd;fill-opacity:1;stroke:#000000;stroke-width:0.0px;stroke-linecap:butt;stroke-linejoin:miter;stroke-opacity:1;"/>
<path class="bond-0 atom-0 atom-1" d="M 376.3,400.7 L 371.6,402.7" style="fill:none;fill-rule:evenodd;stroke:#33CCCC;stroke-width:2.0px;stroke-linecap:butt;stroke-linejoin:miter;stroke-opacity:1"/>
<path class="bond-0 atom-0 atom-1" d="M 371.6,402.7 L 367.0,404.7" style="fill:none;fill-rule:evenodd;stroke:#CCCC00;stroke-width:2.0px;stroke-linecap:butt;stroke-linejoin:miter;stroke-opacity:1"/>
<path class="bond-1 atom-1 atom-2" d="M 360.6,405.1 L 351.0,397.8" style="fill:none;fill-rule:evenodd;stroke:#CCCC00;stroke-width:2.0px;stroke-linecap:butt;stroke-linejoin:miter;stroke-opacity:1"/>
<path class="bond-2 atom-2 atom-3" d="M 346.5,395.7 L 342.2,397.5" style="fill:none;fill-rule:evenodd;stroke:#CCCC00;stroke-width:2.0px;stroke-linecap:butt;stroke-linejoin:miter;stroke-opacity:1"/>
<path class="bond-2 atom-2 atom-3" d="M 342.2,397.5 L 338.0,399.3" style="fill:none;fill-rule:evenodd;stroke:#FF0000;stroke-width:2.0px;stroke-linecap:butt;stroke-linejoin:miter;stroke-opacity:1"/>
<path class="bond-2 atom-2 atom-3" d="M 347.8,398.8 L 343.5,400.6" style="fill:none;fill-rule:evenodd;stroke:#CCCC00;stroke-width:2.0px;stroke-linecap:butt;stroke-linejoin:miter;stroke-opacity:1"/>
<path class="bond-2 atom-2 atom-3" d="M 343.5,400.6 L 339.3,402.4" style="fill:none;fill-rule:evenodd;stroke:#FF0000;stroke-width:2.0px;stroke-linecap:butt;stroke-linejoin:miter;stroke-opacity:1"/>
<path class="atom-0" d="M 376.7 397.6 L 379.5 397.6 L 379.5 398.1 L 377.3 398.1 L 377.3 399.6 L 379.3 399.6 L 379.3 400.1 L 377.3 400.1 L 377.3 402.3 L 376.7 402.3 L 376.7 397.6 " fill="#33CCCC"/>
<path class="atom-1" d="M 361.2 408.2 Q 361.3 408.2, 361.5 408.3 Q 361.7 408.4, 362.0 408.5 Q 362.2 408.5, 362.5 408.5 Q 362.9 408.5, 363.2 408.3 Q 363.5 408.1, 363.5 407.7 Q 363.5 407.4, 363.3 407.3 Q 363.2 407.1, 363.0 407.0 Q 362.8 406.9, 362.4 406.8 Q 362.0 406.7, 361.8 406.6 Q 361.5 406.5, 361.3 406.2 Q 361.2 405.9, 361.2 405.5 Q 361.2 404.9, 361.6 404.5 Q 362.0 404.2, 362.8 404.2 Q 363.3 404.2, 364.0 404.4 L 363.8 405.0 Q 363.2 404.7, 362.8 404.7 Q 362.3 404.7, 362.1 404.9 Q 361.8 405.1, 361.8 405.4 Q 361.8 405.7, 362.0 405.8 Q 362.1 406.0, 362.3 406.1 Q 362.5 406.2, 362.8 406.3 Q 363.2 406.4, 363.5 406.5 Q 363.8 406.7, 363.9 407.0 Q 364.1 407.2, 364.1 407.7 Q 364.1 408.4, 363.7 408.7 Q 363.2 409.1, 362.5 409.1 Q 362.1 409.1, 361.8 409.0 Q 361.4 408.9, 361.1 408.7 L 361.2 408.2 " fill="#CCCC00"/>
<path class="atom-1" d="M 364.5 405.0 L 365.4 405.0 L 365.4 404.1 L 365.7 404.1 L 365.7 405.0 L 366.6 405.0 L 366.6 405.3 L 365.7 405.3 L 365.7 406.2 L 365.4 406.2 L 365.4 405.3 L 364.5 405.3 L 364.5 405.0 " fill="#CCCC00"/>
<path class="atom-2" d="M 347.8 398.0 Q 347.8 398.1, 348.0 398.2 Q 348.3 398.3, 348.5 398.3 Q 348.7 398.4, 349.0 398.4 Q 349.4 398.4, 349.7 398.2 Q 350.0 397.9, 350.0 397.5 Q 350.0 397.3, 349.8 397.1 Q 349.7 397.0, 349.5 396.9 Q 349.3 396.8, 349.0 396.7 Q 348.5 396.6, 348.3 396.4 Q 348.0 396.3, 347.8 396.1 Q 347.7 395.8, 347.7 395.4 Q 347.7 394.8, 348.1 394.4 Q 348.5 394.0, 349.3 394.0 Q 349.9 394.0, 350.5 394.3 L 350.3 394.8 Q 349.7 394.6, 349.3 394.6 Q 348.9 394.6, 348.6 394.8 Q 348.3 395.0, 348.3 395.3 Q 348.3 395.5, 348.5 395.7 Q 348.6 395.9, 348.8 395.9 Q 349.0 396.0, 349.3 396.1 Q 349.7 396.3, 350.0 396.4 Q 350.3 396.5, 350.4 396.8 Q 350.6 397.1, 350.6 397.5 Q 350.6 398.2, 350.2 398.6 Q 349.7 398.9, 349.0 398.9 Q 348.6 398.9, 348.3 398.8 Q 347.9 398.7, 347.6 398.6 L 347.8 398.0 " fill="#CCCC00"/>
<path class="atom-2" d="M 347.2 388.6 L 347.9 388.6 L 347.9 390.7 L 350.3 390.7 L 350.3 388.6 L 351.0 388.6 L 351.0 393.4 L 350.3 393.4 L 350.3 391.2 L 347.9 391.2 L 347.9 393.4 L 347.2 393.4 L 347.2 388.6 " fill="#CCCC00"/>
<path class="atom-3" d="M 327.3 400.7 L 327.9 400.7 L 327.9 402.7 L 330.4 402.7 L 330.4 400.7 L 331.0 400.7 L 331.0 405.4 L 330.4 405.4 L 330.4 403.2 L 327.9 403.2 L 327.9 405.4 L 327.3 405.4 L 327.3 400.7 " fill="#FF0000"/>
<path class="atom-3" d="M 331.4 403.0 Q 331.4 401.9, 331.9 401.2 Q 332.5 400.6, 333.6 400.6 Q 334.6 400.6, 335.2 401.2 Q 335.8 401.9, 335.8 403.0 Q 335.8 404.2, 335.2 404.9 Q 334.6 405.5, 333.6 405.5 Q 332.5 405.5, 331.9 404.9 Q 331.4 404.2, 331.4 403.0 M 333.6 405.0 Q 334.3 405.0, 334.7 404.5 Q 335.1 404.0, 335.1 403.0 Q 335.1 402.1, 334.7 401.6 Q 334.3 401.1, 333.6 401.1 Q 332.8 401.1, 332.4 401.6 Q 332.0 402.1, 332.0 403.0 Q 332.0 404.0, 332.4 404.5 Q 332.8 405.0, 333.6 405.0 " fill="#FF0000"/>
<path class="atom-3" d="M 336.2 401.5 L 337.0 401.5 L 337.0 400.6 L 337.4 400.6 L 337.4 401.5 L 338.2 401.5 L 338.2 401.8 L 337.4 401.8 L 337.4 402.7 L 337.0 402.7 L 337.0 401.8 L 336.2 401.8 L 336.2 401.5 " fill="#FF0000"/>
<path d="M 362.9,409.6 L 362.9,409.5 L 362.9,409.5 L 362.9,409.5 L 362.9,409.5 L 362.9,409.4 L 362.9,409.4 L 362.9,409.4 L 362.9,409.4 L 362.8,409.3 L 362.8,409.3 L 362.8,409.3 L 362.8,409.3 L 362.7,409.3 L 362.7,409.3 L 362.7,409.2 L 362.7,409.2 L 362.6,409.2 L 362.6,409.2 L 362.6,409.2 L 362.5,409.2 L 362.5,409.2 L 362.5,409.3 L 362.5,409.3 L 362.4,409.3 L 362.4,409.3 L 362.4,409.3 L 362.4,409.3 L 362.3,409.3 L 362.3,409.4 L 362.3,409.4 L 362.3,409.4 L 362.3,409.4 L 362.3,409.5 L 362.3,409.5 L 362.3,409.5 L 362.3,409.6 L 362.3,409.6 L 362.3,409.6 L 362.3,409.6 L 362.3,409.7 L 362.3,409.7 L 362.3,409.7 L 362.3,409.8 L 362.3,409.8 L 362.3,409.8 L 362.4,409.8 L 362.4,409.8 L 362.4,409.9 L 362.4,409.9 L 362.5,409.9 L 362.5,409.9 L 362.5,409.9 L 362.5,409.9 L 362.6,409.9 L 362.6,409.9 L 362.6,409.9 L 362.7,409.9 L 362.7,409.9 L 362.7,409.9 L 362.7,409.9 L 362.8,409.9 L 362.8,409.8 L 362.8,409.8 L 362.8,409.8 L 362.9,409.8 L 362.9,409.8 L 362.9,409.7 L 362.9,409.7 L 362.9,409.7 L 362.9,409.7 L 362.9,409.6 L 362.9,409.6 L 362.9,409.6 L 362.6,409.6 Z" style="fill:#000000;fill-rule:evenodd;fill-opacity:1;stroke:#000000;stroke-width:0.0px;stroke-linecap:butt;stroke-linejoin:miter;stroke-opacity:1;"/>
<path class="bond-0 atom-0 atom-1" d="M 597.4,403.2 L 604.5,403.2" style="fill:none;fill-rule:evenodd;stroke:#000000;stroke-width:2.0px;stroke-linecap:butt;stroke-linejoin:miter;stroke-opacity:1"/>
<path class="bond-0 atom-0 atom-1" d="M 604.5,403.2 L 611.7,403.2" style="fill:none;fill-rule:evenodd;stroke:#FF0000;stroke-width:2.0px;stroke-linecap:butt;stroke-linejoin:miter;stroke-opacity:1"/>
<path class="bond-0 atom-0 atom-1" d="M 597.4,399.8 L 604.5,399.8" style="fill:none;fill-rule:evenodd;stroke:#000000;stroke-width:2.0px;stroke-linecap:butt;stroke-linejoin:miter;stroke-opacity:1"/>
<path class="bond-0 atom-0 atom-1" d="M 604.5,399.8 L 611.7,399.8" style="fill:none;fill-rule:evenodd;stroke:#FF0000;stroke-width:2.0px;stroke-linecap:butt;stroke-linejoin:miter;stroke-opacity:1"/>
<path class="atom-1" d="M 612.1 401.5 Q 612.1 400.3, 612.7 399.7 Q 613.2 399.1, 614.3 399.1 Q 615.3 399.1, 615.9 399.7 Q 616.5 400.3, 616.5 401.5 Q 616.5 402.7, 615.9 403.3 Q 615.3 404.0, 614.3 404.0 Q 613.2 404.0, 612.7 403.3 Q 612.1 402.7, 612.1 401.5 M 614.3 403.4 Q 615.0 403.4, 615.4 402.9 Q 615.8 402.5, 615.8 401.5 Q 615.8 400.6, 615.4 400.1 Q 615.0 399.6, 614.3 399.6 Q 613.6 399.6, 613.2 400.1 Q 612.8 400.5, 612.8 401.5 Q 612.8 402.5, 613.2 402.9 Q 613.6 403.4, 614.3 403.4 " fill="#FF0000"/>
<path d="M 595.7,400.8 L 595.7,400.8 L 595.7,400.7 L 595.7,400.7 L 595.7,400.7 L 595.7,400.7 L 595.7,400.6 L 595.7,400.6 L 595.6,400.6 L 595.6,400.6 L 595.6,400.5 L 595.6,400.5 L 595.6,400.5 L 595.5,400.5 L 595.5,400.5 L 595.5,400.5 L 595.4,400.5 L 595.4,400.5 L 595.4,400.5 L 595.4,400.5 L 595.3,400.5 L 595.3,400.5 L 595.3,400.5 L 595.2,400.5 L 595.2,400.5 L 595.2,400.5 L 595.2,400.5 L 595.1,400.6 L 595.1,400.6 L 595.1,400.6 L 595.1,400.6 L 595.1,400.7 L 595.1,400.7 L 595.1,400.7 L 595.1,400.7 L 595.0,400.8 L 595.0,400.8 L 595.0,400.8 L 595.0,400.8 L 595.1,400.9 L 595.1,400.9 L 595.1,400.9 L 595.1,401.0 L 595.1,401.0 L 595.1,401.0 L 595.1,401.0 L 595.1,401.1 L 595.2,401.1 L 595.2,401.1 L 595.2,401.1 L 595.2,401.1 L 595.3,401.1 L 595.3,401.1 L 595.3,401.1 L 595.4,401.1 L 595.4,401.1 L 595.4,401.1 L 595.4,401.1 L 595.5,401.1 L 595.5,401.1 L 595.5,401.1 L 595.6,401.1 L 595.6,401.1 L 595.6,401.1 L 595.6,401.0 L 595.6,401.0 L 595.7,401.0 L 595.7,401.0 L 595.7,400.9 L 595.7,400.9 L 595.7,400.9 L 595.7,400.9 L 595.7,400.8 L 595.7,400.8 L 595.4,400.8 Z" style="fill:#000000;fill-rule:evenodd;fill-opacity:1;stroke:#000000;stroke-width:0.0px;stroke-linecap:butt;stroke-linejoin:miter;stroke-opacity:1;"/>
<path d="M 595.7,402.2 L 595.7,402.1 L 595.7,402.1 L 595.7,402.1 L 595.7,402.0 L 595.7,402.0 L 595.7,402.0 L 595.7,402.0 L 595.6,401.9 L 595.6,401.9 L 595.6,401.9 L 595.6,401.9 L 595.6,401.9 L 595.5,401.9 L 595.5,401.8 L 595.5,401.8 L 595.4,401.8 L 595.4,401.8 L 595.4,401.8 L 595.4,401.8 L 595.3,401.8 L 595.3,401.8 L 595.3,401.8 L 595.2,401.8 L 595.2,401.9 L 595.2,401.9 L 595.2,401.9 L 595.1,401.9 L 595.1,401.9 L 595.1,402.0 L 595.1,402.0 L 595.1,402.0 L 595.1,402.0 L 595.1,402.1 L 595.1,402.1 L 595.0,402.1 L 595.0,402.1 L 595.0,402.2 L 595.0,402.2 L 595.1,402.2 L 595.1,402.3 L 595.1,402.3 L 595.1,402.3 L 595.1,402.3 L 595.1,402.4 L 595.1,402.4 L 595.1,402.4 L 595.2,402.4 L 595.2,402.4 L 595.2,402.5 L 595.2,402.5 L 595.3,402.5 L 595.3,402.5 L 595.3,402.5 L 595.4,402.5 L 595.4,402.5 L 595.4,402.5 L 595.4,402.5 L 595.5,402.5 L 595.5,402.5 L 595.5,402.5 L 595.6,402.4 L 595.6,402.4 L 595.6,402.4 L 595.6,402.4 L 595.6,402.4 L 595.7,402.3 L 595.7,402.3 L 595.7,402.3 L 595.7,402.3 L 595.7,402.2 L 595.7,402.2 L 595.7,402.2 L 595.7,402.2 L 595.4,402.2 Z" style="fill:#000000;fill-rule:evenodd;fill-opacity:1;stroke:#000000;stroke-width:0.0px;stroke-linecap:butt;stroke-linejoin:miter;stroke-opacity:1;"/>
<path class="bond-0 atom-0 atom-1" d="M 102.5,651.5 L 111.8,651.5" style="fill:none;fill-rule:evenodd;stroke:#FF0000;stroke-width:2.0px;stroke-linecap:butt;stroke-linejoin:miter;stroke-opacity:1"/>
<path class="atom-0" d="M 91.1 649.1 L 91.8 649.1 L 91.8 651.1 L 94.2 651.1 L 94.2 649.1 L 94.9 649.1 L 94.9 653.9 L 94.2 653.9 L 94.2 651.7 L 91.8 651.7 L 91.8 653.9 L 91.1 653.9 L 91.1 649.1 " fill="#FF0000"/>
<path class="atom-0" d="M 95.2 651.5 Q 95.2 650.3, 95.8 649.7 Q 96.3 649.1, 97.4 649.1 Q 98.5 649.1, 99.0 649.7 Q 99.6 650.3, 99.6 651.5 Q 99.6 652.7, 99.0 653.3 Q 98.5 654.0, 97.4 654.0 Q 96.4 654.0, 95.8 653.3 Q 95.2 652.7, 95.2 651.5 M 97.4 653.4 Q 98.1 653.4, 98.5 652.9 Q 98.9 652.5, 98.9 651.5 Q 98.9 650.6, 98.5 650.1 Q 98.1 649.6, 97.4 649.6 Q 96.7 649.6, 96.3 650.1 Q 95.9 650.5, 95.9 651.5 Q 95.9 652.5, 96.3 652.9 Q 96.7 653.4, 97.4 653.4 " fill="#FF0000"/>
<path class="atom-0" d="M 100.0 649.9 L 100.8 649.9 L 100.8 649.0 L 101.2 649.0 L 101.2 649.9 L 102.1 649.9 L 102.1 650.2 L 101.2 650.2 L 101.2 651.1 L 100.8 651.1 L 100.8 650.2 L 100.0 650.2 L 100.0 649.9 " fill="#FF0000"/>
<path class="atom-1" d="M 112.1 651.5 Q 112.1 650.3, 112.7 649.7 Q 113.2 649.1, 114.3 649.1 Q 115.3 649.1, 115.9 649.7 Q 116.5 650.3, 116.5 651.5 Q 116.5 652.7, 115.9 653.3 Q 115.3 654.0, 114.3 654.0 Q 113.2 654.0, 112.7 653.3 Q 112.1 652.7, 112.1 651.5 M 114.3 653.4 Q 115.0 653.4, 115.4 652.9 Q 115.8 652.5, 115.8 651.5 Q 115.8 650.6, 115.4 650.1 Q 115.0 649.6, 114.3 649.6 Q 113.6 649.6, 113.2 650.1 Q 112.8 650.5, 112.8 651.5 Q 112.8 652.5, 113.2 652.9 Q 113.6 653.4, 114.3 653.4 " fill="#FF0000"/>
<path class="atom-1" d="M 116.7 649.8 L 118.3 649.8 L 118.3 650.2 L 116.7 650.2 L 116.7 649.8 " fill="#FF0000"/>
<path d="M 90.5,651.5 L 90.5,651.5 L 90.5,651.4 L 90.4,651.4 L 90.4,651.4 L 90.4,651.3 L 90.4,651.3 L 90.4,651.3 L 90.4,651.3 L 90.4,651.2 L 90.3,651.2 L 90.3,651.2 L 90.3,651.2 L 90.3,651.2 L 90.2,651.2 L 90.2,651.2 L 90.2,651.1 L 90.2,651.1 L 90.1,651.1 L 90.1,651.1 L 90.1,651.1 L 90.0,651.2 L 90.0,651.2 L 90.0,651.2 L 90.0,651.2 L 89.9,651.2 L 89.9,651.2 L 89.9,651.2 L 89.9,651.3 L 89.9,651.3 L 89.8,651.3 L 89.8,651.3 L 89.8,651.4 L 89.8,651.4 L 89.8,651.4 L 89.8,651.4 L 89.8,651.5 L 89.8,651.5 L 89.8,651.5 L 89.8,651.6 L 89.8,651.6 L 89.8,651.6 L 89.8,651.6 L 89.8,651.7 L 89.9,651.7 L 89.9,651.7 L 89.9,651.7 L 89.9,651.7 L 89.9,651.8 L 90.0,651.8 L 90.0,651.8 L 90.0,651.8 L 90.0,651.8 L 90.1,651.8 L 90.1,651.8 L 90.1,651.8 L 90.2,651.8 L 90.2,651.8 L 90.2,651.8 L 90.2,651.8 L 90.3,651.8 L 90.3,651.8 L 90.3,651.8 L 90.3,651.7 L 90.4,651.7 L 90.4,651.7 L 90.4,651.7 L 90.4,651.6 L 90.4,651.6 L 90.4,651.6 L 90.4,651.6 L 90.5,651.5 L 90.5,651.5 L 90.5,651.5 L 90.1,651.5 Z" style="fill:#000000;fill-rule:evenodd;fill-opacity:1;stroke:#000000;stroke-width:0.0px;stroke-linecap:butt;stroke-linejoin:miter;stroke-opacity:1;"/>
<path class="atom-0" d="M 354.8 649.1 L 356.4 651.6 Q 356.5 651.9, 356.8 652.3 Q 357.0 652.8, 357.0 652.8 L 357.0 649.1 L 357.7 649.1 L 357.7 653.9 L 357.0 653.9 L 355.3 651.1 Q 355.1 650.8, 354.9 650.4 Q 354.7 650.0, 354.7 649.9 L 354.7 653.9 L 354.0 653.9 L 354.0 649.1 L 354.8 649.1 " fill="#0000FF"/>
<path class="atom-0" d="M 358.2 649.1 L 358.9 649.1 L 358.9 651.1 L 361.3 651.1 L 361.3 649.1 L 362.0 649.1 L 362.0 653.9 L 361.3 653.9 L 361.3 651.7 L 358.9 651.7 L 358.9 653.9 L 358.2 653.9 L 358.2 649.1 " fill="#0000FF"/>
<path class="atom-0" d="M 362.2 649.9 L 363.8 649.9 L 363.8 650.2 L 362.2 650.2 L 362.2 649.9 " fill="#0000FF"/>
<path d="M 365.2,651.5 L 365.2,651.5 L 365.2,651.4 L 365.2,651.4 L 365.2,651.4 L 365.2,651.3 L 365.1,651.3 L 365.1,651.3 L 365.1,651.3 L 365.1,651.2 L 365.1,651.2 L 365.0,651.2 L 365.0,651.2 L 365.0,651.2 L 365.0,651.2 L 364.9,651.2 L 364.9,651.1 L 364.9,651.1 L 364.9,651.1 L 364.8,651.1 L 364.8,651.1 L 364.8,651.2 L 364.7,651.2 L 364.7,651.2 L 364.7,651.2 L 364.7,651.2 L 364.6,651.2 L 364.6,651.2 L 364.6,651.3 L 364.6,651.3 L 364.6,651.3 L 364.5,651.3 L 364.5,651.4 L 364.5,651.4 L 364.5,651.4 L 364.5,651.4 L 364.5,651.5 L 364.5,651.5 L 364.5,651.5 L 364.5,651.6 L 364.5,651.6 L 364.5,651.6 L 364.5,651.6 L 364.6,651.7 L 364.6,651.7 L 364.6,651.7 L 364.6,651.7 L 364.6,651.7 L 364.7,651.8 L 364.7,651.8 L 364.7,651.8 L 364.7,651.8 L 364.8,651.8 L 364.8,651.8 L 364.8,651.8 L 364.9,651.8 L 364.9,651.8 L 364.9,651.8 L 364.9,651.8 L 365.0,651.8 L 365.0,651.8 L 365.0,651.8 L 365.0,651.8 L 365.1,651.7 L 365.1,651.7 L 365.1,651.7 L 365.1,651.7 L 365.1,651.6 L 365.2,651.6 L 365.2,651.6 L 365.2,651.6 L 365.2,651.5 L 365.2,651.5 L 365.2,651.5 L 364.8,651.5 Z" style="fill:#000000;fill-rule:evenodd;fill-opacity:1;stroke:#000000;stroke-width:0.0px;stroke-linecap:butt;stroke-linejoin:miter;stroke-opacity:1;"/>
<path class="bond-0 atom-0 atom-1" d="M 514.6,650.2 L 520.2,653.1" style="fill:none;fill-rule:evenodd;stroke:#33CCCC;stroke-width:2.0px;stroke-linecap:butt;stroke-linejoin:miter;stroke-opacity:1"/>
<path class="bond-0 atom-0 atom-1" d="M 520.2,653.1 L 525.8,656.1" style="fill:none;fill-rule:evenodd;stroke:#FF7F00;stroke-width:2.0px;stroke-linecap:butt;stroke-linejoin:miter;stroke-opacity:1"/>
<path class="bond-1 atom-1 atom-2" d="M 529.6,655.9 L 540.1,649.4" style="fill:none;fill-rule:evenodd;stroke:#FF7F00;stroke-width:2.0px;stroke-linecap:butt;stroke-linejoin:miter;stroke-opacity:1"/>
<path class="bond-2 atom-2 atom-3" d="M 544.0,649.2 L 549.3,652.1" style="fill:none;fill-rule:evenodd;stroke:#FF7F00;stroke-width:2.0px;stroke-linecap:butt;stroke-linejoin:miter;stroke-opacity:1"/>
<path class="bond-2 atom-2 atom-3" d="M 549.3,652.1 L 554.7,655.0" style="fill:none;fill-rule:evenodd;stroke:#0000FF;stroke-width:2.0px;stroke-linecap:butt;stroke-linejoin:miter;stroke-opacity:1"/>
<path class="bond-3 atom-3 atom-4" d="M 559.1,654.7 L 565.2,651.0" style="fill:none;fill-rule:evenodd;stroke:#0000FF;stroke-width:2.0px;stroke-linecap:butt;stroke-linejoin:miter;stroke-opacity:1"/>
<path class="bond-3 atom-3 atom-4" d="M 565.2,651.0 L 571.2,647.2" style="fill:none;fill-rule:evenodd;stroke:#000000;stroke-width:2.0px;stroke-linecap:butt;stroke-linejoin:miter;stroke-opacity:1"/>
<path class="bond-4 atom-4 atom-5" d="M 571.2,647.2 L 577.7,650.7" style="fill:none;fill-rule:evenodd;stroke:#000000;stroke-width:2.0px;stroke-linecap:butt;stroke-linejoin:miter;stroke-opacity:1"/>
<path class="bond-4 atom-4 atom-5" d="M 577.7,650.7 L 584.2,654.1" style="fill:none;fill-rule:evenodd;stroke:#FF7F00;stroke-width:2.0px;stroke-linecap:butt;stroke-linejoin:miter;stroke-opacity:1"/>
<path class="bond-5 atom-5 atom-6" d="M 588.1,653.9 L 593.3,650.7" style="fill:none;fill-rule:evenodd;stroke:#FF7F00;stroke-width:2.0px;stroke-linecap:butt;stroke-linejoin:miter;stroke-opacity:1"/>
<path class="bond-5 atom-5 atom-6" d="M 593.3,650.7 L 598.5,647.4" style="fill:none;fill-rule:evenodd;stroke:#CCCC00;stroke-width:2.0px;stroke-linecap:butt;stroke-linejoin:miter;stroke-opacity:1"/>
<path class="bond-6 atom-6 atom-7" d="M 602.4,647.3 L 607.8,650.1" style="fill:none;fill-rule:evenodd;stroke:#CCCC00;stroke-width:2.0px;stroke-linecap:butt;stroke-linejoin:miter;stroke-opacity:1"/>
<path class="bond-6 atom-6 atom-7" d="M 607.8,650.1 L 613.2,653.0" style="fill:none;fill-rule:evenodd;stroke:#0000FF;stroke-width:2.0px;stroke-linecap:butt;stroke-linejoin:miter;stroke-opacity:1"/>
<path class="bond-7 atom-7 atom-8" d="M 619.9,651.3 L 624.8,648.3" style="fill:none;fill-rule:evenodd;stroke:#0000FF;stroke-width:2.0px;stroke-linecap:butt;stroke-linejoin:miter;stroke-opacity:1"/>
<path class="bond-7 atom-7 atom-8" d="M 624.8,648.3 L 629.7,645.3" style="fill:none;fill-rule:evenodd;stroke:#000000;stroke-width:2.0px;stroke-linecap:butt;stroke-linejoin:miter;stroke-opacity:1"/>
<path class="bond-8 atom-8 atom-9" d="M 629.7,645.3 L 636.0,648.6" style="fill:none;fill-rule:evenodd;stroke:#000000;stroke-width:2.0px;stroke-linecap:butt;stroke-linejoin:miter;stroke-opacity:1"/>
<path class="bond-8 atom-8 atom-9" d="M 636.0,648.6 L 642.3,652.0" style="fill:none;fill-rule:evenodd;stroke:#0000FF;stroke-width:2.0px;stroke-linecap:butt;stroke-linejoin:miter;stroke-opacity:1"/>
<path class="bond-9 atom-9 atom-10" d="M 646.8,651.8 L 651.9,648.6" style="fill:none;fill-rule:evenodd;stroke:#0000FF;stroke-width:2.0px;stroke-linecap:butt;stroke-linejoin:miter;stroke-opacity:1"/>
<path class="bond-9 atom-9 atom-10" d="M 651.9,648.6 L 657.0,645.4" style="fill:none;fill-rule:evenodd;stroke:#CCCC00;stroke-width:2.0px;stroke-linecap:butt;stroke-linejoin:miter;stroke-opacity:1"/>
<path class="bond-10 atom-10 atom-11" d="M 660.8,645.3 L 666.2,648.2" style="fill:none;fill-rule:evenodd;stroke:#CCCC00;stroke-width:2.0px;stroke-linecap:butt;stroke-linejoin:miter;stroke-opacity:1"/>
<path class="bond-10 atom-10 atom-11" d="M 666.2,648.2 L 671.6,651.0" style="fill:none;fill-rule:evenodd;stroke:#0000FF;stroke-width:2.0px;stroke-linecap:butt;stroke-linejoin:miter;stroke-opacity:1"/>
<path class="bond-11 atom-11 atom-12" d="M 676.0,650.8 L 681.1,647.6" style="fill:none;fill-rule:evenodd;stroke:#0000FF;stroke-width:2.0px;stroke-linecap:butt;stroke-linejoin:miter;stroke-opacity:1"/>
<path class="bond-11 atom-11 atom-12" d="M 681.1,647.6 L 686.2,644.5" style="fill:none;fill-rule:evenodd;stroke:#CCCC00;stroke-width:2.0px;stroke-linecap:butt;stroke-linejoin:miter;stroke-opacity:1"/>
<path class="bond-12 atom-11 atom-13" d="M 673.9,655.0 L 674.1,660.7" style="fill:none;fill-rule:evenodd;stroke:#0000FF;stroke-width:2.0px;stroke-linecap:butt;stroke-linejoin:miter;stroke-opacity:1"/>
<path class="bond-12 atom-11 atom-13" d="M 674.1,660.7 L 674.3,666.3" style="fill:none;fill-rule:evenodd;stroke:#A01EEF;stroke-width:2.0px;stroke-linecap:butt;stroke-linejoin:miter;stroke-opacity:1"/>
<path class="atom-0" d="M 511.4 646.8 L 514.2 646.8 L 514.2 647.3 L 512.0 647.3 L 512.0 648.8 L 514.0 648.8 L 514.0 649.3 L 512.0 649.3 L 512.0 651.6 L 511.4 651.6 L 511.4 646.8 " fill="#33CCCC"/>
<path class="atom-1" d="M 527.6 654.7 Q 528.4 654.7, 528.8 655.1 Q 529.2 655.5, 529.2 656.1 Q 529.2 656.8, 528.8 657.2 Q 528.4 657.5, 527.6 657.5 L 526.8 657.5 L 526.8 659.5 L 526.2 659.5 L 526.2 654.7 L 527.6 654.7 M 527.6 657.0 Q 528.0 657.0, 528.3 656.8 Q 528.5 656.6, 528.5 656.1 Q 528.5 655.7, 528.3 655.5 Q 528.0 655.3, 527.6 655.3 L 526.8 655.3 L 526.8 657.0 L 527.6 657.0 " fill="#FF7F00"/>
<path class="atom-2" d="M 541.9 645.8 Q 542.7 645.8, 543.1 646.2 Q 543.5 646.5, 543.5 647.2 Q 543.5 647.9, 543.1 648.3 Q 542.7 648.6, 541.9 648.6 L 541.1 648.6 L 541.1 650.6 L 540.5 650.6 L 540.5 645.8 L 541.9 645.8 M 541.9 648.1 Q 542.4 648.1, 542.6 647.9 Q 542.9 647.6, 542.9 647.2 Q 542.9 646.8, 542.6 646.6 Q 542.4 646.3, 541.9 646.3 L 541.1 646.3 L 541.1 648.1 L 541.9 648.1 " fill="#FF7F00"/>
<path class="atom-3" d="M 555.8 653.8 L 557.4 656.3 Q 557.6 656.5, 557.8 657.0 Q 558.1 657.4, 558.1 657.5 L 558.1 653.8 L 558.7 653.8 L 558.7 658.5 L 558.1 658.5 L 556.4 655.8 Q 556.2 655.4, 556.0 655.1 Q 555.8 654.7, 555.7 654.6 L 555.7 658.5 L 555.1 658.5 L 555.1 653.8 L 555.8 653.8 " fill="#0000FF"/>
<path class="atom-3" d="M 555.0 659.0 L 555.7 659.0 L 555.7 661.0 L 558.1 661.0 L 558.1 659.0 L 558.8 659.0 L 558.8 663.8 L 558.1 663.8 L 558.1 661.6 L 555.7 661.6 L 555.7 663.8 L 555.0 663.8 L 555.0 659.0 " fill="#0000FF"/>
<path class="atom-5" d="M 586.0 652.8 Q 586.8 652.8, 587.2 653.1 Q 587.6 653.5, 587.6 654.2 Q 587.6 654.8, 587.2 655.2 Q 586.8 655.6, 586.0 655.6 L 585.2 655.6 L 585.2 657.5 L 584.6 657.5 L 584.6 652.8 L 586.0 652.8 M 586.0 655.0 Q 586.5 655.0, 586.7 654.8 Q 587.0 654.6, 587.0 654.2 Q 587.0 653.7, 586.7 653.5 Q 586.5 653.3, 586.0 653.3 L 585.2 653.3 L 585.2 655.0 L 586.0 655.0 " fill="#FF7F00"/>
<path class="atom-5" d="M 584.2 658.0 L 584.9 658.0 L 584.9 660.1 L 587.3 660.1 L 587.3 658.0 L 588.0 658.0 L 588.0 662.8 L 587.3 662.8 L 587.3 660.6 L 584.9 660.6 L 584.9 662.8 L 584.2 662.8 L 584.2 658.0 " fill="#FF7F00"/>
<path class="atom-6" d="M 599.1 647.9 Q 599.1 647.9, 599.4 648.0 Q 599.6 648.1, 599.8 648.1 Q 600.1 648.2, 600.3 648.2 Q 600.8 648.2, 601.0 648.0 Q 601.3 647.8, 601.3 647.4 Q 601.3 647.1, 601.2 646.9 Q 601.0 646.8, 600.8 646.7 Q 600.6 646.6, 600.3 646.5 Q 599.9 646.4, 599.6 646.3 Q 599.4 646.1, 599.2 645.9 Q 599.0 645.6, 599.0 645.2 Q 599.0 644.6, 599.4 644.2 Q 599.8 643.8, 600.6 643.8 Q 601.2 643.8, 601.8 644.1 L 601.7 644.6 Q 601.1 644.4, 600.7 644.4 Q 600.2 644.4, 599.9 644.6 Q 599.7 644.8, 599.7 645.1 Q 599.7 645.4, 599.8 645.5 Q 600.0 645.7, 600.1 645.8 Q 600.3 645.9, 600.7 646.0 Q 601.1 646.1, 601.4 646.2 Q 601.6 646.4, 601.8 646.6 Q 602.0 646.9, 602.0 647.4 Q 602.0 648.0, 601.5 648.4 Q 601.1 648.7, 600.4 648.7 Q 599.9 648.7, 599.6 648.6 Q 599.3 648.6, 598.9 648.4 L 599.1 647.9 " fill="#CCCC00"/>
<path class="atom-6" d="M 602.2 644.6 L 603.8 644.6 L 603.8 644.9 L 602.2 644.9 L 602.2 644.6 " fill="#CCCC00"/>
<path class="atom-7" d="M 614.3 651.8 L 615.8 654.3 Q 616.0 654.6, 616.3 655.0 Q 616.5 655.5, 616.5 655.5 L 616.5 651.8 L 617.2 651.8 L 617.2 656.6 L 616.5 656.6 L 614.8 653.8 Q 614.6 653.5, 614.4 653.1 Q 614.2 652.7, 614.1 652.6 L 614.1 656.6 L 613.5 656.6 L 613.5 651.8 L 614.3 651.8 " fill="#0000FF"/>
<path class="atom-7" d="M 617.6 652.6 L 618.4 652.6 L 618.4 651.8 L 618.8 651.8 L 618.8 652.6 L 619.6 652.6 L 619.6 653.0 L 618.8 653.0 L 618.8 653.9 L 618.4 653.9 L 618.4 653.0 L 617.6 653.0 L 617.6 652.6 " fill="#0000FF"/>
<path class="atom-9" d="M 643.5 650.8 L 645.1 653.3 Q 645.2 653.6, 645.5 654.0 Q 645.7 654.5, 645.7 654.5 L 645.7 650.8 L 646.4 650.8 L 646.4 655.6 L 645.7 655.6 L 644.0 652.8 Q 643.8 652.5, 643.6 652.1 Q 643.4 651.7, 643.4 651.6 L 643.4 655.6 L 642.7 655.6 L 642.7 650.8 L 643.5 650.8 " fill="#0000FF"/>
<path class="atom-9" d="M 642.7 656.1 L 643.3 656.1 L 643.3 658.1 L 645.8 658.1 L 645.8 656.1 L 646.4 656.1 L 646.4 660.8 L 645.8 660.8 L 645.8 658.6 L 643.3 658.6 L 643.3 660.8 L 642.7 660.8 L 642.7 656.1 " fill="#0000FF"/>
<path class="atom-10" d="M 657.5 645.9 Q 657.6 645.9, 657.8 646.0 Q 658.0 646.1, 658.3 646.2 Q 658.5 646.2, 658.8 646.2 Q 659.2 646.2, 659.5 646.0 Q 659.8 645.8, 659.8 645.4 Q 659.8 645.1, 659.6 645.0 Q 659.5 644.8, 659.3 644.7 Q 659.1 644.6, 658.7 644.5 Q 658.3 644.4, 658.1 644.3 Q 657.8 644.2, 657.6 643.9 Q 657.5 643.7, 657.5 643.2 Q 657.5 642.6, 657.9 642.3 Q 658.3 641.9, 659.1 641.9 Q 659.6 641.9, 660.3 642.1 L 660.1 642.7 Q 659.5 642.4, 659.1 642.4 Q 658.6 642.4, 658.4 642.6 Q 658.1 642.8, 658.1 643.1 Q 658.1 643.4, 658.3 643.6 Q 658.4 643.7, 658.6 643.8 Q 658.8 643.9, 659.1 644.0 Q 659.5 644.1, 659.8 644.3 Q 660.0 644.4, 660.2 644.7 Q 660.4 644.9, 660.4 645.4 Q 660.4 646.1, 660.0 646.4 Q 659.5 646.8, 658.8 646.8 Q 658.4 646.8, 658.0 646.7 Q 657.7 646.6, 657.4 646.4 L 657.5 645.9 " fill="#CCCC00"/>
<path class="atom-10" d="M 660.8 642.7 L 661.7 642.7 L 661.7 641.8 L 662.0 641.8 L 662.0 642.7 L 662.9 642.7 L 662.9 643.0 L 662.0 643.0 L 662.0 643.9 L 661.7 643.9 L 661.7 643.0 L 660.8 643.0 L 660.8 642.7 " fill="#CCCC00"/>
<path class="atom-11" d="M 672.7 649.8 L 674.3 652.4 Q 674.4 652.6, 674.7 653.1 Q 674.9 653.5, 675.0 653.5 L 675.0 649.8 L 675.6 649.8 L 675.6 654.6 L 674.9 654.6 L 673.3 651.8 Q 673.1 651.5, 672.9 651.1 Q 672.6 650.8, 672.6 650.7 L 672.6 654.6 L 672.0 654.6 L 672.0 649.8 L 672.7 649.8 " fill="#0000FF"/>
<path class="atom-11" d="M 671.9 644.6 L 672.6 644.6 L 672.6 646.6 L 675.0 646.6 L 675.0 644.6 L 675.7 644.6 L 675.7 649.3 L 675.0 649.3 L 675.0 647.1 L 672.6 647.1 L 672.6 649.3 L 671.9 649.3 L 671.9 644.6 " fill="#0000FF"/>
<path class="atom-11" d="M 676.1 645.4 L 676.9 645.4 L 676.9 644.5 L 677.3 644.5 L 677.3 645.4 L 678.1 645.4 L 678.1 645.7 L 677.3 645.7 L 677.3 646.6 L 676.9 646.6 L 676.9 645.7 L 676.1 645.7 L 676.1 645.4 " fill="#0000FF"/>
<path class="atom-12" d="M 686.8 644.9 Q 686.8 644.9, 687.0 645.0 Q 687.3 645.1, 687.5 645.2 Q 687.7 645.2, 688.0 645.2 Q 688.4 645.2, 688.7 645.0 Q 689.0 644.8, 689.0 644.4 Q 689.0 644.2, 688.8 644.0 Q 688.7 643.8, 688.5 643.8 Q 688.3 643.7, 688.0 643.6 Q 687.5 643.4, 687.3 643.3 Q 687.0 643.2, 686.9 642.9 Q 686.7 642.7, 686.7 642.2 Q 686.7 641.6, 687.1 641.3 Q 687.5 640.9, 688.3 640.9 Q 688.9 640.9, 689.5 641.2 L 689.3 641.7 Q 688.8 641.4, 688.3 641.4 Q 687.9 641.4, 687.6 641.6 Q 687.3 641.8, 687.4 642.2 Q 687.4 642.4, 687.5 642.6 Q 687.6 642.7, 687.8 642.8 Q 688.0 642.9, 688.3 643.0 Q 688.8 643.1, 689.0 643.3 Q 689.3 643.4, 689.5 643.7 Q 689.6 644.0, 689.6 644.4 Q 689.6 645.1, 689.2 645.4 Q 688.8 645.8, 688.0 645.8 Q 687.6 645.8, 687.3 645.7 Q 687.0 645.6, 686.6 645.5 L 686.8 644.9 " fill="#CCCC00"/>
<path class="atom-12" d="M 690.0 641.7 L 690.9 641.7 L 690.9 640.8 L 691.3 640.8 L 691.3 641.7 L 692.1 641.7 L 692.1 642.0 L 691.3 642.0 L 691.3 642.9 L 690.9 642.9 L 690.9 642.0 L 690.0 642.0 L 690.0 641.7 " fill="#CCCC00"/>
<path class="atom-13" d="M 674.0 666.7 L 674.7 666.7 L 674.7 671.5 L 674.0 671.5 L 674.0 666.7 " fill="#A01EEF"/>
<path d="M 528.0,660.0 L 528.0,660.0 L 528.0,660.0 L 528.0,659.9 L 528.0,659.9 L 528.0,659.9 L 528.0,659.9 L 528.0,659.8 L 527.9,659.8 L 527.9,659.8 L 527.9,659.8 L 527.9,659.7 L 527.9,659.7 L 527.8,659.7 L 527.8,659.7 L 527.8,659.7 L 527.7,659.7 L 527.7,659.7 L 527.7,659.7 L 527.7,659.7 L 527.6,659.7 L 527.6,659.7 L 527.6,659.7 L 527.5,659.7 L 527.5,659.7 L 527.5,659.7 L 527.5,659.8 L 527.4,659.8 L 527.4,659.8 L 527.4,659.8 L 527.4,659.8 L 527.4,659.9 L 527.4,659.9 L 527.4,659.9 L 527.3,659.9 L 527.3,660.0 L 527.3,660.0 L 527.3,660.0 L 527.3,660.1 L 527.3,660.1 L 527.4,660.1 L 527.4,660.1 L 527.4,660.2 L 527.4,660.2 L 527.4,660.2 L 527.4,660.2 L 527.4,660.3 L 527.5,660.3 L 527.5,660.3 L 527.5,660.3 L 527.5,660.3 L 527.6,660.3 L 527.6,660.3 L 527.6,660.4 L 527.7,660.4 L 527.7,660.4 L 527.7,660.4 L 527.7,660.4 L 527.8,660.3 L 527.8,660.3 L 527.8,660.3 L 527.9,660.3 L 527.9,660.3 L 527.9,660.3 L 527.9,660.3 L 527.9,660.2 L 528.0,660.2 L 528.0,660.2 L 528.0,660.2 L 528.0,660.1 L 528.0,660.1 L 528.0,660.1 L 528.0,660.0 L 528.0,660.0 L 527.7,660.0 Z" style="fill:#000000;fill-rule:evenodd;fill-opacity:1;stroke:#000000;stroke-width:0.0px;stroke-linecap:butt;stroke-linejoin:miter;stroke-opacity:1;"/>
<path d="M 542.3,645.3 L 542.3,645.3 L 542.3,645.2 L 542.3,645.2 L 542.3,645.2 L 542.3,645.2 L 542.3,645.1 L 542.3,645.1 L 542.3,645.1 L 542.2,645.1 L 542.2,645.0 L 542.2,645.0 L 542.2,645.0 L 542.2,645.0 L 542.1,645.0 L 542.1,645.0 L 542.1,645.0 L 542.0,645.0 L 542.0,645.0 L 542.0,645.0 L 542.0,645.0 L 541.9,645.0 L 541.9,645.0 L 541.9,645.0 L 541.8,645.0 L 541.8,645.0 L 541.8,645.0 L 541.8,645.1 L 541.8,645.1 L 541.7,645.1 L 541.7,645.1 L 541.7,645.1 L 541.7,645.2 L 541.7,645.2 L 541.7,645.2 L 541.7,645.3 L 541.7,645.3 L 541.7,645.3 L 541.7,645.3 L 541.7,645.4 L 541.7,645.4 L 541.7,645.4 L 541.7,645.5 L 541.7,645.5 L 541.7,645.5 L 541.8,645.5 L 541.8,645.5 L 541.8,645.6 L 541.8,645.6 L 541.8,645.6 L 541.9,645.6 L 541.9,645.6 L 541.9,645.6 L 542.0,645.6 L 542.0,645.6 L 542.0,645.6 L 542.0,645.6 L 542.1,645.6 L 542.1,645.6 L 542.1,645.6 L 542.2,645.6 L 542.2,645.6 L 542.2,645.6 L 542.2,645.6 L 542.2,645.5 L 542.3,645.5 L 542.3,645.5 L 542.3,645.5 L 542.3,645.4 L 542.3,645.4 L 542.3,645.4 L 542.3,645.4 L 542.3,645.3 L 542.3,645.3 L 542.0,645.3 Z" style="fill:#000000;fill-rule:evenodd;fill-opacity:1;stroke:#000000;stroke-width:0.0px;stroke-linecap:butt;stroke-linejoin:miter;stroke-opacity:1;"/>
<path d="M 572.2,645.7 L 572.2,645.7 L 572.2,645.6 L 572.2,645.6 L 572.2,645.6 L 572.2,645.6 L 572.2,645.5 L 572.2,645.5 L 572.2,645.5 L 572.1,645.5 L 572.1,645.4 L 572.1,645.4 L 572.1,645.4 L 572.0,645.4 L 572.0,645.4 L 572.0,645.4 L 572.0,645.4 L 571.9,645.4 L 571.9,645.4 L 571.9,645.4 L 571.9,645.4 L 571.8,645.4 L 571.8,645.4 L 571.8,645.4 L 571.7,645.4 L 571.7,645.4 L 571.7,645.4 L 571.7,645.4 L 571.6,645.5 L 571.6,645.5 L 571.6,645.5 L 571.6,645.5 L 571.6,645.6 L 571.6,645.6 L 571.6,645.6 L 571.6,645.7 L 571.6,645.7 L 571.6,645.7 L 571.6,645.7 L 571.6,645.8 L 571.6,645.8 L 571.6,645.8 L 571.6,645.8 L 571.6,645.9 L 571.6,645.9 L 571.6,645.9 L 571.7,645.9 L 571.7,646.0 L 571.7,646.0 L 571.7,646.0 L 571.8,646.0 L 571.8,646.0 L 571.8,646.0 L 571.9,646.0 L 571.9,646.0 L 571.9,646.0 L 571.9,646.0 L 572.0,646.0 L 572.0,646.0 L 572.0,646.0 L 572.0,646.0 L 572.1,646.0 L 572.1,646.0 L 572.1,646.0 L 572.1,645.9 L 572.2,645.9 L 572.2,645.9 L 572.2,645.9 L 572.2,645.8 L 572.2,645.8 L 572.2,645.8 L 572.2,645.8 L 572.2,645.7 L 572.2,645.7 L 571.9,645.7 Z" style="fill:#000000;fill-rule:evenodd;fill-opacity:1;stroke:#000000;stroke-width:0.0px;stroke-linecap:butt;stroke-linejoin:miter;stroke-opacity:1;"/>
<path d="M 570.9,645.7 L 570.9,645.7 L 570.9,645.6 L 570.9,645.6 L 570.9,645.6 L 570.9,645.6 L 570.8,645.5 L 570.8,645.5 L 570.8,645.5 L 570.8,645.5 L 570.8,645.4 L 570.7,645.4 L 570.7,645.4 L 570.7,645.4 L 570.7,645.4 L 570.6,645.4 L 570.6,645.4 L 570.6,645.4 L 570.6,645.4 L 570.5,645.4 L 570.5,645.4 L 570.5,645.4 L 570.4,645.4 L 570.4,645.4 L 570.4,645.4 L 570.4,645.4 L 570.3,645.4 L 570.3,645.4 L 570.3,645.5 L 570.3,645.5 L 570.3,645.5 L 570.2,645.5 L 570.2,645.6 L 570.2,645.6 L 570.2,645.6 L 570.2,645.7 L 570.2,645.7 L 570.2,645.7 L 570.2,645.7 L 570.2,645.8 L 570.2,645.8 L 570.2,645.8 L 570.2,645.8 L 570.3,645.9 L 570.3,645.9 L 570.3,645.9 L 570.3,645.9 L 570.3,646.0 L 570.4,646.0 L 570.4,646.0 L 570.4,646.0 L 570.4,646.0 L 570.5,646.0 L 570.5,646.0 L 570.5,646.0 L 570.6,646.0 L 570.6,646.0 L 570.6,646.0 L 570.6,646.0 L 570.7,646.0 L 570.7,646.0 L 570.7,646.0 L 570.7,646.0 L 570.8,646.0 L 570.8,645.9 L 570.8,645.9 L 570.8,645.9 L 570.8,645.9 L 570.9,645.8 L 570.9,645.8 L 570.9,645.8 L 570.9,645.8 L 570.9,645.7 L 570.9,645.7 L 570.6,645.7 Z" style="fill:#000000;fill-rule:evenodd;fill-opacity:1;stroke:#000000;stroke-width:0.0px;stroke-linecap:butt;stroke-linejoin:miter;stroke-opacity:1;"/>
<path d="M 600.8,643.3 L 600.8,643.3 L 600.8,643.3 L 600.8,643.3 L 600.8,643.2 L 600.8,643.2 L 600.7,643.2 L 600.7,643.2 L 600.7,643.1 L 600.7,643.1 L 600.7,643.1 L 600.6,643.1 L 600.6,643.1 L 600.6,643.0 L 600.6,643.0 L 600.5,643.0 L 600.5,643.0 L 600.5,643.0 L 600.5,643.0 L 600.4,643.0 L 600.4,643.0 L 600.4,643.0 L 600.3,643.0 L 600.3,643.0 L 600.3,643.0 L 600.3,643.1 L 600.2,643.1 L 600.2,643.1 L 600.2,643.1 L 600.2,643.1 L 600.2,643.2 L 600.1,643.2 L 600.1,643.2 L 600.1,643.2 L 600.1,643.3 L 600.1,643.3 L 600.1,643.3 L 600.1,643.4 L 600.1,643.4 L 600.1,643.4 L 600.1,643.4 L 600.1,643.5 L 600.1,643.5 L 600.2,643.5 L 600.2,643.5 L 600.2,643.6 L 600.2,643.6 L 600.2,643.6 L 600.3,643.6 L 600.3,643.6 L 600.3,643.7 L 600.3,643.7 L 600.4,643.7 L 600.4,643.7 L 600.4,643.7 L 600.5,643.7 L 600.5,643.7 L 600.5,643.7 L 600.5,643.7 L 600.6,643.7 L 600.6,643.6 L 600.6,643.6 L 600.6,643.6 L 600.7,643.6 L 600.7,643.6 L 600.7,643.6 L 600.7,643.5 L 600.7,643.5 L 600.8,643.5 L 600.8,643.5 L 600.8,643.4 L 600.8,643.4 L 600.8,643.4 L 600.8,643.3 L 600.4,643.3 Z" style="fill:#000000;fill-rule:evenodd;fill-opacity:1;stroke:#000000;stroke-width:0.0px;stroke-linecap:butt;stroke-linejoin:miter;stroke-opacity:1;"/>
<path d="M 616.4,657.1 L 616.4,657.0 L 616.3,657.0 L 616.3,657.0 L 616.3,657.0 L 616.3,656.9 L 616.3,656.9 L 616.3,656.9 L 616.3,656.9 L 616.3,656.8 L 616.2,656.8 L 616.2,656.8 L 616.2,656.8 L 616.2,656.8 L 616.1,656.8 L 616.1,656.7 L 616.1,656.7 L 616.1,656.7 L 616.0,656.7 L 616.0,656.7 L 616.0,656.7 L 615.9,656.7 L 615.9,656.8 L 615.9,656.8 L 615.9,656.8 L 615.8,656.8 L 615.8,656.8 L 615.8,656.8 L 615.8,656.8 L 615.7,656.9 L 615.7,656.9 L 615.7,656.9 L 615.7,656.9 L 615.7,657.0 L 615.7,657.0 L 615.7,657.0 L 615.7,657.1 L 615.7,657.1 L 615.7,657.1 L 615.7,657.1 L 615.7,657.2 L 615.7,657.2 L 615.7,657.2 L 615.7,657.3 L 615.7,657.3 L 615.8,657.3 L 615.8,657.3 L 615.8,657.3 L 615.8,657.4 L 615.9,657.4 L 615.9,657.4 L 615.9,657.4 L 615.9,657.4 L 616.0,657.4 L 616.0,657.4 L 616.0,657.4 L 616.1,657.4 L 616.1,657.4 L 616.1,657.4 L 616.1,657.4 L 616.2,657.4 L 616.2,657.4 L 616.2,657.3 L 616.2,657.3 L 616.3,657.3 L 616.3,657.3 L 616.3,657.3 L 616.3,657.2 L 616.3,657.2 L 616.3,657.2 L 616.3,657.2 L 616.3,657.1 L 616.4,657.1 L 616.4,657.1 L 616.0,657.1 Z" style="fill:#000000;fill-rule:evenodd;fill-opacity:1;stroke:#000000;stroke-width:0.0px;stroke-linecap:butt;stroke-linejoin:miter;stroke-opacity:1;"/>
<path d="M 615.0,657.1 L 615.0,657.0 L 615.0,657.0 L 615.0,657.0 L 615.0,657.0 L 615.0,656.9 L 615.0,656.9 L 614.9,656.9 L 614.9,656.9 L 614.9,656.8 L 614.9,656.8 L 614.9,656.8 L 614.8,656.8 L 614.8,656.8 L 614.8,656.8 L 614.8,656.7 L 614.7,656.7 L 614.7,656.7 L 614.7,656.7 L 614.6,656.7 L 614.6,656.7 L 614.6,656.7 L 614.6,656.8 L 614.5,656.8 L 614.5,656.8 L 614.5,656.8 L 614.5,656.8 L 614.4,656.8 L 614.4,656.8 L 614.4,656.9 L 614.4,656.9 L 614.4,656.9 L 614.4,656.9 L 614.3,657.0 L 614.3,657.0 L 614.3,657.0 L 614.3,657.1 L 614.3,657.1 L 614.3,657.1 L 614.3,657.1 L 614.3,657.2 L 614.4,657.2 L 614.4,657.2 L 614.4,657.3 L 614.4,657.3 L 614.4,657.3 L 614.4,657.3 L 614.5,657.3 L 614.5,657.4 L 614.5,657.4 L 614.5,657.4 L 614.6,657.4 L 614.6,657.4 L 614.6,657.4 L 614.6,657.4 L 614.7,657.4 L 614.7,657.4 L 614.7,657.4 L 614.8,657.4 L 614.8,657.4 L 614.8,657.4 L 614.8,657.4 L 614.9,657.3 L 614.9,657.3 L 614.9,657.3 L 614.9,657.3 L 614.9,657.3 L 615.0,657.2 L 615.0,657.2 L 615.0,657.2 L 615.0,657.2 L 615.0,657.1 L 615.0,657.1 L 615.0,657.1 L 614.7,657.1 Z" style="fill:#000000;fill-rule:evenodd;fill-opacity:1;stroke:#000000;stroke-width:0.0px;stroke-linecap:butt;stroke-linejoin:miter;stroke-opacity:1;"/>
<path d="M 630.0,643.7 L 630.0,643.7 L 630.0,643.7 L 630.0,643.6 L 630.0,643.6 L 630.0,643.6 L 630.0,643.6 L 629.9,643.5 L 629.9,643.5 L 629.9,643.5 L 629.9,643.5 L 629.9,643.5 L 629.8,643.4 L 629.8,643.4 L 629.8,643.4 L 629.8,643.4 L 629.7,643.4 L 629.7,643.4 L 629.7,643.4 L 629.6,643.4 L 629.6,643.4 L 629.6,643.4 L 629.6,643.4 L 629.5,643.4 L 629.5,643.4 L 629.5,643.4 L 629.5,643.5 L 629.4,643.5 L 629.4,643.5 L 629.4,643.5 L 629.4,643.6 L 629.4,643.6 L 629.4,643.6 L 629.3,643.6 L 629.3,643.7 L 629.3,643.7 L 629.3,643.7 L 629.3,643.7 L 629.3,643.8 L 629.3,643.8 L 629.3,643.8 L 629.4,643.9 L 629.4,643.9 L 629.4,643.9 L 629.4,643.9 L 629.4,644.0 L 629.4,644.0 L 629.5,644.0 L 629.5,644.0 L 629.5,644.0 L 629.5,644.0 L 629.6,644.1 L 629.6,644.1 L 629.6,644.1 L 629.6,644.1 L 629.7,644.1 L 629.7,644.1 L 629.7,644.1 L 629.8,644.1 L 629.8,644.0 L 629.8,644.0 L 629.8,644.0 L 629.9,644.0 L 629.9,644.0 L 629.9,644.0 L 629.9,643.9 L 629.9,643.9 L 630.0,643.9 L 630.0,643.9 L 630.0,643.8 L 630.0,643.8 L 630.0,643.8 L 630.0,643.8 L 630.0,643.7 L 629.7,643.7 Z" style="fill:#000000;fill-rule:evenodd;fill-opacity:1;stroke:#000000;stroke-width:0.0px;stroke-linecap:butt;stroke-linejoin:miter;stroke-opacity:1;"/>
<path d="M 659.2,641.3 L 659.2,641.3 L 659.2,641.2 L 659.2,641.2 L 659.2,641.2 L 659.2,641.1 L 659.2,641.1 L 659.2,641.1 L 659.1,641.1 L 659.1,641.0 L 659.1,641.0 L 659.1,641.0 L 659.1,641.0 L 659.0,641.0 L 659.0,641.0 L 659.0,641.0 L 659.0,641.0 L 658.9,640.9 L 658.9,640.9 L 658.9,640.9 L 658.8,640.9 L 658.8,641.0 L 658.8,641.0 L 658.8,641.0 L 658.7,641.0 L 658.7,641.0 L 658.7,641.0 L 658.7,641.0 L 658.6,641.1 L 658.6,641.1 L 658.6,641.1 L 658.6,641.1 L 658.6,641.2 L 658.6,641.2 L 658.6,641.2 L 658.6,641.2 L 658.5,641.3 L 658.5,641.3 L 658.6,641.3 L 658.6,641.4 L 658.6,641.4 L 658.6,641.4 L 658.6,641.4 L 658.6,641.5 L 658.6,641.5 L 658.6,641.5 L 658.7,641.5 L 658.7,641.5 L 658.7,641.6 L 658.7,641.6 L 658.8,641.6 L 658.8,641.6 L 658.8,641.6 L 658.8,641.6 L 658.9,641.6 L 658.9,641.6 L 658.9,641.6 L 659.0,641.6 L 659.0,641.6 L 659.0,641.6 L 659.0,641.6 L 659.1,641.6 L 659.1,641.6 L 659.1,641.5 L 659.1,641.5 L 659.1,641.5 L 659.2,641.5 L 659.2,641.4 L 659.2,641.4 L 659.2,641.4 L 659.2,641.4 L 659.2,641.3 L 659.2,641.3 L 659.2,641.3 L 658.9,641.3 Z" style="fill:#000000;fill-rule:evenodd;fill-opacity:1;stroke:#000000;stroke-width:0.0px;stroke-linecap:butt;stroke-linejoin:miter;stroke-opacity:1;"/>
<path d="M 693.5,642.6 L 693.5,642.6 L 693.5,642.6 L 693.5,642.5 L 693.5,642.5 L 693.4,642.5 L 693.4,642.4 L 693.4,642.4 L 693.4,642.4 L 693.4,642.4 L 693.4,642.4 L 693.3,642.3 L 693.3,642.3 L 693.3,642.3 L 693.3,642.3 L 693.2,642.3 L 693.2,642.3 L 693.2,642.3 L 693.1,642.3 L 693.1,642.3 L 693.1,642.3 L 693.1,642.3 L 693.0,642.3 L 693.0,642.3 L 693.0,642.3 L 692.9,642.3 L 692.9,642.3 L 692.9,642.4 L 692.9,642.4 L 692.9,642.4 L 692.8,642.4 L 692.8,642.5 L 692.8,642.5 L 692.8,642.5 L 692.8,642.5 L 692.8,642.6 L 692.8,642.6 L 692.8,642.6 L 692.8,642.7 L 692.8,642.7 L 692.8,642.7 L 692.8,642.7 L 692.8,642.8 L 692.8,642.8 L 692.9,642.8 L 692.9,642.8 L 692.9,642.9 L 692.9,642.9 L 692.9,642.9 L 693.0,642.9 L 693.0,642.9 L 693.0,642.9 L 693.1,642.9 L 693.1,642.9 L 693.1,642.9 L 693.1,642.9 L 693.2,642.9 L 693.2,642.9 L 693.2,642.9 L 693.3,642.9 L 693.3,642.9 L 693.3,642.9 L 693.3,642.9 L 693.4,642.9 L 693.4,642.8 L 693.4,642.8 L 693.4,642.8 L 693.4,642.8 L 693.4,642.8 L 693.5,642.7 L 693.5,642.7 L 693.5,642.7 L 693.5,642.6 L 693.5,642.6 L 693.1,642.6 Z" style="fill:#000000;fill-rule:evenodd;fill-opacity:1;stroke:#000000;stroke-width:0.0px;stroke-linecap:butt;stroke-linejoin:miter;stroke-opacity:1;"/>
<path d="M 693.5,644.0 L 693.5,643.9 L 693.5,643.9 L 693.5,643.9 L 693.5,643.8 L 693.4,643.8 L 693.4,643.8 L 693.4,643.8 L 693.4,643.7 L 693.4,643.7 L 693.4,643.7 L 693.3,643.7 L 693.3,643.7 L 693.3,643.7 L 693.3,643.6 L 693.2,643.6 L 693.2,643.6 L 693.2,643.6 L 693.1,643.6 L 693.1,643.6 L 693.1,643.6 L 693.1,643.6 L 693.0,643.6 L 693.0,643.7 L 693.0,643.7 L 692.9,643.7 L 692.9,643.7 L 692.9,643.7 L 692.9,643.7 L 692.9,643.8 L 692.8,643.8 L 692.8,643.8 L 692.8,643.8 L 692.8,643.9 L 692.8,643.9 L 692.8,643.9 L 692.8,643.9 L 692.8,644.0 L 692.8,644.0 L 692.8,644.0 L 692.8,644.1 L 692.8,644.1 L 692.8,644.1 L 692.8,644.1 L 692.9,644.2 L 692.9,644.2 L 692.9,644.2 L 692.9,644.2 L 692.9,644.2 L 693.0,644.3 L 693.0,644.3 L 693.0,644.3 L 693.1,644.3 L 693.1,644.3 L 693.1,644.3 L 693.1,644.3 L 693.2,644.3 L 693.2,644.3 L 693.2,644.3 L 693.3,644.3 L 693.3,644.3 L 693.3,644.3 L 693.3,644.2 L 693.4,644.2 L 693.4,644.2 L 693.4,644.2 L 693.4,644.2 L 693.4,644.1 L 693.4,644.1 L 693.5,644.1 L 693.5,644.0 L 693.5,644.0 L 693.5,644.0 L 693.5,644.0 L 693.1,644.0 Z" style="fill:#000000;fill-rule:evenodd;fill-opacity:1;stroke:#000000;stroke-width:0.0px;stroke-linecap:butt;stroke-linejoin:miter;stroke-opacity:1;"/>
</svg>