<svg xmlns="http://www.w3.org/2000/svg" xmlns:rdkit="http://www.rdkit.org/xml" xmlns:xlink="http://www.w3.org/1999/xlink" version="1.1" baseProfile="full" xml:space="preserve" width="750px" height="750px" viewBox="0 0 750 750">
<!-- END OF HEADER -->
<rect style="opacity:1.0;fill:#FFFFFF;stroke:none" width="750.0" height="750.0" x="0.0" y="0.0"> </rect>
<rect style="opacity:1.0;fill:#FFFFFF;stroke:none" width="750.0" height="750.0" x="0.0" y="0.0"> </rect>
<rect style="opacity:1.0;fill:#FFFFFF;stroke:none" width="750.0" height="750.0" x="0.0" y="0.0"> </rect>
<rect style="opacity:1.0;fill:#FFFFFF;stroke:none" width="750.0" height="750.0" x="0.0" y="0.0"> </rect>
<rect style="opacity:1.0;fill:#FFFFFF;stroke:none" width="750.0" height="750.0" x="0.0" y="0.0"> </rect>
<rect style="opacity:1.0;fill:#FFFFFF;stroke:none" width="750.0" height="750.0" x="0.0" y="0.0"> </rect>
<rect style="opacity:1.0;fill:#FFFFFF;stroke:none" width="750.0" height="750.0" x="0.0" y="0.0"> </rect>
<rect style="opacity:1.0;fill:#FFFFFF;stroke:none" width="750.0" height="750.0" x="0.0" y="0.0"> </rect>
<rect style="opacity:1.0;fill:#FFFFFF;stroke:none" width="750.0" height="750.0" x="0.0" y="0.0"> </rect>
<rect style="opacity:1.0;fill:#FFFFFF;stroke:none" width="750.0" height="750.0" x="0.0" y="0.0"> </rect>
<path class="bond-0 atom-0 atom-1" d="M 103.0,126.3 L 96.3,130.2" style="fill:none;fill-rule:evenodd;stroke:#0000FF;stroke-width:2.0px;stroke-linecap:butt;stroke-linejoin:miter;stroke-opacity:1"/>
<path class="bond-0 atom-0 atom-1" d="M 96.3,130.2 L 89.6,134.1" style="fill:none;fill-rule:evenodd;stroke:#000000;stroke-width:2.0px;stroke-linecap:butt;stroke-linejoin:miter;stroke-opacity:1"/>
<path class="bond-1 atom-1 atom-2" d="M 90.5,132.5 L 83.8,128.6" style="fill:none;fill-rule:evenodd;stroke:#000000;stroke-width:2.0px;stroke-linecap:butt;stroke-linejoin:miter;stroke-opacity:1"/>
<path class="bond-1 atom-1 atom-2" d="M 83.8,128.6 L 77.0,124.8" style="fill:none;fill-rule:evenodd;stroke:#0000FF;stroke-width:2.0px;stroke-linecap:butt;stroke-linejoin:miter;stroke-opacity:1"/>
<path class="bond-1 atom-1 atom-2" d="M 88.6,135.7 L 81.9,131.8" style="fill:none;fill-rule:evenodd;stroke:#000000;stroke-width:2.0px;stroke-linecap:butt;stroke-linejoin:miter;stroke-opacity:1"/>
<path class="bond-1 atom-1 atom-2" d="M 81.9,131.8 L 75.2,127.9" style="fill:none;fill-rule:evenodd;stroke:#0000FF;stroke-width:2.0px;stroke-linecap:butt;stroke-linejoin:miter;stroke-opacity:1"/>
<path class="atom-0" d="M 104.3 122.4 L 106.0 125.1 Q 106.1 125.4, 106.4 125.9 Q 106.7 126.4, 106.7 126.4 L 106.7 122.4 L 107.4 122.4 L 107.4 127.5 L 106.7 127.5 L 104.8 124.5 Q 104.6 124.2, 104.4 123.8 Q 104.2 123.4, 104.1 123.3 L 104.1 127.5 L 103.4 127.5 L 103.4 122.4 L 104.3 122.4 " fill="#0000FF"/>
<path class="atom-0" d="M 108.0 122.4 L 108.7 122.4 L 108.7 124.6 L 111.3 124.6 L 111.3 122.4 L 112.0 122.4 L 112.0 127.5 L 111.3 127.5 L 111.3 125.1 L 108.7 125.1 L 108.7 127.5 L 108.0 127.5 L 108.0 122.4 " fill="#0000FF"/>
<path class="atom-0" d="M 112.5 123.3 L 113.4 123.3 L 113.4 122.3 L 113.8 122.3 L 113.8 123.3 L 114.7 123.3 L 114.7 123.6 L 113.8 123.6 L 113.8 124.6 L 113.4 124.6 L 113.4 123.6 L 112.5 123.6 L 112.5 123.3 " fill="#0000FF"/>
<path class="atom-2" d="M 72.6 122.4 L 74.3 125.1 Q 74.4 125.4, 74.7 125.9 Q 75.0 126.4, 75.0 126.4 L 75.0 122.4 L 75.7 122.4 L 75.7 127.5 L 75.0 127.5 L 73.1 124.5 Q 72.9 124.2, 72.7 123.8 Q 72.5 123.4, 72.4 123.3 L 72.4 127.5 L 71.7 127.5 L 71.7 122.4 L 72.6 122.4 " fill="#0000FF"/>
<path class="atom-2" d="M 75.9 123.2 L 77.7 123.2 L 77.7 123.6 L 75.9 123.6 L 75.9 123.2 " fill="#0000FF"/>
<path d="M 116.2,124.2 L 116.2,124.2 L 116.2,124.2 L 116.2,124.1 L 116.2,124.1 L 116.2,124.1 L 116.2,124.0 L 116.1,124.0 L 116.1,124.0 L 116.1,124.0 L 116.1,123.9 L 116.1,123.9 L 116.0,123.9 L 116.0,123.9 L 116.0,123.9 L 115.9,123.9 L 115.9,123.9 L 115.9,123.9 L 115.8,123.9 L 115.8,123.9 L 115.8,123.9 L 115.8,123.9 L 115.7,123.9 L 115.7,123.9 L 115.7,123.9 L 115.6,123.9 L 115.6,123.9 L 115.6,124.0 L 115.6,124.0 L 115.5,124.0 L 115.5,124.0 L 115.5,124.1 L 115.5,124.1 L 115.5,124.1 L 115.5,124.1 L 115.5,124.2 L 115.5,124.2 L 115.5,124.2 L 115.5,124.3 L 115.5,124.3 L 115.5,124.3 L 115.5,124.4 L 115.5,124.4 L 115.5,124.4 L 115.5,124.4 L 115.6,124.5 L 115.6,124.5 L 115.6,124.5 L 115.6,124.5 L 115.7,124.5 L 115.7,124.6 L 115.7,124.6 L 115.8,124.6 L 115.8,124.6 L 115.8,124.6 L 115.8,124.6 L 115.9,124.6 L 115.9,124.6 L 115.9,124.6 L 116.0,124.6 L 116.0,124.5 L 116.0,124.5 L 116.1,124.5 L 116.1,124.5 L 116.1,124.5 L 116.1,124.5 L 116.1,124.4 L 116.2,124.4 L 116.2,124.4 L 116.2,124.3 L 116.2,124.3 L 116.2,124.3 L 116.2,124.2 L 116.2,124.2 L 115.8,124.2 Z" style="fill:#000000;fill-rule:evenodd;fill-opacity:1;stroke:#000000;stroke-width:0.0px;stroke-linecap:butt;stroke-linejoin:miter;stroke-opacity:1;"/>
<path d="M 116.2,125.7 L 116.2,125.7 L 116.2,125.6 L 116.2,125.6 L 116.2,125.6 L 116.2,125.5 L 116.2,125.5 L 116.1,125.5 L 116.1,125.4 L 116.1,125.4 L 116.1,125.4 L 116.1,125.4 L 116.0,125.4 L 116.0,125.4 L 116.0,125.3 L 115.9,125.3 L 115.9,125.3 L 115.9,125.3 L 115.8,125.3 L 115.8,125.3 L 115.8,125.3 L 115.8,125.3 L 115.7,125.3 L 115.7,125.3 L 115.7,125.4 L 115.6,125.4 L 115.6,125.4 L 115.6,125.4 L 115.6,125.4 L 115.5,125.5 L 115.5,125.5 L 115.5,125.5 L 115.5,125.5 L 115.5,125.6 L 115.5,125.6 L 115.5,125.6 L 115.5,125.7 L 115.5,125.7 L 115.5,125.7 L 115.5,125.8 L 115.5,125.8 L 115.5,125.8 L 115.5,125.8 L 115.5,125.9 L 115.5,125.9 L 115.6,125.9 L 115.6,125.9 L 115.6,126.0 L 115.6,126.0 L 115.7,126.0 L 115.7,126.0 L 115.7,126.0 L 115.8,126.0 L 115.8,126.0 L 115.8,126.0 L 115.8,126.0 L 115.9,126.0 L 115.9,126.0 L 115.9,126.0 L 116.0,126.0 L 116.0,126.0 L 116.0,126.0 L 116.1,126.0 L 116.1,126.0 L 116.1,125.9 L 116.1,125.9 L 116.1,125.9 L 116.2,125.9 L 116.2,125.8 L 116.2,125.8 L 116.2,125.8 L 116.2,125.7 L 116.2,125.7 L 116.2,125.7 L 115.8,125.7 Z" style="fill:#000000;fill-rule:evenodd;fill-opacity:1;stroke:#000000;stroke-width:0.0px;stroke-linecap:butt;stroke-linejoin:miter;stroke-opacity:1;"/>
<path class="bond-0 atom-0 atom-1" d="M 289.1,128.3 L 297.8,123.6" style="fill:none;fill-rule:evenodd;stroke:#0000FF;stroke-width:2.0px;stroke-linecap:butt;stroke-linejoin:miter;stroke-opacity:1"/>
<path class="bond-1 atom-1 atom-2" d="M 302.5,123.8 L 309.1,127.9" style="fill:none;fill-rule:evenodd;stroke:#0000FF;stroke-width:2.0px;stroke-linecap:butt;stroke-linejoin:miter;stroke-opacity:1"/>
<path class="bond-1 atom-1 atom-2" d="M 309.1,127.9 L 315.7,131.9" style="fill:none;fill-rule:evenodd;stroke:#000000;stroke-width:2.0px;stroke-linecap:butt;stroke-linejoin:miter;stroke-opacity:1"/>
<path class="bond-2 atom-2 atom-3" d="M 315.7,131.9 L 331.8,123.2" style="fill:none;fill-rule:evenodd;stroke:#000000;stroke-width:2.0px;stroke-linecap:butt;stroke-linejoin:miter;stroke-opacity:1"/>
<path class="bond-2 atom-2 atom-3" d="M 316.3,127.4 L 327.6,121.3" style="fill:none;fill-rule:evenodd;stroke:#000000;stroke-width:2.0px;stroke-linecap:butt;stroke-linejoin:miter;stroke-opacity:1"/>
<path class="bond-3 atom-3 atom-4" d="M 331.8,123.2 L 338.3,127.3" style="fill:none;fill-rule:evenodd;stroke:#000000;stroke-width:2.0px;stroke-linecap:butt;stroke-linejoin:miter;stroke-opacity:1"/>
<path class="bond-3 atom-3 atom-4" d="M 338.3,127.3 L 344.9,131.3" style="fill:none;fill-rule:evenodd;stroke:#0000FF;stroke-width:2.0px;stroke-linecap:butt;stroke-linejoin:miter;stroke-opacity:1"/>
<path class="bond-4 atom-4 atom-5" d="M 349.8,131.5 L 361.1,125.4" style="fill:none;fill-rule:evenodd;stroke:#0000FF;stroke-width:2.0px;stroke-linecap:butt;stroke-linejoin:miter;stroke-opacity:1"/>
<path class="bond-5 atom-5 atom-6" d="M 365.9,125.6 L 376.7,132.2" style="fill:none;fill-rule:evenodd;stroke:#0000FF;stroke-width:2.0px;stroke-linecap:butt;stroke-linejoin:miter;stroke-opacity:1"/>
<path class="bond-6 atom-6 atom-7" d="M 384.2,130.9 L 389.3,128.1" style="fill:none;fill-rule:evenodd;stroke:#0000FF;stroke-width:2.0px;stroke-linecap:butt;stroke-linejoin:miter;stroke-opacity:1"/>
<path class="bond-6 atom-6 atom-7" d="M 389.3,128.1 L 394.5,125.3" style="fill:none;fill-rule:evenodd;stroke:#A01EEF;stroke-width:2.0px;stroke-linecap:butt;stroke-linejoin:miter;stroke-opacity:1"/>
<path class="atom-0" d="M 274.8 128.4 L 275.5 128.4 L 275.5 130.6 L 278.2 130.6 L 278.2 128.4 L 278.9 128.4 L 278.9 133.6 L 278.2 133.6 L 278.2 131.2 L 275.5 131.2 L 275.5 133.6 L 274.8 133.6 L 274.8 128.4 " fill="#0000FF"/>
<path class="atom-0" d="M 280.7 134.4 Q 281.1 134.5, 281.2 134.7 Q 281.4 134.9, 281.4 135.3 Q 281.4 135.6, 281.3 135.8 Q 281.1 136.0, 280.8 136.1 Q 280.6 136.3, 280.2 136.3 Q 279.9 136.3, 279.6 136.1 Q 279.3 136.0, 279.1 135.7 L 279.4 135.5 Q 279.6 135.7, 279.8 135.8 Q 279.9 135.9, 280.2 135.9 Q 280.5 135.9, 280.7 135.7 Q 280.9 135.5, 280.9 135.3 Q 280.9 134.9, 280.7 134.8 Q 280.5 134.6, 280.1 134.6 L 279.9 134.6 L 279.9 134.3 L 280.1 134.3 Q 280.5 134.3, 280.7 134.1 Q 280.8 133.9, 280.8 133.6 Q 280.8 133.4, 280.7 133.3 Q 280.5 133.1, 280.2 133.1 Q 280.0 133.1, 279.8 133.2 Q 279.6 133.3, 279.5 133.6 L 279.1 133.4 Q 279.3 133.1, 279.5 132.9 Q 279.8 132.7, 280.2 132.7 Q 280.7 132.7, 281.0 133.0 Q 281.3 133.2, 281.3 133.6 Q 281.3 133.9, 281.2 134.1 Q 281.0 134.3, 280.7 134.4 " fill="#0000FF"/>
<path class="atom-0" d="M 282.8 128.4 L 284.5 131.2 Q 284.7 131.5, 285.0 131.9 Q 285.2 132.4, 285.3 132.5 L 285.3 128.4 L 285.9 128.4 L 285.9 133.6 L 285.2 133.6 L 283.4 130.6 Q 283.2 130.3, 283.0 129.9 Q 282.8 129.5, 282.7 129.3 L 282.7 133.6 L 282.0 133.6 L 282.0 128.4 L 282.8 128.4 " fill="#0000FF"/>
<path class="atom-0" d="M 286.4 129.4 L 287.3 129.4 L 287.3 128.4 L 287.7 128.4 L 287.7 129.4 L 288.6 129.4 L 288.6 129.7 L 287.7 129.7 L 287.7 130.7 L 287.3 130.7 L 287.3 129.7 L 286.4 129.7 L 286.4 129.4 " fill="#0000FF"/>
<path class="atom-1" d="M 298.9 119.7 L 300.6 122.5 Q 300.8 122.7, 301.1 123.2 Q 301.3 123.7, 301.4 123.8 L 301.4 119.7 L 302.0 119.7 L 302.0 124.9 L 301.3 124.9 L 299.5 121.9 Q 299.3 121.6, 299.1 121.2 Q 298.8 120.8, 298.8 120.6 L 298.8 124.9 L 298.1 124.9 L 298.1 119.7 L 298.9 119.7 " fill="#0000FF"/>
<path class="atom-1" d="M 302.3 120.6 L 304.1 120.6 L 304.1 121.0 L 302.3 121.0 L 302.3 120.6 " fill="#0000FF"/>
<path class="atom-4" d="M 346.2 130.2 L 347.9 132.9 Q 348.1 133.2, 348.3 133.7 Q 348.6 134.2, 348.6 134.2 L 348.6 130.2 L 349.3 130.2 L 349.3 135.4 L 348.6 135.4 L 346.8 132.4 Q 346.6 132.0, 346.3 131.6 Q 346.1 131.2, 346.1 131.1 L 346.1 135.4 L 345.4 135.4 L 345.4 130.2 L 346.2 130.2 " fill="#0000FF"/>
<path class="atom-4" d="M 345.3 135.9 L 346.0 135.9 L 346.0 138.1 L 348.7 138.1 L 348.7 135.9 L 349.4 135.9 L 349.4 141.1 L 348.7 141.1 L 348.7 138.7 L 346.0 138.7 L 346.0 141.1 L 345.3 141.1 L 345.3 135.9 " fill="#0000FF"/>
<path class="atom-5" d="M 362.3 121.5 L 364.0 124.2 Q 364.2 124.5, 364.4 125.0 Q 364.7 125.5, 364.7 125.5 L 364.7 121.5 L 365.4 121.5 L 365.4 126.7 L 364.7 126.7 L 362.9 123.7 Q 362.7 123.3, 362.4 122.9 Q 362.2 122.5, 362.2 122.4 L 362.2 126.7 L 361.5 126.7 L 361.5 121.5 L 362.3 121.5 " fill="#0000FF"/>
<path class="atom-5" d="M 361.4 115.8 L 362.1 115.8 L 362.1 118.0 L 364.8 118.0 L 364.8 115.8 L 365.5 115.8 L 365.5 121.0 L 364.8 121.0 L 364.8 118.6 L 362.1 118.6 L 362.1 121.0 L 361.4 121.0 L 361.4 115.8 " fill="#0000FF"/>
<path class="atom-5" d="M 365.7 120.8 Q 365.9 120.5, 366.2 120.3 Q 366.5 120.1, 366.9 120.1 Q 367.4 120.1, 367.7 120.4 Q 368.0 120.7, 368.0 121.2 Q 368.0 121.7, 367.6 122.2 Q 367.2 122.6, 366.4 123.2 L 368.0 123.2 L 368.0 123.6 L 365.7 123.6 L 365.7 123.2 Q 366.4 122.8, 366.7 122.5 Q 367.1 122.1, 367.3 121.8 Q 367.5 121.5, 367.5 121.2 Q 367.5 120.9, 367.3 120.7 Q 367.2 120.5, 366.9 120.5 Q 366.6 120.5, 366.4 120.6 Q 366.2 120.7, 366.1 121.0 L 365.7 120.8 " fill="#0000FF"/>
<path class="atom-5" d="M 365.9 116.7 L 366.8 116.7 L 366.8 115.8 L 367.2 115.8 L 367.2 116.7 L 368.2 116.7 L 368.2 117.1 L 367.2 117.1 L 367.2 118.0 L 366.8 118.0 L 366.8 117.1 L 365.9 117.1 L 365.9 116.7 " fill="#0000FF"/>
<path class="atom-6" d="M 377.9 131.1 L 379.6 133.8 Q 379.8 134.1, 380.0 134.6 Q 380.3 135.1, 380.3 135.1 L 380.3 131.1 L 381.0 131.1 L 381.0 136.3 L 380.3 136.3 L 378.5 133.3 Q 378.3 132.9, 378.0 132.5 Q 377.8 132.1, 377.7 132.0 L 377.7 136.3 L 377.1 136.3 L 377.1 131.1 L 377.9 131.1 " fill="#0000FF"/>
<path class="atom-6" d="M 381.4 132.0 L 382.3 132.0 L 382.3 131.1 L 382.8 131.1 L 382.8 132.0 L 383.7 132.0 L 383.7 132.4 L 382.8 132.4 L 382.8 133.3 L 382.3 133.3 L 382.3 132.4 L 381.4 132.4 L 381.4 132.0 " fill="#0000FF"/>
<path class="atom-7" d="M 394.8 122.4 L 395.5 122.4 L 395.5 127.6 L 394.8 127.6 L 394.8 122.4 " fill="#A01EEF"/>
<path d="M 316.0,133.6 L 316.0,133.5 L 316.0,133.5 L 316.0,133.5 L 316.0,133.4 L 316.0,133.4 L 316.0,133.4 L 316.0,133.3 L 315.9,133.3 L 315.9,133.3 L 315.9,133.3 L 315.9,133.3 L 315.9,133.2 L 315.8,133.2 L 315.8,133.2 L 315.8,133.2 L 315.7,133.2 L 315.7,133.2 L 315.7,133.2 L 315.6,133.2 L 315.6,133.2 L 315.6,133.2 L 315.5,133.2 L 315.5,133.2 L 315.5,133.2 L 315.5,133.3 L 315.4,133.3 L 315.4,133.3 L 315.4,133.3 L 315.4,133.3 L 315.4,133.4 L 315.3,133.4 L 315.3,133.4 L 315.3,133.4 L 315.3,133.5 L 315.3,133.5 L 315.3,133.5 L 315.3,133.6 L 315.3,133.6 L 315.3,133.6 L 315.3,133.7 L 315.3,133.7 L 315.3,133.7 L 315.4,133.8 L 315.4,133.8 L 315.4,133.8 L 315.4,133.8 L 315.4,133.8 L 315.5,133.9 L 315.5,133.9 L 315.5,133.9 L 315.5,133.9 L 315.6,133.9 L 315.6,133.9 L 315.6,133.9 L 315.7,133.9 L 315.7,133.9 L 315.7,133.9 L 315.8,133.9 L 315.8,133.9 L 315.8,133.9 L 315.9,133.9 L 315.9,133.9 L 315.9,133.8 L 315.9,133.8 L 315.9,133.8 L 316.0,133.8 L 316.0,133.7 L 316.0,133.7 L 316.0,133.7 L 316.0,133.7 L 316.0,133.6 L 316.0,133.6 L 316.0,133.6 L 315.7,133.6 Z" style="fill:#000000;fill-rule:evenodd;fill-opacity:1;stroke:#000000;stroke-width:0.0px;stroke-linecap:butt;stroke-linejoin:miter;stroke-opacity:1;"/>
<path d="M 332.1,121.6 L 332.1,121.5 L 332.1,121.5 L 332.1,121.5 L 332.1,121.4 L 332.1,121.4 L 332.1,121.4 L 332.1,121.4 L 332.0,121.3 L 332.0,121.3 L 332.0,121.3 L 332.0,121.3 L 331.9,121.2 L 331.9,121.2 L 331.9,121.2 L 331.9,121.2 L 331.8,121.2 L 331.8,121.2 L 331.8,121.2 L 331.7,121.2 L 331.7,121.2 L 331.7,121.2 L 331.6,121.2 L 331.6,121.2 L 331.6,121.2 L 331.6,121.3 L 331.5,121.3 L 331.5,121.3 L 331.5,121.3 L 331.5,121.3 L 331.5,121.4 L 331.4,121.4 L 331.4,121.4 L 331.4,121.4 L 331.4,121.5 L 331.4,121.5 L 331.4,121.5 L 331.4,121.6 L 331.4,121.6 L 331.4,121.6 L 331.4,121.7 L 331.4,121.7 L 331.4,121.7 L 331.5,121.8 L 331.5,121.8 L 331.5,121.8 L 331.5,121.8 L 331.5,121.8 L 331.6,121.9 L 331.6,121.9 L 331.6,121.9 L 331.6,121.9 L 331.7,121.9 L 331.7,121.9 L 331.7,121.9 L 331.8,121.9 L 331.8,121.9 L 331.8,121.9 L 331.9,121.9 L 331.9,121.9 L 331.9,121.9 L 331.9,121.9 L 332.0,121.9 L 332.0,121.8 L 332.0,121.8 L 332.0,121.8 L 332.1,121.8 L 332.1,121.7 L 332.1,121.7 L 332.1,121.7 L 332.1,121.7 L 332.1,121.6 L 332.1,121.6 L 332.1,121.6 L 331.8,121.6 Z" style="fill:#000000;fill-rule:evenodd;fill-opacity:1;stroke:#000000;stroke-width:0.0px;stroke-linecap:butt;stroke-linejoin:miter;stroke-opacity:1;"/>
<path d="M 380.1,136.8 L 380.1,136.8 L 380.1,136.8 L 380.1,136.7 L 380.1,136.7 L 380.1,136.7 L 380.1,136.6 L 380.1,136.6 L 380.1,136.6 L 380.0,136.6 L 380.0,136.5 L 380.0,136.5 L 380.0,136.5 L 379.9,136.5 L 379.9,136.5 L 379.9,136.5 L 379.8,136.5 L 379.8,136.5 L 379.8,136.5 L 379.7,136.5 L 379.7,136.5 L 379.7,136.5 L 379.7,136.5 L 379.6,136.5 L 379.6,136.5 L 379.6,136.5 L 379.5,136.5 L 379.5,136.6 L 379.5,136.6 L 379.5,136.6 L 379.5,136.6 L 379.4,136.7 L 379.4,136.7 L 379.4,136.7 L 379.4,136.7 L 379.4,136.8 L 379.4,136.8 L 379.4,136.8 L 379.4,136.9 L 379.4,136.9 L 379.4,136.9 L 379.4,137.0 L 379.4,137.0 L 379.5,137.0 L 379.5,137.0 L 379.5,137.1 L 379.5,137.1 L 379.5,137.1 L 379.6,137.1 L 379.6,137.1 L 379.6,137.2 L 379.7,137.2 L 379.7,137.2 L 379.7,137.2 L 379.7,137.2 L 379.8,137.2 L 379.8,137.2 L 379.8,137.2 L 379.9,137.2 L 379.9,137.2 L 379.9,137.1 L 380.0,137.1 L 380.0,137.1 L 380.0,137.1 L 380.0,137.1 L 380.1,137.1 L 380.1,137.0 L 380.1,137.0 L 380.1,137.0 L 380.1,136.9 L 380.1,136.9 L 380.1,136.9 L 380.1,136.9 L 380.1,136.8 L 379.8,136.8 Z" style="fill:#000000;fill-rule:evenodd;fill-opacity:1;stroke:#000000;stroke-width:0.0px;stroke-linecap:butt;stroke-linejoin:miter;stroke-opacity:1;"/>
<path d="M 378.7,136.8 L 378.7,136.8 L 378.7,136.8 L 378.7,136.7 L 378.6,136.7 L 378.6,136.7 L 378.6,136.6 L 378.6,136.6 L 378.6,136.6 L 378.6,136.6 L 378.5,136.5 L 378.5,136.5 L 378.5,136.5 L 378.5,136.5 L 378.4,136.5 L 378.4,136.5 L 378.4,136.5 L 378.3,136.5 L 378.3,136.5 L 378.3,136.5 L 378.2,136.5 L 378.2,136.5 L 378.2,136.5 L 378.2,136.5 L 378.1,136.5 L 378.1,136.5 L 378.1,136.5 L 378.1,136.6 L 378.0,136.6 L 378.0,136.6 L 378.0,136.6 L 378.0,136.7 L 378.0,136.7 L 378.0,136.7 L 377.9,136.7 L 377.9,136.8 L 377.9,136.8 L 377.9,136.8 L 377.9,136.9 L 377.9,136.9 L 378.0,136.9 L 378.0,137.0 L 378.0,137.0 L 378.0,137.0 L 378.0,137.0 L 378.0,137.1 L 378.1,137.1 L 378.1,137.1 L 378.1,137.1 L 378.1,137.1 L 378.2,137.2 L 378.2,137.2 L 378.2,137.2 L 378.2,137.2 L 378.3,137.2 L 378.3,137.2 L 378.3,137.2 L 378.4,137.2 L 378.4,137.2 L 378.4,137.2 L 378.5,137.1 L 378.5,137.1 L 378.5,137.1 L 378.5,137.1 L 378.6,137.1 L 378.6,137.1 L 378.6,137.0 L 378.6,137.0 L 378.6,137.0 L 378.6,136.9 L 378.7,136.9 L 378.7,136.9 L 378.7,136.9 L 378.7,136.8 L 378.3,136.8 Z" style="fill:#000000;fill-rule:evenodd;fill-opacity:1;stroke:#000000;stroke-width:0.0px;stroke-linecap:butt;stroke-linejoin:miter;stroke-opacity:1;"/>
<path class="bond-0 atom-0 atom-1" d="M 603.3,129.8 L 591.6,123.1" style="fill:none;fill-rule:evenodd;stroke:#CCCC00;stroke-width:2.0px;stroke-linecap:butt;stroke-linejoin:miter;stroke-opacity:1"/>
<path class="bond-1 atom-1 atom-2" d="M 586.5,121.5 L 582.2,124.0" style="fill:none;fill-rule:evenodd;stroke:#CCCC00;stroke-width:2.0px;stroke-linecap:butt;stroke-linejoin:miter;stroke-opacity:1"/>
<path class="bond-1 atom-1 atom-2" d="M 582.2,124.0 L 577.8,126.5" style="fill:none;fill-rule:evenodd;stroke:#0000FF;stroke-width:2.0px;stroke-linecap:butt;stroke-linejoin:miter;stroke-opacity:1"/>
<path class="bond-1 atom-1 atom-2" d="M 588.4,124.7 L 584.0,127.2" style="fill:none;fill-rule:evenodd;stroke:#CCCC00;stroke-width:2.0px;stroke-linecap:butt;stroke-linejoin:miter;stroke-opacity:1"/>
<path class="bond-1 atom-1 atom-2" d="M 584.0,127.2 L 579.7,129.7" style="fill:none;fill-rule:evenodd;stroke:#0000FF;stroke-width:2.0px;stroke-linecap:butt;stroke-linejoin:miter;stroke-opacity:1"/>
<path class="atom-0" d="M 603.9 132.8 Q 604.0 132.9, 604.2 133.0 Q 604.5 133.1, 604.7 133.1 Q 605.0 133.2, 605.3 133.2 Q 605.8 133.2, 606.1 132.9 Q 606.3 132.7, 606.3 132.3 Q 606.3 132.0, 606.2 131.8 Q 606.1 131.7, 605.8 131.6 Q 605.6 131.5, 605.3 131.4 Q 604.8 131.2, 604.5 131.1 Q 604.2 130.9, 604.0 130.7 Q 603.9 130.4, 603.9 129.9 Q 603.9 129.3, 604.3 128.9 Q 604.7 128.5, 605.6 128.5 Q 606.2 128.5, 606.9 128.8 L 606.7 129.3 Q 606.1 129.1, 605.6 129.1 Q 605.1 129.1, 604.9 129.3 Q 604.6 129.5, 604.6 129.8 Q 604.6 130.1, 604.7 130.3 Q 604.9 130.5, 605.1 130.5 Q 605.3 130.6, 605.6 130.8 Q 606.1 130.9, 606.4 131.0 Q 606.7 131.2, 606.9 131.5 Q 607.1 131.8, 607.1 132.3 Q 607.1 133.0, 606.6 133.4 Q 606.1 133.8, 605.3 133.8 Q 604.8 133.8, 604.5 133.7 Q 604.2 133.6, 603.7 133.4 L 603.9 132.8 " fill="#CCCC00"/>
<path class="atom-0" d="M 607.5 129.3 L 608.4 129.3 L 608.4 128.4 L 608.8 128.4 L 608.8 129.3 L 609.8 129.3 L 609.8 129.7 L 608.8 129.7 L 608.8 130.6 L 608.4 130.6 L 608.4 129.7 L 607.5 129.7 L 607.5 129.3 " fill="#CCCC00"/>
<path class="atom-1" d="M 588.1 123.7 Q 588.2 123.7, 588.4 123.8 Q 588.6 123.9, 588.9 124.0 Q 589.2 124.0, 589.4 124.0 Q 589.9 124.0, 590.2 123.8 Q 590.5 123.6, 590.5 123.1 Q 590.5 122.9, 590.3 122.7 Q 590.2 122.5, 590.0 122.4 Q 589.8 122.3, 589.4 122.2 Q 588.9 122.1, 588.7 121.9 Q 588.4 121.8, 588.2 121.5 Q 588.0 121.2, 588.0 120.8 Q 588.0 120.1, 588.4 119.7 Q 588.9 119.3, 589.8 119.3 Q 590.4 119.3, 591.0 119.6 L 590.9 120.2 Q 590.3 119.9, 589.8 119.9 Q 589.3 119.9, 589.0 120.1 Q 588.7 120.3, 588.7 120.7 Q 588.7 121.0, 588.9 121.1 Q 589.0 121.3, 589.2 121.4 Q 589.4 121.5, 589.8 121.6 Q 590.3 121.7, 590.5 121.9 Q 590.8 122.0, 591.0 122.3 Q 591.2 122.6, 591.2 123.1 Q 591.2 123.9, 590.7 124.2 Q 590.3 124.6, 589.5 124.6 Q 589.0 124.6, 588.6 124.5 Q 588.3 124.4, 587.9 124.3 L 588.1 123.7 " fill="#CCCC00"/>
<path class="atom-2" d="M 564.5 128.5 L 565.2 128.5 L 565.2 130.7 L 567.9 130.7 L 567.9 128.5 L 568.6 128.5 L 568.6 133.6 L 567.9 133.6 L 567.9 131.2 L 565.2 131.2 L 565.2 133.6 L 564.5 133.6 L 564.5 128.5 " fill="#0000FF"/>
<path class="atom-2" d="M 568.8 133.5 Q 569.0 133.1, 569.3 133.0 Q 569.6 132.8, 570.0 132.8 Q 570.5 132.8, 570.8 133.1 Q 571.1 133.3, 571.1 133.8 Q 571.1 134.3, 570.7 134.8 Q 570.3 135.3, 569.6 135.8 L 571.1 135.8 L 571.1 136.2 L 568.8 136.2 L 568.8 135.9 Q 569.5 135.5, 569.8 135.1 Q 570.2 134.8, 570.4 134.5 Q 570.6 134.2, 570.6 133.9 Q 570.6 133.5, 570.4 133.3 Q 570.3 133.2, 570.0 133.2 Q 569.7 133.2, 569.5 133.3 Q 569.3 133.4, 569.2 133.6 L 568.8 133.5 " fill="#0000FF"/>
<path class="atom-2" d="M 572.6 128.5 L 574.3 131.2 Q 574.4 131.5, 574.7 132.0 Q 575.0 132.5, 575.0 132.5 L 575.0 128.5 L 575.7 128.5 L 575.7 133.6 L 575.0 133.6 L 573.1 130.6 Q 572.9 130.3, 572.7 129.9 Q 572.5 129.5, 572.4 129.4 L 572.4 133.6 L 571.7 133.6 L 571.7 128.5 L 572.6 128.5 " fill="#0000FF"/>
<path class="atom-2" d="M 576.1 129.4 L 577.0 129.4 L 577.0 128.4 L 577.4 128.4 L 577.4 129.4 L 578.4 129.4 L 578.4 129.7 L 577.4 129.7 L 577.4 130.7 L 577.0 130.7 L 577.0 129.7 L 576.1 129.7 L 576.1 129.4 " fill="#0000FF"/>
<path d="M 611.2,130.3 L 611.2,130.3 L 611.2,130.3 L 611.2,130.2 L 611.2,130.2 L 611.2,130.2 L 611.2,130.1 L 611.2,130.1 L 611.1,130.1 L 611.1,130.1 L 611.1,130.0 L 611.1,130.0 L 611.0,130.0 L 611.0,130.0 L 611.0,130.0 L 611.0,130.0 L 610.9,130.0 L 610.9,130.0 L 610.9,130.0 L 610.8,130.0 L 610.8,130.0 L 610.8,130.0 L 610.7,130.0 L 610.7,130.0 L 610.7,130.0 L 610.7,130.0 L 610.6,130.0 L 610.6,130.1 L 610.6,130.1 L 610.6,130.1 L 610.5,130.1 L 610.5,130.2 L 610.5,130.2 L 610.5,130.2 L 610.5,130.2 L 610.5,130.3 L 610.5,130.3 L 610.5,130.3 L 610.5,130.4 L 610.5,130.4 L 610.5,130.4 L 610.5,130.5 L 610.5,130.5 L 610.5,130.5 L 610.6,130.5 L 610.6,130.6 L 610.6,130.6 L 610.6,130.6 L 610.7,130.6 L 610.7,130.6 L 610.7,130.7 L 610.7,130.7 L 610.8,130.7 L 610.8,130.7 L 610.8,130.7 L 610.9,130.7 L 610.9,130.7 L 610.9,130.7 L 611.0,130.7 L 611.0,130.7 L 611.0,130.6 L 611.0,130.6 L 611.1,130.6 L 611.1,130.6 L 611.1,130.6 L 611.1,130.6 L 611.2,130.5 L 611.2,130.5 L 611.2,130.5 L 611.2,130.4 L 611.2,130.4 L 611.2,130.4 L 611.2,130.3 L 611.2,130.3 L 610.9,130.3 Z" style="fill:#000000;fill-rule:evenodd;fill-opacity:1;stroke:#000000;stroke-width:0.0px;stroke-linecap:butt;stroke-linejoin:miter;stroke-opacity:1;"/>
<path d="M 611.2,131.8 L 611.2,131.8 L 611.2,131.7 L 611.2,131.7 L 611.2,131.7 L 611.2,131.6 L 611.2,131.6 L 611.2,131.6 L 611.1,131.5 L 611.1,131.5 L 611.1,131.5 L 611.1,131.5 L 611.0,131.5 L 611.0,131.5 L 611.0,131.4 L 611.0,131.4 L 610.9,131.4 L 610.9,131.4 L 610.9,131.4 L 610.8,131.4 L 610.8,131.4 L 610.8,131.4 L 610.7,131.4 L 610.7,131.4 L 610.7,131.5 L 610.7,131.5 L 610.6,131.5 L 610.6,131.5 L 610.6,131.5 L 610.6,131.6 L 610.5,131.6 L 610.5,131.6 L 610.5,131.6 L 610.5,131.7 L 610.5,131.7 L 610.5,131.7 L 610.5,131.8 L 610.5,131.8 L 610.5,131.8 L 610.5,131.9 L 610.5,131.9 L 610.5,131.9 L 610.5,131.9 L 610.5,132.0 L 610.6,132.0 L 610.6,132.0 L 610.6,132.0 L 610.6,132.1 L 610.7,132.1 L 610.7,132.1 L 610.7,132.1 L 610.7,132.1 L 610.8,132.1 L 610.8,132.1 L 610.8,132.1 L 610.9,132.1 L 610.9,132.1 L 610.9,132.1 L 611.0,132.1 L 611.0,132.1 L 611.0,132.1 L 611.0,132.1 L 611.1,132.1 L 611.1,132.1 L 611.1,132.0 L 611.1,132.0 L 611.2,132.0 L 611.2,132.0 L 611.2,131.9 L 611.2,131.9 L 611.2,131.9 L 611.2,131.8 L 611.2,131.8 L 611.2,131.8 L 610.9,131.8 Z" style="fill:#000000;fill-rule:evenodd;fill-opacity:1;stroke:#000000;stroke-width:0.0px;stroke-linecap:butt;stroke-linejoin:miter;stroke-opacity:1;"/>
<path d="M 589.9,118.8 L 589.9,118.7 L 589.9,118.7 L 589.9,118.7 L 589.9,118.6 L 589.9,118.6 L 589.9,118.6 L 589.9,118.6 L 589.8,118.5 L 589.8,118.5 L 589.8,118.5 L 589.8,118.5 L 589.7,118.5 L 589.7,118.4 L 589.7,118.4 L 589.7,118.4 L 589.6,118.4 L 589.6,118.4 L 589.6,118.4 L 589.5,118.4 L 589.5,118.4 L 589.5,118.4 L 589.4,118.4 L 589.4,118.4 L 589.4,118.4 L 589.4,118.5 L 589.3,118.5 L 589.3,118.5 L 589.3,118.5 L 589.3,118.5 L 589.2,118.6 L 589.2,118.6 L 589.2,118.6 L 589.2,118.7 L 589.2,118.7 L 589.2,118.7 L 589.2,118.8 L 589.2,118.8 L 589.2,118.8 L 589.2,118.8 L 589.2,118.9 L 589.2,118.9 L 589.2,118.9 L 589.2,119.0 L 589.3,119.0 L 589.3,119.0 L 589.3,119.0 L 589.3,119.1 L 589.4,119.1 L 589.4,119.1 L 589.4,119.1 L 589.4,119.1 L 589.5,119.1 L 589.5,119.1 L 589.5,119.1 L 589.6,119.1 L 589.6,119.1 L 589.6,119.1 L 589.7,119.1 L 589.7,119.1 L 589.7,119.1 L 589.7,119.1 L 589.8,119.1 L 589.8,119.0 L 589.8,119.0 L 589.8,119.0 L 589.9,119.0 L 589.9,118.9 L 589.9,118.9 L 589.9,118.9 L 589.9,118.9 L 589.9,118.8 L 589.9,118.8 L 589.9,118.8 L 589.6,118.8 Z" style="fill:#000000;fill-rule:evenodd;fill-opacity:1;stroke:#000000;stroke-width:0.0px;stroke-linecap:butt;stroke-linejoin:miter;stroke-opacity:1;"/>
<path class="bond-0 atom-0 atom-1" d="M 144.9,383.6 L 151.7,379.8" style="fill:none;fill-rule:evenodd;stroke:#000000;stroke-width:2.0px;stroke-linecap:butt;stroke-linejoin:miter;stroke-opacity:1"/>
<path class="bond-0 atom-0 atom-1" d="M 151.7,379.8 L 158.5,376.0" style="fill:none;fill-rule:evenodd;stroke:#0000FF;stroke-width:2.0px;stroke-linecap:butt;stroke-linejoin:miter;stroke-opacity:1"/>
<path class="bond-1 atom-0 atom-2" d="M 144.9,383.6 L 138.3,379.6" style="fill:none;fill-rule:evenodd;stroke:#000000;stroke-width:2.0px;stroke-linecap:butt;stroke-linejoin:miter;stroke-opacity:1"/>
<path class="bond-1 atom-0 atom-2" d="M 138.3,379.6 L 131.7,375.6" style="fill:none;fill-rule:evenodd;stroke:#0000FF;stroke-width:2.0px;stroke-linecap:butt;stroke-linejoin:miter;stroke-opacity:1"/>
<path class="bond-2 atom-2 atom-3" d="M 126.8,375.5 L 115.6,381.7" style="fill:none;fill-rule:evenodd;stroke:#0000FF;stroke-width:2.0px;stroke-linecap:butt;stroke-linejoin:miter;stroke-opacity:1"/>
<path class="bond-3 atom-3 atom-4" d="M 110.8,381.5 L 105.2,378.2" style="fill:none;fill-rule:evenodd;stroke:#0000FF;stroke-width:2.0px;stroke-linecap:butt;stroke-linejoin:miter;stroke-opacity:1"/>
<path class="bond-3 atom-3 atom-4" d="M 105.2,378.2 L 99.6,374.8" style="fill:none;fill-rule:evenodd;stroke:#FF7F00;stroke-width:2.0px;stroke-linecap:butt;stroke-linejoin:miter;stroke-opacity:1"/>
<path class="bond-4 atom-4 atom-5" d="M 95.4,374.7 L 89.7,377.9" style="fill:none;fill-rule:evenodd;stroke:#FF7F00;stroke-width:2.0px;stroke-linecap:butt;stroke-linejoin:miter;stroke-opacity:1"/>
<path class="bond-4 atom-4 atom-5" d="M 89.7,377.9 L 83.9,381.1" style="fill:none;fill-rule:evenodd;stroke:#0000FF;stroke-width:2.0px;stroke-linecap:butt;stroke-linejoin:miter;stroke-opacity:1"/>
<path class="bond-4 atom-4 atom-5" d="M 95.5,378.9 L 91.5,381.1" style="fill:none;fill-rule:evenodd;stroke:#FF7F00;stroke-width:2.0px;stroke-linecap:butt;stroke-linejoin:miter;stroke-opacity:1"/>
<path class="bond-4 atom-4 atom-5" d="M 91.5,381.1 L 87.4,383.4" style="fill:none;fill-rule:evenodd;stroke:#0000FF;stroke-width:2.0px;stroke-linecap:butt;stroke-linejoin:miter;stroke-opacity:1"/>
<path class="bond-5 atom-5 atom-6" d="M 79.1,381.0 L 73.5,377.6" style="fill:none;fill-rule:evenodd;stroke:#0000FF;stroke-width:2.0px;stroke-linecap:butt;stroke-linejoin:miter;stroke-opacity:1"/>
<path class="bond-5 atom-5 atom-6" d="M 73.5,377.6 L 67.9,374.2" style="fill:none;fill-rule:evenodd;stroke:#CCCC00;stroke-width:2.0px;stroke-linecap:butt;stroke-linejoin:miter;stroke-opacity:1"/>
<path class="bond-6 atom-6 atom-7" d="M 63.7,374.2 L 56.8,378.0" style="fill:none;fill-rule:evenodd;stroke:#CCCC00;stroke-width:2.0px;stroke-linecap:butt;stroke-linejoin:miter;stroke-opacity:1"/>
<path class="bond-6 atom-6 atom-7" d="M 56.8,378.0 L 49.9,381.9" style="fill:none;fill-rule:evenodd;stroke:#000000;stroke-width:2.0px;stroke-linecap:butt;stroke-linejoin:miter;stroke-opacity:1"/>
<path class="bond-7 atom-7 atom-8" d="M 49.9,381.9 L 34.2,372.4" style="fill:none;fill-rule:evenodd;stroke:#000000;stroke-width:2.0px;stroke-linecap:butt;stroke-linejoin:miter;stroke-opacity:1"/>
<path class="bond-8 atom-8 atom-9" d="M 33.3,370.8 L 28.0,373.7" style="fill:none;fill-rule:evenodd;stroke:#000000;stroke-width:2.0px;stroke-linecap:butt;stroke-linejoin:miter;stroke-opacity:1"/>
<path class="bond-8 atom-8 atom-9" d="M 28.0,373.7 L 22.8,376.7" style="fill:none;fill-rule:evenodd;stroke:#FF0000;stroke-width:2.0px;stroke-linecap:butt;stroke-linejoin:miter;stroke-opacity:1"/>
<path class="bond-8 atom-8 atom-9" d="M 35.1,374.0 L 29.8,376.9" style="fill:none;fill-rule:evenodd;stroke:#000000;stroke-width:2.0px;stroke-linecap:butt;stroke-linejoin:miter;stroke-opacity:1"/>
<path class="bond-8 atom-8 atom-9" d="M 29.8,376.9 L 24.6,379.9" style="fill:none;fill-rule:evenodd;stroke:#FF0000;stroke-width:2.0px;stroke-linecap:butt;stroke-linejoin:miter;stroke-opacity:1"/>
<path class="atom-1" d="M 159.8 372.1 L 161.5 374.8 Q 161.7 375.1, 161.9 375.6 Q 162.2 376.1, 162.2 376.1 L 162.2 372.1 L 162.9 372.1 L 162.9 377.3 L 162.2 377.3 L 160.4 374.3 Q 160.2 373.9, 159.9 373.5 Q 159.7 373.1, 159.7 373.0 L 159.7 377.3 L 159.0 377.3 L 159.0 372.1 L 159.8 372.1 " fill="#0000FF"/>
<path class="atom-1" d="M 163.5 372.1 L 164.2 372.1 L 164.2 374.3 L 166.9 374.3 L 166.9 372.1 L 167.6 372.1 L 167.6 377.3 L 166.9 377.3 L 166.9 374.9 L 164.2 374.9 L 164.2 377.3 L 163.5 377.3 L 163.5 372.1 " fill="#0000FF"/>
<path class="atom-2" d="M 128.1 371.5 L 129.8 374.3 Q 130.0 374.6, 130.2 375.0 Q 130.5 375.5, 130.5 375.6 L 130.5 371.5 L 131.2 371.5 L 131.2 376.7 L 130.5 376.7 L 128.7 373.7 Q 128.5 373.4, 128.2 373.0 Q 128.0 372.6, 128.0 372.4 L 128.0 376.7 L 127.3 376.7 L 127.3 371.5 L 128.1 371.5 " fill="#0000FF"/>
<path class="atom-2" d="M 127.2 365.8 L 127.9 365.8 L 127.9 368.0 L 130.6 368.0 L 130.6 365.8 L 131.3 365.8 L 131.3 371.0 L 130.6 371.0 L 130.6 368.6 L 127.9 368.6 L 127.9 371.0 L 127.2 371.0 L 127.2 365.8 " fill="#0000FF"/>
<path class="atom-2" d="M 131.5 370.8 Q 131.7 370.5, 132.0 370.3 Q 132.3 370.1, 132.7 370.1 Q 133.2 370.1, 133.5 370.4 Q 133.8 370.7, 133.8 371.2 Q 133.8 371.7, 133.4 372.2 Q 133.0 372.7, 132.2 373.2 L 133.8 373.2 L 133.8 373.6 L 131.5 373.6 L 131.5 373.3 Q 132.2 372.8, 132.5 372.5 Q 132.9 372.2, 133.1 371.8 Q 133.3 371.5, 133.3 371.2 Q 133.3 370.9, 133.1 370.7 Q 133.0 370.5, 132.7 370.5 Q 132.4 370.5, 132.2 370.6 Q 132.0 370.8, 131.9 371.0 L 131.5 370.8 " fill="#0000FF"/>
<path class="atom-2" d="M 131.7 366.8 L 132.6 366.8 L 132.6 365.8 L 133.0 365.8 L 133.0 366.8 L 134.0 366.8 L 134.0 367.1 L 133.0 367.1 L 133.0 368.1 L 132.6 368.1 L 132.6 367.1 L 131.7 367.1 L 131.7 366.8 " fill="#0000FF"/>
<path class="atom-3" d="M 112.1 380.4 L 113.8 383.1 Q 114.0 383.4, 114.2 383.9 Q 114.5 384.4, 114.5 384.4 L 114.5 380.4 L 115.2 380.4 L 115.2 385.6 L 114.5 385.6 L 112.7 382.6 Q 112.5 382.2, 112.2 381.8 Q 112.0 381.4, 112.0 381.3 L 112.0 385.6 L 111.3 385.6 L 111.3 380.4 L 112.1 380.4 " fill="#0000FF"/>
<path class="atom-3" d="M 111.2 386.1 L 111.9 386.1 L 111.9 388.3 L 114.6 388.3 L 114.6 386.1 L 115.3 386.1 L 115.3 391.3 L 114.6 391.3 L 114.6 388.9 L 111.9 388.9 L 111.9 391.3 L 111.2 391.3 L 111.2 386.1 " fill="#0000FF"/>
<path class="atom-4" d="M 97.4 371.0 Q 98.3 371.0, 98.8 371.4 Q 99.2 371.8, 99.2 372.5 Q 99.2 373.2, 98.8 373.6 Q 98.3 374.0, 97.4 374.0 L 96.6 374.0 L 96.6 376.2 L 95.9 376.2 L 95.9 371.0 L 97.4 371.0 M 97.4 373.4 Q 97.9 373.4, 98.2 373.2 Q 98.5 373.0, 98.5 372.5 Q 98.5 372.0, 98.2 371.8 Q 97.9 371.6, 97.4 371.6 L 96.6 371.6 L 96.6 373.4 L 97.4 373.4 " fill="#FF7F00"/>
<path class="atom-5" d="M 80.4 379.8 L 82.1 382.6 Q 82.3 382.9, 82.5 383.3 Q 82.8 383.8, 82.8 383.9 L 82.8 379.8 L 83.5 379.8 L 83.5 385.0 L 82.8 385.0 L 81.0 382.0 Q 80.8 381.7, 80.5 381.3 Q 80.3 380.9, 80.3 380.7 L 80.3 385.0 L 79.6 385.0 L 79.6 379.8 L 80.4 379.8 " fill="#0000FF"/>
<path class="atom-6" d="M 64.4 374.8 Q 64.5 374.8, 64.7 374.9 Q 64.9 375.0, 65.2 375.1 Q 65.5 375.1, 65.7 375.1 Q 66.2 375.1, 66.5 374.9 Q 66.8 374.7, 66.8 374.2 Q 66.8 374.0, 66.7 373.8 Q 66.5 373.6, 66.3 373.5 Q 66.1 373.4, 65.7 373.3 Q 65.3 373.2, 65.0 373.0 Q 64.7 372.9, 64.5 372.6 Q 64.3 372.3, 64.3 371.9 Q 64.3 371.2, 64.8 370.8 Q 65.2 370.4, 66.1 370.4 Q 66.7 370.4, 67.4 370.7 L 67.2 371.3 Q 66.6 371.0, 66.1 371.0 Q 65.6 371.0, 65.3 371.2 Q 65.0 371.4, 65.0 371.8 Q 65.0 372.1, 65.2 372.2 Q 65.3 372.4, 65.5 372.5 Q 65.7 372.6, 66.1 372.7 Q 66.6 372.9, 66.8 373.0 Q 67.1 373.1, 67.3 373.4 Q 67.5 373.7, 67.5 374.2 Q 67.5 375.0, 67.0 375.3 Q 66.6 375.7, 65.8 375.7 Q 65.3 375.7, 65.0 375.6 Q 64.6 375.5, 64.2 375.4 L 64.4 374.8 " fill="#CCCC00"/>
<path class="atom-9" d="M 11.4 378.8 L 12.1 378.8 L 12.1 381.0 L 14.7 381.0 L 14.7 378.8 L 15.4 378.8 L 15.4 383.9 L 14.7 383.9 L 14.7 381.5 L 12.1 381.5 L 12.1 383.9 L 11.4 383.9 L 11.4 378.8 " fill="#FF0000"/>
<path class="atom-9" d="M 15.8 381.3 Q 15.8 380.1, 16.4 379.4 Q 17.0 378.7, 18.2 378.7 Q 19.3 378.7, 19.9 379.4 Q 20.5 380.1, 20.5 381.3 Q 20.5 382.6, 19.9 383.3 Q 19.3 384.0, 18.2 384.0 Q 17.0 384.0, 16.4 383.3 Q 15.8 382.6, 15.8 381.3 M 18.2 383.4 Q 19.0 383.4, 19.4 382.9 Q 19.8 382.4, 19.8 381.3 Q 19.8 380.3, 19.4 379.8 Q 19.0 379.3, 18.2 379.3 Q 17.4 379.3, 16.9 379.8 Q 16.5 380.3, 16.5 381.3 Q 16.5 382.4, 16.9 382.9 Q 17.4 383.4, 18.2 383.4 " fill="#FF0000"/>
<path class="atom-9" d="M 21.0 379.6 L 21.9 379.6 L 21.9 378.7 L 22.3 378.7 L 22.3 379.6 L 23.2 379.6 L 23.2 380.0 L 22.3 380.0 L 22.3 380.9 L 21.9 380.9 L 21.9 380.0 L 21.0 380.0 L 21.0 379.6 " fill="#FF0000"/>
<path d="M 146.0,385.2 L 146.0,385.2 L 146.0,385.1 L 146.0,385.1 L 146.0,385.1 L 146.0,385.0 L 146.0,385.0 L 146.0,385.0 L 146.0,385.0 L 145.9,384.9 L 145.9,384.9 L 145.9,384.9 L 145.9,384.9 L 145.8,384.9 L 145.8,384.9 L 145.8,384.9 L 145.7,384.8 L 145.7,384.8 L 145.7,384.8 L 145.6,384.8 L 145.6,384.8 L 145.6,384.8 L 145.6,384.9 L 145.5,384.9 L 145.5,384.9 L 145.5,384.9 L 145.4,384.9 L 145.4,384.9 L 145.4,385.0 L 145.4,385.0 L 145.4,385.0 L 145.3,385.0 L 145.3,385.1 L 145.3,385.1 L 145.3,385.1 L 145.3,385.2 L 145.3,385.2 L 145.3,385.2 L 145.3,385.2 L 145.3,385.3 L 145.3,385.3 L 145.3,385.3 L 145.3,385.4 L 145.4,385.4 L 145.4,385.4 L 145.4,385.4 L 145.4,385.5 L 145.4,385.5 L 145.5,385.5 L 145.5,385.5 L 145.5,385.5 L 145.6,385.5 L 145.6,385.6 L 145.6,385.6 L 145.6,385.6 L 145.7,385.6 L 145.7,385.6 L 145.7,385.6 L 145.8,385.6 L 145.8,385.5 L 145.8,385.5 L 145.9,385.5 L 145.9,385.5 L 145.9,385.5 L 145.9,385.5 L 146.0,385.4 L 146.0,385.4 L 146.0,385.4 L 146.0,385.4 L 146.0,385.3 L 146.0,385.3 L 146.0,385.3 L 146.0,385.2 L 146.0,385.2 L 145.7,385.2 Z" style="fill:#000000;fill-rule:evenodd;fill-opacity:1;stroke:#000000;stroke-width:0.0px;stroke-linecap:butt;stroke-linejoin:miter;stroke-opacity:1;"/>
<path d="M 144.6,385.2 L 144.6,385.2 L 144.6,385.1 L 144.6,385.1 L 144.6,385.1 L 144.5,385.0 L 144.5,385.0 L 144.5,385.0 L 144.5,385.0 L 144.5,384.9 L 144.4,384.9 L 144.4,384.9 L 144.4,384.9 L 144.4,384.9 L 144.3,384.9 L 144.3,384.9 L 144.3,384.8 L 144.2,384.8 L 144.2,384.8 L 144.2,384.8 L 144.2,384.8 L 144.1,384.8 L 144.1,384.9 L 144.1,384.9 L 144.0,384.9 L 144.0,384.9 L 144.0,384.9 L 144.0,384.9 L 143.9,385.0 L 143.9,385.0 L 143.9,385.0 L 143.9,385.0 L 143.9,385.1 L 143.9,385.1 L 143.8,385.1 L 143.8,385.2 L 143.8,385.2 L 143.8,385.2 L 143.8,385.2 L 143.8,385.3 L 143.9,385.3 L 143.9,385.3 L 143.9,385.4 L 143.9,385.4 L 143.9,385.4 L 143.9,385.4 L 144.0,385.5 L 144.0,385.5 L 144.0,385.5 L 144.0,385.5 L 144.1,385.5 L 144.1,385.5 L 144.1,385.6 L 144.2,385.6 L 144.2,385.6 L 144.2,385.6 L 144.2,385.6 L 144.3,385.6 L 144.3,385.6 L 144.3,385.5 L 144.4,385.5 L 144.4,385.5 L 144.4,385.5 L 144.4,385.5 L 144.5,385.5 L 144.5,385.4 L 144.5,385.4 L 144.5,385.4 L 144.5,385.4 L 144.6,385.3 L 144.6,385.3 L 144.6,385.3 L 144.6,385.2 L 144.6,385.2 L 144.2,385.2 Z" style="fill:#000000;fill-rule:evenodd;fill-opacity:1;stroke:#000000;stroke-width:0.0px;stroke-linecap:butt;stroke-linejoin:miter;stroke-opacity:1;"/>
<path d="M 169.1,374.7 L 169.1,374.7 L 169.0,374.6 L 169.0,374.6 L 169.0,374.6 L 169.0,374.5 L 169.0,374.5 L 169.0,374.5 L 169.0,374.5 L 169.0,374.4 L 168.9,374.4 L 168.9,374.4 L 168.9,374.4 L 168.8,374.4 L 168.8,374.3 L 168.8,374.3 L 168.8,374.3 L 168.7,374.3 L 168.7,374.3 L 168.7,374.3 L 168.6,374.3 L 168.6,374.3 L 168.6,374.3 L 168.5,374.3 L 168.5,374.4 L 168.5,374.4 L 168.5,374.4 L 168.4,374.4 L 168.4,374.4 L 168.4,374.5 L 168.4,374.5 L 168.4,374.5 L 168.4,374.5 L 168.3,374.6 L 168.3,374.6 L 168.3,374.6 L 168.3,374.7 L 168.3,374.7 L 168.3,374.7 L 168.3,374.8 L 168.3,374.8 L 168.4,374.8 L 168.4,374.9 L 168.4,374.9 L 168.4,374.9 L 168.4,374.9 L 168.4,375.0 L 168.5,375.0 L 168.5,375.0 L 168.5,375.0 L 168.5,375.0 L 168.6,375.0 L 168.6,375.0 L 168.6,375.0 L 168.7,375.1 L 168.7,375.1 L 168.7,375.0 L 168.8,375.0 L 168.8,375.0 L 168.8,375.0 L 168.8,375.0 L 168.9,375.0 L 168.9,375.0 L 168.9,375.0 L 169.0,374.9 L 169.0,374.9 L 169.0,374.9 L 169.0,374.9 L 169.0,374.8 L 169.0,374.8 L 169.0,374.8 L 169.0,374.7 L 169.1,374.7 L 169.1,374.7 L 168.7,374.7 Z" style="fill:#000000;fill-rule:evenodd;fill-opacity:1;stroke:#000000;stroke-width:0.0px;stroke-linecap:butt;stroke-linejoin:miter;stroke-opacity:1;"/>
<path d="M 50.2,383.5 L 50.2,383.5 L 50.2,383.5 L 50.2,383.4 L 50.2,383.4 L 50.2,383.4 L 50.2,383.3 L 50.2,383.3 L 50.1,383.3 L 50.1,383.3 L 50.1,383.2 L 50.1,383.2 L 50.0,383.2 L 50.0,383.2 L 50.0,383.2 L 50.0,383.2 L 49.9,383.2 L 49.9,383.2 L 49.9,383.2 L 49.8,383.2 L 49.8,383.2 L 49.8,383.2 L 49.7,383.2 L 49.7,383.2 L 49.7,383.2 L 49.7,383.2 L 49.6,383.2 L 49.6,383.3 L 49.6,383.3 L 49.6,383.3 L 49.5,383.3 L 49.5,383.4 L 49.5,383.4 L 49.5,383.4 L 49.5,383.4 L 49.5,383.5 L 49.5,383.5 L 49.5,383.5 L 49.5,383.6 L 49.5,383.6 L 49.5,383.6 L 49.5,383.7 L 49.5,383.7 L 49.5,383.7 L 49.6,383.7 L 49.6,383.8 L 49.6,383.8 L 49.6,383.8 L 49.7,383.8 L 49.7,383.8 L 49.7,383.9 L 49.7,383.9 L 49.8,383.9 L 49.8,383.9 L 49.8,383.9 L 49.9,383.9 L 49.9,383.9 L 49.9,383.9 L 50.0,383.9 L 50.0,383.9 L 50.0,383.9 L 50.0,383.8 L 50.1,383.8 L 50.1,383.8 L 50.1,383.8 L 50.1,383.8 L 50.2,383.7 L 50.2,383.7 L 50.2,383.7 L 50.2,383.6 L 50.2,383.6 L 50.2,383.6 L 50.2,383.6 L 50.2,383.5 L 49.9,383.5 Z" style="fill:#000000;fill-rule:evenodd;fill-opacity:1;stroke:#000000;stroke-width:0.0px;stroke-linecap:butt;stroke-linejoin:miter;stroke-opacity:1;"/>
<path d="M 34.5,370.8 L 34.5,370.8 L 34.5,370.7 L 34.5,370.7 L 34.5,370.7 L 34.5,370.6 L 34.5,370.6 L 34.5,370.6 L 34.5,370.6 L 34.4,370.5 L 34.4,370.5 L 34.4,370.5 L 34.4,370.5 L 34.3,370.5 L 34.3,370.5 L 34.3,370.4 L 34.2,370.4 L 34.2,370.4 L 34.2,370.4 L 34.1,370.4 L 34.1,370.4 L 34.1,370.4 L 34.1,370.5 L 34.0,370.5 L 34.0,370.5 L 34.0,370.5 L 33.9,370.5 L 33.9,370.5 L 33.9,370.6 L 33.9,370.6 L 33.9,370.6 L 33.8,370.6 L 33.8,370.7 L 33.8,370.7 L 33.8,370.7 L 33.8,370.8 L 33.8,370.8 L 33.8,370.8 L 33.8,370.8 L 33.8,370.9 L 33.8,370.9 L 33.8,370.9 L 33.8,371.0 L 33.9,371.0 L 33.9,371.0 L 33.9,371.0 L 33.9,371.1 L 33.9,371.1 L 34.0,371.1 L 34.0,371.1 L 34.0,371.1 L 34.1,371.1 L 34.1,371.2 L 34.1,371.2 L 34.1,371.2 L 34.2,371.2 L 34.2,371.2 L 34.2,371.2 L 34.3,371.2 L 34.3,371.1 L 34.3,371.1 L 34.4,371.1 L 34.4,371.1 L 34.4,371.1 L 34.4,371.1 L 34.5,371.0 L 34.5,371.0 L 34.5,371.0 L 34.5,371.0 L 34.5,370.9 L 34.5,370.9 L 34.5,370.9 L 34.5,370.8 L 34.5,370.8 L 34.2,370.8 Z" style="fill:#000000;fill-rule:evenodd;fill-opacity:1;stroke:#000000;stroke-width:0.0px;stroke-linecap:butt;stroke-linejoin:miter;stroke-opacity:1;"/>
<path class="bond-0 atom-1 atom-0" d="M 323.3,374.8 L 322.8,375.5" style="fill:none;fill-rule:evenodd;stroke:#000000;stroke-width:1.0px;stroke-linecap:butt;stroke-linejoin:miter;stroke-opacity:1"/>
<path class="bond-0 atom-1 atom-0" d="M 320.4,371.9 L 319.3,373.3" style="fill:none;fill-rule:evenodd;stroke:#000000;stroke-width:1.0px;stroke-linecap:butt;stroke-linejoin:miter;stroke-opacity:1"/>
<path class="bond-0 atom-1 atom-0" d="M 317.5,369.0 L 315.8,371.1" style="fill:none;fill-rule:evenodd;stroke:#7F4C19;stroke-width:1.0px;stroke-linecap:butt;stroke-linejoin:miter;stroke-opacity:1"/>
<path class="bond-0 atom-1 atom-0" d="M 314.5,366.1 L 312.3,369.0" style="fill:none;fill-rule:evenodd;stroke:#7F4C19;stroke-width:1.0px;stroke-linecap:butt;stroke-linejoin:miter;stroke-opacity:1"/>
<path class="bond-1 atom-1 atom-2" d="M 326.3,377.6 L 325.2,385.2" style="fill:none;fill-rule:evenodd;stroke:#000000;stroke-width:2.0px;stroke-linecap:butt;stroke-linejoin:miter;stroke-opacity:1"/>
<path class="bond-1 atom-1 atom-2" d="M 325.2,385.2 L 324.1,392.7" style="fill:none;fill-rule:evenodd;stroke:#A01EEF;stroke-width:2.0px;stroke-linecap:butt;stroke-linejoin:miter;stroke-opacity:1"/>
<path class="bond-2 atom-1 atom-3" d="M 326.3,377.6 L 333.3,374.8" style="fill:none;fill-rule:evenodd;stroke:#000000;stroke-width:2.0px;stroke-linecap:butt;stroke-linejoin:miter;stroke-opacity:1"/>
<path class="bond-2 atom-1 atom-3" d="M 333.3,374.8 L 340.4,372.0" style="fill:none;fill-rule:evenodd;stroke:#FF0000;stroke-width:2.0px;stroke-linecap:butt;stroke-linejoin:miter;stroke-opacity:1"/>
<path class="bond-3 atom-3 atom-4" d="M 346.1,373.1 L 350.9,376.8" style="fill:none;fill-rule:evenodd;stroke:#FF0000;stroke-width:2.0px;stroke-linecap:butt;stroke-linejoin:miter;stroke-opacity:1"/>
<path class="bond-3 atom-3 atom-4" d="M 350.9,376.8 L 355.6,380.5" style="fill:none;fill-rule:evenodd;stroke:#FF7F00;stroke-width:2.0px;stroke-linecap:butt;stroke-linejoin:miter;stroke-opacity:1"/>
<path class="bond-4 atom-4 atom-5" d="M 359.8,381.3 L 366.1,379.7 L 365.5,378.0 Z" style="fill:#FF7F00;fill-rule:evenodd;fill-opacity:1;stroke:#FF7F00;stroke-width:2.0px;stroke-linecap:butt;stroke-linejoin:miter;stroke-opacity:1;"/>
<path class="bond-4 atom-4 atom-5" d="M 366.1,379.7 L 371.2,374.7 L 372.5,378.1 Z" style="fill:#FF0000;fill-rule:evenodd;fill-opacity:1;stroke:#FF0000;stroke-width:2.0px;stroke-linecap:butt;stroke-linejoin:miter;stroke-opacity:1;"/>
<path class="bond-4 atom-4 atom-5" d="M 366.1,379.7 L 365.5,378.0 L 371.2,374.7 Z" style="fill:#FF0000;fill-rule:evenodd;fill-opacity:1;stroke:#FF0000;stroke-width:2.0px;stroke-linecap:butt;stroke-linejoin:miter;stroke-opacity:1;"/>
<path class="atom-0" d="M 309.2 366.2 Q 309.7 366.3, 309.9 366.6 Q 310.2 366.9, 310.2 367.4 Q 310.2 368.1, 309.7 368.5 Q 309.3 368.9, 308.4 368.9 L 306.7 368.9 L 306.7 363.7 L 308.2 363.7 Q 309.1 363.7, 309.5 364.1 Q 310.0 364.5, 310.0 365.1 Q 310.0 365.9, 309.2 366.2 M 307.3 364.3 L 307.3 366.0 L 308.2 366.0 Q 308.7 366.0, 309.0 365.7 Q 309.2 365.5, 309.2 365.1 Q 309.2 364.3, 308.2 364.3 L 307.3 364.3 M 308.4 368.3 Q 308.9 368.3, 309.2 368.1 Q 309.4 367.9, 309.4 367.4 Q 309.4 367.0, 309.1 366.8 Q 308.8 366.5, 308.3 366.5 L 307.3 366.5 L 307.3 368.3 L 308.4 368.3 " fill="#7F4C19"/>
<path class="atom-0" d="M 311.4 365.2 L 311.4 365.7 Q 311.8 365.1, 312.5 365.1 Q 312.7 365.1, 313.0 365.2 L 312.8 365.8 Q 312.5 365.7, 312.4 365.7 Q 312.0 365.7, 311.8 365.8 Q 311.6 366.0, 311.5 366.2 L 311.5 368.9 L 310.8 368.9 L 310.8 365.2 L 311.4 365.2 " fill="#7F4C19"/>
<path class="atom-2" d="M 323.3 393.2 L 324.0 393.2 L 324.0 398.4 L 323.3 398.4 L 323.3 393.2 " fill="#A01EEF"/>
<path class="atom-3" d="M 340.9 370.8 Q 340.9 369.6, 341.5 368.9 Q 342.1 368.2, 343.3 368.2 Q 344.4 368.2, 345.0 368.9 Q 345.6 369.6, 345.6 370.8 Q 345.6 372.1, 345.0 372.8 Q 344.4 373.5, 343.3 373.5 Q 342.1 373.5, 341.5 372.8 Q 340.9 372.1, 340.9 370.8 M 343.3 372.9 Q 344.0 372.9, 344.5 372.4 Q 344.9 371.9, 344.9 370.8 Q 344.9 369.8, 344.5 369.3 Q 344.0 368.8, 343.3 368.8 Q 342.5 368.8, 342.0 369.3 Q 341.6 369.8, 341.6 370.8 Q 341.6 371.9, 342.0 372.4 Q 342.5 372.9, 343.3 372.9 " fill="#FF0000"/>
<path class="atom-4" d="M 357.5 379.5 Q 358.4 379.5, 358.9 379.9 Q 359.3 380.3, 359.3 381.1 Q 359.3 381.8, 358.8 382.2 Q 358.4 382.6, 357.5 382.6 L 356.7 382.6 L 356.7 384.7 L 356.0 384.7 L 356.0 379.5 L 357.5 379.5 M 357.5 382.0 Q 358.0 382.0, 358.3 381.8 Q 358.6 381.5, 358.6 381.1 Q 358.6 380.6, 358.3 380.4 Q 358.0 380.1, 357.5 380.1 L 356.7 380.1 L 356.7 382.0 L 357.5 382.0 " fill="#FF7F00"/>
<path class="atom-4" d="M 355.6 385.2 L 356.3 385.2 L 356.3 387.4 L 359.0 387.4 L 359.0 385.2 L 359.7 385.2 L 359.7 390.4 L 359.0 390.4 L 359.0 388.0 L 356.3 388.0 L 356.3 390.4 L 355.6 390.4 L 355.6 385.2 " fill="#FF7F00"/>
<path class="atom-5" d="M 372.3 375.3 Q 372.3 374.1, 372.9 373.4 Q 373.5 372.7, 374.6 372.7 Q 375.8 372.7, 376.4 373.4 Q 377.0 374.1, 377.0 375.3 Q 377.0 376.6, 376.4 377.3 Q 375.8 378.0, 374.6 378.0 Q 373.5 378.0, 372.9 377.3 Q 372.3 376.6, 372.3 375.3 M 374.6 377.4 Q 375.4 377.4, 375.8 376.9 Q 376.3 376.4, 376.3 375.3 Q 376.3 374.3, 375.8 373.8 Q 375.4 373.3, 374.6 373.3 Q 373.8 373.3, 373.4 373.8 Q 373.0 374.3, 373.0 375.3 Q 373.0 376.4, 373.4 376.9 Q 373.8 377.4, 374.6 377.4 " fill="#FF0000"/>
<path class="atom-5" d="M 377.3 373.5 L 379.0 373.5 L 379.0 373.9 L 377.3 373.9 L 377.3 373.5 " fill="#FF0000"/>
<path class="bond-0 atom-0 atom-1" d="M 612.9,376.7 L 607.4,379.0" style="fill:none;fill-rule:evenodd;stroke:#A01EEF;stroke-width:2.0px;stroke-linecap:butt;stroke-linejoin:miter;stroke-opacity:1"/>
<path class="bond-0 atom-0 atom-1" d="M 607.4,379.0 L 602.0,381.3" style="fill:none;fill-rule:evenodd;stroke:#0000FF;stroke-width:2.0px;stroke-linecap:butt;stroke-linejoin:miter;stroke-opacity:1"/>
<path class="bond-1 atom-1 atom-2" d="M 594.4,381.7 L 584.6,374.3" style="fill:none;fill-rule:evenodd;stroke:#0000FF;stroke-width:2.0px;stroke-linecap:butt;stroke-linejoin:miter;stroke-opacity:1"/>
<path class="bond-2 atom-2 atom-3" d="M 579.8,373.5 L 569.8,377.8" style="fill:none;fill-rule:evenodd;stroke:#0000FF;stroke-width:2.0px;stroke-linecap:butt;stroke-linejoin:miter;stroke-opacity:1"/>
<path class="atom-0" d="M 613.4 373.7 L 614.1 373.7 L 614.1 378.9 L 613.4 378.9 L 613.4 373.7 " fill="#A01EEF"/>
<path class="atom-1" d="M 595.7 380.9 L 597.4 383.7 Q 597.6 383.9, 597.9 384.4 Q 598.1 384.9, 598.1 384.9 L 598.1 380.9 L 598.8 380.9 L 598.8 386.1 L 598.1 386.1 L 596.3 383.1 Q 596.1 382.7, 595.9 382.3 Q 595.6 381.9, 595.6 381.8 L 595.6 386.1 L 594.9 386.1 L 594.9 380.9 L 595.7 380.9 " fill="#0000FF"/>
<path class="atom-1" d="M 599.3 381.8 L 600.2 381.8 L 600.2 380.9 L 600.6 380.9 L 600.6 381.8 L 601.5 381.8 L 601.5 382.2 L 600.6 382.2 L 600.6 383.2 L 600.2 383.2 L 600.2 382.2 L 599.3 382.2 L 599.3 381.8 " fill="#0000FF"/>
<path class="atom-1" d="M 594.8 386.6 L 595.5 386.6 L 595.5 388.8 L 598.2 388.8 L 598.2 386.6 L 598.9 386.6 L 598.9 391.8 L 598.2 391.8 L 598.2 389.4 L 595.5 389.4 L 595.5 391.8 L 594.8 391.8 L 594.8 386.6 " fill="#0000FF"/>
<path class="atom-2" d="M 581.1 369.9 L 582.8 372.7 Q 583.0 372.9, 583.2 373.4 Q 583.5 373.9, 583.5 373.9 L 583.5 369.9 L 584.2 369.9 L 584.2 375.1 L 583.5 375.1 L 581.7 372.1 Q 581.5 371.7, 581.2 371.3 Q 581.0 370.9, 581.0 370.8 L 581.0 375.1 L 580.3 375.1 L 580.3 369.9 L 581.1 369.9 " fill="#0000FF"/>
<path class="atom-2" d="M 580.2 364.2 L 580.9 364.2 L 580.9 366.4 L 583.6 366.4 L 583.6 364.2 L 584.3 364.2 L 584.3 369.4 L 583.6 369.4 L 583.6 367.0 L 580.9 367.0 L 580.9 369.4 L 580.2 369.4 L 580.2 364.2 " fill="#0000FF"/>
<path class="atom-3" d="M 558.8 377.1 L 559.5 377.1 L 559.5 379.3 L 562.1 379.3 L 562.1 377.1 L 562.8 377.1 L 562.8 382.3 L 562.1 382.3 L 562.1 379.9 L 559.5 379.9 L 559.5 382.3 L 558.8 382.3 L 558.8 377.1 " fill="#0000FF"/>
<path class="atom-3" d="M 564.3 377.1 L 566.0 379.8 Q 566.1 380.1, 566.4 380.6 Q 566.7 381.1, 566.7 381.1 L 566.7 377.1 L 567.4 377.1 L 567.4 382.3 L 566.7 382.3 L 564.8 379.3 Q 564.6 378.9, 564.4 378.5 Q 564.2 378.1, 564.1 378.0 L 564.1 382.3 L 563.4 382.3 L 563.4 377.1 L 564.3 377.1 " fill="#0000FF"/>
<path class="atom-3" d="M 567.6 377.9 L 569.4 377.9 L 569.4 378.3 L 567.6 378.3 L 567.6 377.9 " fill="#0000FF"/>
<path d="M 597.2,392.3 L 597.2,392.3 L 597.2,392.3 L 597.2,392.2 L 597.2,392.2 L 597.2,392.2 L 597.2,392.2 L 597.2,392.1 L 597.2,392.1 L 597.1,392.1 L 597.1,392.1 L 597.1,392.0 L 597.1,392.0 L 597.0,392.0 L 597.0,392.0 L 597.0,392.0 L 596.9,392.0 L 596.9,392.0 L 596.9,392.0 L 596.8,392.0 L 596.8,392.0 L 596.8,392.0 L 596.8,392.0 L 596.7,392.0 L 596.7,392.0 L 596.7,392.0 L 596.6,392.1 L 596.6,392.1 L 596.6,392.1 L 596.6,392.1 L 596.6,392.1 L 596.5,392.2 L 596.5,392.2 L 596.5,392.2 L 596.5,392.3 L 596.5,392.3 L 596.5,392.3 L 596.5,392.4 L 596.5,392.4 L 596.5,392.4 L 596.5,392.5 L 596.5,392.5 L 596.5,392.5 L 596.6,392.5 L 596.6,392.6 L 596.6,392.6 L 596.6,392.6 L 596.6,392.6 L 596.7,392.6 L 596.7,392.7 L 596.7,392.7 L 596.8,392.7 L 596.8,392.7 L 596.8,392.7 L 596.8,392.7 L 596.9,392.7 L 596.9,392.7 L 596.9,392.7 L 597.0,392.7 L 597.0,392.7 L 597.0,392.7 L 597.1,392.7 L 597.1,392.6 L 597.1,392.6 L 597.1,392.6 L 597.2,392.6 L 597.2,392.5 L 597.2,392.5 L 597.2,392.5 L 597.2,392.5 L 597.2,392.4 L 597.2,392.4 L 597.2,392.4 L 597.2,392.3 L 596.9,392.3 Z" style="fill:#000000;fill-rule:evenodd;fill-opacity:1;stroke:#000000;stroke-width:0.0px;stroke-linecap:butt;stroke-linejoin:miter;stroke-opacity:1;"/>
<path class="bond-0 atom-0 atom-1" d="M 42.9,633.5 L 49.8,629.5" style="fill:none;fill-rule:evenodd;stroke:#000000;stroke-width:2.0px;stroke-linecap:butt;stroke-linejoin:miter;stroke-opacity:1"/>
<path class="bond-0 atom-0 atom-1" d="M 49.8,629.5 L 56.7,625.6" style="fill:none;fill-rule:evenodd;stroke:#CCCC00;stroke-width:2.0px;stroke-linecap:butt;stroke-linejoin:miter;stroke-opacity:1"/>
<path class="bond-0 atom-0 atom-1" d="M 41.1,630.3 L 48.0,626.4" style="fill:none;fill-rule:evenodd;stroke:#000000;stroke-width:2.0px;stroke-linecap:butt;stroke-linejoin:miter;stroke-opacity:1"/>
<path class="bond-0 atom-0 atom-1" d="M 48.0,626.4 L 54.8,622.4" style="fill:none;fill-rule:evenodd;stroke:#CCCC00;stroke-width:2.0px;stroke-linecap:butt;stroke-linejoin:miter;stroke-opacity:1"/>
<path class="bond-1 atom-1 atom-2" d="M 60.0,624.0 L 65.5,627.2" style="fill:none;fill-rule:evenodd;stroke:#CCCC00;stroke-width:2.0px;stroke-linecap:butt;stroke-linejoin:miter;stroke-opacity:1"/>
<path class="bond-1 atom-1 atom-2" d="M 65.5,627.2 L 70.9,630.3" style="fill:none;fill-rule:evenodd;stroke:#FF0000;stroke-width:2.0px;stroke-linecap:butt;stroke-linejoin:miter;stroke-opacity:1"/>
<path class="bond-2 atom-2 atom-3" d="M 76.5,630.3 L 81.9,627.2" style="fill:none;fill-rule:evenodd;stroke:#FF0000;stroke-width:2.0px;stroke-linecap:butt;stroke-linejoin:miter;stroke-opacity:1"/>
<path class="bond-2 atom-2 atom-3" d="M 81.9,627.2 L 87.2,624.1" style="fill:none;fill-rule:evenodd;stroke:#0000FF;stroke-width:2.0px;stroke-linecap:butt;stroke-linejoin:miter;stroke-opacity:1"/>
<path class="bond-3 atom-3 atom-4" d="M 92.0,624.2 L 97.7,627.5" style="fill:none;fill-rule:evenodd;stroke:#0000FF;stroke-width:2.0px;stroke-linecap:butt;stroke-linejoin:miter;stroke-opacity:1"/>
<path class="bond-3 atom-3 atom-4" d="M 97.7,627.5 L 103.4,630.7" style="fill:none;fill-rule:evenodd;stroke:#CCCC00;stroke-width:2.0px;stroke-linecap:butt;stroke-linejoin:miter;stroke-opacity:1"/>
<path class="bond-4 atom-4 atom-5" d="M 107.5,630.7 L 114.4,626.7" style="fill:none;fill-rule:evenodd;stroke:#CCCC00;stroke-width:2.0px;stroke-linecap:butt;stroke-linejoin:miter;stroke-opacity:1"/>
<path class="bond-4 atom-4 atom-5" d="M 114.4,626.7 L 121.3,622.8" style="fill:none;fill-rule:evenodd;stroke:#000000;stroke-width:2.0px;stroke-linecap:butt;stroke-linejoin:miter;stroke-opacity:1"/>
<path class="bond-5 atom-5 atom-6" d="M 120.3,624.4 L 127.1,628.2" style="fill:none;fill-rule:evenodd;stroke:#000000;stroke-width:2.0px;stroke-linecap:butt;stroke-linejoin:miter;stroke-opacity:1"/>
<path class="bond-5 atom-5 atom-6" d="M 127.1,628.2 L 133.8,632.1" style="fill:none;fill-rule:evenodd;stroke:#0000FF;stroke-width:2.0px;stroke-linecap:butt;stroke-linejoin:miter;stroke-opacity:1"/>
<path class="bond-5 atom-5 atom-6" d="M 122.2,621.2 L 128.9,625.1" style="fill:none;fill-rule:evenodd;stroke:#000000;stroke-width:2.0px;stroke-linecap:butt;stroke-linejoin:miter;stroke-opacity:1"/>
<path class="bond-5 atom-5 atom-6" d="M 128.9,625.1 L 135.6,628.9" style="fill:none;fill-rule:evenodd;stroke:#0000FF;stroke-width:2.0px;stroke-linecap:butt;stroke-linejoin:miter;stroke-opacity:1"/>
<path class="atom-1" d="M 56.4 624.6 Q 56.5 624.6, 56.7 624.7 Q 56.9 624.8, 57.2 624.8 Q 57.5 624.9, 57.7 624.9 Q 58.2 624.9, 58.5 624.7 Q 58.8 624.4, 58.8 624.0 Q 58.8 623.7, 58.6 623.5 Q 58.5 623.4, 58.3 623.3 Q 58.1 623.2, 57.7 623.1 Q 57.2 622.9, 57.0 622.8 Q 56.7 622.7, 56.5 622.4 Q 56.3 622.1, 56.3 621.6 Q 56.3 621.0, 56.7 620.6 Q 57.2 620.2, 58.1 620.2 Q 58.7 620.2, 59.4 620.5 L 59.2 621.0 Q 58.6 620.8, 58.1 620.8 Q 57.6 620.8, 57.3 621.0 Q 57.0 621.2, 57.0 621.6 Q 57.0 621.8, 57.2 622.0 Q 57.3 622.2, 57.5 622.3 Q 57.7 622.4, 58.1 622.5 Q 58.6 622.6, 58.8 622.8 Q 59.1 622.9, 59.3 623.2 Q 59.5 623.5, 59.5 624.0 Q 59.5 624.7, 59.0 625.1 Q 58.6 625.5, 57.8 625.5 Q 57.3 625.5, 56.9 625.4 Q 56.6 625.3, 56.2 625.1 L 56.4 624.6 " fill="#CCCC00"/>
<path class="atom-1" d="M 55.8 614.3 L 56.5 614.3 L 56.5 616.5 L 59.2 616.5 L 59.2 614.3 L 59.9 614.3 L 59.9 619.5 L 59.2 619.5 L 59.2 617.1 L 56.5 617.1 L 56.5 619.5 L 55.8 619.5 L 55.8 614.3 " fill="#CCCC00"/>
<path class="atom-1" d="M 60.3 615.3 L 61.2 615.3 L 61.2 614.3 L 61.6 614.3 L 61.6 615.3 L 62.6 615.3 L 62.6 615.6 L 61.6 615.6 L 61.6 616.6 L 61.2 616.6 L 61.2 615.6 L 60.3 615.6 L 60.3 615.3 " fill="#CCCC00"/>
<path class="atom-2" d="M 71.3 631.9 Q 71.3 630.7, 71.9 630.0 Q 72.6 629.3, 73.7 629.3 Q 74.9 629.3, 75.5 630.0 Q 76.1 630.7, 76.1 631.9 Q 76.1 633.2, 75.5 633.9 Q 74.8 634.6, 73.7 634.6 Q 72.6 634.6, 71.9 633.9 Q 71.3 633.2, 71.3 631.9 M 73.7 634.0 Q 74.5 634.0, 74.9 633.5 Q 75.4 633.0, 75.4 631.9 Q 75.4 630.9, 74.9 630.4 Q 74.5 629.9, 73.7 629.9 Q 72.9 629.9, 72.5 630.4 Q 72.1 630.9, 72.1 631.9 Q 72.1 633.0, 72.5 633.5 Q 72.9 634.0, 73.7 634.0 " fill="#FF0000"/>
<path class="atom-3" d="M 88.4 620.2 L 90.1 622.9 Q 90.3 623.2, 90.5 623.7 Q 90.8 624.2, 90.8 624.2 L 90.8 620.2 L 91.5 620.2 L 91.5 625.4 L 90.8 625.4 L 89.0 622.4 Q 88.8 622.0, 88.5 621.6 Q 88.3 621.2, 88.3 621.1 L 88.3 625.4 L 87.6 625.4 L 87.6 620.2 L 88.4 620.2 " fill="#0000FF"/>
<path class="atom-3" d="M 92.0 621.1 L 92.9 621.1 L 92.9 620.2 L 93.3 620.2 L 93.3 621.1 L 94.2 621.1 L 94.2 621.5 L 93.3 621.5 L 93.3 622.4 L 92.9 622.4 L 92.9 621.5 L 92.0 621.5 L 92.0 621.1 " fill="#0000FF"/>
<path class="atom-4" d="M 103.9 633.7 Q 104.0 633.7, 104.2 633.8 Q 104.5 633.9, 104.7 634.0 Q 105.0 634.1, 105.3 634.1 Q 105.8 634.1, 106.1 633.8 Q 106.3 633.6, 106.3 633.2 Q 106.3 632.9, 106.2 632.7 Q 106.1 632.5, 105.8 632.4 Q 105.6 632.3, 105.3 632.2 Q 104.8 632.1, 104.5 632.0 Q 104.2 631.8, 104.0 631.5 Q 103.9 631.3, 103.9 630.8 Q 103.9 630.1, 104.3 629.7 Q 104.7 629.3, 105.6 629.3 Q 106.2 629.3, 106.9 629.6 L 106.7 630.2 Q 106.1 629.9, 105.6 629.9 Q 105.1 629.9, 104.9 630.1 Q 104.6 630.3, 104.6 630.7 Q 104.6 631.0, 104.7 631.2 Q 104.9 631.3, 105.1 631.4 Q 105.3 631.5, 105.6 631.6 Q 106.1 631.8, 106.4 631.9 Q 106.7 632.1, 106.9 632.4 Q 107.1 632.7, 107.1 633.2 Q 107.1 633.9, 106.6 634.3 Q 106.1 634.6, 105.3 634.6 Q 104.8 634.6, 104.5 634.5 Q 104.2 634.4, 103.7 634.3 L 103.9 633.7 " fill="#CCCC00"/>
<path class="atom-6" d="M 136.0 629.3 L 137.7 632.1 Q 137.8 632.3, 138.1 632.8 Q 138.4 633.3, 138.4 633.4 L 138.4 629.3 L 139.1 629.3 L 139.1 634.5 L 138.4 634.5 L 136.5 631.5 Q 136.3 631.2, 136.1 630.8 Q 135.9 630.4, 135.8 630.2 L 135.8 634.5 L 135.1 634.5 L 135.1 629.3 L 136.0 629.3 " fill="#0000FF"/>
<path class="atom-6" d="M 139.3 630.2 L 141.1 630.2 L 141.1 630.6 L 139.3 630.6 L 139.3 630.2 " fill="#0000FF"/>
<path d="M 40.2,631.2 L 40.2,631.2 L 40.2,631.1 L 40.2,631.1 L 40.2,631.1 L 40.1,631.0 L 40.1,631.0 L 40.1,631.0 L 40.1,631.0 L 40.1,630.9 L 40.1,630.9 L 40.0,630.9 L 40.0,630.9 L 40.0,630.9 L 39.9,630.8 L 39.9,630.8 L 39.9,630.8 L 39.9,630.8 L 39.8,630.8 L 39.8,630.8 L 39.8,630.8 L 39.7,630.8 L 39.7,630.8 L 39.7,630.9 L 39.6,630.9 L 39.6,630.9 L 39.6,630.9 L 39.6,630.9 L 39.5,630.9 L 39.5,631.0 L 39.5,631.0 L 39.5,631.0 L 39.5,631.1 L 39.5,631.1 L 39.5,631.1 L 39.4,631.1 L 39.4,631.2 L 39.4,631.2 L 39.4,631.2 L 39.5,631.3 L 39.5,631.3 L 39.5,631.3 L 39.5,631.4 L 39.5,631.4 L 39.5,631.4 L 39.5,631.4 L 39.6,631.5 L 39.6,631.5 L 39.6,631.5 L 39.6,631.5 L 39.7,631.5 L 39.7,631.5 L 39.7,631.5 L 39.8,631.6 L 39.8,631.6 L 39.8,631.6 L 39.9,631.6 L 39.9,631.5 L 39.9,631.5 L 39.9,631.5 L 40.0,631.5 L 40.0,631.5 L 40.0,631.5 L 40.1,631.5 L 40.1,631.4 L 40.1,631.4 L 40.1,631.4 L 40.1,631.4 L 40.1,631.3 L 40.2,631.3 L 40.2,631.3 L 40.2,631.3 L 40.2,631.2 L 40.2,631.2 L 39.8,631.2 Z" style="fill:#000000;fill-rule:evenodd;fill-opacity:1;stroke:#000000;stroke-width:0.0px;stroke-linecap:butt;stroke-linejoin:miter;stroke-opacity:1;"/>
<path d="M 40.2,632.7 L 40.2,632.6 L 40.2,632.6 L 40.2,632.6 L 40.2,632.5 L 40.1,632.5 L 40.1,632.5 L 40.1,632.4 L 40.1,632.4 L 40.1,632.4 L 40.1,632.4 L 40.0,632.4 L 40.0,632.3 L 40.0,632.3 L 39.9,632.3 L 39.9,632.3 L 39.9,632.3 L 39.9,632.3 L 39.8,632.3 L 39.8,632.3 L 39.8,632.3 L 39.7,632.3 L 39.7,632.3 L 39.7,632.3 L 39.6,632.3 L 39.6,632.3 L 39.6,632.4 L 39.6,632.4 L 39.5,632.4 L 39.5,632.4 L 39.5,632.5 L 39.5,632.5 L 39.5,632.5 L 39.5,632.5 L 39.5,632.6 L 39.4,632.6 L 39.4,632.6 L 39.4,632.7 L 39.4,632.7 L 39.5,632.7 L 39.5,632.8 L 39.5,632.8 L 39.5,632.8 L 39.5,632.8 L 39.5,632.9 L 39.5,632.9 L 39.6,632.9 L 39.6,632.9 L 39.6,633.0 L 39.6,633.0 L 39.7,633.0 L 39.7,633.0 L 39.7,633.0 L 39.8,633.0 L 39.8,633.0 L 39.8,633.0 L 39.9,633.0 L 39.9,633.0 L 39.9,633.0 L 39.9,633.0 L 40.0,633.0 L 40.0,633.0 L 40.0,633.0 L 40.1,632.9 L 40.1,632.9 L 40.1,632.9 L 40.1,632.9 L 40.1,632.8 L 40.1,632.8 L 40.2,632.8 L 40.2,632.7 L 40.2,632.7 L 40.2,632.7 L 40.2,632.7 L 39.8,632.7 Z" style="fill:#000000;fill-rule:evenodd;fill-opacity:1;stroke:#000000;stroke-width:0.0px;stroke-linecap:butt;stroke-linejoin:miter;stroke-opacity:1;"/>
<path d="M 58.2,613.8 L 58.2,613.7 L 58.2,613.7 L 58.2,613.7 L 58.2,613.6 L 58.2,613.6 L 58.2,613.6 L 58.2,613.6 L 58.1,613.5 L 58.1,613.5 L 58.1,613.5 L 58.1,613.5 L 58.0,613.5 L 58.0,613.4 L 58.0,613.4 L 58.0,613.4 L 57.9,613.4 L 57.9,613.4 L 57.9,613.4 L 57.8,613.4 L 57.8,613.4 L 57.8,613.4 L 57.7,613.4 L 57.7,613.4 L 57.7,613.4 L 57.7,613.5 L 57.6,613.5 L 57.6,613.5 L 57.6,613.5 L 57.6,613.5 L 57.5,613.6 L 57.5,613.6 L 57.5,613.6 L 57.5,613.7 L 57.5,613.7 L 57.5,613.7 L 57.5,613.7 L 57.5,613.8 L 57.5,613.8 L 57.5,613.8 L 57.5,613.9 L 57.5,613.9 L 57.5,613.9 L 57.5,614.0 L 57.6,614.0 L 57.6,614.0 L 57.6,614.0 L 57.6,614.1 L 57.7,614.1 L 57.7,614.1 L 57.7,614.1 L 57.7,614.1 L 57.8,614.1 L 57.8,614.1 L 57.8,614.1 L 57.9,614.1 L 57.9,614.1 L 57.9,614.1 L 58.0,614.1 L 58.0,614.1 L 58.0,614.1 L 58.0,614.1 L 58.1,614.1 L 58.1,614.0 L 58.1,614.0 L 58.1,614.0 L 58.2,614.0 L 58.2,613.9 L 58.2,613.9 L 58.2,613.9 L 58.2,613.9 L 58.2,613.8 L 58.2,613.8 L 58.2,613.8 L 57.9,613.8 Z" style="fill:#000000;fill-rule:evenodd;fill-opacity:1;stroke:#000000;stroke-width:0.0px;stroke-linecap:butt;stroke-linejoin:miter;stroke-opacity:1;"/>
<path d="M 90.7,619.6 L 90.7,619.6 L 90.6,619.5 L 90.6,619.5 L 90.6,619.5 L 90.6,619.5 L 90.6,619.4 L 90.6,619.4 L 90.6,619.4 L 90.5,619.3 L 90.5,619.3 L 90.5,619.3 L 90.5,619.3 L 90.4,619.3 L 90.4,619.3 L 90.4,619.3 L 90.4,619.2 L 90.3,619.2 L 90.3,619.2 L 90.3,619.2 L 90.2,619.2 L 90.2,619.2 L 90.2,619.3 L 90.1,619.3 L 90.1,619.3 L 90.1,619.3 L 90.1,619.3 L 90.0,619.3 L 90.0,619.4 L 90.0,619.4 L 90.0,619.4 L 90.0,619.4 L 89.9,619.5 L 89.9,619.5 L 89.9,619.5 L 89.9,619.6 L 89.9,619.6 L 89.9,619.6 L 89.9,619.7 L 89.9,619.7 L 89.9,619.7 L 89.9,619.7 L 90.0,619.8 L 90.0,619.8 L 90.0,619.8 L 90.0,619.8 L 90.0,619.9 L 90.1,619.9 L 90.1,619.9 L 90.1,619.9 L 90.1,619.9 L 90.2,620.0 L 90.2,620.0 L 90.2,620.0 L 90.3,620.0 L 90.3,620.0 L 90.3,620.0 L 90.4,620.0 L 90.4,620.0 L 90.4,619.9 L 90.4,619.9 L 90.5,619.9 L 90.5,619.9 L 90.5,619.9 L 90.5,619.9 L 90.6,619.8 L 90.6,619.8 L 90.6,619.8 L 90.6,619.8 L 90.6,619.7 L 90.6,619.7 L 90.6,619.7 L 90.7,619.6 L 90.7,619.6 L 90.3,619.6 Z" style="fill:#000000;fill-rule:evenodd;fill-opacity:1;stroke:#000000;stroke-width:0.0px;stroke-linecap:butt;stroke-linejoin:miter;stroke-opacity:1;"/>
<path d="M 89.2,619.6 L 89.2,619.6 L 89.2,619.5 L 89.2,619.5 L 89.2,619.5 L 89.2,619.5 L 89.1,619.4 L 89.1,619.4 L 89.1,619.4 L 89.1,619.3 L 89.1,619.3 L 89.0,619.3 L 89.0,619.3 L 89.0,619.3 L 89.0,619.3 L 88.9,619.3 L 88.9,619.2 L 88.9,619.2 L 88.8,619.2 L 88.8,619.2 L 88.8,619.2 L 88.7,619.2 L 88.7,619.3 L 88.7,619.3 L 88.7,619.3 L 88.6,619.3 L 88.6,619.3 L 88.6,619.3 L 88.6,619.4 L 88.5,619.4 L 88.5,619.4 L 88.5,619.4 L 88.5,619.5 L 88.5,619.5 L 88.5,619.5 L 88.5,619.6 L 88.5,619.6 L 88.5,619.6 L 88.5,619.7 L 88.5,619.7 L 88.5,619.7 L 88.5,619.7 L 88.5,619.8 L 88.5,619.8 L 88.5,619.8 L 88.6,619.8 L 88.6,619.9 L 88.6,619.9 L 88.6,619.9 L 88.7,619.9 L 88.7,619.9 L 88.7,620.0 L 88.7,620.0 L 88.8,620.0 L 88.8,620.0 L 88.8,620.0 L 88.9,620.0 L 88.9,620.0 L 88.9,620.0 L 89.0,619.9 L 89.0,619.9 L 89.0,619.9 L 89.0,619.9 L 89.1,619.9 L 89.1,619.9 L 89.1,619.8 L 89.1,619.8 L 89.1,619.8 L 89.2,619.8 L 89.2,619.7 L 89.2,619.7 L 89.2,619.7 L 89.2,619.6 L 89.2,619.6 L 88.8,619.6 Z" style="fill:#000000;fill-rule:evenodd;fill-opacity:1;stroke:#000000;stroke-width:0.0px;stroke-linecap:butt;stroke-linejoin:miter;stroke-opacity:1;"/>
<path class="bond-0 atom-0 atom-1" d="M 267.1,632.9 L 277.1,626.7" style="fill:none;fill-rule:evenodd;stroke:#FF0000;stroke-width:2.0px;stroke-linecap:butt;stroke-linejoin:miter;stroke-opacity:1"/>
<path class="bond-0 atom-0 atom-1" d="M 265.2,629.8 L 275.1,623.6" style="fill:none;fill-rule:evenodd;stroke:#FF0000;stroke-width:2.0px;stroke-linecap:butt;stroke-linejoin:miter;stroke-opacity:1"/>
<path class="bond-1 atom-1 atom-2" d="M 281.7,625.0 L 287.2,627.9" style="fill:none;fill-rule:evenodd;stroke:#FF0000;stroke-width:2.0px;stroke-linecap:butt;stroke-linejoin:miter;stroke-opacity:1"/>
<path class="bond-1 atom-1 atom-2" d="M 287.2,627.9 L 292.7,630.8" style="fill:none;fill-rule:evenodd;stroke:#0000FF;stroke-width:2.0px;stroke-linecap:butt;stroke-linejoin:miter;stroke-opacity:1"/>
<path class="bond-2 atom-2 atom-3" d="M 297.4,630.5 L 304.0,626.4" style="fill:none;fill-rule:evenodd;stroke:#0000FF;stroke-width:2.0px;stroke-linecap:butt;stroke-linejoin:miter;stroke-opacity:1"/>
<path class="bond-2 atom-2 atom-3" d="M 304.0,626.4 L 310.5,622.3" style="fill:none;fill-rule:evenodd;stroke:#000000;stroke-width:2.0px;stroke-linecap:butt;stroke-linejoin:miter;stroke-opacity:1"/>
<path class="bond-3 atom-3 atom-4" d="M 310.5,622.3 L 317.5,626.1" style="fill:none;fill-rule:evenodd;stroke:#000000;stroke-width:2.0px;stroke-linecap:butt;stroke-linejoin:miter;stroke-opacity:1"/>
<path class="bond-3 atom-3 atom-4" d="M 317.5,626.1 L 324.6,629.8" style="fill:none;fill-rule:evenodd;stroke:#FF7F00;stroke-width:2.0px;stroke-linecap:butt;stroke-linejoin:miter;stroke-opacity:1"/>
<path class="bond-4 atom-4 atom-5" d="M 331.5,627.9 L 335.7,625.3" style="fill:none;fill-rule:evenodd;stroke:#FF7F00;stroke-width:2.0px;stroke-linecap:butt;stroke-linejoin:miter;stroke-opacity:1"/>
<path class="bond-4 atom-4 atom-5" d="M 335.7,625.3 L 339.9,622.7" style="fill:none;fill-rule:evenodd;stroke:#0000FF;stroke-width:2.0px;stroke-linecap:butt;stroke-linejoin:miter;stroke-opacity:1"/>
<path class="bond-5 atom-5 atom-6" d="M 344.6,622.5 L 356.0,628.6" style="fill:none;fill-rule:evenodd;stroke:#0000FF;stroke-width:2.0px;stroke-linecap:butt;stroke-linejoin:miter;stroke-opacity:1"/>
<path class="bond-6 atom-6 atom-7" d="M 363.3,626.8 L 367.6,624.1" style="fill:none;fill-rule:evenodd;stroke:#0000FF;stroke-width:2.0px;stroke-linecap:butt;stroke-linejoin:miter;stroke-opacity:1"/>
<path class="bond-6 atom-6 atom-7" d="M 367.6,624.1 L 371.9,621.4" style="fill:none;fill-rule:evenodd;stroke:#FF7F00;stroke-width:2.0px;stroke-linecap:butt;stroke-linejoin:miter;stroke-opacity:1"/>
<path class="bond-7 atom-7 atom-8" d="M 376.0,621.3 L 382.0,624.5" style="fill:none;fill-rule:evenodd;stroke:#FF7F00;stroke-width:2.0px;stroke-linecap:butt;stroke-linejoin:miter;stroke-opacity:1"/>
<path class="bond-7 atom-7 atom-8" d="M 382.0,624.5 L 388.0,627.7" style="fill:none;fill-rule:evenodd;stroke:#CCCC00;stroke-width:2.0px;stroke-linecap:butt;stroke-linejoin:miter;stroke-opacity:1"/>
<path class="bond-7 atom-7 atom-8" d="M 376.1,625.5 L 380.3,627.7" style="fill:none;fill-rule:evenodd;stroke:#FF7F00;stroke-width:2.0px;stroke-linecap:butt;stroke-linejoin:miter;stroke-opacity:1"/>
<path class="bond-7 atom-7 atom-8" d="M 380.3,627.7 L 384.5,629.9" style="fill:none;fill-rule:evenodd;stroke:#CCCC00;stroke-width:2.0px;stroke-linecap:butt;stroke-linejoin:miter;stroke-opacity:1"/>
<path class="bond-8 atom-8 atom-9" d="M 392.2,627.4 L 398.2,624.8 L 397.2,623.2 Z" style="fill:#CCCC00;fill-rule:evenodd;fill-opacity:1;stroke:#CCCC00;stroke-width:2.0px;stroke-linecap:butt;stroke-linejoin:miter;stroke-opacity:1;"/>
<path class="bond-8 atom-8 atom-9" d="M 398.2,624.8 L 402.2,619.0 L 404.2,622.1 Z" style="fill:#0000FF;fill-rule:evenodd;fill-opacity:1;stroke:#0000FF;stroke-width:2.0px;stroke-linecap:butt;stroke-linejoin:miter;stroke-opacity:1;"/>
<path class="bond-8 atom-8 atom-9" d="M 398.2,624.8 L 397.2,623.2 L 402.2,619.0 Z" style="fill:#0000FF;fill-rule:evenodd;fill-opacity:1;stroke:#0000FF;stroke-width:2.0px;stroke-linecap:butt;stroke-linejoin:miter;stroke-opacity:1;"/>
<path class="bond-9 atom-8 atom-10" d="M 390.2,631.9 L 390.4,638.0" style="fill:none;fill-rule:evenodd;stroke:#CCCC00;stroke-width:2.0px;stroke-linecap:butt;stroke-linejoin:miter;stroke-opacity:1"/>
<path class="bond-9 atom-8 atom-10" d="M 390.4,638.0 L 390.6,644.1" style="fill:none;fill-rule:evenodd;stroke:#A01EEF;stroke-width:2.0px;stroke-linecap:butt;stroke-linejoin:miter;stroke-opacity:1"/>
<path class="atom-0" d="M 260.9 633.1 Q 260.9 631.9, 261.6 631.2 Q 262.2 630.5, 263.3 630.5 Q 264.5 630.5, 265.1 631.2 Q 265.7 631.9, 265.7 633.1 Q 265.7 634.4, 265.1 635.1 Q 264.5 635.8, 263.3 635.8 Q 262.2 635.8, 261.6 635.1 Q 260.9 634.4, 260.9 633.1 M 263.3 635.3 Q 264.1 635.3, 264.5 634.7 Q 265.0 634.2, 265.0 633.1 Q 265.0 632.1, 264.5 631.6 Q 264.1 631.1, 263.3 631.1 Q 262.5 631.1, 262.1 631.6 Q 261.7 632.1, 261.7 633.1 Q 261.7 634.2, 262.1 634.7 Q 262.5 635.3, 263.3 635.3 " fill="#FF0000"/>
<path class="atom-1" d="M 276.5 623.5 Q 276.5 622.2, 277.1 621.5 Q 277.7 620.8, 278.8 620.8 Q 280.0 620.8, 280.6 621.5 Q 281.2 622.2, 281.2 623.5 Q 281.2 624.7, 280.6 625.4 Q 280.0 626.1, 278.8 626.1 Q 277.7 626.1, 277.1 625.4 Q 276.5 624.7, 276.5 623.5 M 278.8 625.6 Q 279.6 625.6, 280.1 625.0 Q 280.5 624.5, 280.5 623.5 Q 280.5 622.4, 280.1 621.9 Q 279.6 621.4, 278.8 621.4 Q 278.1 621.4, 277.6 621.9 Q 277.2 622.4, 277.2 623.5 Q 277.2 624.5, 277.6 625.0 Q 278.1 625.6, 278.8 625.6 " fill="#FF0000"/>
<path class="atom-1" d="M 281.7 621.7 L 282.6 621.7 L 282.6 620.8 L 283.0 620.8 L 283.0 621.7 L 283.9 621.7 L 283.9 622.1 L 283.0 622.1 L 283.0 623.1 L 282.6 623.1 L 282.6 622.1 L 281.7 622.1 L 281.7 621.7 " fill="#FF0000"/>
<path class="atom-2" d="M 293.9 629.4 L 295.6 632.2 Q 295.7 632.5, 296.0 633.0 Q 296.3 633.4, 296.3 633.5 L 296.3 629.4 L 297.0 629.4 L 297.0 634.6 L 296.3 634.6 L 294.4 631.6 Q 294.2 631.3, 294.0 630.9 Q 293.8 630.5, 293.7 630.3 L 293.7 634.6 L 293.0 634.6 L 293.0 629.4 L 293.9 629.4 " fill="#0000FF"/>
<path class="atom-2" d="M 293.0 635.1 L 293.7 635.1 L 293.7 637.4 L 296.3 637.4 L 296.3 635.1 L 297.0 635.1 L 297.0 640.3 L 296.3 640.3 L 296.3 637.9 L 293.7 637.9 L 293.7 640.3 L 293.0 640.3 L 293.0 635.1 " fill="#0000FF"/>
<path class="atom-4" d="M 326.6 628.4 Q 327.4 628.4, 327.9 628.8 Q 328.3 629.1, 328.3 629.9 Q 328.3 630.6, 327.9 631.0 Q 327.4 631.4, 326.6 631.4 L 325.7 631.4 L 325.7 633.5 L 325.0 633.5 L 325.0 628.4 L 326.6 628.4 M 326.6 630.8 Q 327.1 630.8, 327.3 630.6 Q 327.6 630.3, 327.6 629.9 Q 327.6 629.4, 327.3 629.2 Q 327.1 628.9, 326.6 628.9 L 325.7 628.9 L 325.7 630.8 L 326.6 630.8 " fill="#FF7F00"/>
<path class="atom-4" d="M 328.8 629.3 L 329.7 629.3 L 329.7 628.3 L 330.1 628.3 L 330.1 629.3 L 331.0 629.3 L 331.0 629.6 L 330.1 629.6 L 330.1 630.6 L 329.7 630.6 L 329.7 629.6 L 328.8 629.6 L 328.8 629.3 " fill="#FF7F00"/>
<path class="atom-5" d="M 341.1 618.7 L 342.8 621.4 Q 342.9 621.7, 343.2 622.2 Q 343.5 622.7, 343.5 622.7 L 343.5 618.7 L 344.2 618.7 L 344.2 623.8 L 343.5 623.8 L 341.6 620.8 Q 341.4 620.5, 341.2 620.1 Q 341.0 619.7, 340.9 619.6 L 340.9 623.8 L 340.2 623.8 L 340.2 618.7 L 341.1 618.7 " fill="#0000FF"/>
<path class="atom-5" d="M 344.6 619.6 L 345.5 619.6 L 345.5 618.6 L 345.9 618.6 L 345.9 619.6 L 346.9 619.6 L 346.9 619.9 L 345.9 619.9 L 345.9 620.9 L 345.5 620.9 L 345.5 619.9 L 344.6 619.9 L 344.6 619.6 " fill="#0000FF"/>
<path class="atom-6" d="M 357.2 627.3 L 358.9 630.0 Q 359.1 630.3, 359.4 630.8 Q 359.6 631.3, 359.6 631.3 L 359.6 627.3 L 360.3 627.3 L 360.3 632.4 L 359.6 632.4 L 357.8 629.4 Q 357.6 629.1, 357.4 628.7 Q 357.1 628.3, 357.1 628.2 L 357.1 632.4 L 356.4 632.4 L 356.4 627.3 L 357.2 627.3 " fill="#0000FF"/>
<path class="atom-6" d="M 360.8 628.2 L 361.7 628.2 L 361.7 627.2 L 362.1 627.2 L 362.1 628.2 L 363.0 628.2 L 363.0 628.5 L 362.1 628.5 L 362.1 629.5 L 361.7 629.5 L 361.7 628.5 L 360.8 628.5 L 360.8 628.2 " fill="#0000FF"/>
<path class="atom-6" d="M 356.3 633.0 L 357.0 633.0 L 357.0 635.2 L 359.7 635.2 L 359.7 633.0 L 360.4 633.0 L 360.4 638.1 L 359.7 638.1 L 359.7 635.7 L 357.0 635.7 L 357.0 638.1 L 356.3 638.1 L 356.3 633.0 " fill="#0000FF"/>
<path class="atom-7" d="M 373.8 617.6 Q 374.6 617.6, 375.1 618.0 Q 375.5 618.4, 375.5 619.1 Q 375.5 619.8, 375.1 620.2 Q 374.6 620.6, 373.8 620.6 L 372.9 620.6 L 372.9 622.7 L 372.2 622.7 L 372.2 617.6 L 373.8 617.6 M 373.8 620.0 Q 374.3 620.0, 374.5 619.8 Q 374.8 619.5, 374.8 619.1 Q 374.8 618.6, 374.5 618.4 Q 374.3 618.1, 373.8 618.1 L 372.9 618.1 L 372.9 620.0 L 373.8 620.0 " fill="#FF7F00"/>
<path class="atom-7" d="M 371.9 611.9 L 372.6 611.9 L 372.6 614.1 L 375.2 614.1 L 375.2 611.9 L 375.9 611.9 L 375.9 617.0 L 375.2 617.0 L 375.2 614.6 L 372.6 614.6 L 372.6 617.0 L 371.9 617.0 L 371.9 611.9 " fill="#FF7F00"/>
<path class="atom-8" d="M 388.6 630.5 Q 388.6 630.6, 388.9 630.7 Q 389.1 630.8, 389.4 630.8 Q 389.7 630.9, 389.9 630.9 Q 390.4 630.9, 390.7 630.6 Q 391.0 630.4, 391.0 630.0 Q 391.0 629.7, 390.8 629.5 Q 390.7 629.4, 390.5 629.3 Q 390.3 629.2, 389.9 629.1 Q 389.4 628.9, 389.1 628.8 Q 388.9 628.6, 388.7 628.4 Q 388.5 628.1, 388.5 627.6 Q 388.5 627.0, 388.9 626.6 Q 389.4 626.2, 390.3 626.2 Q 390.9 626.2, 391.5 626.5 L 391.4 627.0 Q 390.7 626.8, 390.3 626.8 Q 389.8 626.8, 389.5 627.0 Q 389.2 627.2, 389.2 627.5 Q 389.2 627.8, 389.4 628.0 Q 389.5 628.2, 389.7 628.2 Q 389.9 628.3, 390.3 628.5 Q 390.7 628.6, 391.0 628.7 Q 391.3 628.9, 391.5 629.2 Q 391.7 629.5, 391.7 630.0 Q 391.7 630.7, 391.2 631.1 Q 390.7 631.5, 389.9 631.5 Q 389.5 631.5, 389.1 631.4 Q 388.8 631.3, 388.4 631.1 L 388.6 630.5 " fill="#CCCC00"/>
<path class="atom-9" d="M 404.4 616.5 L 406.1 619.2 Q 406.3 619.5, 406.6 620.0 Q 406.8 620.5, 406.8 620.5 L 406.8 616.5 L 407.5 616.5 L 407.5 621.6 L 406.8 621.6 L 405.0 618.6 Q 404.8 618.3, 404.6 617.9 Q 404.3 617.5, 404.3 617.4 L 404.3 621.6 L 403.6 621.6 L 403.6 616.5 L 404.4 616.5 " fill="#0000FF"/>
<path class="atom-9" d="M 408.0 617.4 L 408.9 617.4 L 408.9 616.4 L 409.3 616.4 L 409.3 617.4 L 410.2 617.4 L 410.2 617.7 L 409.3 617.7 L 409.3 618.7 L 408.9 618.7 L 408.9 617.7 L 408.0 617.7 L 408.0 617.4 " fill="#0000FF"/>
<path class="atom-10" d="M 390.3 644.4 L 391.0 644.4 L 391.0 649.6 L 390.3 649.6 L 390.3 644.4 " fill="#A01EEF"/>
<path d="M 310.9,620.7 L 310.9,620.7 L 310.9,620.6 L 310.9,620.6 L 310.9,620.6 L 310.9,620.5 L 310.8,620.5 L 310.8,620.5 L 310.8,620.5 L 310.8,620.4 L 310.8,620.4 L 310.7,620.4 L 310.7,620.4 L 310.7,620.4 L 310.7,620.4 L 310.6,620.3 L 310.6,620.3 L 310.6,620.3 L 310.5,620.3 L 310.5,620.3 L 310.5,620.3 L 310.4,620.3 L 310.4,620.4 L 310.4,620.4 L 310.4,620.4 L 310.3,620.4 L 310.3,620.4 L 310.3,620.4 L 310.3,620.5 L 310.2,620.5 L 310.2,620.5 L 310.2,620.5 L 310.2,620.6 L 310.2,620.6 L 310.2,620.6 L 310.2,620.7 L 310.2,620.7 L 310.2,620.7 L 310.2,620.7 L 310.2,620.8 L 310.2,620.8 L 310.2,620.8 L 310.2,620.9 L 310.2,620.9 L 310.2,620.9 L 310.3,620.9 L 310.3,621.0 L 310.3,621.0 L 310.3,621.0 L 310.4,621.0 L 310.4,621.0 L 310.4,621.0 L 310.4,621.1 L 310.5,621.1 L 310.5,621.1 L 310.5,621.1 L 310.6,621.1 L 310.6,621.1 L 310.6,621.1 L 310.7,621.0 L 310.7,621.0 L 310.7,621.0 L 310.7,621.0 L 310.8,621.0 L 310.8,621.0 L 310.8,620.9 L 310.8,620.9 L 310.8,620.9 L 310.9,620.9 L 310.9,620.8 L 310.9,620.8 L 310.9,620.8 L 310.9,620.7 L 310.9,620.7 L 310.5,620.7 Z" style="fill:#000000;fill-rule:evenodd;fill-opacity:1;stroke:#000000;stroke-width:0.0px;stroke-linecap:butt;stroke-linejoin:miter;stroke-opacity:1;"/>
<path d="M 327.8,634.1 L 327.8,634.1 L 327.8,634.0 L 327.8,634.0 L 327.8,634.0 L 327.7,633.9 L 327.7,633.9 L 327.7,633.9 L 327.7,633.9 L 327.7,633.8 L 327.7,633.8 L 327.6,633.8 L 327.6,633.8 L 327.6,633.8 L 327.5,633.7 L 327.5,633.7 L 327.5,633.7 L 327.5,633.7 L 327.4,633.7 L 327.4,633.7 L 327.4,633.7 L 327.3,633.7 L 327.3,633.7 L 327.3,633.7 L 327.2,633.8 L 327.2,633.8 L 327.2,633.8 L 327.2,633.8 L 327.1,633.8 L 327.1,633.9 L 327.1,633.9 L 327.1,633.9 L 327.1,633.9 L 327.1,634.0 L 327.1,634.0 L 327.1,634.0 L 327.0,634.1 L 327.0,634.1 L 327.1,634.1 L 327.1,634.2 L 327.1,634.2 L 327.1,634.2 L 327.1,634.3 L 327.1,634.3 L 327.1,634.3 L 327.1,634.3 L 327.2,634.4 L 327.2,634.4 L 327.2,634.4 L 327.2,634.4 L 327.3,634.4 L 327.3,634.4 L 327.3,634.4 L 327.4,634.4 L 327.4,634.4 L 327.4,634.4 L 327.5,634.4 L 327.5,634.4 L 327.5,634.4 L 327.5,634.4 L 327.6,634.4 L 327.6,634.4 L 327.6,634.4 L 327.7,634.4 L 327.7,634.3 L 327.7,634.3 L 327.7,634.3 L 327.7,634.3 L 327.7,634.2 L 327.8,634.2 L 327.8,634.2 L 327.8,634.1 L 327.8,634.1 L 327.8,634.1 L 327.4,634.1 Z" style="fill:#000000;fill-rule:evenodd;fill-opacity:1;stroke:#000000;stroke-width:0.0px;stroke-linecap:butt;stroke-linejoin:miter;stroke-opacity:1;"/>
<path d="M 326.3,634.1 L 326.3,634.1 L 326.3,634.0 L 326.3,634.0 L 326.3,634.0 L 326.3,633.9 L 326.3,633.9 L 326.3,633.9 L 326.2,633.9 L 326.2,633.8 L 326.2,633.8 L 326.2,633.8 L 326.1,633.8 L 326.1,633.8 L 326.1,633.7 L 326.1,633.7 L 326.0,633.7 L 326.0,633.7 L 326.0,633.7 L 325.9,633.7 L 325.9,633.7 L 325.9,633.7 L 325.8,633.7 L 325.8,633.7 L 325.8,633.8 L 325.7,633.8 L 325.7,633.8 L 325.7,633.8 L 325.7,633.8 L 325.7,633.9 L 325.6,633.9 L 325.6,633.9 L 325.6,633.9 L 325.6,634.0 L 325.6,634.0 L 325.6,634.0 L 325.6,634.1 L 325.6,634.1 L 325.6,634.1 L 325.6,634.2 L 325.6,634.2 L 325.6,634.2 L 325.6,634.3 L 325.6,634.3 L 325.7,634.3 L 325.7,634.3 L 325.7,634.4 L 325.7,634.4 L 325.7,634.4 L 325.8,634.4 L 325.8,634.4 L 325.8,634.4 L 325.9,634.4 L 325.9,634.4 L 325.9,634.4 L 326.0,634.4 L 326.0,634.4 L 326.0,634.4 L 326.1,634.4 L 326.1,634.4 L 326.1,634.4 L 326.1,634.4 L 326.2,634.4 L 326.2,634.4 L 326.2,634.3 L 326.2,634.3 L 326.3,634.3 L 326.3,634.3 L 326.3,634.2 L 326.3,634.2 L 326.3,634.2 L 326.3,634.1 L 326.3,634.1 L 326.3,634.1 L 326.0,634.1 Z" style="fill:#000000;fill-rule:evenodd;fill-opacity:1;stroke:#000000;stroke-width:0.0px;stroke-linecap:butt;stroke-linejoin:miter;stroke-opacity:1;"/>
<path d="M 343.3,618.1 L 343.3,618.1 L 343.3,618.0 L 343.3,618.0 L 343.3,618.0 L 343.3,617.9 L 343.3,617.9 L 343.2,617.9 L 343.2,617.8 L 343.2,617.8 L 343.2,617.8 L 343.2,617.8 L 343.1,617.8 L 343.1,617.8 L 343.1,617.7 L 343.0,617.7 L 343.0,617.7 L 343.0,617.7 L 342.9,617.7 L 342.9,617.7 L 342.9,617.7 L 342.9,617.7 L 342.8,617.7 L 342.8,617.7 L 342.8,617.8 L 342.7,617.8 L 342.7,617.8 L 342.7,617.8 L 342.7,617.8 L 342.6,617.9 L 342.6,617.9 L 342.6,617.9 L 342.6,617.9 L 342.6,618.0 L 342.6,618.0 L 342.6,618.0 L 342.6,618.1 L 342.6,618.1 L 342.6,618.1 L 342.6,618.2 L 342.6,618.2 L 342.6,618.2 L 342.6,618.2 L 342.6,618.3 L 342.6,618.3 L 342.7,618.3 L 342.7,618.3 L 342.7,618.4 L 342.7,618.4 L 342.8,618.4 L 342.8,618.4 L 342.8,618.4 L 342.9,618.4 L 342.9,618.4 L 342.9,618.4 L 342.9,618.4 L 343.0,618.4 L 343.0,618.4 L 343.0,618.4 L 343.1,618.4 L 343.1,618.4 L 343.1,618.4 L 343.2,618.4 L 343.2,618.4 L 343.2,618.3 L 343.2,618.3 L 343.2,618.3 L 343.3,618.3 L 343.3,618.2 L 343.3,618.2 L 343.3,618.2 L 343.3,618.1 L 343.3,618.1 L 343.3,618.1 L 342.9,618.1 Z" style="fill:#000000;fill-rule:evenodd;fill-opacity:1;stroke:#000000;stroke-width:0.0px;stroke-linecap:butt;stroke-linejoin:miter;stroke-opacity:1;"/>
<path d="M 341.8,618.1 L 341.8,618.1 L 341.8,618.0 L 341.8,618.0 L 341.8,618.0 L 341.8,617.9 L 341.8,617.9 L 341.8,617.9 L 341.8,617.8 L 341.7,617.8 L 341.7,617.8 L 341.7,617.8 L 341.7,617.8 L 341.6,617.8 L 341.6,617.7 L 341.6,617.7 L 341.5,617.7 L 341.5,617.7 L 341.5,617.7 L 341.5,617.7 L 341.4,617.7 L 341.4,617.7 L 341.4,617.7 L 341.3,617.7 L 341.3,617.8 L 341.3,617.8 L 341.2,617.8 L 341.2,617.8 L 341.2,617.8 L 341.2,617.9 L 341.2,617.9 L 341.1,617.9 L 341.1,617.9 L 341.1,618.0 L 341.1,618.0 L 341.1,618.0 L 341.1,618.1 L 341.1,618.1 L 341.1,618.1 L 341.1,618.2 L 341.1,618.2 L 341.1,618.2 L 341.1,618.2 L 341.2,618.3 L 341.2,618.3 L 341.2,618.3 L 341.2,618.3 L 341.2,618.4 L 341.3,618.4 L 341.3,618.4 L 341.3,618.4 L 341.4,618.4 L 341.4,618.4 L 341.4,618.4 L 341.5,618.4 L 341.5,618.4 L 341.5,618.4 L 341.5,618.4 L 341.6,618.4 L 341.6,618.4 L 341.6,618.4 L 341.7,618.4 L 341.7,618.4 L 341.7,618.4 L 341.7,618.3 L 341.8,618.3 L 341.8,618.3 L 341.8,618.3 L 341.8,618.2 L 341.8,618.2 L 341.8,618.2 L 341.8,618.1 L 341.8,618.1 L 341.8,618.1 L 341.5,618.1 Z" style="fill:#000000;fill-rule:evenodd;fill-opacity:1;stroke:#000000;stroke-width:0.0px;stroke-linecap:butt;stroke-linejoin:miter;stroke-opacity:1;"/>
<path d="M 358.7,638.7 L 358.7,638.7 L 358.7,638.6 L 358.7,638.6 L 358.7,638.6 L 358.7,638.5 L 358.7,638.5 L 358.7,638.5 L 358.6,638.5 L 358.6,638.4 L 358.6,638.4 L 358.6,638.4 L 358.5,638.4 L 358.5,638.4 L 358.5,638.3 L 358.5,638.3 L 358.4,638.3 L 358.4,638.3 L 358.4,638.3 L 358.3,638.3 L 358.3,638.3 L 358.3,638.3 L 358.2,638.3 L 358.2,638.4 L 358.2,638.4 L 358.2,638.4 L 358.1,638.4 L 358.1,638.4 L 358.1,638.4 L 358.1,638.5 L 358.1,638.5 L 358.0,638.5 L 358.0,638.6 L 358.0,638.6 L 358.0,638.6 L 358.0,638.6 L 358.0,638.7 L 358.0,638.7 L 358.0,638.7 L 358.0,638.8 L 358.0,638.8 L 358.0,638.8 L 358.0,638.9 L 358.1,638.9 L 358.1,638.9 L 358.1,638.9 L 358.1,639.0 L 358.1,639.0 L 358.2,639.0 L 358.2,639.0 L 358.2,639.0 L 358.2,639.0 L 358.3,639.0 L 358.3,639.1 L 358.3,639.1 L 358.4,639.1 L 358.4,639.1 L 358.4,639.0 L 358.5,639.0 L 358.5,639.0 L 358.5,639.0 L 358.5,639.0 L 358.6,639.0 L 358.6,639.0 L 358.6,638.9 L 358.6,638.9 L 358.7,638.9 L 358.7,638.9 L 358.7,638.8 L 358.7,638.8 L 358.7,638.8 L 358.7,638.8 L 358.7,638.7 L 358.7,638.7 L 358.4,638.7 Z" style="fill:#000000;fill-rule:evenodd;fill-opacity:1;stroke:#000000;stroke-width:0.0px;stroke-linecap:butt;stroke-linejoin:miter;stroke-opacity:1;"/>
<path d="M 374.3,611.3 L 374.3,611.3 L 374.2,611.2 L 374.2,611.2 L 374.2,611.2 L 374.2,611.2 L 374.2,611.1 L 374.2,611.1 L 374.2,611.1 L 374.1,611.1 L 374.1,611.0 L 374.1,611.0 L 374.1,611.0 L 374.0,611.0 L 374.0,611.0 L 374.0,611.0 L 374.0,611.0 L 373.9,610.9 L 373.9,610.9 L 373.9,610.9 L 373.8,610.9 L 373.8,611.0 L 373.8,611.0 L 373.7,611.0 L 373.7,611.0 L 373.7,611.0 L 373.7,611.0 L 373.6,611.0 L 373.6,611.1 L 373.6,611.1 L 373.6,611.1 L 373.6,611.1 L 373.5,611.2 L 373.5,611.2 L 373.5,611.2 L 373.5,611.3 L 373.5,611.3 L 373.5,611.3 L 373.5,611.4 L 373.5,611.4 L 373.5,611.4 L 373.5,611.4 L 373.6,611.5 L 373.6,611.5 L 373.6,611.5 L 373.6,611.6 L 373.6,611.6 L 373.7,611.6 L 373.7,611.6 L 373.7,611.6 L 373.7,611.6 L 373.8,611.7 L 373.8,611.7 L 373.8,611.7 L 373.9,611.7 L 373.9,611.7 L 373.9,611.7 L 374.0,611.7 L 374.0,611.7 L 374.0,611.7 L 374.0,611.6 L 374.1,611.6 L 374.1,611.6 L 374.1,611.6 L 374.1,611.6 L 374.2,611.5 L 374.2,611.5 L 374.2,611.5 L 374.2,611.5 L 374.2,611.4 L 374.2,611.4 L 374.2,611.4 L 374.3,611.3 L 374.3,611.3 L 373.9,611.3 Z" style="fill:#000000;fill-rule:evenodd;fill-opacity:1;stroke:#000000;stroke-width:0.0px;stroke-linecap:butt;stroke-linejoin:miter;stroke-opacity:1;"/>
<path d="M 411.7,619.1 L 411.7,619.0 L 411.7,619.0 L 411.7,619.0 L 411.7,618.9 L 411.7,618.9 L 411.6,618.9 L 411.6,618.8 L 411.6,618.8 L 411.6,618.8 L 411.6,618.8 L 411.5,618.8 L 411.5,618.7 L 411.5,618.7 L 411.5,618.7 L 411.4,618.7 L 411.4,618.7 L 411.4,618.7 L 411.3,618.7 L 411.3,618.7 L 411.3,618.7 L 411.2,618.7 L 411.2,618.7 L 411.2,618.7 L 411.1,618.7 L 411.1,618.8 L 411.1,618.8 L 411.1,618.8 L 411.0,618.8 L 411.0,618.8 L 411.0,618.9 L 411.0,618.9 L 411.0,618.9 L 411.0,618.9 L 411.0,619.0 L 411.0,619.0 L 411.0,619.0 L 411.0,619.1 L 411.0,619.1 L 411.0,619.1 L 411.0,619.2 L 411.0,619.2 L 411.0,619.2 L 411.0,619.3 L 411.0,619.3 L 411.0,619.3 L 411.1,619.3 L 411.1,619.3 L 411.1,619.4 L 411.1,619.4 L 411.2,619.4 L 411.2,619.4 L 411.2,619.4 L 411.3,619.4 L 411.3,619.4 L 411.3,619.4 L 411.4,619.4 L 411.4,619.4 L 411.4,619.4 L 411.5,619.4 L 411.5,619.4 L 411.5,619.4 L 411.5,619.4 L 411.6,619.3 L 411.6,619.3 L 411.6,619.3 L 411.6,619.3 L 411.6,619.2 L 411.7,619.2 L 411.7,619.2 L 411.7,619.2 L 411.7,619.1 L 411.7,619.1 L 411.7,619.1 L 411.3,619.1 Z" style="fill:#000000;fill-rule:evenodd;fill-opacity:1;stroke:#000000;stroke-width:0.0px;stroke-linecap:butt;stroke-linejoin:miter;stroke-opacity:1;"/>
<path d="M 411.7,620.5 L 411.7,620.5 L 411.7,620.5 L 411.7,620.4 L 411.7,620.4 L 411.7,620.4 L 411.6,620.3 L 411.6,620.3 L 411.6,620.3 L 411.6,620.3 L 411.6,620.2 L 411.5,620.2 L 411.5,620.2 L 411.5,620.2 L 411.5,620.2 L 411.4,620.2 L 411.4,620.2 L 411.4,620.2 L 411.3,620.2 L 411.3,620.2 L 411.3,620.2 L 411.2,620.2 L 411.2,620.2 L 411.2,620.2 L 411.1,620.2 L 411.1,620.2 L 411.1,620.2 L 411.1,620.3 L 411.0,620.3 L 411.0,620.3 L 411.0,620.3 L 411.0,620.4 L 411.0,620.4 L 411.0,620.4 L 411.0,620.4 L 411.0,620.5 L 411.0,620.5 L 411.0,620.5 L 411.0,620.6 L 411.0,620.6 L 411.0,620.6 L 411.0,620.7 L 411.0,620.7 L 411.0,620.7 L 411.0,620.7 L 411.0,620.8 L 411.1,620.8 L 411.1,620.8 L 411.1,620.8 L 411.1,620.8 L 411.2,620.9 L 411.2,620.9 L 411.2,620.9 L 411.3,620.9 L 411.3,620.9 L 411.3,620.9 L 411.4,620.9 L 411.4,620.9 L 411.4,620.9 L 411.5,620.9 L 411.5,620.9 L 411.5,620.8 L 411.5,620.8 L 411.6,620.8 L 411.6,620.8 L 411.6,620.8 L 411.6,620.7 L 411.6,620.7 L 411.7,620.7 L 411.7,620.6 L 411.7,620.6 L 411.7,620.6 L 411.7,620.6 L 411.7,620.5 L 411.3,620.5 Z" style="fill:#000000;fill-rule:evenodd;fill-opacity:1;stroke:#000000;stroke-width:0.0px;stroke-linecap:butt;stroke-linejoin:miter;stroke-opacity:1;"/>
<path d="M 411.7,617.6 L 411.7,617.6 L 411.7,617.5 L 411.7,617.5 L 411.7,617.5 L 411.7,617.4 L 411.6,617.4 L 411.6,617.4 L 411.6,617.4 L 411.6,617.3 L 411.6,617.3 L 411.5,617.3 L 411.5,617.3 L 411.5,617.3 L 411.5,617.3 L 411.4,617.2 L 411.4,617.2 L 411.4,617.2 L 411.3,617.2 L 411.3,617.2 L 411.3,617.2 L 411.2,617.2 L 411.2,617.2 L 411.2,617.3 L 411.1,617.3 L 411.1,617.3 L 411.1,617.3 L 411.1,617.3 L 411.0,617.3 L 411.0,617.4 L 411.0,617.4 L 411.0,617.4 L 411.0,617.5 L 411.0,617.5 L 411.0,617.5 L 411.0,617.5 L 411.0,617.6 L 411.0,617.6 L 411.0,617.6 L 411.0,617.7 L 411.0,617.7 L 411.0,617.7 L 411.0,617.8 L 411.0,617.8 L 411.0,617.8 L 411.0,617.8 L 411.1,617.9 L 411.1,617.9 L 411.1,617.9 L 411.1,617.9 L 411.2,617.9 L 411.2,617.9 L 411.2,617.9 L 411.3,618.0 L 411.3,618.0 L 411.3,618.0 L 411.4,618.0 L 411.4,618.0 L 411.4,617.9 L 411.5,617.9 L 411.5,617.9 L 411.5,617.9 L 411.5,617.9 L 411.6,617.9 L 411.6,617.8 L 411.6,617.8 L 411.6,617.8 L 411.6,617.8 L 411.7,617.7 L 411.7,617.7 L 411.7,617.7 L 411.7,617.7 L 411.7,617.6 L 411.7,617.6 L 411.3,617.6 Z" style="fill:#000000;fill-rule:evenodd;fill-opacity:1;stroke:#000000;stroke-width:0.0px;stroke-linecap:butt;stroke-linejoin:miter;stroke-opacity:1;"/>
<path d="M 411.7,619.1 L 411.7,619.0 L 411.7,619.0 L 411.7,619.0 L 411.7,618.9 L 411.7,618.9 L 411.6,618.9 L 411.6,618.8 L 411.6,618.8 L 411.6,618.8 L 411.6,618.8 L 411.5,618.8 L 411.5,618.7 L 411.5,618.7 L 411.5,618.7 L 411.4,618.7 L 411.4,618.7 L 411.4,618.7 L 411.3,618.7 L 411.3,618.7 L 411.3,618.7 L 411.2,618.7 L 411.2,618.7 L 411.2,618.7 L 411.1,618.7 L 411.1,618.8 L 411.1,618.8 L 411.1,618.8 L 411.0,618.8 L 411.0,618.8 L 411.0,618.9 L 411.0,618.9 L 411.0,618.9 L 411.0,618.9 L 411.0,619.0 L 411.0,619.0 L 411.0,619.0 L 411.0,619.1 L 411.0,619.1 L 411.0,619.1 L 411.0,619.2 L 411.0,619.2 L 411.0,619.2 L 411.0,619.3 L 411.0,619.3 L 411.0,619.3 L 411.1,619.3 L 411.1,619.3 L 411.1,619.4 L 411.1,619.4 L 411.2,619.4 L 411.2,619.4 L 411.2,619.4 L 411.3,619.4 L 411.3,619.4 L 411.3,619.4 L 411.4,619.4 L 411.4,619.4 L 411.4,619.4 L 411.5,619.4 L 411.5,619.4 L 411.5,619.4 L 411.5,619.4 L 411.6,619.3 L 411.6,619.3 L 411.6,619.3 L 411.6,619.3 L 411.6,619.2 L 411.7,619.2 L 411.7,619.2 L 411.7,619.2 L 411.7,619.1 L 411.7,619.1 L 411.7,619.1 L 411.3,619.1 Z" style="fill:#000000;fill-rule:evenodd;fill-opacity:1;stroke:#000000;stroke-width:0.0px;stroke-linecap:butt;stroke-linejoin:miter;stroke-opacity:1;"/>
<path class="bond-0 atom-0 atom-1" d="M 576.1,629.7 L 581.8,626.4" style="fill:none;fill-rule:evenodd;stroke:#0000FF;stroke-width:2.0px;stroke-linecap:butt;stroke-linejoin:miter;stroke-opacity:1"/>
<path class="bond-0 atom-0 atom-1" d="M 581.8,626.4 L 587.5,623.1" style="fill:none;fill-rule:evenodd;stroke:#CCCC00;stroke-width:2.0px;stroke-linecap:butt;stroke-linejoin:miter;stroke-opacity:1"/>
<path class="bond-1 atom-1 atom-2" d="M 591.7,623.1 L 598.2,626.9" style="fill:none;fill-rule:evenodd;stroke:#CCCC00;stroke-width:2.0px;stroke-linecap:butt;stroke-linejoin:miter;stroke-opacity:1"/>
<path class="bond-1 atom-1 atom-2" d="M 598.2,626.9 L 604.7,630.6" style="fill:none;fill-rule:evenodd;stroke:#A01EEF;stroke-width:2.0px;stroke-linecap:butt;stroke-linejoin:miter;stroke-opacity:1"/>
<path class="atom-0" d="M 567.1 628.5 L 567.8 628.5 L 567.8 630.7 L 570.4 630.7 L 570.4 628.5 L 571.1 628.5 L 571.1 633.6 L 570.4 633.6 L 570.4 631.2 L 567.8 631.2 L 567.8 633.6 L 567.1 633.6 L 567.1 628.5 " fill="#0000FF"/>
<path class="atom-0" d="M 572.6 628.5 L 574.3 631.2 Q 574.4 631.5, 574.7 632.0 Q 575.0 632.5, 575.0 632.5 L 575.0 628.5 L 575.7 628.5 L 575.7 633.6 L 575.0 633.6 L 573.1 630.6 Q 572.9 630.3, 572.7 629.9 Q 572.5 629.5, 572.4 629.4 L 572.4 633.6 L 571.7 633.6 L 571.7 628.5 L 572.6 628.5 " fill="#0000FF"/>
<path class="atom-1" d="M 588.1 623.7 Q 588.2 623.7, 588.4 623.8 Q 588.6 623.9, 588.9 624.0 Q 589.2 624.0, 589.4 624.0 Q 589.9 624.0, 590.2 623.8 Q 590.5 623.6, 590.5 623.1 Q 590.5 622.9, 590.3 622.7 Q 590.2 622.5, 590.0 622.4 Q 589.8 622.3, 589.4 622.2 Q 588.9 622.1, 588.7 621.9 Q 588.4 621.8, 588.2 621.5 Q 588.0 621.2, 588.0 620.8 Q 588.0 620.1, 588.4 619.7 Q 588.9 619.3, 589.8 619.3 Q 590.4 619.3, 591.0 619.6 L 590.9 620.2 Q 590.3 619.9, 589.8 619.9 Q 589.3 619.9, 589.0 620.1 Q 588.7 620.3, 588.7 620.7 Q 588.7 621.0, 588.9 621.1 Q 589.0 621.3, 589.2 621.4 Q 589.4 621.5, 589.8 621.6 Q 590.3 621.7, 590.5 621.9 Q 590.8 622.0, 591.0 622.3 Q 591.2 622.6, 591.2 623.1 Q 591.2 623.9, 590.7 624.2 Q 590.3 624.6, 589.5 624.6 Q 589.0 624.6, 588.6 624.5 Q 588.3 624.4, 587.9 624.3 L 588.1 623.7 " fill="#CCCC00"/>
<path class="atom-1" d="M 591.7 620.2 L 592.6 620.2 L 592.6 619.2 L 593.0 619.2 L 593.0 620.2 L 593.9 620.2 L 593.9 620.5 L 593.0 620.5 L 593.0 621.5 L 592.6 621.5 L 592.6 620.5 L 591.7 620.5 L 591.7 620.2 " fill="#CCCC00"/>
<path class="atom-2" d="M 605.1 628.4 L 605.8 628.4 L 605.8 633.7 L 605.1 633.7 L 605.1 628.4 " fill="#A01EEF"/>
<path d="M 566.3,631.1 L 566.3,631.0 L 566.3,631.0 L 566.3,631.0 L 566.3,630.9 L 566.3,630.9 L 566.3,630.9 L 566.3,630.8 L 566.3,630.8 L 566.2,630.8 L 566.2,630.8 L 566.2,630.8 L 566.2,630.7 L 566.1,630.7 L 566.1,630.7 L 566.1,630.7 L 566.1,630.7 L 566.0,630.7 L 566.0,630.7 L 566.0,630.7 L 565.9,630.7 L 565.9,630.7 L 565.9,630.7 L 565.8,630.7 L 565.8,630.7 L 565.8,630.7 L 565.8,630.8 L 565.7,630.8 L 565.7,630.8 L 565.7,630.8 L 565.7,630.9 L 565.7,630.9 L 565.6,630.9 L 565.6,630.9 L 565.6,631.0 L 565.6,631.0 L 565.6,631.0 L 565.6,631.1 L 565.6,631.1 L 565.6,631.1 L 565.6,631.2 L 565.6,631.2 L 565.7,631.2 L 565.7,631.2 L 565.7,631.3 L 565.7,631.3 L 565.7,631.3 L 565.8,631.3 L 565.8,631.4 L 565.8,631.4 L 565.8,631.4 L 565.9,631.4 L 565.9,631.4 L 565.9,631.4 L 566.0,631.4 L 566.0,631.4 L 566.0,631.4 L 566.1,631.4 L 566.1,631.4 L 566.1,631.4 L 566.1,631.4 L 566.2,631.4 L 566.2,631.3 L 566.2,631.3 L 566.2,631.3 L 566.3,631.3 L 566.3,631.3 L 566.3,631.2 L 566.3,631.2 L 566.3,631.2 L 566.3,631.1 L 566.3,631.1 L 566.3,631.1 L 566.3,631.1 L 566.0,631.1 Z" style="fill:#000000;fill-rule:evenodd;fill-opacity:1;stroke:#000000;stroke-width:0.0px;stroke-linecap:butt;stroke-linejoin:miter;stroke-opacity:1;"/>
<path d="M 589.9,618.7 L 589.9,618.6 L 589.9,618.6 L 589.9,618.6 L 589.9,618.5 L 589.9,618.5 L 589.9,618.5 L 589.9,618.5 L 589.8,618.4 L 589.8,618.4 L 589.8,618.4 L 589.8,618.4 L 589.7,618.3 L 589.7,618.3 L 589.7,618.3 L 589.7,618.3 L 589.6,618.3 L 589.6,618.3 L 589.6,618.3 L 589.5,618.3 L 589.5,618.3 L 589.5,618.3 L 589.4,618.3 L 589.4,618.3 L 589.4,618.3 L 589.4,618.4 L 589.3,618.4 L 589.3,618.4 L 589.3,618.4 L 589.3,618.4 L 589.2,618.5 L 589.2,618.5 L 589.2,618.5 L 589.2,618.6 L 589.2,618.6 L 589.2,618.6 L 589.2,618.6 L 589.2,618.7 L 589.2,618.7 L 589.2,618.7 L 589.2,618.8 L 589.2,618.8 L 589.2,618.8 L 589.2,618.9 L 589.3,618.9 L 589.3,618.9 L 589.3,618.9 L 589.3,619.0 L 589.4,619.0 L 589.4,619.0 L 589.4,619.0 L 589.4,619.0 L 589.5,619.0 L 589.5,619.0 L 589.5,619.0 L 589.6,619.0 L 589.6,619.0 L 589.6,619.0 L 589.7,619.0 L 589.7,619.0 L 589.7,619.0 L 589.7,619.0 L 589.8,619.0 L 589.8,618.9 L 589.8,618.9 L 589.8,618.9 L 589.9,618.9 L 589.9,618.8 L 589.9,618.8 L 589.9,618.8 L 589.9,618.8 L 589.9,618.7 L 589.9,618.7 L 589.9,618.7 L 589.6,618.7 Z" style="fill:#000000;fill-rule:evenodd;fill-opacity:1;stroke:#000000;stroke-width:0.0px;stroke-linecap:butt;stroke-linejoin:miter;stroke-opacity:1;"/>
</svg>